<mxfile host="app.diagrams.net" agent="Mozilla/5.0 (Windows NT 10.0; Win64; x64) AppleWebKit/537.36 (KHTML, like Gecko) Chrome/132.0.0.0 Safari/537.36 Edg/132.0.0.0" version="26.0.11">
  <diagram name="Page-1" id="9vcu9Iq3lWNv-c7Y6G9O">
    <mxGraphModel dx="3520" dy="2888" grid="1" gridSize="10" guides="1" tooltips="1" connect="1" arrows="1" fold="1" page="1" pageScale="1" pageWidth="850" pageHeight="1100" math="0" shadow="0">
      <root>
        <mxCell id="0" />
        <mxCell id="1" parent="0" />
        <mxCell id="3iJmIZL19EilmDOqkI2_-4" value="" style="shape=image;verticalLabelPosition=bottom;labelBackgroundColor=default;verticalAlign=top;aspect=fixed;imageAspect=0;image=data:image/png,iVBORw0KGgoAAAANSUhEUgAAEAAAAALgCAIAAACbxCUlAAAAKnRFWHRjb3B5bGVmdABHZW5lcmF0ZWQgYnkgaHR0cHM6Ly9wbGFudHVtbC5jb212zsofAAADqmlUWHRwbGFudHVtbAABAAAAeJx1Vd9v2zgMfvdfQewpAdJhHXrDkKflR5M1Fy9Z7WYDDvcgK0yiqyIZlJzOO+x/P8pJGjvz5aWuSJEfP5KfPjkvyBd7HeVCPostwpuZOAgY4wG1zZHewL8R8O/VPLKEEHzOlvD7ayy8gLTM0fVgJUiJTIdPYdaw4CjCW3J/X9xH1niyGibavkDihcc9Gl/3GBCJ0lUBEk/KbJvXtUbplTUOJiT2+GLpuWa//yExD2b4zAE03z4afzVLWWT/cJSbBSlOjmtYkt1ytD37Q2exWHYbJY60cA6PkI4365AezA5JeWEk9mBpdbm3lO+U2/fg3kiRu0KLgKgHg8x5EhX6xn2PtBHylODsBKesrfirTr3W7xpok5yqMk5/h9b6Hpz+iVej1+8EZcG4y24Ny2eVIRluCrPwGPdgthx0WwGErmfCIcTC8EHoYRPE1zl8LZgXrFM1Gw9HzVkwx2Yyb/bSrMqYkjDuSFY7B98wgxTlzlhtt5ynmR/poNEfKZ0ly3qNaTzvwShJetUwJ5JU7uvzNxt8Z1Oy+NKadlgovYaU8TYzxuKA9bZOSaw1toZYIblQ9GkXGmGmykNnyLXLHfPRgxhpW308IvPNX+39eDJ8L0Xn2aMRbxYsNVixlc/K29Ygj/dJuik0DJYPzdrG6NSWm8RzI1Wu8WqhXVEtTqB6RCgChipGa5JYSbKO26PCxA+I6/Q8BAXhbw1kDxgrJ+0Bqax3aPkAUx7SF1E/HSmSBbMwZAjPSK3JGSwPPaGRZQU3LrRXfsc31tfEpdUpzNUGZSnPnTxiK7k7ZI36Ka52+f4HLxUr3rU2XW/PiU/hefVNk+sjg9YIzSvMoHiKg3ZMeBUsNZaV1bEIxAXPwVrkHKvH8i1tJbp1zyHuxEHZynORBfKDK99nErfl/2w4ZsV2e+4rC+RG6d84ClsAndlKuULoVSUYlSNSe9Cz5sCQR5WDhv2WV6s7KPyO5UTJioajJvKRpRa6jaQyvxxeZVuyrlraB2WGtDDX6KeCsuB3eVPqe4Is42VN3s4ZfkWf0KzDuxkttTD+KZ7D4bTQt2/fv3t/9/ZjZ0IKvtgD3P4Bt+/6d3f9uw8QJykEczfqTJdzcLYgxrVWLPcqK0L6blTp+mPB1e+xH95PMxv/eT7g5+SgeOwCmmi2ii8OH+5uhjz5SdVYWMXRGDeCRzs8QDZMdh+e0snNx2guzLbggvqAJhpZjktlH0yhdfQf4l5qNsM0890AAIAASURBVHhe7N15+B7T/fj/d0QWEmLfIhpCUHuQUEsoVaWNLYSggqq4EKFKLq09BLFrtaUNqsSSfKUSW5oiRCyJEFXRIPY9ErcKlUjmd37v88mYnDnn3HNmzj33zH0/H3/ket+znNle53XOmXvmTksAAAAAAAAAAAAAAAAAAAAAAAAKr0WdAAAAAAAAAAAAAAAAAAAAAAAAiocXAAAAAAAAAAAAAAAAAAAAAAAAKAFeAAAAAAAAAAAAAAAAAAAAAAAAoAR4AQAAAAAAAAAAAAAAAAAAAAAAgBLQvwDw9ttvP4ZcTJ069dtvv1UvAAAAAAAAAAAAAAAAAAAAAAAAy9K8ADB8+PC2bdu2IC/du3efNm2aehkAAAAAAAAAAAAAAAAAAAAAAIhQXwD46KOP2rZte9RRR6m/VI/aGDt2bI8ePTbccEP+HwAAAAAAAAAAAAAAAAAAAAAAgIX6AsCUKVNaWlomTZqkTEft3H///eKcP/DAA+oMAAAAAAAAAAAAAAAAAAAAAACWUl8AeOyxx1paWsS/ynTUzsKFC9dYY40jjzxSnQEAAAAAAAAAAAAAAAAAAAAAwFLVXwCYPXv2tGnTXnzxxe8WqjG5RWHGjBmzZs2aP3++ukRtDBs27Mgjj/zTn/6kzqi9wYMHd+7cecGCBeoMAAAAAAAAAAAAAAAAAAAAAABaVX8B4Mc//rGYsvrqq3+3UI3JLUZtsskm119//ZIlS9RFvdpiiy3Eto455hh1Ru1NnjxZbHr06NHqDAAAAAAAAAAAAAAAAAAAAAAAWhX3BYDll1++T58+3bt3X2655eRrAAMGDKjpOwB1fAFAHFe3bt369eunzgAAAAAAAAAAAAAAAAAAAAAAoJXzCwCjRo3q37//TjvttOWWW+62227nnHPOvHnz5Kzrr79+wIAB5513XriunPKb3/zGvqJC2eKcOXN23nln+Q7AHXfcES724IMPHnLIIdtss40oc9iwYZ999llQbR9Ma0nxFwDGjx9/0EEHbb311r179z711FPffPNNOf3MM88UZd54441333133759e/XqdcEFFyxcuDBc0bKVcN0xY8aIdffff/9wevv27U3nBAAAAAAAAAAAAAAAAAAAAADQ5JxfANhrr706deq0+eabb7nllvK3+bfffnv5w/z33ntvS+sv93/88cfi48KFC8VaYsrll19uX1ER/z8H3nzzTfkCwH777SenjBgxQk7ZdNNNV111VfFHz54958+fb98H01qyTOUFgIsvvlgu3LFjxzZt2og/VllllZdffjlcct1115XbkoudfPLJ9n2LbmXDDTeUZfbo0UNOnzFjhvh48803y48AAAAAAAAAAAAAAAAAAAAAAEQ5vwDw3HPPffPNN/Lvhx56SD7p/uyzzwatT9uvueaa4uN1110nPo4bN66l9fn4jz76yL6iIv4CgNC1a1cxceONNxZ/f/DBB+3atRMfhw8fLj7Omzdv7bXXFh/PO+88yz5Y1pKbiL4A8P7778sn+wcMGLBo0aI5c+asscYa4qP8wX65ZMeOHZ9//nmxxSOOOEJu5b333ku4FeH8889/8cUXo6d6s80223PPPcOPAAAAAAAAAAAAAAAAAAAAAACEnF8AePbZZ/v379+zZ891111XPhMv3HvvvXLur371K/Fxxx13FH+LxcTfBx98cJIVo7QvAKy22mpi4uabbx4s/a8GhH333XdAK/mQfd++fQPzPtjXCpZ9AeCee+6RCz/55JNy7vHHHy8+durUKVxSvgwgPP3003LhCRMmJNyK3D3FhRde2LZt2/fff1+dAQAAAAAAAAAAAAAAAAAAAABoem4vALz77rsrrbSS+LjVVluddtppv/jFL+TD7qNHj5YLz5o1S0557rnnOnbsKP546KGHkqwYFX8BYMqUKXL5ww8/XHz861//Kj/26NFj04gDDzwwMO+Dfa1g2RcAwoVnzJgh5w4ZMqSl9Wf+wyUPO+wwOWvmzJly4bvvvjvhVo466ij5MWr27Nli1tVXX63OAAAAAAAAAAAAAAAAAAAAAAA0PbcXAMLfxX/rrbfExwkTJsiP0ef4d911VzGlZ8+e4t8NNthg8eLFCVcMRbc4d+7cMWPGrL/++nL5yZMni4nTp0+XH8eNGxeu9fXXX7/99tvyb+0+VF0r+gLAtGnT5MI33HCD+LhkyZIddthBfBTLhEuKkr/55hvx8Xe/+51ceMaMGU5biduxlToVAAAAAAAAAAAAAAAAAAAAAND03F4AmDp1qny6/eCDD7744ovXW289+TH6HP+tt94qJwoXXnihnJhkxZDcotC2bVv5h9CmTZvLL788XGbPPfcUE1ddddWzzjprxIgRxx13nNjDkSNHyrnafai6lvJo/m677SY+duzY8dhjj+3bt68sbdSoUeGSYpe23XbbgQMHdujQQXzs3bt3iq0orr76ajF39uzZ6gwAAAAAAAAAAAAAAAAAAAAAQHOr/gKA/OX7bt26yY9Dhw5t06aNmNKlS5frrrtOPhYffY5/wYIFYpaYuNxyy73zzjvh9KorhsIXAMTyK664Yo8ePY444ogpU6ZEl5k3b95RRx3Vrl27cMltt9124sSJcq5pH+xrKY/mz50799BDDw1fQlh99dWvvfba6JJi7v777y/n9uzZc9asWXKu01YU77//vthi9KUFAAAAAAAAAAAAAAAAAAAAAAAC+wsAs2bNkj9IL/Tr1y9cZu7cuf/617++/vrrcEpCqVc0WbBgwcsvv/zqq69+8cUX6jwzp7UqlcrMmTP/85//fPvtt+HE6EP877zzziuvvLJ48eJwruS0lag999xzs802U6cCAAAAAAAAAAAAAAAAAAAAAJqb7QWAPn36yKf/V1xxxenTpytLNjP7r/hndPPNN4vCZ8yYoc4AAAAAAAAAAAAAAAAAAAAAADQx2wsAgwYN2mOPPYYOHTp79mxlsSbXt2/ftddee8iQIeoMH+bNm9e+ffszzzxTnQEAAAAAAAAAAAAAAAAAAAAAaGK2FwBQL/369evWrduSJUvUGQAAAAAAAAAAAAAAAAAAAACAZsULAEU0evRocRUmT56szgAAAAAAAAAAAAAAAAAAAAAANCteACiiBQsWdO7cefDgweoMAAAAAAAAAAAAAAAAAAAAAECzUl8AGD9+fEtLyzXXXPMY6mrvvffu0qXLhAkT1BkAAAAAAAAAAAAAAAAAAAAAgKakvgBwzTXXtAAAAAAAAAAAAAAAAAAAAAAAgKJRXgCYMGGCmHjttdc+jrqaNGmSuAr8DwAAAAAAAAAAAAAAAAAAAAAAAEl9AeD/n9TSIv5VpgMAAAAAAAAAAAAAAAAAAAAAgDriBQAAAAAAAAAAAAAAAAAAAAAAAEqAFwAAAAAAAAAAAAAAAAAAAAAAACgBXgAAAAAAAAAAAAAAAAAAAAAAAKAEeAEAAAAAAAAAAAAAAAAAAAAAAIAS4AUAAAAAAAAAAAAAAAAAAAAAAABKgBcAAAAAAAAAAAAAAAAAAAAAAAAoAV4AAAAAAAAAAAAAAAAAAAAAAACgBHgBAAAAAAAAAAAAAAAAAAAAAACAEuAFAAAAAAAAAAAAAAAAAAAAAAAASoAXAAAAAAAAAAAAAAAAAAAAAAAAKAFeAAAAAAAAAAAAAAAAAAAAAAAAoAR4AQAAAAAAAAAAAAAAAAAAAAAAgBLgBQAAAAAAAAAAAAAAAAAAAAAAAEqAFwAAAAAAAAAAAAAAAAAAAAAAACgBXgAAAAAAAAAAAAAAAAAAAAAAAKAEeAEAAAAAAAAAAAAAAAAAAAAAAIAS4AUAAAAAAAAAAAAAAAAAAAAAAABKoLYvALz99tuPodE99dRT33zzjXrtAdQYCRYJTZ069dtvv1UDCEBtkJyRXTP3rqlBrpo5WgCUAok9IUZtjY2KUBdUKxQEGSDE4AVRVA0kQd5AvZCjCou0AABIjgYdyAc9tLqr4QsAw4cPb9u2bQuawCqrrDJs2LCvv/5aDQIAtUGChZPu3btPmzZNDSMAvpGc4Utz9q6pQek0Z7QAKAUSuxNGbY2KilBHVCvUHRlAweAFElUDyZE3kD9yVMGRFgAASdCgA3mih1ZftXoB4KOPPhKZ9Kijjoq+8IGGNG7cuCOOOEJc7r322kuNAwA1QIKFk7Fjx/bo0WPDDTfkp++AmiI5w5fm7F1Tg9JpzmgBUAokdieM2hoVFaGOqFaoOzKAgsELJKoGkiNvIH/kqIIjLQAAkqBBB/JED63uavUCwJQpU0Q5kyZNUmegQY0aNUpc8QcffFCdAcA3Eixc3X///SJmHnjgAXUGAH9IzvCr2XrX1KAsmi1aAJQCid0Vo7aGREWoL6oV6osMoMXgBVQNuCJvIE/kqFIgLQAA7GjQgfzRQ6ujWr0A4KsclMXChQvXWGONI488Up0BwDcSLFyRooEckJzhV7OlbmpQFs0WLQBKgcTuimTekKgI9UW1Qn2RAbSomKBqwBV5A3kiR5UCaQEAYEeDDuSPHlod5fcCwOzZs6ct9fzzz3/wwQdLliz5boVUpk+fftZZZx199NEiel5//XV1dqN44YUXwlOn+PDDD9WlXQwbNkycuj/96U/qjFQGDx7cuXPnBQsWqDMAeBVPsILIqM8888zo0aPvuuuuRx999LPPPovOzYfHlBJtMkQOfPvtt7M3GUnUoqlKzuMJjCNFA7UWT85hSpkxY8asWbPmz5//3dIJ1DQnWNRru8n9+c9/Fnv461//Wp3RqhaZXBl0KKfI/jGLpkrdlho0zdAZiC4Q+vTTT+VcU9coydjKaZiZ5IqLiyg3IUq2HEU8YuXcF198MbKGXlNFC4BSMCX2aE579913ZQJctGhRONEkSb6NSpLwvXDdMQuSeeNRKsLMmTNFBL766qvLLBQEol6I6aKOKNMz8hicWi+//PI999xzxx13PPHEE//73//U2XWiHDXVCnVkagol7RjHLhre9gpuGTXXrn2071IUFbPJWapGuhtorpLHai2EB6vcbfjPf/4jp8+ZMyc6HRJ5A7kx5agkd+d8sd/zbDzp0jJpAQBgEW/QpUWLFj399NN33HHHnXfeOX369MWLF0fn2psk+1zv7LuqlfMemljuSATVvhVtYLW7OiI2hgwZMmjQoE8++SQ6vWoI2ReoeqVGjhx5zDHHiLnRifTQ6iW/FwB+/OMftyyra9euo0aN+m4dR2Kgtfzyy4tylltuuQ4dOjz77LPqEo2iS5cuyqkLjRgxQl3axRZbbCEKERVSnZHK5MmTRWmjR49WZwDwKp5g33zzza222krJD7fffvt36+RCSSkXXXSRmPKzn/1smYWSiTcZ66yzzj333KMu56jqLsW3m7GpMtHuid+crCBFA7UWT87xlLLJJptcf/31CcexNc0JFvXabnLHH3+82MNNN91UndEqftozZvL4oEM5RfaPWTRV6k5SgzbYYIOJEydaFhBuvvnmwNo1qjq2il/xcItaSa747373u3Ar4rJGZ8WPIhqxcu7qq68eXUWrqaIFQCmYEns0p/3qV7+SqS/Jowyu482qCT8F7UaTNAQJkcwbj1IRDj74YPFRBGf0cfk5c+bIyDz//PPDiV54DE7FU089pfS1VltttX/+85/qco60VcyVctRUK9SRqSmMcrrhGQ1vewW3jJpr0T5K9l2KomI2uSRVw+kGmmvzkTxWayE82LXWWuubb76REyuVSufOneX0I5v+5xK1F5S8gdyYclSSu3O+xLNiy9J7ng0pXVomLQAALOINunDfffd169Yt2rz27Nkz+p2dvUmyz01I29eNq7qrWl72MEi8kyaWOxKBrp+T8Xv8svB1deJuueUWUfKee+4ZnVg1hKouUPVK3X333WLiLrvsEk4J6KHVT94vALRr127//fffe++9O3XqJONjwoQJ363m4rLLLhOrt2/fvta/BlF34nT1abXuuuvKk9arVy855a9//au6tIvx48fffvvtU6dOVWeksmTJEpEd+vXrp84A4FU8we67775iyiqrrPLLX/7y9NNPF9Vw5ZVXzv9mkJJSTjzxxBZzx85ONhkdO3Y8+eSTTzjhhNVXX10m/Iz/s0HVXfLeVJlo98RvTlaQooFaiydnmVKWX3550Wfr3r37csstJ1PKgAEDknyFWbtxoF1Nc5EXSW4ceMzk8UGHcoqUK+XxBDZV6jbVIHkpd9llF1mDunTpsnDhwugCsoqF/v73vwfWrlHVsVX8itslqao77rij3JZw3HHHRWfZIzb5V4xNFS0ASsGU2FO/AOA63qya8FPQbpSmHxZKRRAdFRmN9957b7jMRRddJCe+8cYb4UQvPAZn1FNPPdWhQwexw23bthXhOnTo0AMPPFD0tW655RZ1UUfaKuZK6ZtRrVBHpqYw9Q3PaKW2D0Mso+ZatI+SfZeiqJhNzlQ1Ut9Ac20+ksdqLUSfogh/wumaa64JJ/ICgPaCkjeQG1OOSnJ3zhfLPc+GlC4tkxYAABbxBv3BBx9s06ZNS+tvWIgh889//nP5fVyHDh2mT58ul7E3SV7us2n7uooku6rlZQ+DZDtpYbkjEVT7VrSB+bo6CtEj6tmzpziB0V+XqBpCVRcIElypRYsWrbXWWmLK448/Hm6aHlq95P0CQDg6euaZZ2RkHHvssXKKCK9DDjlkm2222WmnnYYNGxa96XnmmWcOGDDgxhtvHDNmTN++fUVsDR8+/Pvf/74MtQGt5H9FISrMQQcdtPXWW/fu3fvUU0998803TSWIiWeccYaceOutt4qN7r777vfff//ChQsvvPDC7bffft99942+2jJq1Kj+/fuLxbbccsvddtvtnHPOmTdvnlL4uHHjfvjDH4oxmCgh+t+XT5o06Ygjjthuu+1EsQMHDnz55ZfDWZajjgu/GY3+Z6wi84qt33bbbfLjddddJz6K3ZMf7fsWzk2ysPjj0ksvFRPFrLvvvvtPf/qTWFicQzk3LKF9+/bhmQFQC/EEK3+6aeTIkeGUr7/+Ovr/+9hTjTZHJcwt0aQaTSlnn312jx49xF6ttNJKrUl6wEknnST+FVnl/7YaBFdeeaWYctFFF4VTQkqTEf5ubrQ/ZDqomTNnDho0SCSrbbfddp999hF7JZNSfJeiHRGpalMVP3BL6yDFT69pT5ScrF1XTjcde2A+/IAUDdRYPDkrKWXOnDk777yzzCp33HFHuJipRod3GUS/SyScXr16XXDBBeGjz/Ysbe+22ed67x+GLAmz6lZEYyEyoTgPd911V5IbB6ZMHk/jcjHTIEI76FBOkXI/KDq36nFVPXvNk7qr1qDTTz9dXspZs2ZpF4iq2jUKDGMr7RW3Vzf7DUFB7LDc0A9+8IOW1tb/q6++CufaI1aZa2nlg2aKFgClUDWxB7EXAOztZrSFNQ2ptLQJPzD3wQJDvjVt1G/fiWTeYJSKIDrza665pphywAEHhMuIbq2Ysuuuu4ZTTMGp7cpqw1VZXn409XijS2rjViE21NL6fyVFf/L/888/f+211+Tf6TakrWLaQ7ZvIt43o1qhXqo2hfEbnvahR7RSK6HuNGqWTO1jYK1illnKLlmyU0DFbG5Vq4b2BprpnpK2+bAsH1S74WZZMbAGtqn5VsiDlQ9PiHoUtD4hsfHGG4cTwxcA7HtiaVLt61btjloOxOlbdUs5lp03XVC5FnkDOaiaoyz16/rrrxdBe95554Xryim/+c1v7Csq4mPnKG0P2VK4U80NDJV34sSJohCRAOUyojTxUf4ErChq4MCB4uMTTzwh51p6C9qdj3Yhvvnmm6FDh4plTjnllK+++sqSdWVppAUAgFa8QZf331ZcccXXX39dTnn22Wflu8fhT6fbRwrKfbbA0GhK2ud8LH3dqCS7qm1Sk+9hug65qTSnOxL2b0W1xxVYexf2AY62QF8dJ6eFo1fHcv6DakekEFdHnL0VVlgh+tVz1RCqukBQ7UpJgwcPFlOOOuqocEpAD61O6vYCwNtvvy0jQ6Q88XHEiBHyowiyVVddtaX1v5YIf3NRJtkNN9xQvoAics1ee+0llw+JCnDxxRfLvzt27CiXXGWVVWQajZcQLA3otddeOyykbdu2ov6EH0Wsf/DBB3IfxBY7deq0+eabi/ovg15UV/njE7Lw9dZbL1xRuPzyy+WK4g85RWxa/h+O4Y862I86TntPVu6/GAvJj6Lat7Tum/xo3zflnqx94SFDhsgpyy+/fLiYkrJnzJjR0tD/CR1QBPEEu8EGG4gp4t/LLrtM9CGi/5V8UC3VmHJUktyiJNVoShHdPlls6KSTTmppTSAyg4mdlA/nXXfddbLMKNlkrLzyyuIwH3nkEdHJaGntYoadSNNBiW6E/Ni1a1fR/xMltCx9UjC+S/Ffp7M3VYHuwC2tQ2A4vaY9UXKydt3AfOxiluXwA1I0UGPx5By/Uy+Go7L+7rfffnKKpUbLnCB/k0/2voSTTz5ZrmjP0vZum32u9/5hyJIwnbYiz4lpK/ZMHk/jYqJlEKEddGhPkfaj03Fpz17zpO6qNeiMM85oaf11zPCWgVxAdA/ui1iwYEFQrWskacdW2itur25KAMQNGzaspfX/LnjllVdkmdFXgOwRG51rb+WDZooWAKVQNbEHsRcA7O2mfbwZH9yFtAnf0gcz5VvTRrU9AdNRVG39SeYNJl4RZAyEP/j93HPPyZAIL7olOONdWVO4yqKiwWnp8YZLmuI26o033pBz+/fvr85rlXpD2ioWP+SEm4j2zahWqJd4Bqh6wzP50EMJdadRs6RtHwNrFbPMCpbdJXt2CqiYzc1UNew30Ez3lLTNh2X5YGmsmm64WVa0BLal+VbIg+3Tp892220n/hA9gfHjx4s/fvjDH27a+p11+AKAZU8Ca5NqX9feHbUfiNzDJN+q28ux7LzpggbkDeSlao6y1K977723pbVyffzxx0Hrk/Grt/5vPzK8LSsqLPc8A92gILAWnrzmBubK+/zzz8vpr776qlhM/n6KSGXi76lTp8pZs2fPDpL1FkxfLn/zzTf9+vVraU2zr7zyiiXrSqQFAICJ0qCLRko2T+HLbJJsc0XTWalUgmojBWUYbmo0A/NzPpa+bshpV01NqlzFsocpOuSW0pzuSNi/FdUel713YR/gaAv01XFyWjh+S0d7/oNqR6Q455xzWpb9ZZmqISR7UJYFZIzZr5QkAltMWWuttcIpAT20Osn7BQAR3CNHjrzkkkt69eolI+PGG28U4d6uXTvx9/Dhw4PWeyiyeoRvSMvQF84///wXX3xRFCuWGTp0aEvr3dIPW73//vsy9AcMGLBo0aI5c+asscYa4mP01eFoCcHSqrjCCis8++yzIjWEaeKll1566qmn5PJhtn3uuefEqEP+/dBDD8m5YsWwcLH1hx9+WIzoNttsM/Fxl112EbPCQxMf5WBPbEiUH51lOuo47T1ZuZaYJT9qbwpr9y2cq3xJqV34vffek6e3f//+4jyIcyguZYsuxYi1wveBANRCPMHedNNNMoNJorNy7LHHykco7KnGkqOS5JaWZZNqNKXMnTv35z//ufi48cYbyyz9xRdfrL/++mLKpZdeKhYYN26c+LtDhw7a38KRTUaUOMAwIVsO6sknn2xp7fnJe2GilzZlyhTZ74zvUvQlSMnSVMkF4gduaR1Mp9e0J9ETaFrXcuzio+XwJVI0UDvx5Bz//lLo2rWrrP6BNZsFS3OCqNHPP//8woULxWiqpbWfJnplgTVL27tt9rnhdv32DyVLwrRsJTxLhx56qNyK6L1btmLP5PE0bh9ExAcdYSHKKdJ+tBxX8rPXJKnbVIPat29/wAEH7LHHHm1bXX311coCCvmrD5auUUg7ttJecUt1C2IBoFi8eLHs/8hfRNhxxx3F3/vss0+4gD1io2mkaisfNE20ACgFU2Kv+gKAtt0M55rGm/HBXSie8O19MFO+NW1U2xPQHkXC1p9k3kjiFSF8dOYPf/hDsPQbHdG/ld+s2IMz3pU1havcVhic9h5vuKQ2bhX/+Mc/5D6Ifos6LwiybEhbxeKHnHATSt+MaoW6iGeA+BAmesMzcBl6RP92HTVL8fYxsNZiyyy5bnSX7NlJomI2LVPVsNxAC8z3lLTNh2X5YGmsmm64WVY0Bba9+VbIg+3Tp8+oUaPEH0cfffSPfvQj8ce4cePkd9bhCwCWPQmsTaplXXt3tOqBJPxWvWo5lp03XVCJvIEcVM1RpvoVRP6/L/nDZ/JrUBHqH330kX1FRbzD0LL0nmegGxQE1sIT1tzAmgQWL14sX2a46aabxPhdFLJ8qy+//FI+DtitW7fA2pGw7LycKLKxfPq/R48e8mBNWVcWJZEWAABaSoMe3s667LLLoouddtppcnr0p6VNIwXtMDzeaJqe8wl0fV3Rxn0dETjuaouuSa26h+GSyTvkltJc70jYvxWNH5e9d2Ef4GgLDDx1nFwXjt/S0Z7/qkek+OlPfyrmHn/88eGUqiF088032xeQMWa/UtK0adPkRHGZviuIHlo95P0CQJQIfZE1RNKU70ML++6774BWMlP07dtXritDf8cddwxLE37zm9+0tP6Sovx4zz33yELEYEBOkf+rSKdOnQJDCbIqhj8gISphS+R/ppA1Sj6oGrT+bxeidvXs2XPdddeV2UQQex4sLTx8jOO4444THzfaaKNg6avegqhgcm6o6lHHae/JJrkprN23cK7yJaV24QkTJshNh/9ByYEHHtiiSzEXXnhh27ZtlboNwKN4gg1af2LhhBNO+N73vieraktrbgmqpRpLjkqSW5SkqqSUE088sWXZLCG6BS2tWWXJkiUDBw4Ufx922GHh3CjZZIiu0tlnny32Qf4cTocOHZ555pnAelAiPYrFxN8iUe++++6nnHJK9ETFd0lhaarkAvEDt7QOltOr3ZPoCTStazl2Mdd++AEpGqileHLWfn+52mqriYmbb755UK1Gy5wQ3hx/+umn5cKiVxZYs7S922afG8SSuZf+oWRJmJathAPv8H8YPOCAAyxbsWfyeBq3DyKC2KAjMJwi7UfLcSU/e02Suk01KGq33XaLPsQvF2jfvv0hEZ988omca+oahbRjq0B3xS3VLYgFgGLixIlyK4888oj4eNVVV7W0/nyCvF0Y6A4zGrHRNFK1lQ+aJloAlEI8sYs8HOY0KUzFc+fODaztZjjXMt40iSd8ex/Mkm+1G9X2BLRHkbD1J5k3knhFELbccsuW1l9m+vbbb2Xshb+cZA/OeFfWEq7h8iI4q/Z4LXGrePTRR2VR2ocaM24oXsXih5xwE0rfjGqFuohnAPsNz8Bl6BH923XULMXbx8BaxSyz5MfoLtmzk0TFbFqmqmG5gRZY7ynFmw/78jJWTTfcLCuaAtvefCvCFwC+/vprccjt2rVr06ZN9+7dFy9eLL+zDl8AsOxJUK1JNa1r745WPRC5h1W/Va9ajn3ntRdUIm8gB1VzlKl+ybmyeZXdV7GY+Pvggw9OsmKU/Z5nvIccWAtPWHODaklAHo5YcezYsS2tLb74d+LEiT/5yU9alv70ScLegvbLZVG7W1p/S/iDpT+Ua8q6UaQFAICW0qCHt7Muuuii6GInnXSSnC7/hxn7SCE65rU0muGs+DNCQayvK992C/33v/912lVtk1p1D8Mlk3fILaW53pGwfysaPy5778I+wAl0BQaeOk6uC8dv6WjPf9UjUuy8884tkftIQYJov/XWW+0LyBizXykp/N8G5CsuIXpo+cv7BQD5ashVV111xx13yP8jTPjrX/8qA6JHjx6bRogglgvI0A8riaQ8mREWMmPGDDlF/oSSqFGBoQRZFcPvA5S7q3KYcfHFF4u/33333ZVWWkl83GqrrU477bRf/OIXclujR48Olq2lwdJU+L3vfS+I7NVzzz0n54aqHnWc9p6s3O3TTz9dfpQv92hvCgfL7lt8rmXh++67T246vBl92GGHtehSjKze0d/mBOBXPMFGvfbaazvttFNLa/ZbtGiRPdVYclSS3KIkVW0OiWaJTz/9tGPHjmLi+PHjZVKVD8PFKTfUvvzyS9k9OuGEE4Jq+VP0pPfee2/5f0FKY8eOleXEd0lhaaok5cDtrYPl9Gr3JHoCTevajz2wHn5AigZqKZ6c499fTpkyRVbMww8/PKhWo2VOCF+Umjlzplz47rvvDqxZ2t5ts88NYslcm9td+4dBtYRp2cqYMWPkkmE+lL+4oN1KUC2Tx9sv+yAiiA06gtjeWj5ajiv52WuS1G2qQauuuqo4A7feemv79u1bdL+drzwiEKd0jcLp2rFVoLviluoWxK6y4sgjj5Rb2XXXXfv27Ssf8WmJ/KyCPWKVY7S38kHTRAuAUogn9oMOOqil9SGGcErYH9D+lL79FpZ2SKUVT/j2PlhgzrfajVp6AkGq1p9k3kjiFUEQjX5L61cmf/jDH2RIPPzww3KWPTjjXdnAHK7h8iIaq/Z4LXGr+Oijj+TPWWl/xinjhuJVLH7IrpuQqFaoi3gGsN/wDFyGHtG/XUfNUrx9DKxVzDJLflRqnyU7SVTMplW1agSxG2j2e0rx5sO+vIxV7Q03+4qBIbDtzbcifAFA/D1s2DC5ougbBEu/s5YvAFTdE0uTalnX3h2teiByD8ONmr5Vr1qOZefDj5vqMhh5Azmw5yhL/ZILz5o1S04RjbL8PvShhx5KsmJUPCtGxXvI9sIT1tygWhKQg5cNNthAdADEWq+++qr4KPKYTIl/+9vfoiXYewvaL5dlp0gcyNNPPx3O0mbdyKqkBQCAntKgv//++7IdOeigg6KLiW55S+tr+fLX9y0jhXCubFItjWY4K/6MUBDr6z711FMdIr788kunXdU2qVX3UFkySNAht5TmekfC/q1o/LjsvQv7ACfQFeir4+S6sOmWTpDqG4TQPvvsI+YOHjw4nFI1hObMmWNfQMaY/UpJ4qLIosL/q0qih5a/vF8A0I5Vpk+fLgNi3Lhx4UQRT2+//bb8Wwl9SXkyI/x/JW644Yag9X8B22GHHcRHsW5gKCF5VQzfKHrrrbeCyAs30btF2poZHto555wj5wr//e9/o7NMRx2nvScrj+KQQw4Rf8+fP1/+Kob2pnAQy9rKXMvCr732mtz02WefLT5+/PHH8j9606aYHVupUwF4Ek+w5557rvxfeCTZRxG9FpEJ7anGkqOccot2oux4KV8YDxo0SExcb731Wlr/R8jFixdH54aUJkP0D+QXzPL7MMtBLVq0SJYpjl1kbNFpa1n6yxOBYZeiLE2VpByjvXWwnF7tnkQLN61rOXbxh/3wJVI0UCPx5BxNKXPnzhUD4PXXX19WYfnStr1Gy5ywwQYbyP+E7ne/+51cWI5vLVna3m2zzw23671/aE+Ylq2Et1fkKHHhwoUbbrihaStBtUweb7/sg4ggNugIYoVYPlqOy+nsNUPqttcg4de//rU8Y+Hbg5ZrbekahRO1Y6tAd8Ut1S2IXeWoL774Qv7PjHHhrxhajiJYdm6SVj5ojmgBUArxxP7b3/5W5sCJEycGrU89brTRRuKjaNnlApZ2Mz5XO6TSiid8ex/Mkm+1G7X0BIK0rT/JvGHEK0LQ+n9wy9vOsp+w3nrrffvtt3KWPTjjvQ5LuEaXr9rjtcRtnPzfPIRrr702nPjCCy8899xzGTcUr2LxQ3bdRIhqhfzFM4D9hmfgMvSI/u06apbi7WNgrWKWWXLd6C7Zs1OIitmc7FVDewPNfk8p3nzYl5exqr3hZl/RFNj25lsRfQHgnXfeEV0C0R+YN29esOwLAPY9CWLtXbRJtaxr745WPZCE36pXLcey84HugkaRN1Br9hxlqV/h8rvuumtL6y/Zt7SmGpk3kqwYst8tjHd37YUnrLlBtSQQ/sLrOuusI/oAYsomm2wic4ggf7bfqbcQkhMHDhwo/zOBLl26iD0JzFk3um5AWgAA6MQbdNlAi4Zv0qRJcsrf/vY32WyFT/xbRgrhXNmKWRpN03M+8g97X1dKvqvaJrXqHipLBgk65JbSXO9IuPZz7L0L+wBHW6CvjpPrwtE9sZz/qkekOPnkk8Vc0YmKTqwaQlUXCKpdKUm+riCGtNH/FkCih5azQrwAIOy5554trb/veNZZZ40YMeK4444TS8rfPAhioS/Fn8zYbbfdxJSOHTuKrn/fvn1laI4aNSowlJC8Kk6dOlWWdvDBB4sp8tHVlgRPLAl77bWXXFicgcGDB2+//fa33367nGU/6jjtPVn57pTwox/9qFu3bvKWsfamcBDbN2WufeFDDjlEbkicN3Ha5XdU2hQj0rqYJcaB6gwAPsQTrExfm2yyyT777BP+smzYMNtTjSlHOeUW7cSwQ7ztttuKnCy7kuErgMK5554bXT1KNhnLL7+82OI222wjfydD7MMDDzwgFzAd1KxZs7p27SoO5LLLLrvgggvk/7J0/vnny7W0uxRlb6qC2DHaW4fAfHq1e6IUblrXdOxB64+LWA5fIkUDNRJPzjKltCz972slkcouv/zycBlLjZY5QSwvEsXAgQPlf3fbu3dvuaI9S9u7bfa5Neof2hOmfSvyf69r3769OA+9evWSB6vdSlAtk2vbL8sgItANOuynKPrRflzJz14zpG5TDQov5SeffNKpU6eW1p/Sjy7Q0lrFQvKGmr1rJGnHVoHuiturmzaopL/85S9yxbFjx7621BVXXCEnyh/DsEdsdG6SVj5ojmgBUArxxP7GG2+ssMIKLa2/ItOnT5911llH5sPwl2Ds7WaS8aaWNuFb+mCWfKvdqKUnEMSOImHrTzJvGPGKIMlHWyQRhNFZluCM9zos4aosb+/x2uNWMWfOHNnXksuIHZZf7N1yyy1Btg3Fq1j8kAPHTYSoVshfPANUveGZfOihhLrTqFnSto+BtYpZZgXL7pI9O4WomM3JVDVazDfQ7PeU4s2HfXkZq9obbvYVLYFtab4V8mDlCwDC//73P/l0UbDsCwD2PQliSSDapNrXtXdH7Qci9zDcqOVbdXs5lp0PdBdUTpfIG6g1U46Sd+fs9Uu69dZb5UThwgsvlBOTrBiy3y2Md3fthSevuUG1yrvBBhvIks8444wg8n/6bbH0+f7ApbcQCid+9dVXcvXVVlvtxRdftGTdKNICACAu3qDPnDmzc+fOLa2Djh122EEMyeXAWbSM77zzjlzGMlII54atmKXRND3nE1Tr60rJd9XUpMqPlj1M0SG3lOZ0R8K1nxNU613YBzjxAj12nJwWju6J/fzbj0gxduxYMXeNNdaI/gRe1RCqukBQ7UpJZ599tlhmn332UWfQQ8tdUV4AmDdv3lFHHdWuXTsZxDKfyp8EC2KhL8WfzJg7d+6hhx4a3iES2wp/iEhbglNVHDp0qAx3scXrrrtObiLJE0uff/75oEGDRKaTq4gWYvz48XKW/ajjtPdkX3vttU022UROP/zwww888MAWw03hILZvylz7wvPnzz/iiCNEZllzzTXPPffcAQMGiLlbb721nBv1/vvvi7MXjmkB+BVPsL/+9a979Ogh84Cw3HLL/fSnPxUpUc61pxpTjnLKLdqJX375Zf/+/eUdGWHWrFly+i677CJ3Y86cOeG6ivCmv9SpU6c+ffrI/0FSMh2U6I7IX5GUxKk46KCDxJ7ItUy7FLI3VUHsGANr6xCYT692T5TCTeuajj1o/dEgy+FLpGigRuLJOUxlop6KHpRI1KIrNWXKlO/WsdZomRNE53b//feXc3v27BkmLnuWtnfb7HNr1D8MrAnTvpX//Oc/m222mVx+v/32E8fbYh7o2jN5PI0H1kFEoBt02E9R9KP9uJKfvWZI3aYaFL2UZ555prxGjz76aLiAQv4igr1rJGnHVoHuiturmzaopN13372l9b88it52+eyzz2SVP/nkkwPdYUZF5yZp5YPmiBYApRBP7HLilltuGaYyMSC6+OKLwyRpbzcTjjfjtAnf0gez5FvtRi09gSB2FAlbf5J5w9BWBOGuu+4KYyz63xYF1uCM9zos4aosb+/x2uM27r333jvyyCPlKz3Szjvv/MILLwTZNhSvYvFDDhw3EaJaIX/xDFD1hmfyoYcS6k6jZknbPgbWKmaZFSy7S/bsFKJiNidL1bDcQLPcU4o3H/blZayabrhZVrQEtqX5VsiDDV8AiIq+ABBY9ySIJQGlSbWsa++O2g8k+bfq9nLsO6+9oCHyBmotnqPkr8x269ZNfrTUL2nBggViVktrlgifoEqyYsh+t1Db3bUUnrzmBtUq77HHHiuny1//vf322+XHIUOGyAUCl96CdmKlUunVq1dL63NskyZNMmXdKNICACAu3qALL7/8smhkw0aqffv2hxxySPQRfPtIQc4dNGiQ/GhpNE3P+QTV+rqhhLtqaVID6x6m6JBbSnO6I5Gin2PvXdgHONoCfXWcnBa23NJJ9w2C9L///U/0mlqW/u95oaohVHUB+5WS5C2sO++8U51BDy13+b0AkIQYEYkIe/XVV7/44gt1XmJiYDBz5kyRX8L/PdkXkVP+9a9/ff311+qMBL766itxaCItij+UWdmPevHixa+99pqoPOoMrz744INFixbJv0VzJd+CEkln2aX+z5577inyuzoVgA+mBCsqpkgyL730kkiDyqygWqrR5qga5Rb5FuBee+2lznBnOijRJXqllfZUeFe1ddCe3oRM65qOPUhw+KRooBZMyTkJS42W3nnnHVGp5f94G7JkaXu3zT7XiWtRVROmyZIlS0Qm1P4Qgi+1G0SYOJ29hk/dWWqQib1r5MRS3XJWtZUPmiBaAJSCJbF/+OGHL7744uzZs3Nrc00sfbAk+TaF5K0/ybwxWCqCnSU445KHq98e7zfffCOKEvsZ367fDWml2ATVCjlLlwFSDz38jpotVcwyS5EkO1Exm1C6qhG431NKsrz2hpt9RUtgOzXfSdj3xM60bpLuqK8D8VWOgryBmormKNGwyt8uFfr16xcuY6pfVaVeMQmPhWevvMl7C1VZsm6ItAAAUFgGHaJ1E83cv//9b9HeqfMi4iMF+f/ZKv+Tp6XRND3nk1zCXbWz7GEKptL83pHQMvUukgxw4jx2nLxzPaKLLrpILHD00UerMxKEUNUFLJ588kmx3e7du4f/qZ2CHlqeivUCAIrsmmuu6dq1a//+/UVakQ3biiuuKNKrulyrm2++WSwwY8YMdQaAzMqbYO+6665BgwbJ/6JI+/s3yAcpGqiFQiVne7fNPteJx6KakNPZa/jUXagaVHYNHy0ASoHErpW89SeZNwYqQqFQrZAzMkASVMwmRNWor+Td0cIib6CmojmqT58+La1ENZk+fbq6KAqDtAAAUPgddEycOHG//faTvQIecyqaBhjgKFyP6Msvv+zdu/eWW2756aefqvNqaciQIZtuuumYMWPUGUvRQ8sTLwAgqUceeWS77bbr1KlTmzZt1lxzTZFrLPll3rx57du3P/PMM9UZADIrb4KV/3WRSCBXXXWVOg85IkUDtVCo5GzvttnnOvFYVBNyOnsNn7oLVYPKruGjBUApkNi1krf+JPPGQEUoFKoVckYGSIKK2YSoGvWVvDtaWOQN1FQ0Rw0aNGiPPfYYOnTo7Nmz1eVQJKQFAIDC76BjxIgRorSuXbtefvnl6jzUWwMMcBQNc0T00PLECwColX79+nXr1m3JkiXqDADZlDfBLl68OPv/9ggvSNGAd+VNziiLxk7d1CC/GjtaAJQCiT07knkDoCIUDdUKeSIDJETFbDZUDWRH3kDtkKNKirQAAIjy26CL9oXHnIAU6KHlhhcAUCujR48WMTB58mR1BoBsSLDIjhQNeEdyRq01duqmBvnV2NECoBRI7NmRzBsAFaFoqFbIExkgISpms6FqIDvyBmqHHFVSpAUAQBQNOlAE9NBywwsAqJUFCxZ07tx58ODB6gwA2ZBgkR0pGvCO5Ixaa+zUTQ3yq7GjBUApkNizI5k3ACpC0VCtkCcyQEJUzGZD1UB25A3UDjmqpEgLAIAoGnSgCOih5aZWLwCMHz9elHPNNdc8hia29957d+nSZcKECeoMoPm89957aqJMiwQLL0jRwGMkZ5RN0VI3NajIihYtAEqBxF40JPO6oCI0NqoV7MgAdUHFLD6qBoqGvIEochQeIy0AQPnRoAONhx5aPmr1AoBIoy0AgIhtt912ypQparp0R4IFAI9IzkAW1CAAaDAkdqCFigA0NzIAoEXVAFBk5CgAABoADToApKEkQV8vAEyYMEGUc+211z6OJjZp0iQRA7zHAwi///3vN9xwwy5dunz++edqxnREgoUXpGjgMZIzyqZoqZsaVGRFixYApUBiLxqSeV1QERob1Qp2ZIC6oGIWH1UDRUPeQBQ5Co+TFgCg/GjQgcZDDy0ftXoBwFc5ANAwHnjgAZEYs7+xSoIFAI9IzkAW1CAAaDAkdiCgIgDNjQwAaFE1ABQZOQoAgAZAgw4AKfACAADkxFdi9FUOACDwl1R9lQOUi6/I91UOACAjXwnZVzlAXfgKYF/lAMiTr5rrqxygIHyFtK9yACDKV27xVQ4AAEjBV0PsqxwAKAVeAACAnPhKjL7KAQAE/pKqr3KAcvEV+b7KAQBk5Csh+yoHqAtfAeyrHAB58lVzfZUDFISvkPZVDgBE+cotvsoBAAAp+GqIfZUDAKXACwAAkBNfidFXOQCAwF9S9VUOUC6+It9XOQCAjHwlZF/lAHXhK4B9lQMgT75qrq9ygILwFdK+ygGAKF+5xVc5AAAgBV8Nsa9yAKAUeAEAAHLiKzH6KgcAEPhLqr7KAcrFV+T7KgcAkJGvhOyrHKAufAWwr3IA5MlXzfVVDlAQvkLaVzkAEOUrt/gqBwAApOCrIfZVDgCUAi8AAEBOfCVGX+UAAAJ/SdVXOUC5+Ip8X+UAADLylZB9lQPUha8A9lUOgDz5qrm+ygEKwldI+yoHAKJ85RZf5QAAgBR8NcS+ygGAUuAFAADIia/E6KscAEDgL6n6KgcoF1+R76scAEBGvhKyr3KAuvAVwL7KAZAnXzXXVzlAQfgKaV/lAECUr9ziqxwAAJCCr4bYVzkAUAq8AAAAOfGVGH2VAwAI/CVVX+UA5eIr8n2VAwDIyFdC9lUOUBe+AthXOQDy5Kvm+ioHKAhfIe2rHACI8pVbfJUDAABS8NUQ+yoHAEqBFwAAICe+EqOvcgAAgb+k6qscoFx8Rb6vcgAAGflKyL7KAerCVwD7KgdAnnzVXF/lAAXhK6R9lQMAUb5yi69yAABACr4aYl/lAEAp8AIAAOTEV2L0VQ4AIPCXVH2VA5SLr8j3VQ4AICNfCdlXOUBd+ApgX+UAyJOvmuurHKAgfIW0r3IAIMpXbvFVDgAASMFXQ+yrHAAoBV4AAICc+EqMvsoBAAT+kqqvcoBy8RX5vsoBAGTkKyH7KgeoC18B7KscAHnyVXN9lQMUhK+Q9lUOAET5yi2+ygEAACn4aoh9lQMApVCgFwDmz59/xRVXXHrppZcAjkTYjBw5slKpqFFVM4RrkxOXXgTA559/rkaGVYrEqJWuHLH88OHD1SNBWqQdoIBkcnatmOmSalyKcsjMKBoRkE4xHKSKfK0U5dAyooHR1YRHTzzxhHq9rVIkZK0U5RCHcSma5owasoM6efJk9TirSRHAWinKoSIA3rkmgRQ1VytdOQ2Zh5Nz7bdk1MwpN0UfI11Ix/kqp1yaOdjqyDX/Z9Gol1jkiscff1w92kLylVtSlNOoVx+1kKL9zYLgBFBfKZJeioZYK105jzX3eBxaKcI4I5pvpFCgFwBGjhz57rvvVoBURPBcddVValTVDOEKEQBXXnmlGhlWKRKjVopyxo4de88996jHgGxIO0ABlSg5k5lRTCIsR48ercarmWvkm6Qoh5YRjY2uJnwZM2bM3XffrV5ysxQJWStFOcShlmia77rrLvVk1UajdlDvvfdep1oQpApgrRTlUBEA71yTQIqaq5WinEbNw8m59lsyavKU69rHSBHSWr7KKZcmD7Z6EUGeW0pp4EvsmivqxVduSVFOA1991ILr7fcsCE4AdefakUjREGulKIfxOExcwzgjmm+kUKAXAC655BJ17wAXl112mRpVNUO4Qrj00kvVyLBKkRi1UpQjaoe69/BhxIgR6rmuGdIOkFBZkjOZGYU1fPhwNV7NXCPfJEU5tIxoeHQ14YtTLKVIyFopyiEOTcSZUU9WbTRwB9WpFgSpAlgrRTlUBKAWnG4UpKi5WinKaeA8nJxrxs6ClFuW4X8DINjqxSn/Z9HYlzi38UgWvnJLinIa++qjFpza3ywITgBF4NSRSNEQa6Uoh/E4LJzCOCOab6TACwBoHNwaRs5cbx2mSIxaKcqht1ojpB2ggMqSnMnMKCynt2pdI98kRTm0jGh4dDXhi9P/j5QiIWulKIc4NLn88svVk1UbDdxBHTlypHq0VikCWCtFOVQEoBackkCKmquVopwGzsPJOV2sjEi5Tn2MFCGt5aucciHY6uWKK65QL0ZtNPYlzu00ZuErt6Qop7GvPmrB6fZ7FgQngCIoy6CD8TgsnMI4I5pvpMALAGgcPB6BnJXlGdOA3mrNkHaAAipLciYzo7CcvoFwjXyTFOXQMqLh0dWEL7wAUHa5fcHQwB1U18dJUwSwVopyqAhALTglgRQ1VytFOQ2ch5NzulgZkXKd+hgpQlrLVznlQrDVS25Prjf2Jc7tNGbhK7ekKKexrz5qwen2exYEJ4AiKMugg/E4LJzCOCOab6TACwAoluHDh1/iIrouj0cghSwhV5ZnTAN6q1ZZYoC0A9RIlopZluRMZkZNZalETt9AuEa+SYpylN0GiilLZaSriagsscQLAEWQ5Qrm9gVDwTuoWc6h6+OkKQJYK0U5yp4DCOWWBFLUXK0U5RQ8DyeX28XKSNl0SWU52059jBQhreWrnHJRzjycZAny3J5cV7ZbQKU4jVn4yi0pylFOF5pEljrldPs9C2W7AJBalqRXlkFHw4zHYZJbGGekbBpIghcAUCxOYaAszOMRSMHpUioLl+UZ04DeqlWWGCDtADXiFPAlTc5kZtRUlkrk9A2Ea+SbpCjH6RiBenEKVLqasHC6RsrCvABQBE5Hpyyc2xcMBe+gZjmHro+TpghgrRTlOB0m0FScakeWJJCi5mqlKKfgeTi53C5WRk77WVhOR5Glj5EipLV8lVMuTpcJCqezpyyc25PrTjtZF057WK/TmIWv3JKiHKdzi4bhdN2VhZ1uv2fhtJMAYOGUT0o66GiY8ThMcgvjjJz2E5B4AQBFobxrpc7WURbj8Qg4yR5yZXnGNKC3apA9Bkg7gHfZK2ZZkjOZGTWSvRI5fQPhGvkmKcpJeHRAvWSvjHQ1IWWPJV4AqK/sVzC3LxgK20HNfg5dHydNEcBaKcpJeIBAU8k5CaSouVopyilsHk4u54uVUcI9LKzsZ9upj5EipLV8lVMuCS8QFNmDPLcn1xPuXl2U6DRm4Su3pCgn4VlFw8hep5xuv2eRcPcAwCJ70ivLoKMBxuMwyTmMM0q4h0AULwCgKKIBkDAYlMV4PAJOsodcWZ4xDeitGmSPAdIO4F32ilmW5ExmRo1kr0RO30C4Rr5JinISHh1QL9krI11NSNljiRcA6iv7FcztC4bCdlCzn0PXx0lTBLBWinISHiDQVHJOAilqrlaKcgqbh5PL+WJllHAPCyv72XbqY6QIaS1f5ZRLwgsERfYgz+3J9YS7VxclOo1Z+MotKcpJeFbRMLLXKafb71kk3D0AsMie9Moy6GiA8ThMcg7jjBLuIRDFCwAoiktaHXDAAfIPdbaOshiPR8BJ9pAryzOmAb1Vg+wxQNoBvMteMcuSnMnMqJHslcjpGwjXyDdJUU7CowPqJXtlpKsJKXss8QJAfWW/grl9wVDYDmr2c+j6OGmKANZKUU7CAwSaSs5JIEXN1UpRTmHzcHI5X6yMEu5hYWU/2059jBQhreWrnHJJeIGgyB7kuT25nnD36qJEpzELX7klRTkJzyoaRvY65XT7PYuEuwcAFtmTXlkGHQ0wHodJzmGcUcI9BKJ4AQDF4hQGysI8HoEUnC6lsnBZnjEN6K1aZYkB0g5QI04BX9LkTGZGTWWpRE7fQLhGvkmKcpyOEagXp0ClqwkLp2ukLMwLAEXgdHTKwrl9wVDwDmqWc+j6OGmKANZKUY7TYQJNxal2ZEkCKWquVopyCp6Hk8vtYmXktJ+F5XQUWfoYKUJay1c55eJ0maBwOnvKwrk9ue60k3XhtIf1Oo1Z+MotKcpxOrdoGE7XXVnY6fZ7Fk47CQAWTvmkpIOOhhmPwyS3MM7IaT8BiRcAUBTDhw+/JEKdraMsxuMRcJI95MryjGlAb9UgewyQdgDvslfMsiRnMjNqJHslcvoGwjXyTVKUk/DogHrJXhnpakLKHku8AFBf2a9gbl8wFLaDmv0cuj5OmiKAtVKUk/AAgaaScxJIUXO1UpRT2DycXM4XK6OEe1hY2c+2Ux8jRUhr+SqnXBJeICiyB3luT64n3L26KNFpzMJXbklRTsKzioaRvU453X7PIuHuAYBF9qRXlkFHA4zHYZJzGGeUcA+BKF4AQFFEAyBhMCiL8XgEnGQPubI8YxrQWzXIHgOkHcC77BWzLMmZzIwayV6JnL6BcI18kxTlJDw6oF6yV0a6mpCyxxIvANRX9iuY2xcMhe2gZj+Hro+TpghgrRTlJDxAoKnknARS1FytFOUUNg8nl/PFyijhHhZW9rPt1MdIEdJavsopl4QXCIrsQZ7bk+sJd68uSnQas/CVW1KUk/CsomFkr1NOt9+zSLh7AGCRPemVZdDRAONxmOQcxhkl3EMgihcAUBSXtDrggAPkH+psHWUxHo+Ak+whV5ZnTAN6qwbZY4C0A3iXvWKWJTmTmVEj2SuR0zcQrpFvkqKchEcH1Ev2ykhXE1L2WOIFgPrKfgVz+4KhsB3U7OfQ9XHSFAGslaKchAcINJWck0CKmquVopzC5uHkcr5YGSXcw8LKfrad+hgpQlrLVznlkvACQZE9yHN7cj3h7tVFiU5jFr5yS4pyEp5VNIzsdcrp9nsWCXcPACyyJ72yDDoaYDwOk5zDOKOEewhE8QIAisUpDJSFeTwCKThdSmXhsjxjGtBbtcoSA6QdoEacAr6kyZnMjJrKUomcvoFwjXyTFOU4HSNQL06BSlcTFk7XSFmYFwCKwOnolIVz+4Kh4B3ULOfQ9XHSFAGslaIcp8MEmopT7ciSBFLUXK0U5RQ8DyeX28XKyGk/C8vpKLL0MVKEtJavcsrF6TJB4XT2lIVze3LdaSfrwmkP63Uas/CVW1KU43Ru0TCcrruysNPt9yycdhIALJzySUkHHQ0zHodJbmGckdN+AhIvAKBYLnEUXZfHI5CCGlLVRNctyzOmAb1VK/UaVxNdl7QD1Iha8aqJrluW5ExmRk2plaSa6LpO30C4Rr5JinKU3QaKSa1s1UTXpauJKDVWqomuywsARaBeoWqi6+b2BUPBO6jqOaomuq7r46QpAlgrRTnKngMIqZW8mui6TkkgRc3VSlFOwfNwcurFqCa6rtPFykjZdEmpZ7Oa6LpOfYwUIa3lq5xyUc48nKhBXE103dyeXFe2W0Dqaaomum5upzELX7klRTnK6UKTUOtMNdF1nW6/Z6FsFwBSU5NaNdF1yzLoaJjxOEzUMK0muq5TGGekbBpIghcA0Dh4PAI5K8szpgG91Zoh7QAFVJbkTGZGYTl9A+Ea+SYpyqFlRMOjqwlfeAGg7HL7gqGBO6iuj5OmCGCtFOVQEYBacEoCKWquVopyGjgPJ+d0sTIi5Tr1MVKEtJavcsqFYKuX3J5cb+xLnNtpzMJXbklRTmNffdSC0+33LAhOAEVQlkEH43FYOIVxRjTfSIEXANA4eDwCOSvLM6YBvdWaIe0ABVSW5ExmRmE5fQPhGvkmKcqhZUTDo6sJX3gBoOxy+4KhgTuoro+TpghgrRTlUBGAWnBKAilqrlaKcho4DyfndLEyIuU69TFShLSWr3LKhWCrl9yeXG/sS5zbaczCV25JUU5jX33UgtPt9ywITgBFUJZBB+NxWDiFcUY030iBFwDQOHg8AjkryzOmAb3VmiHtAAVUluRMZkZhOX0D4Rr5JinKoWVEw6OrCV94AaDscvuCoYE7qK6Pk6YIYK0U5VARgFpwSgIpaq5WinIaOA8n53SxMiLlOvUxUoS0lq9yyoVgq5fcnlxv7Euc22nMwlduSVFOY1991ILT7fcsCE4ARVCWQQfjcVg4hXFGNN9IgRcA0Dh4PAI5K8szpgG91Zoh7QAFVJbkTGZGYTl9A+Ea+SYpyqFlRMOjqwlfeAGg7HL7gqGBO6iuj5OmCGCtFOVQEYBacEoCKWquVopyGjgPJ+d0sTIi5Tr1MVKEtJavcsqFYKuX3J5cb+xLnNtpzMJXbklRTmNffdSC0+33LAhOAEVQlkEH43FYOIVxRjTfSIEXANA4eDwCOSvLM6YBvdWaIe0ABVSW5ExmRmE5fQPhGvkmKcqhZUTDo6sJX3gBoOxy+4KhgTuoro+TpghgrRTlUBGAWnBKAilqrlaKcho4DyfndLEyIuU69TFShLSWr3LKhWCrl9yeXG/sS5zbaczCV25JUU5jX33UgtPt9ywITgBFUJZBB+NxWDiFcUY030iBFwDQOHg8AjkryzOmAb3VmiHtAAVUluRMZkZhOX0D4Rr5JinKoWVEw6OrCV94AaDscvuCoYE7qK6Pk6YIYK0U5VARgFpwSgIpaq5WinIaOA8n53SxMiLlOvUxUoS0lq9yyoVgq5fcnlxv7Euc22nMwlduSVFOY1991ILT7fcsCE4ARVCWQQfjcVg4hXFGNN9IocQvAPzrX/96/PHHZ8+eHZ345ptviokzZsyITiyUku52KRT/8Yi5c+c+8sgjN9988+jRo5999ll1djIXXHDBLbfcok7Ny6effvrggw/edNNNY8eOnTVrljo7RlyUP/7xj/G/s/NbWjplecY0SNVblckq6plnnlEXqp8iBEClDGnn888/F9fu5ZdfVmckVuuc4/FSeizKl6uvvvqGG25Qpy5VkKvj8bx5LCqLsiRnp8w8f/58JSeH/v3vf6tLJ5DiYol9GDx48CuvvFJpbSOmT58u/nj66ae1OzB58uTXX3+9kmpDSYTF2ncgY8c7PEz5tzzhTz311Ntvv73sgg7Gjx9/4oknHnbYYS+99FL2btLw4cNFx0ydmpnTNxCukW+Sopx0LaNrb7Yu0sVDTdlbtDzPai1OjqlFNlX8aHKoqSJ3NaMnR+RhcQ7VJRz5vbKmaxeXZbsJ1024WE016gsAGRt6LVMHu77XMbcvGJw6qFI0JU6bNk3JpW+99Za4HFVTRA6n1/Vx0hQBrJWiHNeKIFluOTqdXqXPL3Op6FrPnDnzs88+U5euGVNNrDgejpNapBSt2h1CZdkWcM6cOepsA8sJd5X96Go0xnFKAilqrlaKclLkYcmSBFKLDgGyX9nknC5WRq4pN7dEkRunPkaKkNbyVU65uAab8PHHH48fP14MtO+55574va+PPvrovvvuExXz//2///fhhx9GZyUfsVoK8SLP1GGS25PrrpfYdNdRO75O0iur6Z2Z3E5jFr5yS4pyslx96YMPPhDXV9R6+TGsOx47aXmKjikkS7axd18ztrymiha/U2S6N1ijrqnT7fcsXIOzUq31Sch7/leCqoA7mSRR1072E1KLs2Gvufav9uTf6Zq2op2Nio9dSiHdUdQo6ZVl0JF6PK6N1XSXoMjs3xJa2npLf6ZEZ8kpjDNybb7jfUsty4VIrsiXzN7Z0yrg4Vguk31vS/wCwMCBA8Um9t133+jEn//852LiXnvtFZ1YKCXdbb9+8YtfXHjhherUzEYU+PEI4a677lpvvfVWXHHFXr16bbfddiussMIWW2zxj3/8Q12umr59+w4dOlSdmovRo0evu+66nTt33mGHHcTOt2vX7sADD4zfioraf//9TzjhhPjfruIxc8ghh5xyyinRKfkryzOmQareqkhWyy233IoRInTVhXKkxEARAqBS+LQjjBs3TkRLz5491RkG8brmN+fEy89yKYsZFVGHHXaYaOLVqUsV5OpkOW/FvARlSc5OmVkMlcNs3L59e7Gh8ONJJ52kLp1AikZZjOp32mkn+bdoI3bddVf5x1ZbbbXMcpXKww8/LPZw8uTJlZpFRbj/9h3I2PEOD1P+vfzyy6+22morrbSSWH2PPfZQbl8mIQacovt01llnXXPNNW+88Ub05KS4IsKdd9652WabzZs3T52RjdM3EK6Rb5KinBQtY4rebF3UqOJkYWnRan1Wc2hrTC2yqeJHk0NNFbmrGZ6cVVZZRYwaVl555WOOOSb8eiYFv1fWdO3ismw34brpMrxfjfoCQMaGXsvUwY5e7ni3vNZy+4LBqYMqRVOiaAiUxuKmm24SlyN8kMUkh9Pr+jhpigDWSlGOa0WoVLvl6HR6lT6/zKVC27Zt11prrdtvv33ZxWvFVBMriXNvCrVIKVq1O4RK5KqJplnsubia8ceY4iwn3FX2o6vRGMcpCaSouVopykmRhyvVkkBq0SFAnv0Zp4uVkWvKzS1R5Mapj5EipLV8lVMursEmqrAYaK+55poik2+00UZizBVtwW+55RaR6tdZZ50f/OAHYrFVV101+ohAwhGrvRAvsjcK2eX25LrrJdbedTSNr6v2ymp9Zya305iFr9ySopwsV1+Sd7OnTZsmP4Z1x2MnzVXVgYNFdExRqZZt7N3XjC2vtqJp7xSZ7g3WqGvqdPs9C9fgtLc+yXnP/9GgKuZOVk3UTpwqoJcT4v1sVK25A61f7VXSNm0FPBtedikFp3tBoRolvbIMOtKNx02xmucgOh+Wbwntbb2lP5OxuiWP7eycwjgj1+Y73rfUslyI5NLllnzYO3taBaynlstkry/lfgFAtD3t27cPx8AfffSRyKrf//73k/T466Wku+3Xj3/843QPq9kV+fGIBx54QPT1Tz31VHG55ZSPP/74iiuusLwhZ2Kp7TUlD+Hkk08Ov7idNWvWoYcean+D2dcLADWKmYzK8oxpkKq3mrCXkJtixkCR044kOgHiOorKO3HiRHWeTvw8+8058fKz8FtaLVgGQpXiXZ0U4rtUBGVJzikyszRy5MgOHTqoUx25Nsqff/559+7db7vtNvkxbCMefPBBcdRPPfVUdOGjjz56iy22iE7xLtx/+w5k7Hgr3xCEfz/77LPrrLPOgQce+N2iyYi+n+nMuF4RSVyX9ddfP8utZC2nbyBcI98kRTmuLWO63iwkU4uWw1nNoa0xtcimip9bP7nIXc3oSfjkk0/uu+++zTfffIMNNnjzzTeXXbA+TNeuLtJleL8a+AWALA29VpIOdg55SZHbFwwpOqjR6pb6BYCoGp1e18dJUwSwVopyXCuC0y1H++k19fkrrWUec8wxHTt2DLdSU0lqone1SCn5i161F154QTTN4qIvu4hGXU64SY3GOE5JIEXN1UpRToo87JQEnPACQFxjJIoopz5GipDW8lVOubgG28YbbyyGMHPnzpUfX3nllSlTpsi/77///jZt2px11lny2az58+efc845Ysrf//53uUCSEWvVQhpGbk+uu15i011H7fja3ivL4c5MbqcxC1+5JUU5Wa6+pLwAEKpjJ80+cLBQxhRVs429+5qx5TVVtPidItO9wRp1TZ1uv2fhGpyW1qeOlKAq5k7aE7UrpwpYwBOSpObav9pL3bQV8GwUYZeSR1SNkl5ZBh2px+PaWM1zEJ0P07eEVdv62vVnksd2dk5hnJFr8x3vW2p5vxB5nv8k7J09rQLW09SXqdwvAIj+gTjycMU//vGPW2+9tUg60R7/PffcI2Juq622Etf1iSeeCKefe+65f/nLX6666qodd9xx5513vvvuu0VjNmLEiO23336PPfaYMGFCuOTvf/97ESJbbrnl4YcfLgYe0RL+/Oc/ixL69Okj+iL33nvvL3/5y3CucP311//2t7+NTqkk220xzBOLiT0RJZ966qnvvPNOuLrc7euuu65379677LKL2LdwlmktkV4vvPDC7bbbThym2NaVV14pVg/Xyn5+KoZCTLt69dVXr7vuuqKjc3CrV1999buCsiny4xHivNkTrunyKWFWWVrbRedjhx12EBOTxEAlbRhEic2JQDW9VmuqJpYXAEwbHTNmzE9+8hPRud99991FtFQMMTN8+PDw2E1bNwWhL2V5xjRI1Vs19RLsZzV++eQqCbOlXDIe3vEYiAZApX4xUOS0I4gk0LFjx7Fjx4r25ZhjjonOEmlEJPbwo+iwirMUP8+VpTnHdA61Fdl02rXlK5cyHkKmzBYvzW9UmLZbsZYgkqTYjV69eslkaxoIVXK5OtozEG9WwvM2ffp0WXhIDM8q5lMR3yW/lyC1siTnFJlZ0r4AYDrbplnRRvnpp58+9NBDRSsven1HHXWU9mVoMUpfccUVP/nkE/kx2kZstNFG0dHdhx9+2Llz5/DoolGh3ZA24OXfptirLLv/lh1I0vG2iB6m0iwOGTJk7bXXln/Hq5X2nIsmQyS3VVZZRdQXucPRk5OkmxTfkCDOTJJjceL0DYRr5JukKMe1ZbT3ZiuGC2dJWdqQrpijOvkIKxoblh2w9/BDlqpkKTxhi2Y/q/Gg1cZ2xbyT9rbGsv8JT07F2iKbKn50uikMvChyVzM+WBDHLlqK008/PZyivdymMxa9sqbLZ7niCtO1i8dkwoiq6LqpyrragUwlWYavmM+MFw38AkCShl6b3qX4ZY3eYH399dfFtbj11lsrkcsdz0tyYctWssvtC4YUHdRodbO/AGCpYlVPb3auj5OmCGCtFOW4VoSqtxyTn15Ln7/S+qWmOJYZM2bIj/GMamrNLZe+oquGFetQNzwcS7GmdsQuYUoxpfH4CTHtRsKmx7S6nXLVxGlcffXVI/P1+5/ubrO25fJydLUY4zglgRQ1VytFOSnysD0JxCPTck0tQ4Bof0YbRR45XayMXFNukkRhOsNiAHjiiSfKv6UbbrhB3nmrmM+qpR554dTHSBHSWr7KKRenYBN9J3GKbr75ZnVGK1FJt9lmG2WiSODbbrut/Ds+WIurWojpzoZkidhozlHuFZvW0jYovuT25LrTJa5Y7zpWYuNre6/MfmfGi9xOYxa+ckuKcrJcfUl5ASCsO5ZOWsVcp+Ktv6U10TZbpoGDaYtRypiiaraxd1+TtLwWlooWvb1vuTdYqU3X1On2exZOwWlvfSw3vuIh53fUFg2qWuyknKvdz+Q7aU/UvzffMorPMlVALV8nJMnZqCQ+IQlrruWrvXRNWwHPhn2XKta8qr1bYumhmY4iHlGWZ3UqtUl6ZRl0pBiPW2I1OojWtraStiesnVgxB4xp+SjTPliC3HKLIKpqW2/pzyQcL1R0NSIe20nOQ2pOYZyRU/NdWbYNslxQy+3WiuHkW1rP+PmvpAqziu7iStpdsrB09iq6BrcSqaeWxCh3PsmX+xXDViqxM2lpkiyXKVpf4tFe+hcAbrrppvB3NMVJFFUu2m8QR96pUyfR7t5///3Dhg1bYYUVpk6dKmeJU7beeuuJQu66666TTz55+eWXF6dY9OnFx+OPP150It94441Kax0Wa4krJzr9++23nxhyvPXWW9ESRDTceuutIhReeeWVtm3bPvroo3Lu3Llz11xzzWuuuUZ+DCXZ7UsvvVRctnHjxt1555077bTTD37wg3B1sdGuXbsecsgho0ePPv/885dbbjlxaPa1xIF36dJFBIeoM3vvvbeI7zApZz8/lkJMu/r444+LRC9q6V9bvf/++7Kc7Ar7eMScOXNEdYh3+KJMl08JMzlFXMQDDjhAxKQ47e3atRN5wV5IJW0YhN588802bdqYejyWamJ6AcC0UZFDxRH96le/EmM5kUPl9+7amAlLs2zdFIS+lOUZ0yBVb1VUf9GcfBYhhjEV61nVXj65SsJsaQrveAxEw6mOMVDYtCOJDsQ666wzb948cTnEmDn6SwOiz3HxxReHH0WfTOSE+HmuWM+hqSKbVtGWH72U2hAyZbZ4aX6jwrTdirUEcTbEqRYdU9EfFe17NNkqan11TGcg3qyE5020VqOWuvHGG0WrITqmFfOpiO+S30uQWlmSc4rMLMVfALCcbdOs8GJ98sknIgmL3p0Yn4iQOOuss8KbklGiPopGIfyojCTXWGON8Ocr/vCHP7Rv316Ek/xYdUPagJd/m2KvsmzqsOxAko63RfQwlUGjGEpttNFG8m+lWpnO+aRJk8R2u3fvLuqLmFVx7ybF669wxx13iAXC71S8cPoGwjXyTVKU49Qy2nuzFXNlMaUsU0hXzFEtr2CSEVY0Hkw7ULH28KMsVclSeJIWrepZVYLWFNsV807a2xrL/ic8ORVri2yq+OF0Sxh4UeSupnJyJBHtWy39v5u1l9tyxqJX1nT5LFdcYbp28USaMKK03VRlXe1ARllMe1oqtY+lxn4BwN7Qm9J7xXBZ+y59AWD69Onf+973Bg8eLAfC4XWM5yX7Vry4PK8vGCwp3SRa3ewvAFiqmP30euH6OGmKANZKUY5TRUhyyzH56bX0+V977bVDDz1UVIqw1x3PqKbW3HLptdXQvkp4OJZlTO2IXZKUYkrjFd0JMe1GwqbHtLqd0gKKhmmTTTYJP5r239KKmS6rqeXycnS1GOM4JYEUNVcrRTmuebhqEohHpumaVqxDgPDKmqLII6eLlZFTyq0kSxSmM/z888+LixWeLtHBEJdGdB4q1rNqqUdeOPUxUoS0lq9yysU12ESbu/322//zn/+Uv6MZkrVeXLjoROHaa68V0+Xv7GoHa1FJCjHd2ahUi9hozinCUCi3J9ddL7HlrqMUHV9bemVV78x4kdtpzMJXbklRToqrr3z9Kp8VDl8AiPZ4TZ00U52Sa8UfLTC1JtpmSztwsGwxKjqmSJJt7N3XJC2vhaWiRW/vW+4NVmrTNXW6/Z6Fa3CaWp+KNRrjIed31KYMVL3vpJyr3c/kO2lJ1JZbRtpZ2gpo4eWEJDkblcQnJGHNNX21l6VpK+DZsOySJa+a7pZYemimo4hHlOVZnUptkl5ZBh2uUWeP1WggaVvbiqEnrJ1YMQeMaXmFaR8sQW65RRBK0tZbal/0LJkOsGKoEUpsi8uR5Dyk5hTGGbk239E2yHJBLbNMJ9/SesZzSyVVmGkvrmWXLCydPW2DW4kcjiUxypMwMMGX+6athIWEZ9JSKSznKtxbba0v/QsAogu+0korPfnkky+99FKHDh1Ecgn7DWK8JHoMYlAarnLkkUf2799f/i1OmWho5d+ff/65ONFhx1E0vauuuuqoUaNECausskrYgoqP3bp1EycuLGGzzTaLvsslrl+Y72677TYRi/EOWdXdVsh0GQ75xEZFFQo3KlYJs2FUuJa46iIjiwojp4vtigiTO5n9/FSshVh29ce1+X9ACvt4xJQpU8TlEDkunCISgUyCjzzySGTB/xO96PEwE1O6d+8uv4EWTjvttJ49e4ZzQ9FCUodBSB6C2G1leqW1BEs1iTbY4d+mjYocKkLrnKU/exMVjxlZmn3rliD0oizPmAbuvdVKa7JqWZaMGdNZtVy+eBibsqUlvJUYiIZTHWOgsGlH2m677YYMGVJpfb985ZVX/uMf/xjOMo0P43XNdA5NFdmySkVXfngpLSEUUtrE3KIiYVssDkFs98orr5TT33vvPXHa4wMhqdZXx3QG4vUxmqglMVdsdIstthCHEJ1eiZ2K3C6Bk7Ik5xSZWVJeALCcbcus8GK98MILYrdnzZr1f8UZ7LPPPtEfv4mOoMS6Yuxxxx13yI9ier9+/cIlq27IFPAKJfaicWvZAdeOt0L5hmCrrbZ6+OGHH3jggfPOO0+M7s4++2w5K1qtLOdcuOCCC7Zd+oMHFcduUkVXfwVxTsSZeeaZZ6ITM3L6BsI18k1SlOPUMlp6sxXrhTOlLFNIV8xR3TfZCKuybGyYdsDSw7fw26LZz2olVjtMsa1I2NZUzPvvdHIsLbKp4ofJwRIGXhS5q6ncSpPOOOOM1VZbrWK+3JYzFr11Zbp8piseZ7p28USaJKJM3VRlXdNAJkmGt5wZLxr7BQBLQ29J76bL2rf1BQARPCLwhg8fHk6PXm4lL1m24ktuXzCk6KBGs0HVFwC0VaxiPb2+uD5OmiKAtVKU41QRktxyTH56433+loh11lln8uTJ4dx4Ro1S7m1qL72pGlbMq1Qih2NaxtKO2CVJKaY0XomdEMtuJGl6LKvbiaMQ7ZHISGLoceCBB7Zv3/62226Tsyz7b2nFoqKX1dRyeTm6WoxxnJJAipqrlaIc1zxcNQkkr6r2IYC8spYo8sjpYmXklHIrCRKFQhna9O7d+5RTTpF/33fffe3atXvjjTfsZ9VUj3xx6mOkCGktX+WUi2uwTZo0acMNNxQnasUVVxTXPXwaQARei24YLvKAmP74449XDIO1qCSFmO5sVI3YaM4pwlDoiryeXHe9xMpdx/glC8fXFWuvrOqdGS9yO41Z+MotKcpJcfWjFzQUv/Vt6qRZ6pRcK/5oQZLWJNpsxYe9li1GRccUSbKNpfsq5zq1vAqlomnvFFWs9wYrtemaOt1+z8I1OE2tT8UcjXKW6W6bKfaqjgiilIGq952Uc+P76bSTpkRtuWVkmWUfuSu8nJCqZ6PictUS1lzTV3tZmrYCng3TLlnyquVuiamHVrEeRTyiTM/qVGqT9Moy6Eg3HjfFavQSRFW9taKdaAkY7fJ2Ce/aWW4RhJK09Zbal2S8YKkR0dhOcR6cOIVxRq7Nd7TDY7qgllmWk29vPeO5JSphmGkvrmWXLEydPUuDGz0cU2Lsm+zLfctWKrEzaakUpnNVieytNtpL/wKA+ENcgMGDB4vL9rOf/Ux8DPsNTz/9tNiH4447btiwYWKuOK0//OEPw7cMxSmLBmLv3r3D90gEsdill14qT5koJ5x+9NFH77vvvvJvUcLxxx8fzhLGjh0rmm0ZAXvsscegQYOic6Wquy288cYbYmC/2267id3YfPPN27RpM2bMGDlL2W2xA3J101qyeY6+2PSjH/1Ihmz281OxFmLZVXsWSK2wj0dMnTpVnKXwIlaW1lhR+cWpkFO0l08uqYSZmBId5IiGUyz8UevL6KZCUodB6P9j786jL6nqA4E3dLM3O4qImEYICUFQRAKOYkdUcIIoyqYImgQX4og6JgInM1FJumVQAdFjxGiUqBFowYAMwrggW9NhEWQRFJRlWF2ArpMzYzRz6LnTdagp6r26v1f3Vb3fWz6fP/r8flXv3ap377e+9a1XdX+df4SvfOUrleXZU5ml7jApp8vi57qN5lvpO22rN2by1uJbjwRhKyblGdM1zavVbG2yCqexm0vyiWt1vRoZvt4wrsuWkfCue/ZrfmNgbNNO9tSBVoxI6Njyl8h114e9x1pdH9YdyJG3ZP3aL4ayLoTqMlvW01q7URHZbl0L/29i5YIFN954Y7Eq9EnvhVDW/ehEeqD3eOy9/gwf/FnPetYdd9yR/xrpik6HINmkJOeEzJyrTACI9HZkVfmK+g/+4A+e+9znhkuLiy66qPhjGxWhFDz++OOLXyv3pUIRGy6Kwg+33npriJAVK1YUq+bcUF3AZ9HYq8Rt3Q4MUnhHVO4QrL/++uGiLnyEl7zkJeE6P3yifFX5sIr0eTbYBIB4dq0cv8FPfvKT8PpLL720snwYje5ANI38OgntNDozRqrZLDpwdSmrLqSz+qiuNFV3hZU9PTbqdiBS4VdEDqW6xgc8o8V7NXt60EZiO4vuZN25Jqvf/8E7J35Grjvwi+QQCYNWjHOpWTkR5EI/PPOZz8zqhzvSY8XIRoavbsR71Y1dbyIdJKLqytTKe+suZAbJ8JGeacV0TwDI6k/0kfReN6xhKPfcc8/FixefffbZ5eXl4a7kpchW2jKyGwwJBWo5G8w5AaDvIZZFu7ctTR8nTQjgvhLaaXQg5JEc/8px8O7trfnDmN621jXXXBOGbJtttvnRj36Ur+3NqHVn87qhrzsMs/q3ZKWPU/eayHkkbs6UEknjWU+HRHZjkFNP5O1x4VNstdVWYRNhn0MqC1dJxTklsv+Rs1jdsNaduVr5dF1c4zRKAglHbl8J7TTNw3MmgcEP1fglQD6ykShqUaPBGlKjlJsNkCiy+h7O1v4RxFAt53Xp4YcfHno1ix6bWf1x1JZGNUZCSPfVVjuTpWmwZWufLQi9FK4KQxiEHssfTq27DD/vvPMWPPWoVt+LtbJBGqn7ZmPOiC3nnHG4FBrZk+tNh7jyrWPvkBXX11m0KqsbzXaNrBuH0VZuSWgnYfQrt1+/9KUvLaiZANC3SIscU/m7Kmf/yNmk7rRVuXCIb7GsfE1RF595tgnBnEXL13ztnGfeiMqB1vebovh3g1k3pWmjr9+H0TQ4s5qzT1YfjfmqSsi1e9VWuVDN2t7JfG3vfjbaybpEHfnKKLIqfuXea/gOmbM3siajNviR2/fWXl3qGNC49UZWs0uRvBr5tqSuQsuin6I3ouqe1cm6SXqTctGRdj1eF6vlIag72/athPsujARM39f3qtuHuiCPf0VQqOuE8rk+cvQNcr0QOSLKsT1gPyRrFMZDanr6Lhc8dQMaWRXp/PjZsze3NA2zusGN7FJEXbEXOeGWP05dYqzsfN3N/chWsp6ejBwUdX2Vlfa2b7RPwwSA/O9y7bDDDuecc05Wqhsuv/zysA/h036k5PTTT8/fvvSp/9Q7t++++4a4KX7NT5wrV64MLdxyyy3F8ne+850hUvOfKy1ka8/cS5YsOeOMM8JbwtiU/ypSYc7dDl70ohcdcMAB//zP/xyi/Prrr19vvfWKiY+VjYahzb8lrHtXfrSEQrN4SzFnZfj+yaKNRHa1Nwu0YmwfjwgJYuHChb1ved3rXlfcjes7fFlPN+ZLQqFc/Prtb387DMG9996b1TeSHAaFhx9+OHyED3/4w5XlQfwwKafL4ue6jeZ5I6TFoqlCb8zkrcW3HgnCVkzKM6ZrmlerWc13jll9r0aGrzeM67JlJLzrnv2a3xgY27QTvPvd7w6H7b5P2WmnnUJX//CHP8zXVq4P3/CGN+Q5ofdYq+vDugM58pasX/vFUNaFUF1my3paazcqItutayHfbvHcfBCqsd4Loaz70Yn0QO/xWE7U2dr/TmujjTbKJ2TnIl3R6RAkm5TknJCZc5UJAJHejqwqj3s4y3/yk5987Wtfu+mmm4bkXH594RWveMWf/umfFr9WzhFnn332okWLfvrTn4ZrsO222678H1nOuaG6gM+isVeJ27odGKTwjqjcIeh7WsyeHtKRPs8GmwAweHbN5V/B5N+htKXRHYimkV8noZ1GZ8ZINZtFBy6SsvqGdFYf1ZWm6q6wsqfHRt0ORCr8isihVNf4gGe0eK9mT28/EttZdCfrzjVZ/f4P3jnxM3LdgV9eXhcGrRjnUrNv54TUus8++2TR4a7rsWJkI8NXN+K9+u5e1tNCNlhE1ZWplffWXcgMkuGz+p5pxdRPAKg70UfSe92whqF8yUtesvHGG5/69P+5uDzclbwU2UpbRnaDIaFALR9uf/RHf/TGN76xvPa0005bf/318z9mU3eIZdHubUvTx0kTArivhHYaHQiDfOU4ePfGa/7Vq1dvtdVWJ5b+F6xKRq07m9cNfd1hmNW/JSt9nLrXRM4jcXOmlHgar+xPZDcGOfVE3h5XHrUf/ehH4YP85V/+Zf5rZP8jZ7G6Yc1qzlytfLournEaJYGEI7evhHaa5uE5k8Dgh2r8EiAf2UgUtajRYA2pt+vi5kwUWX0PBw888MCGG264YsWKBx98cKONNsqXx3u17jhqS6MaIyGk+2qrncnSNNgqQpYOsfTYY4/ll+Ef+tCHKi9YtmzZokWL8ocV6q6GCoM0UvfNRqOIHYdLoZE9ud50iOf81rG4vs56XlCuyub8ZqYVI+vGYbSVWxLaGWb0c+G0sqBmAkDfIi1+TPWe/SNnk7rTVuXCIb7FsvI1RSTbrLvuuvl/QB0pX/O1c555I+Y80LK5vhvMuilNG339PoymwVlRnH2y+mjMV9V921YXe3NeEZRVLlQrht/J3rX5fjbaybpEHfnKKLIqfuUel9Yhc/ZG1mTUBj9y+97aa/HUNg69UVHsUiSv5meivt+W1FVoWc+ulj9Fb0TVPauTdZP0JuWio+n1eDxWy0NQd7bNairh3oWRgOn7+nx5Wd0+1AV5/CuCwiDn+sjRN8j1QuSIqMT2IP2QrFEYD6np6bt8Dqob0MiqSOfHz569uaVpmNUNbmSXIuqKvcgJt/xx6hJjZefrbu5HtpL1NBI5KOr6Knv63vZG+zRMAAhCLf6MZzwjP3MXdcN9990XEkrvTKPcICP00EMPhUH92te+Vix/6UtfWkzC6A304OSTT959993D8j333LOyKjfnbt91112h637wgx/krwk/hF+L7F830nXveuSRR0LN9OUvfzlfHmqm5zznOXlSHr5/smgjdbuarQ3Kd73rXcWqtozz4xGvfvWrd91118oks+KL+Lrhy3q6MV8SFL+eeeaZm222WRZtJDkMysKuhnf94he/KC8Mv8YPk3ICKn6u2+j9998fllf+zF6uN2by1uJbjwRhKyblGdM1zavVrP7sWNerkeHrDeOsJlvWhXfWEwNFOM1vDIxt2gnZZptttjnmmGP+ruS5z33uBz/4wfwFYXDLX6KFUSjuQ1eOtbo+rDuQs/q3ZP3aL4aybwhFMlvW01qLURHfbl0L4RombPeCCy4oVu288869F0IjGJ1ID/Qej0W/BRdffPEGG2xQfmO8K7obgmFMSnJOyMy5ygSASG9HVpXHvRAuFXbZZZdwNVVZHrz97W9/1ateVfxaOUeEemDLLbcMF/M77LDDf/7P/7lYng2wobqAnzP2ys3W7cCchXfcIHcIsqeHdKTPs8EmAAyeXXPf/OY3Fy5cmH+H0pZGdyCaRn6dhHYanRmz+mo2iw7cICmrcuzURXWlqborrOzpsVG3A5EKvyx+KNU1PuAZLYv2avb09iOxHd/JunNNVr//A3bOnGfkugO/7/JICk02tqVm1q8TrrzyypCOwj5n0eEuVHqsGNnI8NWNeK/e3cv1JtJBIqpvmZr1vHdp/YXMnBm+rItYmvoJAFnNiT6S3uuGNQ+DSy+9dNNNNw0XrcXyylm7nJciW2nLyG4wJBSo5cPtT//0T3fdddfy2tBp5f++tu8hlkW7ty1NHydNCOC+EtppeiDEv3LMmnRvvOZ/4oknQsldDGJlQCNn87qhrzsMs/q3ZKWPU/eayHkkbs6UEk/jlf2J7MYgp57I2+Mqo3baaadtuOGGP/7xj7Po/tedxSLDWlY+c7Xy6bq4xmmUBBKO3L4S2knIw/EkMPihGr8EyEc2EkUtajRYQ2qacudMFJEezh166KGvf/3rP/WpT4UrkXzU4r1adxy1pVGNkRDSfbXVzmRpGmwVIWbCERrybfj5gAMO2GGHHcpHfYjDHXfcsYiNuquhsjkbqftmo1HEFieF+LsKXVwKjezJ9aZDHP/WsXx93fuCSlUW/2amFSPrxmG0lVsS2hlm9HORCQB9i7T4MVU5EnuXFGeTyGmrcuEQ32JZ5ZoiFCp9s03xmkj5mq+Nn3nj4gdaNsB3g1k3pWmjr9+H0TQ4K8pnn7pozFdVQq7dq7ZKUFUMv5O9a/P9bLSTdYk68pVRZFXlAGwkrUPm7I2syagNfuTW3dpr69Q2Dr1RUexSJK9Gvi2pq9Cynl0tf4q+EdX3WZ2sm6Q3KRcdCdfjkVgthiByti3rWwkXCyMBU9a3kSy6D3VBHv+KoGzOc33k6Ct6KfIBI0dE39jO6vthGI3CeEhNT9/lc1DdgEZWRTq/8pYsmlsSwqxucCO7FNG32MvmOuEWHyerSYyVna+7uR/ZStbTSOSgqOurrGdvc0W0T8kEgF+tlf9crhve9KY3LVmy5Nqn/reI66+//qKLLsp/HnCEDjvssPBzCNPw8+c///kwWpdffnn+mt5AD+65554NNthgo402CmfuyqrcnLv96KOPrrfeemeccUa2NqXuv//+YaNzPqIRedef/MmfhNz6ne9854477jjuuOM23njjIikP3z9ZfSN1u5qtnde4zz773H333SEQV69eXbxmSOP8eETolsWLF4czX95R4VOHZPfCF74w/yI+Mny9YRaWhJIrXxvGNAzue97znngjWWoYlIUdDhnngAMOCC/I1p6zL7zwwj322CP8EDlMKtm/+Lluo4cffnjYz/z/GA0tX3bZZfkLemOmaC2y9UgQtmJSnjFdk1SthmT1ohe96IaS/FQd6dW64esN46wmW9aFd9YTA+VwmscYGNu089WvfjWURHfeeWd54Yknnrj99tvnf3zx+OOPDzX6vffeGzozDEHo9jwn9B5rkT6sO5Ajb+ltvzyUvSEUz2zdRUV8u5EWDjnkkL322iuUqtnay4AwCr0XQqMZnboe6D0ei34Lx/jmm2+e/x9VhXhXdDcEw5iU5JyQmXOVCQBZtLfrVhWDdfvtt3/jG9/IYy9cTYVjsPysW+Ef//Eft9xyy/xlWb8rqHe+852bbrpp+bouN+eG6gI+HnvlYMv13YE5C+9s7ZdZISb7fpk15x2CXCWk6/o8G2wCQDZwds391//6X0PaqSwcUqM7EE0jv05CO43OjFm0ms3qB64uZdWFdFYf1ZWmIldY5Xio24EsWuEX4odSpPFBzmjZXL1aab8utuM7GTnXRPZ/kM6Z84xcd+AXyyNh0IqxLTWztZ2Q/4f1IQb+x//4H//lv/yXkIRDtxRfdvcd7kiPlUe2bvgiI15RN3a9iXTAiOotU7Oe99ZdyAyS4SM904pZmABQd6KvS+9ZzbAWYRBetsUWWxSJujyOvWV5ZCutGNkNhoQCtXy4XXHFFeGzh+gNqSDEc4jqTTbZpLi+iBxi8e5tRdPHSRMCuK+EdpoeCPGvHLMm3dtb8+epPrjyyitDcg7nzbqveiJn88jQ9z0M428pPk7kNXXnkWyu4n/OlFKXxrOe/cnqd2PAU0/d27O5PkX5DPjLX/4yFDbF3bi6/a87i0WGte7MNfyny7q5xmmUBBKO3L4S2knIw/EkMPihmkUvAYqRrYuiFjUarCE1TblzJop4D2dr/0/5DTbYYPfddy//nbxIr0aOo1Y0qjESQrqvttqZLI2CLWTvEFQhSf785z8Pv1533XW77rrr3nvvna8Nv4YS6+CDD84fkA0laDh4w4X5TTfdlL+g985O5bI3G6CRum82siYROw6XQiN7cr3REGc93zrGr6/jVVn8m5lWjKwbh9FWbkloZ5jRz0UmAPQt0rL6Yyp/V6UurTubRE5bvRcOkS2WVa4p+mabsCQsz18QL1/nPPNmA9fGvd2eDfDdYNZNadro6/dhNArO+NknEo29ITfkVVtFOai62MnetcV+Dr6TkUQd+cqoblXvAVgX5211yCC9kQ3cIYMcuYW+t/bip7YJ6o34LkXyat23JZEKLfIpeiMqq3lWJ+sm6U3KRUfC9XgkVoshiJxt+1bCfRdm9QFT9/qyyD5EgjzyFUHZnOf6yNE3yPVCVn9ElGP7tttum7MfhtEojIfU6PSdPb3IiQxoZFVd58fPnpXckhZmdYNbt0t1p4CsptjL1Z1wyx8nq0mMlZ2P3Nyv20rW00jkoIj0VbG3fY/6KZkAUFauGx555JGjjz560aJFoSgMZ9zw7yc/+cl81YAj9NOf/jTER0hkm2++eRjjYrZ91tNCIURnqFHCpqsr1hpktz/+8Y+vv/762267bciJoVvCnhdfEUZGuu5d4Uh785vfHBbm00xf+9rXhrIgf8vw/ZPVNxLZ1VtuuSU0GPqzfDU7vHF+PCIICesVr3hFiKWQL0LWC4MVxqLIVnXD1xtmYUk4rb7gBS/YeuutQ2v77bdfkdrqGslSw6AifISw9bDRDTfcMCSjsKH8lBk5TMrpsvxz3UYfeuihN7zhDSEPhk8XPstrXvOa/PW9MVO0Ftl6JAhbMSnPmK5JqlZDslrwdGGksmiv1g1fbxjnerNlJLwrMVAOp3mMgbFNO6HzX/7yl1cW/mDtJMtQCoSfQx0WMnk4BkNaeN3rXlf8j129x1qkD+sO5MhbetsvD2XfEIpktk6jIrLdSAvhwmb33XcPSX6LLbYIL+v7X6GNZnTqeqD3eCz6LRSypSP+/8lL5EhXdDoEySYlOSdk5lzvBIBIb9etKgYrlCLPfOYzwxBvv/32odlQIYTLs+LthbAwHOPhmir/NSTwpaV5ycHVV18dPn6Ih/LCbIAN1QV8Fo29crDl+u7AIIX3mWeeGXqm76cuf8zIRWMlpOv6PBt4AsCA2TW3xx57nHbaaZWFQ2p0B6Jp5NdJaKfRmTFXV81m9QNXl7LqQjqrj+pKU5ErrHI81O1AFq3wyyKHUqTxQc5ouUivVtqvi+0supORc01k/wfpnDnPyHUHfrE8EgatGNtSMytdLIRBD5VbqNvPOOOM8uMFfYc70mPlka0bvsiIV9SNXW8iHTCi+paplffWXcgMkuEjPdOKWZgAUFY+0del96xmWMthsHLlym222ab3b1r3luWRrbRiZDcYEgrUSlkYUkE4caz71Hdfxx57bHGjN3KIxbu3FU0fJ00I4L4S2ml6IGRzfeU4ePdWav7y90KbbrrpXnvt9dWvfrV4cW9GrTubR4a+72EYf0vxcSKvqTuPZNHif5CUUpfGs579yep3Y8BTT93bs7k+ReUMGI7KEBj5U011+x85i9UNa92Za/hPl3VzjdMoCSQcuX0ltJOQh7NoEuiNzLoxzaKXAMXI1kVRixoN1pCaptxBEkWkh7O1fxx0u+22C4FxzTXXFAsjvRo5jlrRqMZICOm+2mpnsjQKtnBhdcABB4RUH47r/KwdjvHbbruteMFVV1219957hxPo4sWLw7+77bZb/sBErvfOTt+4jTdS981G1iRix+FSaGRPrjca4qznW8d8pOqur+NVWRb9ZqYVI+vGYbSVWxLaaTr6vQVbZAJAXZFWd0zl76qc/SNnk7rTVu+FQ2SLZZVriqwn24QADkuKtb29US5fBznzRmrjOb/en/O7wayb0rTR1+/DaBSc8bNPJBp7Q27Iq7aKclB1sZO9a4v9HHwnI4k68pVR3areA7AuztvqkEF6Ixu4QwY5cgt9b+1l0VPbBPVGfJciebXu25JIhRb5FL0Rlet9VifrJulNykVH8vV431gtD0Hd2bZvJdx3YVYfMHWvr6jbh0iQR74iqIif6yNH3yDXC1n9EVGO7XPOOWeQfkjWKIyH1Oj0nT29yIkMaGRVXefHz569uSUhzOoGt26X6k4BWU2xl6s74ZY/Tq43MVZ2PnJzv24rWU8jkYMi0lfF3vY96id4AsDgQriED3/77bc//vjj1XWDCdcYoYW+AdQrDMzb3/726tKGHnjggVWrVvWdsxIx57tCD/zO7/xOPuGmMHz/ZC01MqRxfjyikI9RyH29/0fVnMNXcdNNN4V8Wlk4SCNDhsH9998fXvmTn/yksrzRYZKr2+i9994blufzogaUsPXhTcozpmtSq9U0gw9fb7YsTmZ9wztuXmJgItJOndWrV4dOvuOOO6orGqo7kJP1htAgma2vIaMibbuhY2+88cZbb721uqKJtkZnyB4opHVF1t4ONDIpybn1zBzp7ciqXP6C++67r7qi5MQTTzzkkEPyn1/84hcfeeSRT18/kL4bigR8cuwN7k1velPl2rWQ/DGzAfp8ToNk1yuvvPIZz3hGeGV1xXAa3YFoGvl1EtpJPjPWVbNZ84HrG9JZNKo70rfCL6QdSo3OaJFeraiL7bSdHES8c4ZXFwbDm+hSM9d3uBv1WNfD10hvmVpodCHTt1uyhj3TyLROABhcJL1HhrWpyFaGNLIbDAkFam+99Nhjj91www2hKyp3EOdX08dJEwK4r4R2kg+EyFeOgyvX/AnSzuYtHoa9KueRSPE/uLo0HjHk6azdTxHZ/75nsciwtnLmqny6jq5xGiWBhCO3r4R2EvJwYfAkEBnTAS8BIlE0vEaDNaTklBsX6eGITnu1TqMaIyGk+2qrncmSEGy//OUvQ06+7rrr6mLp7rvvvuaaa972trdtvfXW4citrh5MpJH4NxtpEVv3rlZOKH2N7Mn1pkPcW0UPb/BvZpoaWTcOo63cktBO09FP0LdIy+qPqUYanbYG2WLfa4qQbTqq+SO18fAHWkelaaOv34eREJx1Z59GX3w1NeflUiWoxnMn4yJfGUVWFSJxnk1mhwyo76lt4nqjbpdykbza99uSeIXWSO+zOh0lvUm56BjmerxvrJZFzrZ9K+G+C7P6gKl7fVlkH+oM+BVBbs5zfe/R96pXvapyONd9wKzmiKgYpB/SNArjISWcvlsR6fzBJYRZVj+4vbsUPwXEDXLC7U2MTQ2ylVZOSZVon4kJACNz2223nXnmmYsWLSr+k8RxcPXVV3/6058OB9j3vve9I444Yuuttw7HW/VFU2EKHo/ozuyEwShNyjOma4arVrtQly17ZxCOOWkHxtCkJOdxy8xzeuSRR/bee+8vfvGLf/7nfx4+afkv2E20D3zgA/fcc09l4Te/+c2J+Jjvfve7P/OZz1SXDq3RHYimkV8noR1nRhV+xHR0zsyWmpM4fGN+IWMCwKQb2Q2GRgXqpNRLuaaPkyYEcF8J7czvgZDX/K3cSJ5HkfNI3+K/I5HdGETk7aP8FB2JfLqOrnEaJYGEI7evhHYa5eFp1WiwhjS/KXccNKoxEkK6r7bamSzdBdsTTzzx1re+9aCDDoo/YRDXSiPjaWRPrg8+xJNVRedG1o3DaCu3JLQz+OjPiBFfU/Stjds60DoqTRt9/T6MFoOz9S++IlcEvQYMqvndyU71jfM5TWuH6I3h1T2r01HSm5SLDtfjoxSuOy699NKtttrqC1/4QnXdWGoUxkNq8fQ9fdJOAYOoS4xdaP2UlJkA0K499thj55137uKMOIzrrrtu//33X7Jkye/+7u++8Y1vvPnmm6uvmBYz+3jEIGYnDEZpUp4xXTN+1WpdtjzkkEP++q//urJwnEk7MIYmJTmPW2Ye0HHHHXfQQQedffbZ1RXTZUY+Zp1GdyCaRn6dhHacGVX4EdPROTNbak7i8I35hYwJAJNuZDcYGhWok1UvNX2cNCGA+0pox4EwvDE5jwy5G0O+fcyN/tM1SgIJR25fCe00ysPTqtFgDUnKbVRjJIR0X221M1kE23wZ2ZPrgw/xZFXRuZF14zDayi0J7Qw++ozMmB9ojb5+H0aLwdn6F19dXBFMxE6Okg4p0xtldc/qdGRSLjpcj4/St7/97R133PEd73jHY489Vl03lhqF8ZBaPH0zuFEmxtZPSZkJAEyTmX08gvkyKc+YrlGtdkbagTE0KclZZmZsNboD0TTy6yS048zI1FNq0hYTACbdyG4wTHGB2vRx0oQA7iuhHQcCdKFREkg4cvtKaGeK8/DgGg3WkKTcRjVGQkj31VY7k0WwzZeRPbk+3UM8sm4cRlu5JaGd6R59utDo6/dhCE5gHEzKRYfrcSIahfGQnL5JYAIA08PjEYzYpDxjuka12hlpB8bQpCRnmZmx1egORNPIr5PQjjMjU0+pSVtMAJh0I7vBMMUFatPHSRMCuK+ETiQZGAAAbHRJREFUdhwI0IVGSSDhyO0roZ0pzsODazRYQ5JyG9UYCSHdV1vtTBbBNl9G9uT6dA/xyLpxGG3lloR2pnv06UKjr9+HITiBcTApFx2ux4loFMZDcvomgQkATA+PRzBik/KM6RrVamekHRhDk5KcZWbGVqM7EE0jv05CO86MTD2lJm0xAWDSjewGwxQXqE0fJ00I4L4S2nEgQBcaJYGEI7evhHamOA8PrtFgDUnKbVRjJIR0X221M1kE23wZ2ZPr0z3EI+vGYbSVWxLame7RpwuNvn4fhuAExsGkXHS4HieiURgPyembBCYAMD08HsGITcozpmtUq52RdmAMTUpylpkZW43uQDSN/DoJ7TgzMvWUmrTFBIBJN7IbDFNcoDZ9nDQhgPtKaMeBAF1olAQSjty+EtqZ4jw8uEaDNSQpt1GNkRDSfbXVzmQRbPNlZE+uT/cQj6wbh9FWbkloZ7pHny40+vp9GIITGAeTctHhepyIRmE8JKdvEpgAwPTweAQjNinPmK5RrXZG2oExNCnJWWZmbDW6A9E08usktOPMyNRTatIWEwAm3chuMExxgdr0cdKEAO4roR0HAnShURJIOHL7SmhnivPw4BoN1pCk3EY1RkJI99VWO5NFsM2XkT25Pt1DPLJuHEZbuSWhnekefbrQ6Ov3YQhOYBxMykWH63EiGoXxkJy+SWACANPD4xGM2KQ8Y7pGtdoZaQfG0KQkZ5mZsdXoDkTTyK+T0I4zI1NPqUlbTACYdCO7wTDFBWrTx0kTArivhHYcCNCFRkkg4cjtK6GdKc7Dg2s0WEOSchvVGAkh3Vdb7UwWwTZfRvbk+nQP8ci6cRht5ZaEdqZ79OlCo6/fhyE4gXEwKRcdrseJaBTGQ3L6JoEJAEwPj0cwYpPyjOka1WpnpB0YQ5OSnGVmxlajOxBNI79OQjvOjEw9pSZtMQFg0o3sBsMUF6hNHydNCOC+EtpxIEAXGiWBhCO3r4R2pjgPD67RYA1Jym1UYySEdF9ttTNZBNt8GdmT69M9xCPrxmG0lVsS2pnu0acLjb5+H4bgBMbBpFx0uB4nolEYD8npmwQmADA9RnaxtEa4stakPGO6RrXaGU9lwRialOQsMzO2GhXVTSO/TkI7zoxMPaUmbWn0IF1CQu4roR1xWGdkNximuEBt+tBSQgD3ldCOAwG60CgJJBy5fSW0M8V5eHCN6pYhSbmTcvk/BQTbfGmU/4cx3UM8suuRYbSVWxLame7RpwuNzr/DEJzAOGhUSCSciPtKaMf1OBGNwnhITt8kGKMJAMuWLVu9enV1B2EwIXhG+XiEcCUEQDjvViMjKiEx9pXQzmc/+9m77rqr+hkYjrQDYygcJpMyAUBmZjyFsAzBWY3Xek0jv05CO86MTDelJm25++67//7v/7465PUSEnJfCe2Iw77Cqfmss86qdlY3prVADR+q0VGwJimA+0pox4EArQtJ4HOf+1z1YKuXcOT2ldDOtObhwSVk7GHMeMptWmMkhHRfbbUzWWY82OZL0/w/jCke4lF24zDayi0J7Uzx6NOFpl+/D0NwAvNugi46XI9Tp2kYD8npmwRjNAHgiiuuWLFiRXUHYTDnn3/+VVddVY2qzghXQgA0DbmExNhXQju/+c1vTjjhBAVru77+9a83jYFhSDswiIQDMyGp9tW0HZmZMRQCMoRlCM5qvNZrGvl1EtpxZmS6JZzRhuGAmlYhsZ900kkS++RKODUPYyoL1ISjYE1SAPeV0I4DAdoVksCJJ57YKAkkHLl9JbQzlXl4cGkZexiznHITaoyEkO6rrXYmyywH23xJyP/DmNYhHnE3DqOt3JLQzrSOPl1IOP8OQ3AC8ysh6SWciPtKaGfGr8epM/p62OmbBGM0ASA4//zzPwbNLV++/LzzzqvGU8eE6ywLIXfuuedWY2IuaYmxV1o7v/3tbz/72c9WPwmppB0YQxOXnGVmxk0IyBCW1UiNSoj8vtLacWZkWik1actZZ50lsU+0hBEc0vQVqGl9mBbAvdLacSBAixKSQNqR2yutnenLw4NLGKzhzWzKTejttJDu1VY7E2dmg22+JAT5kKZyiEffjcnayi1p7Uzl6NOFhK/fhyQ4gXmUUEiknYh7pbUzy9fj1EkI4+E5fdPUeE0AAJhibSXGttoBYE17SbWtdmCytBX5bbUDwJDaSshttQPzoq0AbqsdYJTaOnLbagfGRFsh3VY7AGVt5Za22gEAErR1Im6rHYCJYAIAwIi0lRjbageANe0l1bbagcnSVuS31Q4AQ2orIbfVDsyLtgK4rXaAUWrryG2rHRgTbYV0W+0AlLWVW9pqBwBI0NaJuK12ACaCCQAAI9JWYmyrHQDWtJdU22oHJktbkd9WOwAMqa2E3FY7MC/aCuC22gFGqa0jt612YEy0FdJttQNQ1lZuaasdACBBWyfittoBmAgmAACMSFuJsa12AFjTXlJtqx2YLG1FflvtADCkthJyW+3AvGgrgNtqBxilto7cttqBMdFWSLfVDkBZW7mlrXYAgARtnYjbagdgIpgAADAibSXGttoBYE17SbWtdmCytBX5bbUDwJDaSshttQPzoq0AbqsdYJTaOnLbagfGRFsh3VY7AGVt5Za22gEAErR1Im6rHYCJYAIAwIi0lRjbageANe0l1bbagcnSVuS31Q4AQ2orIbfVDsyLtgK4rXaAUWrryG2rHRgTbYV0W+0AlLWVW9pqBwBI0NaJuK12ACaCCQAAI9JWYmyrHQDWtJdU22oHJktbkd9WOwAMqa2E3FY7MC/aCuC22gFGqa0jt612YEy0FdJttQNQ1lZuaasdACBBWyfittoBmAgmAACMSFuJsa12AFjTXlJtqx2YLG1FflvtADCkthJyW+3AvGgrgNtqBxilto7cttqBMdFWSLfVDkBZW7mlrXYAgARtnYjbagdgIpgAADAibSXGttoBYE17SbWtdmCytBX5bbUDwJDaSshttQPzoq0AbqsdYJTaOnLbagfGRFsh3VY7AGVt5Za22gEAErR1Im6rHYCJYAIAwIi0lRjbageANe0l1bbagcnSVuS31Q4AQ2orIbfVDsyLtgK4rXaAUWrryG2rHRgTbYV0W+0AlLWVW9pqBwBI0NaJuK12ACaCCQAAI9JWYmyrHQDWtJdU22oHJktbkd9WOwAMqa2E3FY7MC/aCuC22gFGqa0jt612YEy0FdJttQNQ1lZuaasdACBBWyfittoBmAgmAACMSFuJsa12AFjTXlJtqx2YLG1FflvtADCkthJyW+3AvGgrgNtqBxilto7cttqBMdFWSLfVDkBZW7mlrXYAgARtnYjbagdgInQ1AeDqq68O7Xz3u9+trgCYVd/61rdCYly1alV1RUMSLECLJGcYhiMIYMpI7LDGgQCzTQaAvto6NNq6DQ1Q1lZucfoGgHnkogMgQVcTAO67777QzllnnVVdATCrjjjiiI022ujXv/51dUVDEixAiyRnGIYjCGDKSOywxoEAs00GgL7aOjTaug0NUNZWbnH6BoB55KIDIEFXEwCCPffc83nPe94ll1zyfYDZdumllx555JEhu55++unVXJlEggUYnuQMw3AEAUwZiR2+70CA2SYDQF/tHhrfb+82NEChxdzi9A0Ao+eiAyBZhxMAVq5cufnmmy8AYMGCDTfcMJSqTz75ZDVXJpFgAVohOcMwHEEAU0ZihwUOBJhtMgD01eKh0eJtaIBCi7nF6RsA5oWLDoA0HU4ACP71X//1qquu+j7AbFu1atXw/01VhQQLMCTJGYbhCAKYMhI7fN+BALNNBoC+2j00vt/qbWiAXLu5xekbAEbMRQdAsm4nAAAAAAAAAAAw49yGBrogtwAABYUBMFNMAAAAAAAAAACgQ25DA12QWwCAgsIAmCkmAAAAAAAAAADQIbehgS7ILQBAQWEAzBQTAAAAAAAAAADokNvQQBfkFgCgoDAAZooJAAAAAAAAAAB0yG1ooAtyCwBQUBgAM8UEAAAAAAAAAAA65DY00AW5BQAoKAyAmWICAAAAAAAAAAAdchsa6ILcAgAUFAbATDEBAAAAAAAAAIAOuQ0NdEFuAQAKCgNgppgAAAAAAAAAAECH3IYGuiC3AAAFhQEwU0wAAAAAAAAAAKBDbkMDXZBbAICCwgCYKSYAAAAAAAAAANAht6GBLsgtAEBBYQDMFBMAAAAAAAAAAOiQ29BAF+QWAKCgMABmigkAAAAAAAAAAHTIbWigC3ILAFBQGAAzxQQAAAAAAAAAADrkNjTQBbkFACgoDICZYgIAAAAAAAAAAB1yGxrogtwCABQUBsBMMQEAAAAAAAAAgA65DQ10QW4BAAoKA2CmmAAAAAAAAAAAQIfchga6ILcAAAWFATBTTAAAAAAAAAAAoENuQwNdkFsAgILCAJgpJgAAAAAAAAAA0CG3oYEuyC0AQEFhAMwUEwAAAAAAAAAA6JDb0EAX5BYAoKAwAGaKCQAAAAAAAAAAdMhtaKALcgsAUFAYADPFBAAAAAAAAAAAOuQ2NNAFuQUAKCgMgJliAgAAAAAAAAAAHXIbGuiC3AIAFBQGwEwxAQAAAAAAAACADrkNDXRBbgEACgoDYKaYAAAAAAAAAABAh9yGBrogtwAABYUBMFNMAAAAAAAAAACgQ25DA12QWwCAgsIAmCkmAAAAAAAAAADQIbehgS7ILQBAQWEAzBQTAAAAAAAAAADokNvQQBfkFgCgoDAAZooJAAAAAAAAAAB0yG1ooAtyCwBQUBgAM8UEAAAAAAAAAAA65DY00AW5BQAoKAyAmWICAAAAAAAAAAAdchsa6ILcAgAUFAbATDEBAAAAAAAAAIAOuQ0NdEFuAQAKCgNgppgAAAAAAAAAAECH3IYGuiC3AAAFhQEwU0wAAAAAAAAAAKBDbkMDXZBbAICCwgCYKSYAAAAAAAAAANAht6GBLsgtAEBBYQDMFBMAAAAAAAAAAOiQ29BAF+QWAKCgMABmigkAAAAAAAAAAHTIbWigC3ILAFBQGAAzxQQAAAAAAAAAADrkNjTQBbkFACgoDICZYgIAAAAAAAAAAB1yGxrogtwCABQUBsBMMQEAAAAAAAAAgA65DQ10QW4BAAoKA2CmmAAAAAAAAAAAQIfchga6ILcAAAWFATBTTAAAAAAAAAAAoENuQwNdkFsAgILCAJgpJgAAAAAAAAAA0KG029Dh9cuWLVvODAsBcMUVV1Qjo0uibr589KMf/djHPrZ69erqkESl5RYAYCqlFQbKPwil+Mc//vEsy6qHB+PNBAAAAAAAAAAAOpRwG/qCCy5YsWJFxswLYXDuuedW46Mbom5+PfDAAx//+MeroxKVkFsAgGmVUBgo/yAXSvHTTjuteoQw3kwAAAAAAAAAAKBDCbeh/9t/+2/VRxKYVcuXL6/GRzdE3bxrOtYJuQUAmFYJhYHyDwqnnHJK9QhhvJkAAAAAAAAAAECHEm5DexaHwsc+9rFqfHRD1M07EwAAgGQJhYHyDwomAEwcEwAAAAAAAAAA6FDCbWjP4lAwAWB2mAAAACRLKAyUf1AwAWDimAAAAAAAAAAAQIcSbkN7FmfKLFu2bHkT5feaADBZhhnr5SYAAACpEgoD5R9TZphS3ASAiWMCAAAAAAAAAAAdSrgN7VmcKVN5uCSu8mITACbLMGO93AQAACBVQmGg/GPKDFOKmwAwcUwAAAAAAAAAAKBDCbehPYszNSp/hLK6uh8TACbU8GO93AQAACBVQmGg/GNqDF+KmwAwcUwAAAAAAAAAAKBDCbehPYszNcqPlaQ9iWICwKQYfqyXmwAAAKRKKAyUf0yN4UtxEwAmjgkAAAAAAAAAAHQo4Ta0Z3GmRv4XKF//+tfnP1RX92MCwIQafqyXmwAAAKRKKAyUf0yN4UtxEwAmjgkAAAAAAAAAAHQo4Ta0Z3GmzIDPoOQqLzYBYLIMM9YmAAAAyRIKA+UfU2aYUtwEgIljAgAAAAAAAAAAHUq4De1ZnKmxbNmy/I9Q5qqr+zEBYEINP9bLTQAAAFIlFAbKP6bG8KW4CQATxwQAAAAAAAAAADqUcBvaszhTo/xYSdqTKCYATIrhx3q5CQAAQKqEwkD5x9QYvhQ3AWDimAAAAAAAAAAAQIcSbkN7Fmdq5H+B8vWvf33+Q3V1PyYATKjhx3q5CQAAQKqEwkD5x9QYvhQ3AWDimAAAAAAAAAAAQIcSbkN7FmfKDPgMSq7yYhMAJsswY20CAACQLKEwUP4xZYYpxU0AmDgmAAAAAAAAAADQoYTb0J7FmTL536EcXPm9JgBMlupYzqXy3uqoRCXkFgBgWiUUBso/pky11J5L+b0mAEwcEwAAAAAAAAAA6FDCbWjP4lAwAWB2LDcBAABIlVAYKP+gYALAxDEBAAAAAAAAAIAOJdyG9iwOBRMAZocJAABAsoTCQPkHBRMAJo4JAAAAAAAAAAB0KOE2tGdxKJgAMDtMAAAAkiUUBso/KJgAMHFMAAAAAAAAAACgQwm3oT2LQ8EEgNlhAgAAkCyhMFD+QcEEgIljAgAAAAAAAAAAHUq4De1ZHAomAMwOEwAAgGQJhYHyDwomAEwcEwAAAAAAAAAA6FDCbWjP4lAwAWB2mAAAACRLKAyUf1AwAWDimAAAAAAAAAAAQIcSbkMnP4vzy1/+8lvf+tbf//3fX3DBBXfeeWd19Xg45ZRTzjrrrOrSVLfddtsVa61cufL++++vrm6ovG/t7mey8ZwA8MQTT+Td3utHP/pR9dXjZEyGtS8TAACAZAmFQaPyLxdq7xtvvLG6tFUXX3zxu971riOOOOLWW2+trht7p59++qc//enq0pLVq1eHgvn2228vL/zIRz7ypS99qbxkPNVdbI5zgT04EwAmjgkAAAAAAAAAAHQo4TZ0wrM4wTnnnLPddtstXrz4xS9+8W677bbeeusdcsghq1evrr5u5N7+9reffPLJxa+HHnroe97zntL6oRx11FGLFi3aaqutNt1009DPf/RHf3TXXXdVXzSwgw466B3veEf+c7v7mWw8JwA88sgjGz9l/fXXDz1f/Prnf/7n1VfPq07Dr10mAAAAyRIKg0blXy7U3i972cuqS3tUCrDBrVy5MlzFnHDCCWecccbPfvaz6uqxd8QRR7z1rW+tLi258MILwzDtsssu5YVLly59//vfX14Sl9y9EXO2GbnYLF9DTS4TACaOCQAAAAAAAAAAdCjhNnTCsziXXHLJwoUL/9N/+k8///nP8yV33nnn4Ycf/thjjz39hfPgwAMP7O6h8PJDSNddd92znvWsQw455OkvaWAMH14ZzwkAZR//+Mc32GCD6tKx0Wn4tcsEAAAgWUJhkFD+DTgBILkAC6XvbrvtVl06OeacAHDooYeGDgwXbt/+9reLhU0nACR3b0S8zfjF5hheQyUwAWDimAAAAAAAAAAAQIcSbkMnPIvz4he/eI899qj7e/+f+cxnXvaylz3/+c9/05vedPPNNxfL//qv//of/uEfzjzzzD/8wz986UtfGl42yKpgxYoVBx544O67737IIYdcddVVxfLzzz//P/7H/7jbbru9/OUvP/3008OS8O9222238847v3GtH//4x8uWLSu3lrBvZZWHkN773vduu+22xa91jdctLz+8Ut7Pup154oknTj755D333PMlL3nJWWed9YlPfCK8Jl/VlkmcABC66wtf+MJpp522zz77HHPMMWHJZZddFkZqr732CkuOP/74//k//2fxyr4dG6xaterwww8PUb333nsfffTRxX/sUNdUNqrwq9ux4ZkAAAAkSygMEsq/cu1dVy/1FmBZ/eVDuW7M/7T8FltsEd6VP4weKfyyfrVfru+2BinhIpur+7Dh+iuUly960Yvyy4H4BIDQ4IYbbnjBBRe88pWvfNvb3lYszycAhOEIPRA2Ha88+3bv4OV31q/f+rZZFr/YLF9D1W2394PULcwlD2IyEwAmjgkAAAAAAAAAAHQo4TZ002dx7r333nXWWafuXaeeeupGG210yimnXHDBBX/8x3+89dZb33ffffmqpUuXbr/99oceeug555zz4Q9/eN111/3mN78556rPfOYzm2yyycknnxyWnHTSSaHxa6+9Niz/1Kc+td566/3FX/zFRRdd9A//8A/5n7G84oorXvjCFx544IFfXuuhhx4qPyCStm9llQkARx999POe97z857rG65ZnT394pfxz3c6Ej7/55pufeeaZ559//qte9aptt9028sRPmkmcABC669nPfnbowLPPPvvrX/96WPLRj3502bJlF1544de+9rV99933P/yH/1C8sm/H/uIXv3jGM55x7LHH/vf//t9DCyeccMJNN92Uv6WuqdGEX2THhmcCAACQLKEwSCj/yrV3Xb3UW4DVXT7kjRR1Y6iFjjjiiCVLloR3hfIsqy/8spraL6u5VBmwhItsru7Dhg0tXrz49NNPX7FiReiZ+OXAaaed9qxnPevxxx8POxze9eijj+bLQ+Phja9//evDpw4Nhs/1hS98IaupPHu7N29hwPK7b7/1bbMQv9jMnn7d1He7fT9I34V5I8MMYjITACaOCQAAAAAAAAAAdCjhNnTk6Yq+rrnmmrCJc889t7oiyx577LEtttjib//2b4tfd9hhhxNOOCH/denSpS984QuLP+X4yle+svzIe99VoYVtttnmYx/7WL48eMtb3nLYYYf96le/2nLLLf/qr/6qWF448MAD8z/hmSseEEnet7Kjjjpq9913v+yyyy655JIPfehDixYtOvHEE7P6xuuW579GJgD07swvfvGLxYsXf+pTn8oXPvroo1tvvXXkiZ80EzoB4Pd///fr/kToPffcE8L1hhtuyGo6Nvxw8803h9fceeed5Tf2KpoaWfgNuGNpTAAAAJIlFAYJ5V9lAkDfeil7egFWd/mQ/1ypGz/ykY+ENotXlpVryLrar25bCSVceXNZzYcNuxHqyU984hP5wgcffHCzzTaLXA7sueee733ve8MPP//5z8MrzzrrrHx5aHzJkiVPPPFE/uv73ve+XXbZJauvPCv1bdbTjRUJNXNZ5GIzV75uKiu22/eD9F2YtTqIjZgAMHFMAAAAAAAAAACgQwm3oZs+i3PttdeGTXzlK1+prnjquYpVq1YVS4455pjXvOY1+c9Lly4tP+dx7LHHHnzwwfFVoanQ4J/92Z+ddNJJJ5544gknnLD//vvvtttu+T4Uf8uzrO4J7OR9KzvqqKPWX3/9Zz/72c997nNf8pKXnHrqqY899lhW33jd8vznyASA3p254YYbQlPlPzz56le/OvLET5oJnQAQuqi85Gc/+9kHPvCB/fbbL4TKrrvuus4665x//vn5K3s7Nlv73M8f/MEfhDF93/ved9FFF/3qV7+KNzWy8Ivs2PBMAAAAkiUUBgnlX2UCQN96KXt6AVZ3+ZCvrdSNlQkAfQu/7KnLn97ar25bA5ZwdZvLaj5suBAIm7vxxhuL5WFzdZcD+b4V+/y2t72t3JPh1+KVF154Ydj0o48+WrfbvQ/rD1h+1/Vb1q/NQuRiM1e+buq73b4fpO/CbOhBTGYCwMQxAQAAAAAAAACADiXchm76LM7DDz+8cOHCD3/4w9UVWbZy5cqw9VtuuaVY8s53vnO//fbLf166dOn73//+YtU73vGOgw46KL7q8ssvDw2+733v+0jJ6aefnn/Mm2++uXhLoe4J7OR9Kys/hFRW13jd8vznyASA3p3JH4W57bbbiuV//Md/XPfET7IJnQBQ7q7gRS960QEHHPDP//zPodOuv/769dZb75/+6Z96X1ke5RDVn/zkJ1/72tduuummS5YsKYasb1OjDL+6HRueCQAAQLKEwiCh/KtMAKirl8oFWN3lQ7620shHnj4BoG/hF5bX1X6RbQ1SwtVtLuvZz/zD5vXkHXfcUSw/+OCD6y4H3v3ud4dLtn2fstNOO62zzjo//OEPs7WNH3fcccUrv/3tb4dm77333qxmt3sf1h+w/K7rt6xfm4XIxWaufN3Ud7tZzQfpu3DIQUxmAsDEMQEAAAAAAAAAgA4l3IZOeBbnwAMPfM5znvOLX/yivDD8+tBDD62zzjpf+9rXioUvfelLiz8w2fdBlviq++67b9111+39A5D3339/WH722WdXlmdrnwh517veVf41f0Aked/K6iYA1DVetzz/udEEgEceeWTRokVf/vKX84WPP/54GIK6J36STcEEgLvuuiscAj/4wQ/yX8MP4dc5JwAUHn744V122eV973tfVt/UvIRfecdaYQIAAJAsoTBIKP8GnABQLsDqLh9ykQkAdYVfVn/pEd9Wrq6Ei2wu69nP/MM++OCDoZ684IILiuU777xz38uBX/3qV9tss80xxxzzdyXPfe5zP/jBD2ZrGw+KF5955pmbbbbZ/3/zWuXdrtS3Wc/u1X2Wun7L+rVZVnexmf9QFNh12y3ektX0f3nhMIM4DBMAJo4JAAAAAAAAAAB0KOE2dMKzOD/4wQ8222yzAw444Prrrw+/PvbYYxdeeOEee+wRfjjssMOe//zn33XXXWH55z//+XXWWefyyy/P39X3QZY5V73pTW9asmTJtddem/8atnjRRReFHw4//PAdd9zxX/7lX7K1O3DZZZflLzjuuOP22Wefu+++++GHH169enX5wfq0fSurmwCQ1TdetzxrOAEg/PAnf/In4SN/5zvfueOOO8LH3Hjjjfs+8TOMKZgA8Oijj6633npnnHFG+PnBBx/cf//9Q5/HJwDcfvvt3/jGN5544ols7TNAoZNPPvnkeFOjCb+6HWuFCQAAQLKEwiCh/BtwAkClAKu7fMh6GilPAIgUfll97dd3W4OUcPHN1X3YQw45ZK+99rr//vvDz6eeeuq6667b93Lgq1/9alh15513lheeeOKJ22+/fdir0PjChQvzbYXLirB773nPe7L6yrPSvVnP7kU+S12/9bZZFrnYzErXTXXb7ftB+i7MN5c8iMMwAWDimAAAAAAAAAAAQIcSbkMnPIsT/Mu//MvSpUvXXXfdDTfccOHChdtuu23+SMRPf/rTl73sZWH55ptvvtFGG51yyinFW+oeZImveuSRR44++uhFixZtueWWG2+8cfj3k5/8ZLb2T6q/4Q1vWGeddbbeeuv111//Na95Tf76W265Zd999w2bDv1www03lJ/ATtu3ssgEgLrG65ZnzScAPPzww29+85s32WST0AnhBa997WuPP/744mWtmIIJANna14SQCDEZ+mr58uUhbOITAK699tpnPvOZ4S3bb799aDx07KOPPhpvajThF9mx4ZkAAAAkSygMEsq/AScAVAqwusuH3kbKEwCy+sIvq6/9+m5rwBIusrm6D/vjH/949913X2+99bbYYovwmoMPPrjvBICwey9/+csrC/M/kP+Nb3wjvDG86wUveEH4LKE03W+//R588MGsvvKsdG/Ws3tZ/Wep67feNivqLjazp1839d1u3w/Sd2HeyDCDmMwEgIljAgAAAAAAAAAAHUq4DZ3wLE7h/vvvv/baa3/yk59Ult95551heYsPSTz00EOhwdtvv/3xxx8vL7/33nvD8vyvqg+o9X0rq2u8bnmy0A+/8zu/k//ByxaN/wSAAT3wwAOrVq3KH2YaUD5G9913X2V5pKnRhF/djg3JBAAAIFlCYdB1+VdRd/kQFyn8svrar++2Binh4pvra/Xq1TfeeOOtt95aXdHcTTfddMstt1QWDrLbfUU+S12/zanuYrOsbrt9P0jfhbnkQUxjAsDEMQEAAAAAAAAAgA4l3IYe8bM4JLv66qs//elPr1q16nvf+94RRxyx9dZbP/DAA9UXDWdqJgAwJxMAAIBkCYWB8g8KJgBMHBMAAAAAAAAAAOhQwm1oz+JMiuuuu27//fdfsmTJ7/7u777xjW+8+eabq68YmgkAs8MEAAAgWUJhoPyDggkAE8cEAAAAAAAAAAA6lHAb2rM4FEwAmB0mAAAAyRIKA+UfFEwAmDgmAAAAAAAAAADQoYTb0J7FoWACwOwwAQAASJZQGCj/oGACwMQxAQAAAAAAAACADiXchvYsDgUTAGaHCQAAQLKEwkD5BwUTACaOCQAAAAAAAAAAdCjhNrRncSiYADA7TAAAAJIlFAbKPyiYADBxTAAAAAAAAAAAoEMJt6E9i0PBBIDZYQIAAJAsoTBQ/kHBBICJYwIAAAAAAAAAAB1KuA3tWRwKJgDMDhMAAIBkCYWB8g8KJgBMHBMAAAAAAAAAAOhQwm1oz+JQMAFgdpgAAAAkSygMlH9QMAFg4pgAAAAAAAAAAECHEm5DexaHwqmnnlqNj26IunlnAgAAkCyhMFD+QcEEgIljAgAAAAAAAAAAHUq4Df3Zz372rrvuqj6SwOwJYfC5z32uGh/dEHXza/Xq1SYAAADJEgoD5R/kQiluAsDEMQEAAAAAAAAAgA4l3Ib+zW9+c8IJJ3gcZ8aFADjxxBNDMFTjoxuibn6tWLHiyiuvrI5KVEJuAQCmVUJhoPyD3Ne//vWrrrqqeoQw3kwAAAAAAAAAAKBDabehf/vb3372s5/9GDPsrLPOCmFQjYwuibr5snz58nPPPbc6HnNJyy0AwFRKKwyUfxBK8fPOO696bDD2TAAAAAAAAAAAoENuQwNdkFsAgILCAJgpJgAAAAAAAAAA0CG3oYEuyC0AQEFhAMwUEwAAAAAAAAAA6JDb0EAX5BYAoKAwAGaKCQAAAAAAAAAAdMhtaKALcgsAUFAYADPFBAAAAAAAAAAAOuQ2NNAFuQUAKCgMgJliAgAAAAAAAAAAHXIbGuiC3AIAFBQGwEwxAQAAAAAAAACADrkNDXRBbgEACgoDYKaYAAAAAAAAAABAh9yGBrogtwAABYUBMFNMAAAAAAAAAACgQ25DA12QWwCAgsIAmCkmAAAAAAAAAADQIbehgS7ILQBAQWEAzBQTAAAAAAAAAADokNvQQBfkFgCgoDAAZooJAAAAAAAAAAB0yG1ooAtyCwBQUBgAM8UEAAAAAAAAAAA6dPXVVy9YsOC73/1udQXAEL71rW+F3LJq1arqCgBg9rjoAGaKCQAAAAAAAAAAdOi+++5bsGDBWWedVV0BMIQjjjhio402+vWvf11dAQDMHhcdwEwxAQAAAAAAAACAbu25557Pe97zLrnkku8DDO3SSy898sgjFyxYcPrpp1fTDQAwq1x0ALPDBAAAAAAAAAAAurVy5crNN998AUBLNtxww9NPP/3JJ5+sphsAYFa56ABmSCUDmgAAAAAAAAAAQOv+9V//9aqrrir/vTqANKtWrfr1r39dzTIAwMxz0QHMCBMAAAAAAAAAAAAAAABgApgAAAAAAAAAAAAAAAAAE8AEAAAAAAAAAAAAAAAAmAAmAAAAAAAAAAAAAAAAwAQwAQAAAAAAAAAAAAAAACaACQAAAAAAAAAAAAAAADABTAAAAAAAAAAAAAAAAIAJYAIAAAAAAAAAAAAAAABMABMAAAAAAAAAAAAAAABgApgAAAAAAAAAAAAAAAAAE8AEAAAAAAAAAAAAAAAAmAAmAAAAAAAAAAAAAAAAwAQwAQAAAAAAAAAAAAAAACaACQAAAAAAAAAAAAAAADABTAAAAAAAAAAAAAAAAIAJYAIAAAAAAAAAAAAAAABMABMAAAAAAAAAAAAAAABgApgAAAAAAAAAAAAAAAAAE8AEAAAAAAAAAAAAAAAAmAAmAAAAAAAAAAAAAAAAwAQwAQAAAAAAAAAAAAAAACaACQAAAAAAAAAAAAAAjK/777//+zDbrr322v/zf/5P9dhgzIwmWZkAAAAAAAAAAAAAAMCYWrZs2cKFCxfAzFuyZMkNN9xQPUIYG6NLVpUNmwAAAAAAAAAAAAAAwDh49NFHFy5cePTRR5f/+jXMoAsuuGCnnXbacccd/T8A42mUycoEAAAAAAAAAAAAAADG0TXXXLNgwYLvfve71RUwe775zW+Gw+GSSy6prmAMjDJZmQAAAAAAAAAAAAAAwDjyXCsUfvvb326zzTZvectbqisYA6NMViYAAAAAAAAAAAAAADCOIs+13n777StWrPinf/qnq6666t/+7d+qq+nGF77whbe85S0f/OAHqyvWuuuuu25Y66c//Wl5+U9+8pN8+T333FNeXuekk04KW/nc5z5XXfGUOV+wZrDXdKTSSy3uyXHHHbd48eL/9b/+V3UF8603WQ1+ODSNEBMAAAAAAAAAAAAAABhHfZ9rXbly5e67776gZKuttvre975Xfg0dOfbYY0OH/97v/V51xVoHHnhgPiLPfOYzf/Ob3+QLsyxbvHhxvnzAv16/2267hRe/7W1vy3/9m7/5m7Dk4IMPHvwFva8ZpUovtbgnV155ZWjqnHPOqa5gvvUmq8EPh6YRYgIAAAAAAAAAAAAAAOOo97nWlStXbrDBBmHhwoULX/e6173//e8/5JBDNttssy996UvFa+jOgBMAgq985Sv5wjPOOKNYmDYB4F3veldloxdffHFo/9prr617wZqeRkap0kuVvR3Gk08+ucMOO4TIr65gvvUmq8EPh6YRYgIAAAAAAAAAAAAAAOOo97nWF77whWHJuuuuW/6T/6tXr7777rvzny+++OI3vOENe+yxxx/+4R8ef/zx9957b/Gyv/zLvzzyyCP/7u/+7sILL9x///332Wefk08++d///d+LF3z3u99985vfvOeee+61115HHXXU7bffvmbtw+XhXf/4j/+Yv+bMM88Mv/7VX/1Vpc3zzz9/6dKlBx10UN3C4Fvf+tahhx76ghe8YN999z3ppJMee+yxSiONduwTn/hEeFd4ZfGyfMnf/M3fFEsKX/ziFw877LCw3ec///n77bdf2P/HH388XxXfevghNBi2Gz7IueeeO8gEgE022ST8G/p/zdoH1nfeeediYfHEc7xXy8/un3jiiTvttFP4ddNNNz1yrSuuuKLY57oXlBvp+7majlGkA9fM1UvlvS3/2rtj4d+PfvSjYUlYft55533uc58Lr/zABz5QbCh/+/rrr1/eOuOgN1kNfjhUImRNzSFfvMwEAAAAAAAAAAAAAADGUeW51p/97GcL1jrssMOe9rqn/O3f/m3+gg033HCdddYJP2yxxRb5s7Nrnnoi/NnPfnb+mtypp56arw0/5EvCGxcvXrzgqT/ave2224af3//+9+cvO/LII8Ove+21V7nNHXfcMd/cTjvtVLfwlFNOydv/vd/7vS233DL8sMsuuzzxxBPJO3beeeeFnxctWvTII4+EX//t3/5t8803D0vOPPPM/I1lr3zlKzfZZJNdd931+c9//rrrrrtg7Ud48skn18y19fe+9735krCh8O922223YK4JAPvss8+ee+4Zfrj++usvvvji8MP+++8f3rKg9MTzIL2aTwB4wQtekO9A4Utf+tKcLygaqftcTcco0oFr5uqlyv9FENmxSjv5ayq9fdNNN4WFn//858sLmXe9D+EPfjhUIqTukC+C1gQAAAAAAAAAAAAAAMZR5bnW73znO/lzscuXL3/a69Z66KGH8semjzzyyH//93+/5557ttlmm/Br8cfd88dnw2suu+yyn//857//+78ffn3pS18aVj388MPrrbde/mtYFZbcfvvtt95665qnHlX/i7/4i7yRvo+qBx/+8Id/+MMf5rvau7Bof9myZeEFjz/+eN7shz70oeQdC5/xOc95Tlj10Y9+NPx64YUXhp832GCD4o/Wl11//fW/+c1v8p8vvfTSfPeuu+66NYNt/fDDDw9vD59lo402WtDzSHqheOL5i1/8YvjhmGOOefWrXx1+CPvWdwJAvFfz56F/9atfvfWtbw2/7rzzzo+s9b//9/+e8wVFI30/V7F2wcBjFOnAOXup7wSA3h178MEH8wA+7LDD8nY23njjcjuF8JZXvOIVlYXMr96H8Ac/HMoREjnki6A1AQAAAAAAAAAAAACAcVR5rvXyyy/PH3/Nn8muWLFiRb726quvzpcce+yx4ddNNtkk/zV/fPaAAw7If/2zP/uz8Ovznve88PPXv/71/L3f+c538rWFQR5V33vvvf//G/otLNp/zWtec+RaebNLly4tXt90x4Lly5fnr3zyySePOuqo8PP/Ze/+o6yoz/uBs+gSAQ1Y9KDmeNSU9KsHTBESxQDBH6kYrREVCa4arRLF0xptkoMcj55IXSBKBSWl2qrRavyFUH83pFqKNi4KKCVYUVAEZVWOAnubplYb9TuHSabX2Z3hzjCXnYXX6w/OnZnPPHfu3Nnnr+d9GTduXHzRVs8///zYsWP/6I/+aP/99w9zEYGg+Kep7x5Nui9atCg8euqpp3braCQ9FE08f/DBB/369WtsbGxoaDj44IM//vjj3AGAwMUXXxx7020uiNZ0+Lmio7V/Ryk3cJt3qcMAQPsLe/zxx8M6Tz/9dHhozJgx1XUiU6ZM2W233VpbW2P76UTth/Br/3OofkJS/uSjh1YAAAAAAAAAAAAAAIAyis21vvvuuw0NDcGeDn/+/K677goHZ1988cVwz/e+971uW39qPdzscGr8oIMOqj53yZIl4dFIOAX+l3/5l+Hmn/7pn3ZrN6p+zjnn/N8JHe2M6v/hH/7h/6syZsyYaH3WCwu89957e+yxR3D0scce22uvvYIXv/jFL+KLPv30rbfeCo8efvjhl1122YQJE8Ka991336ep7z5v3rzYu5911lndOhpJD0UTz8HryZMnh+fOmDEj2IxNPNdyV1Pm+7e5IGlN+LmiozV+R+k3cJt3qcMAQPsLe+ihh8I6zz33XHho3Lhx1XUiq1evDvbPnDkztp9O1H4Iv/Y/h+pHIuVPPnpoBQAAAAAAAAAAAAAAKKP2c60nnnhiOB174403RjuXL1++ZMmSpUuXhod+8pOfBDs/+eSTr3zlK8HmwIEDw2VJg9fB62XLloXnXnnlleHRwK9//etPfz+qe8YZZwSvt2zZ8gd/8AfdkkfVk3ZG9R9++OFo5wcffLB+/fr262u8sND5558fHD3ggAOCfw888MCPP/44OhSJ/m+EdevWBZvRL81vMwCwYsWKcGU4a/7RRx8dcsgh3ToaSQ9VTzy/+eabu+22W69evTZv3vxpu4nnTHc1DHJEs/u1LGi/psMAQI3fUfoN3OZdqjEAsGbNmrDOFVdcEezfuHFjv379qutU++pW8b10nvbNqvY/h+pHIuVPPlomAAAAAAAAAAAAAABAGbWfa127dm344/Hdts5MH3vsseGw9R133BEcHTlyZPB6jz32+LM/+7NRo0aFy37605+G5yYNXoebxx9/fLh+9OjREydOHDp06N133/3p73/NPfAnf/InBx54YPhfECSNqqfsDC412Ln33ntPmjRp+vTpF1xwQb9+/cKfA893YaEXX3wxPBq4+uqro/3VWlpawgWnn376tddeG6YFutUQAAgcffTRwWaPHj2ampqGDBkSfvwOR9I//ezEc+B//ud/Pvzww/B1bOI50139m7/5m3Dx4MGDg691/fr121zQvsg2AwCfJn9H6Tfw023dpRoDAMHrM844I6wcnNunT59evXpV16k2c+bM4NDq1avjB+gk7ZtV7X8OsUci6U9eAAAAAAAAAAAAAACAUutwrnXDhg1nn312z549wxnZwNFHH718+fLg0Pvvv3/mmWfutttu4f5+/fpV/0cBKYPXgba2tvPPP79Hjx7huZ/73Ocee+yxYP+aNWu+9KUvhTvHjx8/ZsyYbsmj6ik7N2/efM455zQ2NoalGhoaBg8e/M///M/t19d4YZHhw4eHBdeuXVu9v9rll18eTqX36dPnpptuCkvVEgB49dVXDz300HD9SSedFNyBbgkj6Z+2m3iuFpt4znRX/+u//mvs2LF9+/YN169atWqbC9oXqSUAkPIdpdzAT7d1l2oPAGzZsuWss87q1avXvvvue/XVV3/7298ODn35y18OV1ZrbW0NnvMpU6bED9BJ2jer2v8cYo9E0p+8AAAAAAAAAAAAAAAApZYy1/rhhx+++uqrL730UqVSiR0K9qxYsSI4+tvf/jZ2aJv++7//O6i5atWq4EW08+OPP16zZk1ra2vVwpx+85vfBPVfeeWV//zP/4wfS9XhhYWuuOKK4C4df/zxsf0x77///sqVKz/44IP4gW355JNPgvcNf1a/QAXe1WIlfUfpN7CQu/T222//7//+b/i6ra0t/K8GzjrrrM+u+p1jjz320EMPje+lk6Q0q3xS/uQFAAAAAAAAAAAAAAAoI3Ot6e6///7zzz+/V69ewV0Kf6ieLm3WrFlf+MIXxo4de9ZZZ+23337B1xp8uStWrIiv2+rWW28NFrz44ovxA3SGHdmsBAAAAAAAAAAAAAAAKCNzrekuvvji4P7su+++N9xwQ/wYXdAvfvGLI444onfv3g0NDcHXOnbs2KTp/8DmzZt79Ojxwx/+MH6AzrAjm5UAAAAAAAAAAAAAAABlZK413ccff/zb3/42vpddxre+9a0DDzzwk08+iR9gh9uRzUoAAAAAAAAAAAAAAIAyMtcKKe67777gD+Tpp5+OH2CH25HNSgAAAAAAAAAAAAAAgDIy1wopfvOb3+y5554TJ06MH2CH25HNSgAAAAAAAAAAAAAAgDJ67LHHunXrNmvWrH8FOvKNb3yjT58+jz/+ePwANdiwYUO86eS1I5uVAAAAAAAAAAAAAAAAZTRr1qxuAHUzePDgX/7yl/HWk90ObVax9xYAAAAAAAAAAAAAAKAMHn/88W7dut14442LgI489dRTwR+I/wEgnzlz5hxyyCF9+vRpa2uLd5+MdmSzEgAAAAAAAAAAAAAAoIzMtQJ19cQTTwRNZvv/E4Ad2awEAAAAAAAAAAAAAAAoI3OtQF0V1WSKqlMLAQAAAAAAAAAAAAAAyshcK1BXRTWZourUQgAAAAAAAAAAAAAAgDIy1wrUVVFNpqg6tRAAAAAAAAAAAAAAAKCMzLUCdVVUkymqTi0EAAAAAAAAAAAAAAAoI3OtQF0V1WSKqlMLAQAAAAAAAAAAAAAAyshcK1BXRTWZourUQgAAAAAAAAAAAAAAgDIy1wrUVVFNpqg6tRAAAAAAAAAAAAAAAKCMzLUCdVVUkymqTi0EAAAAAAAAAAAAAAAoI3OtQF0V1WSKqlMLAQAAAAAAAAAAAAAAyshcK1BXRTWZourUQgAAAAAAAAAAAAAAgDLKN9carG9ubp5KFzdt2rQZM2ZUKpX4F1w3W7Zsuf7664P3jV8KXUTwh5+jXeRoMu3lq5OvWQkAAAAAAAAAAAAAAFBGOeZa58+fP3fu3Ao7hbfeeuuGG26If8d1M2PGjOAd4xdBlxL8+d93333xrzZZjibToRx1cjcrAQAAAAAAAAAAAAAAyijHXOuPf/zj+LQsXVnwhca/47qZOnVq/O3pgpqbm+NfbbIcTaZDOerkblYCAAAAAAAAAAAAAACUUY651twztZTT9OnT499x3QgA7Byuu+66+FebLEeT6VCOOrmblQAAAAAAAAAAAAAAAGWUY64190wt5SQAQFYCAAAAAAAAAAAAAADQCXLMteaeqaV+mpubp2ZRfa4AwK5pe54ZAQAAAAAAAAAAAAAA6AQ55lpzz9RSP7H57HSxxQIAu6ZM34UAQOb3BgAAAAAAAAAAAIDC5ZhrzT1TSz3Efsc9frgjAgC7uO1/ZgQAAAAAAAAAAAAAAKAT5JhrzT1TSz1UT2bnG+YWANjVbP8zIwAAAAAAAAAAAAAAAJ0gx1xr7pla6iH8EfdTTz0196+5CwDsarb/mREAAAAAAAAAAAAAAIBOkGOuNfdMLfVT4xh3SACASrvHIJ0AQOb3BgAAAAAAAAAAAIDC5ZhrzT1TSz00NzeHv+Oe+9fcBQB2Ndv/zAgAAAAAAAAAAAAAAEAnyDHXmnumlnqonszON8wtALCr2f5nRgAAAAAAAAAAAAAAADpBjrnW3DO11EP4I+6nnnpq7l9zFwDY1Wz/MyMAAAAAAAAAAAAAAACdIMdca+6ZWuqnxjHukAAAlXaPQToBgMzvDQAAAAAAAAAAAACFyzHXmnumlvoJf8q9dtXnCgDsmuLPxLZUnysAAAAAAAAAAAAAAACdIMdca+6ZWspJAICsBAAAAAAAAAAAAAAAoBPkmGvNPVNLOQkAkJUAAAAAAAAAAAAAAAB0ghxzrblnaiknAQCyEgAAAAAAAAAAAAAAgE6QY64190wt5SQAQFYCAAAAAAAAAAAAAADQCXLMteaeqaWcBADISgAAAAAAAAAAAAAAADpBjrnW3DO1lJMAAFkJAAAAAAAAAAAAAABAJ8gx15pppnbLli2LEvzHf/zHNddcc8cdd8TPqZuZM2f+5Cc/ie+tVFauXLls2bL43q2T8bfccku0+dhjj1188cXjxo371a9+VbWqLmJvXVclDwBs3LgxuPN///d/P3fu3OCZiR8uQr2fwwK/zQJLbY+dOwAQPHICAAAAAAAAAAAAAACUUY651kwzte+8806v3+vRo0fwXtHmJZdcMmrUqMsvvzx+Tt2MGzfuO9/5TnxvpdLU1DRixIj43krljDPO+Iu/+Ivw9bPPPtvY2Dhp0qRZs2a9/vrrn11YvJNPPvm73/1ufG99lDkA8OSTT+6///777rvvsGHDvvjFL3bv3n3KlCnxRdut3s9h9YOU1YQJE6o/8vaUKtBOHAAIHzkBAAAAAAAAAAAAAADKKMdca46Z2tCMGTM+97nPVe+p9+B1TNYAQLXrr79+4MCB8b11IwAQGjBgwJgxY95///1w8+WXX/7lL3/52SUF2MHPYSajR4++5JJL4ns7204cAAgfOQEAAAAAAAAAAAAAAMoox1xrjpnaUFIA4KabbjryyCOHDx8+Z86c6NDVV19922233XDDDUcdddS5554b7pw7d+7o0aMPP/zwMWPGPPPMM+HOBQsWNDU1DR06NFh56aWXvvnmm1GRtra25ubmIUOGHH300bfcckvWAEBwbnhJ06dPHzhwYN++fU8//fRoGrvDiwnMmzfvm9/8ZrD+61//+syZM4M9Dz744EUXXRQtCMyePfuqq65KWl9pFwBIeq9ClDYAsHHjxuDhvPXWW+MHUm9p8OTcfvvtHT5UlYS7nek5DI4GT8ugQYPGjx+/fPny6pVJ7xs9SMuWLTv9s6688spK8jMcXOH+++8/YMCAcPErr7wSlQrluJhC7KwBgOiREwAAAAAAAAAAAAAAoIxyzLVmnamNdBgA+MIXvnDGGWfcd999P/rRj7p37/7oo49Ghw444ICTTz75zjvvfPDBBytbZ5179+49ZcqUYM3kyZN79uzZ0tIS7J82bVpzc/PDDz987733Dhs27Gtf+1pUP1i85557zpw5c+7cuSNGjOjfv3+mAEA0hf/UU0+NGzfu4IMPvuuuu+bPn19JvpjZs2c3Njb+4Ac/eOSRR26//fbwd+Vffvnl3XbbbeHChWHZ999/f9999501a1bS+uq3TnmvopQ2ABA46KCDhg4d+i//8i+bN2+u3p9yS1MeqqS7nXJK7Dm87rrrgvsf3LHgMTjppJP69eu3bt26bRaJvs21a9f+9Pf+9m//tk+fPuPHj68kP8OLFi0aPHjw6NGj79qqtbW1+sHIdzGF2FkDAJXfP3ICAAAAAAAAAAAAAACUUY651hwztaEOAwCDBw9ua2sLN48//vhouDk4dOihh0aHNm3atM8++1x//fXhZuDss88eO3ZstBlau3Zt8HGWLl1a2ToU3rdv37/+678OD23YsOHzn/98vgBA4JprrgkuNXyddDHBO+69997hb7rHnHTSSdFb/8M//EPv3r1bW1tT1kdvnfRe/7d0u5U5APDUU08dcsghwXfaq1ev4PG47bbbokMd3tJK8kOVcreTTgkPRc9h8F0ET9S1114bHgo2DzzwwEmTJkUrk4rE/j+Hytb/m+L0008fOHBg8FhW76989hkOjB49OvpPJyqffTDyXUwhduIAwO8euVihHO8NAAAAAAAAAAAAAIXLMdeaY6Y21GEAoHq4+cILLzzllFOiQ8FmdGjx4sXBdV5wwQWTJ0++4oorJk2adNxxxw0cODA49Prrr3//+98fOXJksHnYYYc1NDTMmzcv2P/iiy8GpyxbtiwqEpxSSAAg6WJaWlqC/R3+PP/8+fN79eoVTqgfc8wx559/fvAiZX301knvFT9hO5Q5AFDZOisfPJ/BRQaPRHArvve974X7O7ylleSHKuVuJ50SHoqew+XLlwcVgm8kWnnuueeeeOKJ0cqkIu0DAMETu99++7388svhZtIzXEkOAOS+mELsxAGAytZHTgAAAAAAAAAAAAAAgDLKMdeab6a2khAAuPzyy6PN7373uyeffHKHhxYuXBhc52WXXXZNlZkzZwaHhgwZcsIJJzz00EMtLS1LlixpbGy85557gv3PPvtscEo0Yx045ZRTCgkAJF1MeDOXL1/+fyV+r62t7eCDD541a9aKFSsaGhqefvrpYGfK+uitk94rfsJ2KHkAoNrEiROD73fTpk2VhFtaaffkRA9Vyt1OOiV2KHyigreLVl500UUjR45sv7Ly2SKxAMCcOXN69uy5aNGiaE/SM1xJDgDkvphC7NwBgIAAAAAAAAAAAAAAAABllGOuNfdM7fYEANatW9e9e/e777472hNavXp1cP0vvPBCuBm8CDbD4ekNGzY0NDTMnz8/WjxgwIBCAgBJF7N+/fpg/5133hnbH5oyZcrhhx8efKgjjjgi3JOyPnrrpPcqUBcKAMyePTv4Tt9+++1ws/0trbR7cqKHKuVuJ50SO9Ta2hq8+7333hutHD58+Hnnndd+ZSU5APDYY48FfwXVRVKe4crWcy+++OJocVQq98UUQgAAAAAAAAAAAAAAADpBjrnW3DO12xMACIwfP/7ggw9uaWkJN5csWfLII4+8++67jY2Ns2bNqmyd+D/uuOMaGhqi4ekxY8YMHTp0/fr1la0jy927d08KAAwZMmRplVWrVlWSAwCVhIsJXpx55pmHHHLIc889F7zetGnTggULolPWrl0bfPyePXvOnj072pm0vvqtk96rKKUNALz33nvjxo178sknN27cGGw+//zzhx122Fe/+tVoQYe3NOWhSrrbKafEDo0dO3bQoEGrV68OXt96663Bw7Zw4cIOV3YYAHjhhRf69Okzbdq0aFkg/RmeOHHiUUcdtWbNmrfffrutra36wch3MYXYWQMA0SMnAAAAAAAAAAAAAABAGeWYa806UxvZzgDAO++8c8455+y+++577713r169gn9vvPHGytayPXr06N+/f+/evadOnRocioanX3nllcMPP7yxsbFv375BwVNOOSUpANDts44//vhKagAg6WJaW1tPO+20hoaGfv36BVd14oknRqdUtg6g77XXXsG50Z6k9dVvnfReRSltAGDTpk0nnHBCz549u3fvHvwbfC/HHnvsypUrq9e0v6UpD1XS3U45JXbotddeGzFiRHA9ffr0CS4puHXRoZQi0bc5e/bs2JMW/tcTKc/wihUrhg0bFn78pUuXVj8Y+S6mEDtrACB65AQAAAAAAAAAAAAAACijHHOtWWdqi9Xa2trS0vLSSy9t3rw52vnWW28tXrx4w4YNVQt/p62tbdmyZb/61a/iB4rQ4cUE3njjjWB/+NPs1UaOHDlhwoTYzkry+mpJ77X9ShsACL333nsrVqx4/vnnO/x+k25pilrudrpVq1YFFd599934ge2Q8gynq8fFbNPOGgAIBY+cAAAAAAAAAAAAAAAAZZRjrjXfTO0ubuXKlTfddNPuu+/+4osvxo91tpIHAJKU+Zbu9HbuAEBAAAAAAAAAAAAAAACAMsox15p7pnZX9uUvf3nAgAFz5syJHyiBLhoAKPMt3ekJAAAAAAAAAAAAAABAJ8gx15p7ppZy6qIBADqRAAAAAAAAAAAAAAAAdIIcc625Z2opJwEAshIAAAAAAAAAAAAAAIBOkGOuNfdMLeUkAEBWAgAAAAAAAAAAAAAA0AlyzLXmnqmlnAQAyEoAAAAAAAAAAAAAAAA6QY651twztZSTAABZCQAAAAAAAAAAAAAAQCfIMdeae6aWchIAICsBAAAAAAAAAAAAAADoBDnmWnPP1FJOAgBkJQAAAAAAAAAAAAAAAJ0gx1xr7playkkAgKyCJhD/apPlaDIdylEnd7MSAAAAAAAAAAAAAACgjHLMtd58882rV6+OD8zSNbW1te3IAEBzc3PwjvGLoEsJ/vxvueWW+FebLEeT6VCOOrmblQAAAAAAAAAAAAAAAGWUY671ww8/nDRpUr6xWspm3rx5zzzzTPw7rptFixbNnTs3fhF0HcEffvDnHzSB+FebLEeT6VCOOrmblQAAAAAAAAAAAAAAAGWUb671o48+uvnmm6+ni5s6deoDDzwQ/3brbN68efHroOsI/vCDP//4l5oqX5NpL1+dfM1KAAAAAAAAAAAAAACAMjLXCtRVUU2mqDq1EAAAAAAAAAAAAAAAoIzMtQJ1VVSTKapOLQQAAAAAAAAAAAAAACgjc61AXRXVZIqqUwsBAAAAAAAAAAAAAADKyFwrUFdFNZmi6tRCAAAAAAAAAAAAAACAMjLXCtRVUU2mqDq1EAAAAAAAAAAAAAAAoIzMtQJ1VVSTKapOLQQAAAAAAAAAAAAAACgjc61AXRXVZIqqUwsBAAAAAAAAAAAAAADKyFwrUFdFNZmi6tRCAAAAAAAAAAAAAACAMjLXCtRVUU2mqDq1EAAAAAAAAAAAAAAAoIzMtQJ1VVSTKapOLQQAAAAAAAAAAAAAACgjc61AXRXVZIqqUwsBAAAAAAAAAAAAAADKyFwrUFdFNZmi6tRCAAAAAAAAAAAAAACAMjLXCtRVUU2mqDq1EAAAAAAAAAAAAAAAoIzMtQJ1VVSTKapOLQQAAAAAAAAAAAAAACgjc61AXRXVZIqqUwsBAAAAAAAAAAAAAADKyFwrUFdFNZmi6tRCAAAAAAAAAAAAAACAMjLXCtRVUU2mqDq1EAAAAAAAAAAAAAAAoIzMtQJ1VVSTKapOLQQAAAAAAAAAAAAAACgjc61AXRXVZIqqUwsBAAAAAAAAAAAAAADKyFwrUFdFNZmi6tRCAAAAAAAAAAAAAACAMjLXCtRVUU2mqDq1EAAAAAAAAAAAAAAAoIzMtQJ1VVSTKapOLQQAAAAAAAAAAAAAACgjc61AXRXVZIqqUwsBAAAAAAAAAAAAAADKyFwrUFdFNZmi6tRCAAAAAAAAAAAAAACAMjLXCtRVUU2mqDq1EAAAAAAAAAAAAAAAoIzMtQJ1VVSTKapOLQQAAAAAAAAAAAAAACgjc61AXRXVZIqqUwsBAAAAAAAAAAAAAADKyFwrUFdFNZmi6tRCAAAAAAAAAAAAAACAMjLXCtRVUU2mqDq1EAAAAAAAAAAAAAAAoIzMtQJ1VVSTKapOLQQAAAAAAAAAAAAAACgjc61AXRXVZIqqUwsBAAAAAAAAAAAAAADKyFwrUFdFNZmi6tRCAAAAAAAAAAAAAACAMjLXCtRVUU2mqDq1EAAAAAAAAAAAAAAAoIzMtQJ1VVSTKapOLQQAAAAAAAAAAAAAACgjc61AXRXVZIqqUwsBAAAAAAAAAAAAAADKyFwrUFdFNZmi6tRCAAAAAAAAAAAAAACAMjLXCtRVUU2mqDq1EAAAAAAAAAAAAAAAoIzMtQJ1VVSTKapOLQQAAAAAAAAAAAAAACgjc61AXRXVZIqqUwsBAAAAAAAAAAAAAADKyFwrUFdFNZmi6tRCAAAAAAAAAAAAAACAMjLXCtRVUU2mqDq1EAAAAAAAAAAAAAAAoIzMtQJ1VVSTKapOLQQAAAAAAAAAAAAAACgjc61AXRXVZIqqUwsBAAAAAAAAAAAAAADKyFwrUFdFNZmi6tRCAAAAAAAAAAAAAACAMjLXCtRVUU2mqDq1EAAAAAAAAAAAAAAAoIzMtQJ1VVSTKapOLQQAAAAAAAAAAAAAACgjc61AXRXVZIqqUwsBAAAAAAAAAAAAAADKyFwrUFdFNZmi6tRCAAAAAAAAAAAAAACAMjLXCtRVUU2mqDq1EAAAAAAAAAAAAAAAoIzMtQJ1VVSTKapOLQQAAAAAAAAAAAAAACgjc61AXRXVZIqqUwsBAAAAAAAAAAAAAADKyFwrUFdFNZmi6tRCAAAAAAAAAAAAAACAMjLXCtRVUU2mqDq1EAAAAAAAAAAAAAAAoIzMtQJ1VVSTKapOLQQAAAAAAAAAAAAAACgjc61AXRXVZIqqUwsBAAAAAAAAAAAAAADKyFwrUFdFNZmi6tRCAAAAAAAAAAAAAACAMjLXCtRVUU2mqDq1EAAAAAAAAAAAAAAAoIzMtQJ1VVSTKapOLQQAAAAAAAAAAAAAACgjc61AXRXVZIqqUwsBAAAAAAAAAAAAAADKKMdca7C4ubl5KiSYNm3ajBkzKpVK/NFhl5SjyXSoqDrVkrqZAAAAAAAAAAAAAAAAZZR1rnX+/Plz586tQKq33nrrhhtuiD897JKyNpkkRdWJpHQzAQAAAAAAAAAAAAAAyijrXOuPf/zj+KgsdCR4VOJPD7ukrE0mSVF1IindTAAAAAAAAAAAAAAAgDLKOteaMjIL1QQACGVtMkmKqhNJ6WYCAAAAAAAAAAAAAACUUda51pSRWagmAEAoa5NJUlSdSEo3EwAAAAAAAAAAAAAAoIyyzrWmjMyy82lubp6aRfW5AgCEsjaZJEXViaR0MwEAAAAAAAAAAAAAAMoo61xrysgsO5/YTH86AQA6lLXJJCmqTiSlmwkAAAAAAAAAAAAAAFBGWedaU0Zm2ZnEfvs/frgjAgB0KGuTSVJUnUhKNxMAAAAAAAAAAAAAAKCMss61pozMsjOpnuYXAGB7ZG0ySYqqE0npZgIAAAAAAAAAAAAAAJRR1rnWlJFZdibhD/+feuqp/gcAtlPWJpOkqDqRlG4mAAAAAAAAAAAAAABAGWWda00ZmWXnU+Pof0gAgA5lbTJJiqoTSelmAgAAAAAAAAAAAAAAlFHWudaUkVl2Js3NzeFv//sfANhOWZtMkqLqRFK6mQAAAAAAAAAAAAAAAGWUda41ZWSWnUn1NL8AANsja5NJUlSdSEo3EwAAAAAAAAAAAAAAoIyyzrWmjMyyMwl/+P/UU0/1PwCwnbI2mSRF1YmkdDMBAAAAAAAAAAAAAADKKOtca8rILDufGkf/QwIAdChrk0lSVJ1ISjcTAAAAAAAAAAAAAACgjLLOtaaMzLLzCX/+v3bV5woAEMraZJIUVSeS0s0EAAAAAAAAAAAAAAAoo6xzrSkjs1BNAIBQ1iaTpKg6kZRuJgAAAAAAAAAAAAAAQBllnWtNGZmFagIAhLI2mSRF1YmkdDMBAAAAAAAAAAAAAADKKOtca8rILFQTACCUtckkKapOJKWbCQAAAAAAAAAAAAAAUEZZ51pTRmahmgAAoaxNJklRdSIp3UwAAAAAAAAAAAAAAIAyyjrXmjIyC9UEAAhlbTJJiqoTSelmAgAAAAAAAAAAAAAAlFHWudaUkVmoJgBAKGuTSVJUnUhKNxMAAAAAAAAAAAAAAKCMss61pozMJlm5cuWiz3ruuefii0qv/ad4++2344u6lGuuueaOO+6I7y2OAAChrE0mSVF1IindTAAAAAAAAAAAAAAAgDLKOteaMjKbpKmpqXv37r2qDBkyJL6obiZMmDBlypT43uzaf4onn3wyvqhLGTVq1OWXXx7fWxwBAEJZm0ySoupEUrqZAAAAAAAAAAAAAAAAZZR1rjVlZDZJU1PTiBEj4nt3lNGjR19yySXxvdl17qeoBwEAdoysTSZJUXUiKd1MAAAAAAAAAAAAAACAMso615oyMpukw9H5tWvXjhs37oknngg3W1tbg2UPPvhgtGDu3LmjR48+/PDDx4wZ88wzz0T7582b981vfnPgwIFf//rXZ86cGe68/PLLH3jggWjNddddd9NNNwUvggX777//gAEDTt/qlVdeCXbOmTMnuJ5BgwaNHz9++fLl0VlXX331bbfddsMNNxx11FHnnntutD/U4aeodHTWggULgsVDhw4N9lx66aVvvvlmtPL2228PVn71q189+uijgwtua2ubPn16sPKYY455/PHHq8t2+PEXLlz4ne98J3y9fv364BP93d/9Xbh5zz33XHHFFeHrGj9gdQDgtddeO+ecc+68885o8fYTACCUtckkKapOJKWbCQAAAAAAAAAAAAAAUEZZ51pTRmaTNDU1DR8+fFOVLVu2BPuvuuqq/v37r1mzJnh9xhlnDB48+L333gtPmTNnTu/evadMmfLoo49Onjy5Z8+eLS0twf7Zs2c3Njb+4Ac/eOSRR26//fZofn3QoEHXXnvt796vUjn99NPDQflFixYFZUePHn3XVq2trdddd11Qbfr06fPnzz/ppJP69eu3bt268KxRo0YdcMABJ5988p133lkdRQgFn+JrX/vaxt+LLrX9WdOmTWtubn744YfvvffeYcOGBWdVrwzq3H///X/+53++++67n3vuueedd16weeGFF/bq1ev1118PVyZ9/FWrVgVf1gsvvBC8/tnPfhbciiOPPDI8JfgsQc3K1vBDjR8wCgAsW7bsoIMOmjhxYvi9FEUAgFDWJpOkqDqRlG4mAAAAAAAAAAAAAABAGWWda00ZmU3S1NTU7bPC6fwtW7Ycs9WsWbP22muvf//3fw/Xb9q0aZ999rn++uujCmefffbYsWPff//9vffe+8orr4z2R5ICAIHRo0dfcskl4eugct++faOVweaBBx44adKkcHPUqFGHHnpoW1tbuBkT+xSDBw8O96eftXbt2mDx0qVLK1tXDh06NNwfrD/ggAOGDx8ebm7evDn4aD/96U8ryR8/fP2lL30p/H8PJkyYcP755/fo0aO1tTU4/fOf//zcuXMzfcAwALBgwYJ+/fo1NzeHOwskAEAoa5NJUlSdSEo3EwAAAAAAAAAAAAAAoIyyzrWmjMwmaWpqGjp06PIq0U/dr1mzpn///g0NDXfccUe0fvHixcElXXDBBZMnT77iiismTZp03HHHDRw4sKWlJdgf/hZ+TI0BgOCtgwpB/Wjlueeee+KJJ4avR40adeGFF0aHYoJP8ZWvfGXl77366qvh/vZnBZ/u+9///siRI4NrPuyww4JPN2/evHBldCWBI488MvofDALB4mnTplWSP364bMKECaecckplaxLg0Ucf/eM//uP777//qaee2n333VtbWzN9wGDziCOO2HPPPe+8885oZ4EEAAhlbTJJiqoTSelmAgAAAAAAAAAAAAAAlFHWudaUkdkkTU1NI0aMiO/dKgwAdO/e/fHHH492Lly4MLikyy677JoqM2fODC91+fLlVQV+JxYAOO200zoMADz77LNBhRUrVkQrL7roopEjR4avw1/Ejw7FJH2K9mcNGTLkhBNOeOihh1paWpYsWdLY2HjPPfe0Xzls2LDJkydHm9FHSPr44bKf/exnffv2ffnll/fYY4+NGzcGyyZOnHj11VcfddRRlYwfMNg8+uije/Xqdd1110U7CyQAQChrk0lSVJ1ISjcTAAAAAAAAAAAAAACgjLLOtaaMzCZJGp3fsmXLMcccc9xxx/3whz/cb7/9ov8WYN26dd27d7/77rs/u7yyfv36YH+HP1cf1A+KRJtHHHFEFAA4+eSTL7744vB1a2trQ0PDvffeG60cPnz4eeedF75uP8pfLelTxM5avXp1cD9feOGFcDN4EWxmCgAkffxQeBMuuuiioFqw+Y//+I+HHXbYyJEjJ02aVMn4AcPNn//853vttdeUKVOi/UURACCUtckkKapOJKWbCQAAAAAAAAAAAAAAUEZZ51pTRmaTNDU1DRkyZGmVcD7+qquu6t+//2uvvbZ58+bhw4d/4xvfaGtrC08ZP378wQcf3NLSEm4uWbLkkUceCV6ceeaZhxxyyHPPPRe83rRp04IFC8IFl1566YABA954442gwuzZs3fbbbcoADBx4sSjjjpqzZo1b7/9dnB07NixgwYNWr16dXDo1ltvbWhoWLhwYbiykADAu+++29jYOGvWrOD1hg0bjjvuuOAtMgUAKskfPzR48OAePXr86Ec/qmx9u+B18I5PPPFEeLT2DxhtBgv69u1bfTGFEAAglLXJJCmqTiSlmwkAAAAAAAAAAAAAAFBGWedaU0ZmkzQ1NXX7rF69ei1YsKCxsTGaa1+1alW/fv3+6q/+Ktx85513zjnnnN13333vvfcOFgf/3njjjZWtv3B/2mmnNTQ0BIt79Ohx4oknhuvXrFkzaNCgYH3v3r2/9a1vnXLKKVEAYMWKFcOGDevZs2fwvkuXLn3ttddGjBjRvXv3Pn36BDunT58eLqu0m4+PqTEAEJgxY0Zwbf379w8uZurUqcH1Zw0AJH38UFAk/MrCzeHDhwcf5L333gs3a/+A1ZvPPvvsPvvsc9lll0VHt58AAKGsTSZJUXUiKd1MAAAAAAAAAAAAAACAMso615oyMlu41tbWlpaWl156afPmzdX733jjjWB/+CP3kba2thUrVrz88svVO5OsWrUqqPDuu+/GDxTkrbfeWrx48YYNG+IHskj6+LWo9weshQAAoaxNJklRdSIp3UwAAAAAAAAAAAAAAIAyyjrXmjIyC9UEAAhlbTJJiqoTSelmAgAAAAAAAAAAAAAAlFHWudaUkVmoJgBAKGuTSVJUnUhKNxMAAAAAAAAAAAAAAKCMss61pozMQjUBAEJZm0ySoupEUrqZAAAAAAAAAAAAAAAAZZR1rjVlZBaqCQAQytpkkhRVJ5LSzQQAAAAAAAAAAAAAACijrHOtKSOzUE0AgFDWJpOkqDqRlG4mAAAAAAAAAAAAAABAGWWda00ZmYVqAgCEsjaZJEXViaR0MwEAAAAAAAAAAAAAAMoo61xrysgsVBMAIJS1ySQpqk4kpZsJAAAAAAAAAAAAAABQRlnnWlNGZqGaAAChrE0mSVF1IindTAAAAAAAAAAAAAAAgDLKOteaMjIL1QQACGVtMkmKqhNJ6WYCAAAAAAAAAAAAAACUUda51pSRWagmAEAoa5NJUlSdSEo3EwAAAAAAAAAAAAAAoIyyzrXefPPNq1evjk/Lwme1tbVNnz49/vSwS8raZJIUVSeS0s0EAAAAAAAAAAAAAAAoo6xzrR9++OGkSZOSpmYhNG/evGeeeSb+9LBLytpkkhRVJ5LSzQQAAAAAAAAAAAAAACijHHOtH3300c0333w9JJg6deoDDzwQf27YVeVoMh0qqk61pG4mAAAAAAAAAAAAAABAGZlrBeqqqCZTVJ1aCAAAAAAAAAAAAAAAUEbmWoG6KqrJFFWnFgIAAAAAAAAAAAAAAJSRuVagropqMkXVqYUAAAAAAAAAAAAAAABlZK4VqKuimkxRdWohAAAAAAAAAAAAAABAGZlrBeqqqCZTVJ1aCAAAAAAAAAAAAAAAUEbmWoG6KqrJFFWnFgIAAAAAAAAAAAAAAJSRuVagropqMkXVqYUAAAAAAAAAAAAAAABlZK4VqKuimkxRdWohAAAAAAAAAAAAAABAGZlrBeqqqCZTVJ1aCAAAAAAAAAAAAAAAUEbmWoG6KqrJFFWnFgIAAAAAAAAAAAAAAJSRuVagropqMkXVqYUAAAAAAAAAAAAAAABlZK4VqKuimkxRdWohAAAAAAAAAAAAAABAGf3bv/1bt27dnnrqqfgBgCL80z/9U9BkFi9eHD+Q0Y5sVgIAAAAAAAAAAAAAAJTRunXrunXrdsstt8QPABRh3LhxPXv2/OCDD+IHMtqRzUoAAAAAAAAAAAAAAICSOuKII774xS8+8cQT/wpQnJ///Off/va3u3XrNnPmzHjfyWWHNSsBAAAAAAAAAAAAAABK6tlnn+3Tp083gKLtscceM2fO/OSTT+J9J5cd16xibywAAAAAAAAAAAAAAEB5/PrXv37mmWeqfwAbYDstXrz4gw8+iLeb7bNjmpUAAAAAAAAAAAAAAAAAdAECAAAAAAAAAAAAAAAA0AUIAAAAAAAAAAAAAAAAQBcgAAAAAAAAAAAAAAAAAF2AAAAAAAAAAAAAAAAAAHQBAgAAAAAAAAAAAAAAANAFCAAAAAAAAAAAAAAAAEAXIAAAAAAAAAAAAAAAAABdgAAAAAAAAAAAAAAAAAB0AQIAAAAAAAAAAAAAAADQBQgAAAAAAAAAAAAAAABAFyAAAAAAAAAAAAAAAAAAXYAAAAAAAAAAAAAAAAAAdAECAAAAAAAAAAAAAAAA0AUIAAAAAAAAAAAAAAAAQBcgAAAAAAAAAAAAAAAAAF2AAAAAAAAAAAAAAAAAAHQBAgAAAAAAAAAAAAAAANAFCAAAAAAAAAAAAAAAAEAXIAAAAAAAAAAAAAAAAABdgAAAAAAAAAAAAAAAAAB0AQIAAAAAAAAAAAAAAADQBQgAAAAAAAAAAAAAAABAFyAAAAAAAAAAAAAAAAAAXYAAAAAAAAAAAAAAAAAAdAECAAAAAAAAAAAAAAAA0AUIAAAAAAAAAAAAAAAAQBcgAAAAAAAAAAAAAAAAAF2AAAAAAAAAAAAAAAAAAHQBAgAAAAAAAAAAAAAAANAFCAAAAAAAAAAAAAAAAEAXIAAAAAAAAAAAAAAAAABdgAAAAAAAAAAAAAAAAAB0AQIAAAAAAAAAAAAAAADQBQgAAAAAAAAAAAAAAABAFyAAAAAAAAAAAAAAAAAAXYAAAAAAAAAAAAAAAAAAdAECAAAAAAAAAAAAAAAA0AUIAAAAAAAAAAAAAAAAQBcgAAAAAAAAAAAAAPD/27eDEoehAIqi30E8xEHc1kh2hYGU+oiHGJhhlp/u0wvnLJ+GdwEAIEAAAAAAAAAAAAAAAAAAAQIAAAAAAAAAAAAAAAAIEAAAAAAAAAAAAAAAAECAAAAAAAAAAAAAAAAAAAIEAAAAAAAAAAAAAAAAECAAAAAAAAAAAAAAAACAAAEAAAAAAAAAAAAAAAAECAAAAAAAAAAAAAAAACBAAAAAAAAAAAAAAAAAAAECAAAAAAAAAAAAAAAACBAAAAAAAAAAAAAAAABAgAAAAAAAAAAAAAAAAAACBAAAAAAAAAAAAAAAABAgAAAAAAAAAAAAAAAAgAABAAAAAAAAAAAAAAAABAgAAAAAAAAAAAAAAAAgQAAAAAAAAAAAAAAAAAABAgAAAAAAAAAAAAAAAAgQAAAAAAAAAAAAAAAAQIAAAAAAAAAAAAAAAAAAAgQAAAAAAAAAAAAAAAAQIAAAAAAAAAAAAAAAAIAAAQAAAAAAAAAAAAAAAAQIAAAAAAAAAAAAAAAAIEAAAAAAAAAAAAAAAAAAAQIAAAAAAAAAAAAAAAAIEAAAAAAAAAAAAAAAAECAAAAAAAAAAAAAAAAAAAIEAAAAAAAAAAAAAAAAECAAAAAAAAAAAAAAAACAAAEAAAAAAAAAAAAAAAAECAAAAAAAAAAAAAAAACBAAAAAAAAAAAAAAAAAAAECAAAAAAAAAAAAAAAACBAAAAAAAAAAAAAAAABAgAAAAAAAAAAAAAAAAAACBAAAAAAAAAAAAAAAABAgAAAAAAAAAAAAAAAAgAABAAAAAAAAAAAAAAAABAgAAAAAAAAAAAAAAAAgQAAAAAAAAAAAAAAAAAABAgAAAAAAAAAAAAAAAAgQAAAAAAAAAAAAAAAAQIAAAAAAAAAAAAAAAAAAAgQAAAAAAAAAAAAAAAAQIAAAAAAAAAAAAAAAAIAAAQAAAAAAAAAAAAAAAAQIAAAAAAAAAAAAAAAAIEAAAAAAAAAAAAAAAAAAAQIAAAAAAAAAAAAAAAAIEAAAAAAAAAAAAAAAAECAAAAAAAAAAAAAAAAAAAIEAAAAAAAAAAAAAAAAECAAAAAAAAAAAAAAAACAAAEAAAAAAAAAAAAAAAAECAAAAAAAAAAAAAAAACBAAAAAAAAAAAAAAAAAAAECAAAAAAAAAAAAAAAACBAAAAAAAAAAAAAAAABAgAAAAAAAAAAAAAAAAAACBAAAAAAAAAAAAAAAABAgAAAAAAAAAAAAAAAAgAABAAAAAAAAAAAAAAAABAgAAAAAAAAAAAAAAAAgQAAAAAAAAAAAAAAAAAABAgAAAAAAAAAAAAAAAAgQAAAAAAAAAAAAAAAAQIAAAAAAAAAAAAAAAAAAAgQAAAAAAAAAAAAAAAAQIAAAAAAAAAAAAAAAAIAAAQAAAAAAAAAAAAAAAAQIAAAAAAAAAAAAAAAAIEAAAAAAAAAAAAAAAAAAAQIAAAAAAAAAAAAAAAAIEAAAAAAAAAAAAAAAAECAAAAAAAAAAAAAAAAAAAIEAAAAAAAAAAAAAAAAECAAAAAAAAAAAAAAAACAAAEAAAAAAAAAAAAAAAAECAAAAAAAAAAAAAAAACBAAAAAAAAAAAAAAAAAAAECAAAAAAAAAAAAAAAACBAAAAAAAAAAAAAAAABAgAAAAAAAAAAAAAAAAAACBAAAAAAAAAAAAAAAABAgAAAAAAAAAAAAAAAAgAABAAAAAAAAAAAAAAAABAgAAAAAAAAAAAAAAAAgQAAAAAAAAAAAAAAAAAABAgAAAAAAAAAAAAAAAAgQAAAAAAAAAAAAAAAAQIAAAAAAAAAAAAAAAAAAAgQAAAAAAAAAAAAAAAAQIAAAAAAAAAAAAAAAAIAAAQAAAAAAAAAAAAAAAAQIAAAAAAAAAAAAAAAAIEAAAAAAAAAAAAAAAAAAAQIAAAAAAAAAAAAAAAAIEAAAAAAAAAAAAAAAAECAAAAAAAAAAAAAAAAAAAIEAAAAAAAAAAAAAAAAECAAAAAAAAAAAAAAAACAAAEAAAAAAAAAAAAAAAAECAAAAAAAAAAAAAAAACBAAAAAAAAAAAAAAAAAAAECAAAAAAAAAAAAAAAACBAAAAAAAAAAAAAAAABAgAAAAAAAAAAAAAAAAAACBAAAAAAAAAAAAAAAABAgAAAAAAAAAAAAAAAAgAABAAAAAAAAAAAAAAAABAgAAAAAAAAAAAAAAAAgQAAAAAAAAAAAAAAAAAABAgAAAAAAAAAAAAAAAAgQAAAAAAAAAAAAAAAAQIAAAAAAAAAAAAAAAAAAAgQAAAAAAAAAAAAAAAAQIAAAAAAAAAAAAAAAAIAAAQAAAAAAAAAAAAAAAAQIAAAAAAAAAAAAAAAAIEAAAAAAAAAAAAAAAAAAAQIAAAAAAAAAAAAAAAAIEAAAAAAAAAAAAAAAAECAAAAAAAAAAAAAAAAAAAIEAAAAAAAAAAAAAAAAECAAAAAAAAAAAAAAAACAAAEAAAAAAAAAAAAAAAAECAAAAAAAAAAAAAAAACBAAAAAAAAAAAAAAAAAAAECAAAAAAAAAAAAAAAACBAAAAAAAAAAAAAAAABAgAAAAAAAAAAAAAAAAAACBAAAAAAAAAAAAAAAABAgAAAAAAAAAAAAAAAAgAABAAAAAAAAAAAAAAAABAgAAAAAAAAAAAAAAAAgQAAAAAAAAAAAAAAAAAABAgAAAAAAAAAAAAAAAAgQAAAAAAAAAAAAAAAAQIAAAAAAAAAAAAAAAAAAAgQAAAAAAAAAAAAAAAAQIAAAAAAAAAAAAAAAAIAAAQAAAAAAAAAAAAAAAAQIAAAAAAAAAAAAAAAAIEAAAAAAAAAAAAAAAAAAAQIAAAAAAAAAAAAAAAAIEAAAAAAAAAAAAAAAAECAAAAAAAAAAAAAAAAAAAIEAAAAAAAAAAAAAAAAECAAAAAAAAAAAAAAAACAAAEAAAAAAAAAAAAAAAAECAAAAAAAAAAAAAAAACBAAAAAAAAAAAAAAAAAAAECAAAAAAAAAAAAAAAACBAAAAAAAAAAAAAAAABAgAAAAAAAAAAAAAAAAAACBAAAAAAAAAAAAAAAABAgAAAAAAAAAAAAAAAAgAABAAAAAAAAAAAAAAAABAgAAAAAAAAAAAAAAAAgQAAAAAAAAAAAAAAAAAABAgAAAAAAAAAAAAAAAAgQAAAAAAAAAAAAAAAAQIAAAAAAAAAAAAAAAAAAAgQAAAAAAAAAAAAAAAAQIAAAAAAAAAAAAAAAAIAAAQAAAAAAAAAAAAAAAAQIAAAAAAAAAAAAAAAAIEAAAAAAAAAAAAAAAAAAAQIAAAAAAAAAAAAAAAAIEAAAAAAAAAAAAAAAAECAAAAAAAAAAAAAAAAAAAIEAAAAAAAAAAAAAAAAECAAAAAAAAAAAAAAAACAAAEAAAAAAAAAAAAAAAAECAAAAAAAAAAAAAAAACBAAAAAAAAAAAAAAAAAAAECAAAAAAAAAAAAAAAACBAAAAAAAAAAAAAAAABAgAAAAAAAAAAAAAAAAAACBAAAAAAAAAAAAAAAABAgAAAAAAAAAAAAAAAAgAABAAAAAAAAAAAAAAAABAgAAAAAAAAAAAAAAAAgQAAAAAAAAAAAAAAAAAABAgAAAAAAAAAAAAAAAAgQAAAAAAAAAAAAAAAAQIAAAAAAAAAAAAAAAAAAAgQAAAAAAAAAAAAAAAAQIAAAAAAAAAAAAAAAAIAAAQAAAAAAAAAAAAAAAAQIAAAAAAAAAAAAAAAAIEAAAAAAAAAAAAAAAAAAAQIAAAAAAAAAAAAAAAAIEAAAAAAAAAAAAAAAAECAAAAAAAAAAAAAAAAAAAIEAAAAAAAAAAAAAAAAECAAAAAAAAAAAAAAAACAAAEAAAAAAAAAAAAAAAAECAAAAAAAAAAAAAAAACBAAAAAAAAAAAAAAAAAAAECAAAAAAAAAAAAAAAACBAAAAAAAAAAAAAAAABAgAAAAAAAAAAAAAAAAAACBAAAAAAAAAAAAAAAABAgAAAAAAAAAAAAAAAAgIA5AHi9XmOM5/M57QAAAAAAAAAAAAAAwI3mAOA8zzHG4/GYdgAAAAAAAAAAAAAA4EZzAPBn27Z1Xfd9/wEAAAAAAAAAAAAAAL7DhwDg/X4vyzIAAAAAAAAAAAAAAIDvMd///13XdRzHHAsAAAAAAAAAAAAAAAA3+RwAAAAAAAAAAAAAAAAAX0UAAAAAAAAAAAAAAAAAAQIAAAAAAAAAAAAAAAAIEAAAAAAAAAAAAAAAAEDALynZPEs9vSTvAAAAAElFTkSuQmCC;" vertex="1" parent="1">
          <mxGeometry width="4786.09" height="860" as="geometry" />
        </mxCell>
        <mxCell id="3iJmIZL19EilmDOqkI2_-5" value="" style="shape=image;verticalLabelPosition=bottom;labelBackgroundColor=default;verticalAlign=top;aspect=fixed;imageAspect=0;image=data:image/png,iVBORw0KGgoAAAANSUhEUgAADn0AAALgCAIAAABk88TAAAAAKnRFWHRjb3B5bGVmdABHZW5lcmF0ZWQgYnkgaHR0cHM6Ly9wbGFudHVtbC5jb212zsofAAAC8WlUWHRwbGFudHVtbAABAAAAeJyVVMlu2zAQvesrBjnZqLPCDQKf4jWOazmG5SSHogdGmiisKVLg4iVF/r3DLA2VKkCrkzkcv3kz7w3PjWXaukJEJUtXLEfYi4eLGSSWjjDANQpVot6DXxHQ956kZK4Gvbe4/773F9cDuKJsZrmS5sf7zaXMcMtlHoS6ea4xf86EkWYFbpReBfcDZhnEKkPx539PVQrDbanRmIOfpsIi5lkmcMM0BmgL5Wy1/lBrpWHMZPZpgQWy1H6E76uiVBKlNdAYOZn6BphoQV8wY5pBAZqgRSB8mGtVhtMYK7UKz30lLW4tdOeXtTxmNIWPNIZrogBTpcpKSY2sCKFHXCAkO2OxCKKzeVxbaMLWLEk1Ly00hsnpl2alZJcmtoG3nsMq1GDBDZoWdM1OpofdDeM21BKN1S61Tlc1IHmdQFPLZbyMp4f9JKlQSLBg0vIU/G3YpsDtndq24ELzLJQdDYll+BrJyobnsl7nYbK8d8LP3/yjob24zkCflAnDN6gNZX5mqBdLxEzSqSD9KsUWmLktNLov022BP6eE16JdVBqb/2GYVxrg87QSlTIXnMTtaSbTB6LZghh1Tj+atUA9x0UGS6VEdTC3eOdzAko9doeiFqPr7AN60V523S+EDynNH58jFeDJ7TIAvfKJtaADLIXa/TXDMWq1cqHT0Qp+vwu9qNIV6lrQJdmURlElRLGKY9MHRsv+wHgtxBz1vdJk0hTJOJYXdU1O2eOOVpdl1W3wZoKkFNzaTw2EKe2Q3UGPaNG7Qu8TT/GDaa8WSfjYoCjQvqE9RecoM//cR3NBq3QdT2H96pbjg5Ojk/bBWWOkOczUGo6/wvFRp93utE8hTpbgr5tR42I+BaOcphYzTovN75xvsRn55wMWjrQusOP3Rk4G394CMJRrrpX0mkWTm/g94bS93yNTJqiJCdzE0QDvmROW/pEqP6MOXC9H+2fRlMnc0Rw6gDLqK8LVuw5IJ0T0G9Mo6lekLjMHAACAAElEQVR4Xuzdd/wUxf348UOKCCjWWFERaxQVWzRq0KDGaGLFKPYSI3kYFWPjYeLXBmLHEmPUBI3GgC2ioLGFSMSuWEJEUUGMFRE4E0RA3N98b37sdz+zs3M7s3P72b17Pf/gcbdldndm3jOzu8N9KgEAAAAAAAAAAAAAAAAAAACAeirqAgAAAAAAAAAAAAAAAAAAAAAxzLsFAAAAAAAAAAAAAAAAAAAA6mPeLQAAAAAAAAAAAAAAAAAAAFAf824BAAAAAAAAAAAAAAAAAACA+vTzbmfOnPl3INnTTz+9cOFCtd4AAAAAAAAAAAAAAAAAAAA0L82822HDhnXs2LECGK244opDhw5dsGCBWoEAAAAAAAAAAAAAAAAAAACakTrv9pNPPunYseORRx6p/sApEDF27NhBgwaJqjJgwAClCgEAAAAAAAAAAAAAAAAAADQldd7tpEmTKpXKE088oSwH4kaNGiVqy8MPP6yuAAAAAAAAAAAAAAAAAAAAaDrqvNu///3vlUpF/KssB+IWLVq06qqrHnHEEeoKAAAAAAAAAAAAAAAAAACAplN/3u20adNerHnnnXf+b7sgeOutt+Ty6dOnK1tGffbZZ8qqV155ZebMmd988000tXCDarUql3z99ddyyaeffhrdMkok8txzz40ePXrMmDETJkz4/PPP1S0yGzp06BFHHHHTTTepK3TCq5g8efLUqVPnzp2rbtEAVmfo3eDBg3v06DF//nx1BQAAAAAAAAAAAAAAAAAAQHOpP+/2Bz/4QaXmW9/61sKFC+XCarXao0cPuTz8udNwy6hbbrlFu2rdddd97LHH4kcZPHiwXDJ37ly5ZOTIkeFmUTNmzOjbt+//pVhzxx13yLUXXXTR5ptv/uMf/7jtTtZEIiLZY445Rl2hE7/MjTba6LrrrlMmGftldYbeTZw4URx99OjR6goAAAAAAAAAAAAAAAAAAIDmYjHvthKZ1Tpy5MhwoTLvtlOnTt+JeOCBB8JVnTt33nfffXfeeedllllGfO3Zs+eiRYuUo4jd33777SDFvNu9995brF1xxRV/9rOfnX766fvtt98KK6wgp/kKJ510kli7ySabtN3JmtWs1mgOrL/++vIyhUMPPbRxU2+tztA7cV29evUSma+uAAAAAAAAAAAAAAAAAAAAaC5p5912795d/LvDDjsEtamWG264YbhQmXe7yiqrhPuGlFWnn366nJA6derU6AbSYYcdFqSYd9uzZ0+x9oorrgiXLFiwYNasWeLDOeec06dPH7F2+eWXP7TmySefFMtHjRo1cODAHXfccYsttth1113PPffcOXPmhLs/8cQTgwYN6tev37bbbnv44YdPmTIlaDurdeHChUOGDBGp/eIXv/jyyy/DHUPKZU6fPn2nnXaSV3HnnXfKhQ8//PDBBx+81VZbidMYOnTo559/Lpdfd911IuX/+Z//kV/DJb/61a/MO8bn3Y4bN+7AAw/ccsstRXmdcsopM2bMCFedeeaZIs3f/va3d911V//+/bfZZpsLLrggnP0cJB8l3PHee+8VO+67777hLmJVly5dojkJAAAAAAAAAAAAAAAAAADQfNLOu/3Od77Tr18/8eGFF14YN26c+PD9739/k002qcTm3S6//PL3R8yfPz9cFU5I/eUvfym+Ridryg222GKL1VdfvUOHDq+88krdebfrrruuWCv+vfTSSydOnPjVV1+Fq7baaiu5b+jWW28VywcMGNC9e/fNNttMHEj+GO22224rf4n2sssuk1uKo/fo0aOy9Md9w1mtCxcu3G+//cTntdde+4033giPFRWfeTxjxgyZ7D777CO+jhgxQn4VWbfSSiuJDxtvvLG4UrHqnnvuqdR+K/fTTz8VXxctWiTSEUvEiZl3VObdXnzxxXLLrl27imup1H4SWM4hDjdec8015bHklieffLJcW/covXv3lmn26dNH7iJMnjxZLAl/aRgAAAAAAAAAAAAAAAAAAKApWcy7HTVqlPhw1FFH7bnnnuLD2LFjtfNuFfLHVuWqLl267L///rvttlvHmquvvjp+lOuuu0582HvvvevOu7355pvlHFCpe/fuxx133GeffSZWzZ49++ijjxYLN9xww49r5M/TvvDCCwsXLpS7//Wvf5U7Pv/88x999FHnzp3F55133llOe50yZcrrr78eLJ1vOmjQIDnptk+fPtGfj1XE590Ka6+9tjyT8CjDhg0Ty+fMmbP66quLr/I3bhctWrTaaquJr9dee634KrK3Upsa+8knn5h3jM67/fDDD+Vs2kMPPXTx4sXTp09fddVVxdfw52nlxl27dn355ZfFEcV1yaN88MEHaY4inH/++a+++mq0hgibbrrp7rvvHl0CAAAAAAAAAAAAAAAAAADQZCzm3S5YsGCVVVbp3Llzhw4d1l9//SVLlmjn3Xbp0uXgiFmzZoWronbddVc5R1Y5ysKFC3v37l2pzeuVWybNuxWeeeaZE088cb311guT3XvvveWqk046qVL73dbo9s8///zAgQM33njjNddcU05IFe6pkZ8ff/zx6PbB0vmmHTt2rNR+/PWjjz5SNojSzrtdeeWVxcLNNtssPIo4yUNr5MTW/v37yy3POOMM8XX77bcXn8V5is8HHXRQsPSncJN2jM67vfvuu+WWTz31lEzzhBNOqNQmJcuvcuNwGu6zzz4rtx8/fnyao8hzi7vwwgtFFn344YfqCgAAAAAAAAAAAAAAAAAAgGZhMe9WfB46dKicmnnFFVeIr9p5t8qs0+iqlVZaadq0abfddluXLl3E17322kvZQB7l9ttvF5/DH1g1zLsNvf322zvuuGOl9tOtixcvDnTzbv/9738vv/zyYmHfvn1PO+20n/70pzL90aNHyyMKL7zwwv8lWiNPQ/6IrNj92WefVTaIiufApEmTZMqHHXZYeJQ+ffpsEnHAAQfIjadOnRqeRteuXcWHv/71r8HSDEnaMTrvNtxy8uTJMs1TTz21Ujt/+VVu/JOf/ER+fe211+T2d911V5qjHHnkkXJHhShWsTb6A8YAAAAAAAAAAAAAAAAAAABNxm7e7fvvv9+xY8du3brNmTMnsJ93G64666yz5BTPRx99NLqBPMqSJUv69u0rN6gkz7s977zzpkyZEn6V82iXX375b775Jlg633S99dYLNwh/C/a9994TX8ePHy+/jh49+qWXXpKfzz333HD7//znP8HS+aaHH374D3/4Q/GhZ8+eYuNwG0X0MmfPnn3vvfeus846MuWJEyeGRxk7dmy4y4IFC2bOnBl+3WWXXSq1H9YV/6677roiK8RC847Rebcvvvii3PL6668XX0VWbLfddpXaJGa5l9xYpLxw4ULx9Te/+Y3cfvLkyemPorV9jboUAAAAAAAAAAAAAAAAAACgWdjNuxW++uorOWUzSJh3K3SMkDNZlXm3s2bN6t69u1iyyy67RPcNj/Lggw/KpCrJ825XX311sXajjTbaa6+9+vXrJzcOf8k1nFG69dZb9+/ff+bMmc8884xcctBBB1188cVrrbWW/Dp69Gix/YABA+RXcSaDBw/edttt77jjjiAy3/TLL7/cddddxeeVV1751VdfjZ5JKJoD8oPQoUOHyy67TG6w++67V2q/+3v22WePGDHi+OOPF3kifzxYuu2228IdL7zwwnC5YUdlRqw8ya5dux533HHiwmVSo0aNkmvlxuKURLYcfvjhyy67rPi6ww472B4l7uqrrxYbTJs2TV0BAAAAAAAAAAAAAAAAAADQFKzn3UYlzbuNOuecc8JV0Z/CPfPMM+UGEyZMCDeIHmXnnXeWGyTNuz3rrLP69Omz9DiVZZZZ5kc/+tHs2bPl2v/+978DBw5cccUV5dqpU6eKhUOGDOnQoUOl9rO11157rVwl593Omzfv2GOP7dKli1y47LLLjhs3Lmg737RarW6zzTbi66qrrhr9qd1QmAPiKN26dROnN2jQoEmTJoUbzJkz58gjj+zcuXO42dZbb/3YY4+FG8yfP1+cW6V2Oe+//36aHZUZsSIHDjnkkHDir8jza665JkxHbiw22HfffeUGG2+8scycwOYocR9++KE4aHSuMAAAAAAAAAAAAAAAAAAAQDOpP++24ObNmzd16tTXX3+9Wq2q63Rmz579z3/+c8GCBeqKmi+//HLKlCkiQfFBXefP/PnzxVHefPPNL774Ql1nlH5HkRuvvfbaW2+99fXXX0eXR6fPvv/++2+88caSJUuiGwQ2R1Hsvvvum266qboUAAAAAAAAAAAAAAAAAACgKZR+3i2s1P3Z2ixuueUWkfjkyZPVFQAAAAAAAAAAAAAAAAAAAOXHvNvW0r9//9VXX/3UU09VV/gwZ86cLl26nHnmmeoKAAAAAAAAAAAAAAAAAACA8mPeLXzab7/9evXq9c0336grAAAAAAAAAAAAAAAAAAAASo55t/Bp9OjRov5MnDhRXQEAAAAAAAAAAAAAAAAAAFByzLuFT/Pnz+/Ro8fgwYPVFQAAAAAAAAAAAAAAAAAAACWnzrsdN25cpVIZOXLk3wEne+yxR8+ePcePH6+uAAAAAAAAAAAAAAAAAAAAKIMPPvhAmWErqfNuR44cWQEAAAAAAAAAAAAAAAAAAABa2NZbbz1p0iRlnq0673b8+PFi02uuueZJwMkTTzwh6g+/dwsAAAAAAAAAAAAAAAAAAErqhhtu6N27d8+ePefNmxedZ6vOuxWbVioV8a+yHAAAAAAAAAAAAAAAAAAAAGgRDz30UKVSUX7ylnm3AAAAAAAAAAAAAAAAAAAAQBvaKbXMuwUAAAAAAAAAAAAAAAAAAADa0E6pZd4tAAAAAAAAAAAAAAAAAAAA0IZ2Si3zbgEAAAAAAAAAAAAAAAAAAIA2tFNqmXcLAAAAAAAAAAAAAAAAAAAAtKGdUsu8WwAAAAAAAAAAAAAAAAAAAKAN7ZRa5t0CAAAAAAAAAAAAAAAAAAAAbWin1DLvFgAAAAAAAAAAAAAAAAAAAGhDO6WWebcAAAAAAAAAAAAAAAAAAABAG9optcy7BQAAAAAAAAAAAAAAAAAAANrQTqll3i0AAAAAAAAAAAAAAAAAAADQhnZKLfNuAQAAAAAAAAAAAAAAAAAAgDa0U2qZdwsAAAAAAAAAAAAAAAAAAAC0oZ1Sy7xbAAAAAAAAAAAAAAAAAAAAoA3tlFrm3QIAAAAAAAAAAAAAAAAAAABtaKfUMu8WAAAAAAAAAAAAAAAAAAAAaEM7pZZ5twAAAAAAAAAAAAAAAAAAAEAb2im1jZ13O3PmzL8DKTzzzDNff/21WoGaC+GAnD399NMLFy5UKyLKpqRNRyu06iijkgYUkIOc222CMcSADbYIn3aRcyOJLIiR5kD/iCji2hYRhFJrgpAnBgHArAmaegf0Dii4FglMIhFAFn/XTalt4LzbYcOGdezYsQKks/7667/44otqNWoWhAPaxYorrjh06NAFCxaoNRIlUeqmo7lbdZRRqQMKyEFu7TbBqGDAhvQIn3aUWyOJLIiRZkL/CIm4dkMEoaSaJuSJQQBI0jRNvQN6BxRWSwUmkQjAmXZKbaPm3X7yySeiaT7yyCPl/xsAzO67774+ffr07t27KX9ChnBAuxg7duygQYNE3RswYIBaKVEGpW46mrtVRxmVOqCAHOTWbhOMCgZsSI/waUe5NZLIghhpJvSPkIhrN0QQSqppQp4YBIAkTdPUO6B3QGG1VGASiQCy+LtuSm2j5t1OmjRJpPPEE0+oK4AEDz74oKgzDz30kLqi/AgHtKNRo0aJ6vfwww+rK1B4ZW86mrhVRxmVPaCAHOTTbhOMWgzYkAbh077yaSSRBTHSfOgfQVxnQQShdJos5IlBAIhrsqbeAb0DCqgFA5NIBOBGO6W2UfNufaWD1rFo0aJVV131iCOOUFeUH+GAdtTEkdX0yt50UPdQKGUPKCAH+bTbBKNWPpmPsiN82hdxWnzESPMh7kBcZ0EEoXSaLOSJQQCIa7Km3gG9AwqoBQOTSATgRttg5jrv9ptvvnnuuedGjx49ZsyYCRMmfP7559G1+Rg6dKhoQG+66SZ1hb1p06a9uNQrr7wyc+ZMcYHqRg0QPe7LL7/80Ucf5XNcyWMGxg0ePLhHjx7z589XV5RcPBwaUYgvvfTS2WeffdRRR4kCeuedd9TVTWfx4sXPPvvsnXfe+ec//1lc+5IlS9QtLDnXbecdzTwm26yR1fSUpkN0NGG7ofj444/b7JkNdQ9NKd4XS6J+yjgSXUnGvthj7KTRoMM1KFmPfv/734szPOuss9QVS3ks08B3hvhNLeQx2Rza7XgwZryril6+OSsMladxnaz5lKJyyHyUnRI+r732mqiib775ZpuNguDVV18Vy0VkKcszSl+Z3UyZMuXuu+8W93f/+Mc/vvrqK3V1O1GumjgtuHgXExTjUaQU9nfKE5u33npLLp8+fXp0OSTirsXF47ru0DG6Qeizzz6Ta5PahDSjQatHr2n6TcOdi/nRsVwrevzIHnpEEMrFIeTbRZoAl4hBAFCYm/pQOHgrEXoHlJchMIv5BCM8vcmTJ0+dOnXu3LnqFimGkUQiAAfxBjPIc97tjBkz+vbtW2nrjjvu+L99crH55puL4x5zzDHy60UXXSSW/PjHP26zUTo/+MEPlMtZY4017r77bnU7S3VPKX7ctddee9SoUep2mWnPRMlAvyZOnCgSHz16tLqi5OLh4L0QX3311U6dOol0lllmmWWXXfb5559Xt2gu999/f69evaIZuPHGG4v6o26XwG/ddt4x5Pd84po1spqe0nT07NkzWuejRowY0WbP1Kh7aB3xvlj6zW9+E4ZS+n4k0IWPx9hRxI8V+Dhcg5JttBNOOEGc4SabbKKuWMpjmQa+M8RLavHz9JKslEO7HQ/G+MDY6q4qevnmrDBUnkZ0spL5lKJyyHyUnRI+Bx10kPgqam90lur06dNl1T3//PPDhV6kr8y2nn76aeVh0corr/y3v/1N3c5SvLV0oFw1cVpw8S7G/CjStpLYbq8I+7tvfetbCxculAur1WqPHj3k8iNa/ndWtDlM3LW4eFzHh47rrrvuY489ZthAuOWWWwJjm1B3NGj76DVNv2m4c4lfRfTRsVy7yiqrRHfRIoJQLg4h7522M1KkCXCJGAQARZqmvrJ08FYu9A4oL0NgFvMJRrzd2Gijja677rrozNr4NspLByIRgIN4gxnkOe927733FktWXHHFn/3sZ6effvp+++23wgor5D9sGjdu3B133PHMM8/IryeddFIl4eVrXbKx7tq168knn3ziiSeussoq4muXLl0y/nhG3VOSx+3cufO+++67xx57dO/eXXYV48ePVzfNRnsmSgb6JfrCXr16ibqhrii5eDh4L8RLL71UVj/tf+hpMg8//HCHDh0qtdexJ5xwwtFHHy0zcNlll33ppZfUrXX81m3nHUN+zyeuWSOr6SlNh2grvlOz5ppryhZjm222kUtuv/32NnumRt1D64j3xdL2228vA0o4/vjjlbUG8fBJ/2TNVvxYgY9QbVCyjWaYOil5LNPAd7F6yd74eXpJVsqh3Y4HY8a7qujlm8vLUHka0clK5lOKyiHzUXZK+DzwwAOyut5zzz3hNhdddJFc+O6774YLvfDY1EQ9/fTT4j5OnHDHjh1F/R8yZMgBBxywwgor3HrrreqmluKtpQMlhInTgot3MeZHkbaVxHZ7RfSVTzj3d+TIkeHC9n1rVQTaHCbuWlw8rqPPVHfeeedlllmmUvtfKIsWLYpu0KlTJzmWk0SnGRjbhLqjQdtHr2kGgYY7F/Oj4/TzbokglItDyHun7YwU6QfGxCAAKJKaeu3grVzoHVBeSYEpFfAJRrTdWH/99eUQUTj00EPDqbd1XzoQiQAcxBvMIM95t/J/jV9xxRXhkgULFsyaNSv8+vDDDx988MFbbbXVjjvuOHToUOU96xNPPDFo0KB+/fptu+22hx9++JQpU4LaPbBoPf/4xz/Kba699lrx9dxzz5VfzzzzTPH1t7/97b333tu/f39xZx5dKD6fc845ffr0EWe1/PLLH1rz85//XPx74YUX/v+jBsGVV14pllx00UXhkpDyhCv8H+rREVXSRb322mvHHnus6Am23nrrvfbaS5zVnDlzAt0pPfnkk2FqknLc5557Th73uOOOk0viFz5q1KiBAweKc9hiiy123XVXkUXycKF49iadSTQDk/aVy5OuPUi+/KCWvujwlNMru3g41C1EQ+7Fy3fYsGHf/va3K7UnULKwlixZEtSG+AceeOCWW265ww47nHLKKTNmzEhKQSz85S9/KRfedttt4qDf+973HnzwwUWLFolwECW79957R393wVCjwsTHjh37/e9/X5SySGHx4sXhvkkVJjBeddQmm2wiLrZbt27hnzZ4/vnn5Yhq9913l0vC07jrrrvENW6zzTYXXHCBfB6Xpm5b5UZ0x3fffVemGfWXv/wlSM60NOcj1S3QpDyX2zRfZDW9eNMhnXHGGbLFiP/l66Qg0ra6KeueuYKJD5dccolYKFaJcLvpppvExiKC5Fq5O3UPRaANqKlTp8po+u53vytj4csvvwzXGsaZ2vAJX6xqgyVIjtDAGGjaY0V3kSkkda/t2/uEkk5DMiclPoihuLgu0aGPGTPGMHUy8F2mQeR9ufbcghT5k3Qn4jBmCBLOM32pBfVyW27Q0HY7Hox176oMBRe0zVVlfoNV5ZEMnawhVw2rlFPS9sjhxo3OfJSdEj7i9mS11VYTS/bff/9wG3mvtMsuu4RLknofbTNlqKJKU2Oo9nXbmShxoErttwOjP3A7b968t99+W352O5C5tYxesvkQ8VlTxGmRxbsYw6NIbSUJknvhpO2D5ChTyP5OTp4TlS2ovePZcMMNw4XhW6ukc5AMNd+8b917N8OFWD0kMaRjOHlDDhN3rSwe18rQ8fTTT6/UiBsB7QZRhjYhpB0Nah+9mseo8R5EYb5zMT86VtYauu+ACEKpOIR8kNzvGPpEKf4gxdAZRSkDY2IQANKr29RHPfbYY6K9Peywwz744APxVQzPRLstljz00ENBpDWOvwiOrlWeACT1GkmNedLyOHoHlFdSYKZ5ghEYH6wZHgIEKR5TJKWstBvTp0/faaed5Cjxzjvv1G4Tf+kQEIkA7MUbzCDPebfrrrtupfZXYC699NKJEydG/xKiMGLECNnSbbLJJiuttFKl9lfjw/8+ftlll8m1HTp0kL9eLv9fxeqrry4+DxkyRG4mGmLxVdwky6/y8Vbv3r3lT2OKG+ZwoXzmJQZVMtnQz3/+80rt/0bIJ2viJOXzuGuvvVamGSUb6xVWWEFc5qOPPrr77rtXajfk4RAt6aJE2y2/rr322qKfEClUlj4piJ9S/FdelE5i5syZcksx1pRL4hc+YMAA0QVuttlmW2yxhZyeKHIp/N8e2uxNOhPloaF23yD52sUqw+ULkydPrpTz70cYxMPBXIiG3AsSylduHxLDlIsvvlh+7tq1q9xyxRVXlLNw4ikES1/QypiSOnbsKEY54ddu3bp99NFH8hwMNUomvtZaa4U7CqKeyB2TKkxQ76pD06ZNk5uJ25Xocpml4mSq1Wqw9DTkb1TIPwMnnHzyyUFylEXrtlVuRHd88cUXw21CoiyC5ExLcz5C3QJNynOpKSOr6cWbDkn7EihIDqKkVjdl3TNXsFNPPVUukYEmN4tOaaLuoSC0ATV06NBK7YdS3njjDVmTw3vywDjO1IaPOViSIlSuNeyrPVa4iwxVQ/favr1PKOk05FpzUko7Izv3pKmTfss0qHdudfPHcCfiMGZIOs/0pRaeQ9IVBY1vt+PBWPeuylBwQdtcVbLCqvJISZ2sIVcNq4K2p5TUI4dHaXTmo+zi4SMrefhTDS+88IKsjWEtMvQ+8WbKXEWjlTlNtTe0M6F3331Xrh04cKC6rsb5QIbWUmmZ0xwiOmuKOC2yeIwYHkVqK0mQ3AsnbW+IMoXs777zne/069dPfBABO27cOPHh+9//vnwEEb61SjoHudZQ8837mu/dzBeS/iGJOR3DySflcEDctbZ4XCvPVH/5y19Wal1h+K5UbiAGk/dHzJ8/PzC2CSHtaFD76DX9GFXLfOdifnQcXWvuvgMiCKXiEPKGfsfQJwYJD1IMnVEUd3kA4CypqdcO3hYtWrTjjjuKtXvuueeSJUvk3y4Qjbn8q/eyNda+CA7XKk8AknqNpMY8aXl48lH0DiivpMBM8wQjzYM17UOAoN5jCkPKyhBRmDFjhtx4n332kUvqvnQIiEQA9uINZpDnvNubb75ZNoiSuOM97rjjPvvsM7Hqo48+6ty5s1g4bNiwoDYWkc+t/ud//ie6duedd/7000/FEtGevv7668HSV7BnnHGGPIT28ZZw/vnnv/rqq/JkooOe2bNnH3300eLrhhtu+HHNF198sc4664gll1xyidhg7Nixldofr9f+WIVsrKPEBYb34YaLeuqppyq1HkKOGsWt/qRJk+SzgPgpRf+nuySP261btyuuuGL48OHbbLONPHr4P6jiFy76QjkGFf7617/Ktc8//3yQnL1JZxLNwKR9DdcuvhouX9p0003DXy1tDvFwMBSiOfcCXfmKbYYMGVKpDR1kYX344YdygCKCYvHixdOnT1911VXFV/n/+eIpBEtfoiy33HKiYohyDIcvokCffvppuX1YvQ01SiYujv7II4+IWiFKs1KrIUFyhYmuSrrq0OOPPy4Pd+mll0aXn3baaXJ5dLKLqGYvv/yyuDEbNGiQPKsPPvggTd22yo3ojiK3ZZozZ86U/7NqjTXWmDZtWpCcaWnOJ02BavM8qvkiq+nFmw5J+xLIEERJrW6auhd+1VYwEVCyZg4cOFBUb9GeiGatEpvSRN1DEcQDasmSJXLUJ38xSP6Jz7322ivcwDDO1IaPIVgMESoTN+yrPVa4iwhVQ/caFKD3kZJOQy4xJBVe3SGHHCLbGdE7V2LtjOS9TAPjuaXJn0rynYjDmCHpPNOXWngO2isKNbTdjgej+a4qMBZc0DZXo5+tKk9I28kactWwSu4bPaWkHjk8UNDgzEfZxcNH3OzIGnvjjTcGS59Wi6ou/y+iufeJN1PmKhpW5pTV3tzOSOHNnbgpVtcZQ09uYDiQobWsRC455SHCgbFEnBZWPEYMjyK1lSRI7oW125ujTBG+tRo1apT4cNRRR+25557iw9ixY5W3VknnIJcYar5hX/O9W90LSfmQpG46hpPX5rDcKyDuWlg8rmUodenSZf/9999tt9061lx99dXKBgr5w0iGNiGkHQ3GH70GNmPUuLp3LoZHx+Fa+ZrZ3H1LRBDKwjbkzf1OUp8Y3VF5kGLujELc5QGAs6SmXhH+qqX4IO47KrXZfpXaYCz8U6iyNda+CA7XViJPAAy9RlJjnrRcnoCC3gHllRSYdZ9gpHywpn0IYH5MYU45Pu9WWHvttSu1UZz8Gm9blJcOEpEIwEq8wQzynHcrPPPMMyeeeOJ6660Xtm577723WH7PPfeEXw+tkQOd/v37R9c+/vjj0dSCdI+3tt9++//bIfbM66STTqq0ffk6fPhwsWSDDTYQY6DDDz9cfP7JT34Sro2SjfVyyy13zjnniHOQ/9tj2WWXfe655wLjRYnbdbGZ+Cy6h+9973u/+MUvohkVPyWFtpM4+uijwz+dEL/w559/XvRYG2+88Zprrin7JEGcYWDMXu2ZRDMwaV/DtQe1PwNhuHzhwgsv7Nixo+hNowtLLR4OhkI0516gK1/hV7/6VaX2Gwny69133y0TESN7uUT+Xd3u3bsHCSnIQVL4f4DkbcyRRx4pv8qRjZyPHhhrlEw8fFJ8/PHHV2oBFSRXmOiqpKsOTZgwQW550UUXRZfLH6uuLP3/gvI0wlHds88+K9eOHz8+SFG3rXIj/iT966+/Puiggyq1Sh7+jy5DptU9nzQFqs3zqOaLrKYXbzok7UsgQxAZWt26dS/8qq1gIqDkQcM/KnrAAQfEE6TuoQjiAfXYY4/JCvzoo4+Kr1dddVWl9rvp8sFcUG+cGQ8fQ7AYIrTuvoHuWEEkVA3da1CA3kcynEZgTCp8Nxb+bcf999+/EjttyXuZBsZzS5M/5juRwH7MEOjOM32phRtrryjU0HY7Hozmu6qgXsFFLz/62aryhLSdrCFXDavk1+gpGXrkUEMzH2UXDx9hiy22EAt32WUX0Z7IYAn/Eo6594k3U+YqGlbmlNXe3M5I4c2ddpJixgMltZbRS055iGi7HRCnBaaNkaRHkYGukgTGXji+vTnKFOFbqwULFqyyyiqdO3fu0KHD+uuvv2TJEvkIIpx3aziHoF7NT9rXfO9W90JSPiSpm4755OM5HCLuWlY8ruPPVHfdddfo3Nlwlt7BEbNmzZJrDW2CpB0NBrFHr4HNGDWu7p1L/DKjz/+jr5nN3bdEBKEsbEPe3O8k9YnRHeMPUgydUYi7PABwltTUJw3ehPvuu0822sKYMWPC5bI1TnoRHH8CYOg1khrzpOVa9A4or6TArPsEI+WDNe1DAPNjCnPK2nm3K6+8sli42Wabya91XzpIRCIAK/EGM8h53m3o7bffln8XoFOnTosXL7799ttlu9mnT59NIkTbKjYO177wwgtKOnI8dPrpp8uvP/rRjyqxx1vhU+DowvCZV/wuWty0d+3aVSwcN27c8ssvX1n6/CtOadD/+9//ygfNJ554YhA5be1Fifv5PfbYQ/5ZAUmMGmU68VNSyOPK/+9+1VVX3XnnnW+++WZ0A+XC//3vf8sL6du372mnnfbTn/5UHnH06NGBMXu1ZxLNwKR9zdceGC9fmDZtmlgS/aGCsouHg6EQ6+aetmIrD3/DRCZPniyXyJ8+ElU0SEhhk9ogKQwN5dmxGHBUlv7tY3ON0obYeuutFyRXmOiqpKsOiXGP3PLAAw+MLhcjv0pttCTGf8HS0wgnzb/22mtyr7vuuitIUbfT54ayY1D7yQox1qzUfvolzH9zptU9nzQFqs3zqOaLrKYXbzok7UsgcxAltbp16178a7SC3X///TK18C5FBF08QeoeiiAeULKtrtTmKvXv31/edVciv6duHmfGw8cQLOYINe8bfk0KVUP3WoTeJ6h3GoExqXvvvVduHF6d/OkC5bQl72UaGM8tTf6Y70QcxgyB7jzTl5qycZBQcA1tt+PBaL6rCuoVXPSKop+tKk/I3MnGc9WwSn5VMjypRw41NPNRdvHwEcQdZaU2F+fGG2+UleqRRx6Rq8y9j7aZMlTReL+Tstpr2xnpk08+kb87qP1hiYwHSmoto5dsewiJOC0sbYyElEeRga6SmHvh+PbmKFOEb62CpX9fXhAhHCx9BCHfWpnPIYhVy2jNN+xrvnereyHyDMODJj0kqZuO4eTDr5voemrirmXF41qG0korrSRqxW233dalS5eK7pdilVewcfE2QdKOBoPYo9fAZowaV/fOxfDoOFwbXqOh+5aIIJSFbcgb+h1DnxjdMf4gxdAZhbjLAwBnSU29YfD27LPPyjuODh06RHeUrXHSi2DDE4B4rxEkN+ZJy+PoHVBeSYFZ9wmG7YO16EOAlI8ptCnH241JkybJ7Q877DC5pO5LB4lIBGAl3mAGec67Pe+888LfcBLkja649f3mm29eeukl2Q6OHTs23GDBggUzZ84UH8K15557brj2P//5T7C0WT/44IPF57lz58r/xGB+vKUslA208gbo2GOPFQvXWmst8W+vXr2WLFkSXRtSGmvRKMs3RrKxNlzU4sWLZZri2t977z1x519Z+lelgoRTiop3JArlGsP/DiKOFUT+74h8xGDIXu2ZRBNP2tdw7UHtj+oaLl/avia6pNTi4WAoRHPuBbHylZSHvy+++KJM5Prrrw9qWb3ddtuJr2LfICEFGU11X6IE9WqUYfyUVGGiq5KuOmqXXXYRW4pTeuKJJ+SSP/3pT3L38P5Knsa6664r/5jUb37zG7mBHJzVrdvpc0PZUWS1bNx69OghbgXlBkG9TKt7PlYFanix3WSR1fTiTYekfQlkCCJDq1u37sW/RivY22+/LQ96zjnniK+ffvqpaNYqumfT1D20OyWgvvjiC/k3a+LC/w5rHmfGw8cQLIYIlZ8N+wa6YwWRXQzda0F6H/NpBMakwgem8sHHokWLevfuXdG1M40o08B4blb5I2UfMwS680xfasrGQXLBNa7djvdu5ruqoF7BRa8o+jl95YnSdrKGXDWskvtGT8nQI0c1LvNRdvHwCWp/JFfensg2cK211vr666/lKnPvE2+mzFU03N6q2gfJ7Yy09957y9SuueaacOErr7zywgsvZDyQubWUbA8RIk6LKR4jhkeRga6SmHvh+PbmKFNE31q9//77InJF2M6ZMydo+9bKfA5BrFpGa75hX/O9W90LSfmQpG46hpMPdDkcRdy1pnhcK0PHs846S9a68IczDA9dzW2CpB0NBrFHr4HNGFWR5s7FcBVB27Xm7jtEBKEUbEPe0O8Y+sTojvEHKdrO6I9//KPopk855RT5lbs8AHBWt6lXiFHW+uuvLzaQ/6611lrhr57L1jjpRXB8MGboNZIa86Tlcl96BzSNpMCs+wTD9sFa+lfM5pSj7cbs2bPvvffeddZZR24f/npu3ZcOISIRQHrxBjPIc96tfCa70UYb7bXXXuH/4Q4nye2+++6V2v9bPfvss0eMGHH88ceLRlD+nwlhwIABcnvRPg4ePHjbbbe94447gqU/WSTsueeevXr1km2l+fGWsjAchG299db9+/eXD4LFgEwuFM4777zo7lGyse7UqZM44lZbbSV/JVecw0MPPSQ3SLqoqVOnrr322uJCLr300gsuuED+dbbzzz9f7qU9pSjzADSIXeMzzzwjEzzooIMuvvhiOZ+4Enlkn5S92jNREk/aN+naxSrz5UtXX321WCj6v+jC8oqHg7kQDbkXxIpAij/83XXXXcUSUS3FOF4UnyymUaNGBQkppHyJEtSrUYbxU5BcYYJ6Vx312muv9ejRo1KbeivGWCL6ZOyLcxYjP7mNPA2xXNTeww8/XP45jx122EGurVu30+eGsmP4RE9U8v5L3X777eZMq3s+gU2BGl5sN1lkNb140yElvQRKCiJDq5um7pkr2MEHHyxTEFEjmiD56ig+pYm6h3anBNQf/vAHWXXvu+++t5e6/PLL5UL5eyfmcWY8fMzBkhShcq153/ixlF2SuteC9D7m0wjqJbXTTjtVan9rTHTo22yzjSyIeDvTiDIN6p1b+vyRso8ZAt15pi815RyC2BWFGtdux3u3undV5oKLXpFydSkrT1RSJ2vIVcOqoO0pGXrkqMZlPsouHj7SD3/4Q1nxBNHLRFcZep94M2WuotHt01f7ILmdkaZPny7vtuQ24oTlFPlbb701yHaguq2lZHWIEHFaTPEYMT+KjFcScy8c3z4wRpki+tZK+Oqrr+Tr4aDtWyvzOQSxahmt+eZ9zfdu5gtJ/5DEnI7h5IOEHA4Rd60pHtfKM9VZs2Z17969Uvvh2OgGldpjw5CcWmduE6Sk0WD80Wv6MaoizZ2L+dFxdK25+w4RQSgFh5BP6nfMfWKQ/CBF2xmdfPLJldrNu9yXuzwAcJbU1Fd0g7dg6V1M3759q9XqVlttJT7vu+++8j9NydY46UWwdjCW1GskNeZJy2Vq9A5oGkmBWfcJRmD5YM3qFbMh5Wi7IT9Uaq3BZZddJvcNtzG8dAgRiQDSizeYQZ7zbs8666w+ffqEDd8yyyzzox/9aPbs2XLtnDlzjjzyyM6dO8u1cpD02GOPybXz5s079thj5R+RqdT+lPy4ceOC2n+D2GijjeTCww477IADDqjUe7ylLPzvf/87cOBAOdwRxDBILt95553laUyfPj3cVxE26JK44Rd9z5/+9Kdwg6SLev/99zfYYINwR5EVBx54oDgTuVfSKYXMz92C2DUKQ4YMkc/+RI917bXXypTDRwxJ2as9EyXxpH2Trj2o/Z8Yw+VLH374oegmL7zwwujC8oqHg7kQDbkXxIpAij/8FcF1yCGHhKMNcazwB4S0KaR/iRIYa5R5/JRUYYJ6V62YMmWKyMPw6kSCYmQWfSUjT0PkgLgBk9tsvPHGYTTVrdtWuRHd8dZbb5VpRsktDZlW93wCmwI1vNhusshqevGmQ0p6CZQURIZWN03dM1ewuXPnDho0SNwLrbbaauedd96hhx4q1m655ZZybYi6h3anBNT3vve9Su3PGkR/2ejzzz+XEXTyyScH9caZ8fAxB0tShMq15n3jx1J2MXSvReh9AuNpBPWSeuuttzbddFO5yz777CPKoqKbOtmIMg3qnVv6/IkvdBszBLrzTF9qQezEkgquce12vHere1dlLrjoFSlXl7LyRCV1soZcNawK2p6SoUeOalzmo+zi4SONGTMmrFfRn/ELjL1PvJkyV9Ho9umrfZDczoQ++OCDI444YrnllgsPvdNOO73yyitBtgPVbS0lq0OEiNNiiseI+VFkvJIExl5Yu70hyhTKW6so5a2V4RyCWLVUar5hX/O9m/lC0j8kMadjPnltDoeIu9YUj+v4M9UzzzxT1pkJEyaEGyjkTyiZ2wQpaTQYf/SafoyqSHPnEr/MqOhac/cdIoJQCg4hb+h3DH1ikPwgRdsZaWdWid0DYhAALCU19Qo5eLvhhhsqtSb69ddfF1/feOMN+ejgqquuCpa2xkkvgrWDsaReI6kxT1ouU6N3QNNICsw0TzCsHqxZvWI2pBy2GyKKxe7iLk+kM2nSJLlW2UaKv3QIEYkA0os3mEGe824lcTcrRjxieFStVpVVwvz586dMmfLmm29+8cUX6rog+PLLL8Vasbv4EC5csmTJ22+/LVrDyIYeiPGcOP8BAwaoK+wlXZToSN6o0WaFd6Jn+uc//7lgwQJ1xVLa7E0pad+kaw9SXP7uu+++6aabqkvLKSkczAy5l57I3tdee+2tt94K/9ioL3VrlEFShQksr1psIzb+17/+JfZSVilTHERNk3/Ro31lyTQpe4E2U2Q1Pb9NR91W181HH320ePFi+Vl08fLXI8TtTdut/hd1D+3LLaC8jzOTItSLpO61CL1PkO00vvnmG3Fd8b8C4cB7mQae8keRJbuk7GfVoHY752D0WHkCY64aVinS9MgNynyUnVv4BJa9T5oqKqWv9mksXLhQJCXOM35cvwfScjgEcVpASTFifhQZ59ALW0VZGg7nEEraN829m68L8ZWOgrhrQUlxnYVtm2DgPEb1Lk33TQSh+JxDPqnfSeoTQ0kPUszWWGONSts/NEEMAkBKzk19nPOL4KReI6kxT1quoHdAeWUPTIcHa0G6xxRuKdsiEgGkpG0w8553W3xjxow59thj5c+Ya3+gAvm45ZZbRBFMnjxZXVFC5Q2H8tL+R0YEzRVZTa8UTcfIkSPXXnvtgQMHihsh+VhBdKDiFkjdjrqH9laKgAIKpUHtNsGYRoMyH2VH+BQKcVpAxIhZ+nu3wiLuWhBx7RERhOIrfsg/9thj++yzT6XG9u0hMQgAgdemvjgvgukdUHYeA9NKcR5TEIkAUtI2mMy7VcmfN19ttdXkHylAe5kzZ06XLl3OPPNMdUUJlTccyqt///6rr776qaeeqq5oec0UWU2vFE3Ho48+2q9fv+7du3fo0EF0neLuKOmOiLqH9lWKgAIKpUHtNsGYRoMyH2VH+BQKcVpAxIhZ+nu3wiLuWhBx7RERhOIrfsiPGDGiUvuT4pdddpm6rh5iEAACr019cV4E0zug7DwGppXiPKYgEgGkpG0wmXerWrJkSUN/pRzp7bfffr169frmm2/UFWVT3nBAU2qayGp6zdd0UPfQjpovoIAcNKLdJhhTakTmo+wIn6IhTouGGGkFxF2rIa79IoJQcMUPeRE+Wd4eEoMAUPym3gG9A8quKQPTFpEIIA1tg8m8WxTX6NGjRS2aOHGiuqJsCAcUStNEVtNrvqaDuod21HwBBeSgEe02wZhSIzIfZUf4FA1xWjTESCsg7loNce0XEYSCa/qQJwYBoOmbegf0Dmh3BGZAJAJIR9tgMu8WxTV//vwePXoMHjxYXVE2hAMKpWkiq+k1X9NB3UM7ar6AAnLQiHabYEypEZmPsiN8ioY4LRpipBUQd62GuPaLCELBNX3IE4MA0PRNvQN6B7Q7AjMgEgGko20wGzXvdty4cSKdkSNH/h3IYI899ujZs+f48ePVFY33wQcfqNXaFeGAomnHyGp6NB1m1D1YIaCAdifb7TfeeEMNKlcEY3p0ms2Bvqy5EafZESOwRdwVH3FdZEQQvCPkrRCDAMqIpr7R6B3ggMD0jkgEmpXHBvPvuim1jZp3K9rlClByW2+99aRJk9TKbY9wAFoKTQfgEQEFFATBCDgjfAAzYgRoPsQ10FIIeQBoejT1QAERmACQkq8GUzultlHzbsePHy/Sueaaa54EMnjiiSdELWqX/1Zyww039O7du2fPnvPmzVPrtyXCAUXTjpHV9Gg6zKh7sEJAAe1OtttXXnklwZg/Os3mQF/W3IjT7IgR2CLuio+4LjIiCN4R8laIQQBlRFPfaPQOcEBgekckAs3KY4P5d92U2kbNu/WVDtCOHnroIVGNs097JxyAlkLTAXhEQAEFQTACzggfwIwYAZoPcQ20FEIeAJoeTT1QQAQmAKTU0AaTebdAIl/V2Fc6AErBV8j7SgcoNV+B4CsdoGX5CiJf6QAl4qva+0oHKBpfddtXOgCy8xWPvtIB0FC+QtVXOgAA73w10b7SARD4Cyhf6QBAYflq6LTpMO8WSOSrGvtKB0Ap+Ap5X+kApeYrEHylA7QsX0HkKx2gRHxVe1/pAEXjq277SgdAdr7i0Vc6ABrKV6j6SgcA4J2vJtpXOgACfwHlKx0AKCxfDZ02HebdAol8VWNf6QAoBV8h7ysdoNR8BYKvdICW5SuIfKUDlIivau8rHaBofNVtX+kAyM5XPPpKB0BD+QpVX+kAALzz1UT7SgdA4C+gfKUDAIXlq6HTpsO8WyCRr2rsKx0ApeAr5H2lA5Sar0DwlQ7QsnwFka90gBLxVe19pQMUja+67SsdANn5ikdf6QBoKF+h6isdAIB3vppoX+kACPwFlK90AKCwfDV02nSYdwsk8lWNfaUDoBR8hbyvdIBS8xUIvtIBWpavIPKVDlAivqq9r3SAovFVt32lAyA7X/HoKx0ADeUrVH2lAwDwzlcT7SsdAIG/gPKVDgAUlq+GTpsO826BRL6qsa90AJSCr5D3lQ5Qar4CwVc6QMvyFUS+0gFKxFe195UOUDS+6ravdABk5ysefaUDoKF8haqvdAAA3vlqon2lAyDwF1C+0gGAwvLV0GnTYd4tkMhXNfaVDoBS8BXyvtIBSs1XIPhKB2hZvoLIVzpAifiq9r7SAYrGV932lQ6A7HzFo690ADSUr1D1lQ4AwDtfTbSvdAAE/gLKVzoAUFi+GjptOsy7BRL5qsa+0gFQCr5C3lc6QKn5CgRf6QAty1cQ+UoHKBFf1d5XOkDR+KrbvtIBkJ2vePSVDoCG8hWqvtIBAHjnq4n2lQ6AwF9A+UoHAArLV0OnTYd5t0AiX9XYVzoASsFXyPtKByg1X4HgKx2gZfkKIl/pACXiq9r7SgcoGl9121c6ALLzFY++0gHQUL5C1Vc6AADvfDXRvtIBEPgLKF/pAEBh+WrotOkw7xZI5Ksa+0oHQCn4Cnlf6QCl5isQfKUDtCxfQeQrHaBEfFV7X+kAReOrbvtKB0B2vuLRVzoAGspXqPpKBwDgna8m2lc6AAJ/AeUrHQAoLF8NnTadYs27FdsPGzZseMsTmfDkk0+qudNIrZDzl1xyyeWXXz5v3jz14pO5VeM4h3Tmzp0rzlacs3oZaFciTKzKMSOqQbtzaDcCp5DXckiHOpMztxqSRamLWJz2lVdeWa1W1asycggELV/peFHqcnSTf7AETTG+/cc//qFeVfvxFUQO6bRIyIgLvOKKK2wbyYyaIEzy5xCYDtVeyyEdihjtwjZMHOq2lkM6LdLFAFm4DVEc4lHLIR3i2ruJEyequdwwFF9B2Ba6Q6hqOaRDnQGknF9dBdxsllnpRncB9S0Xtr1/RvTgcQ4ThNwCKs5XOgpKuYnl/8qP6pRG/gPCEvHV0GnTKdC82/vuu+/uu++uokZkxZgxY9Q8aozWyfl///vf4l5Cvf5kDtVYyyEdcZ7ibNULQAGIYBk9erRaYI1BNSgC23YjcAp5LYd0qDP5Exl+5ZVXqiXRMGUvYnHyV199tXpVRg6BoOUrHS/KXo5ucg6W5hjf3nvvvXfddZd6be3EVxA5pNM6IePQSGbRHGGSv3vuucc2MB2qvZZtOhQx2ott/2Vbt5M4pNM6XQyQhQiTq666So0fI4d41HJIh7j2TgwnrFr1LCi+grAtdIdQ1XJIhzoDhPJ8dcXNZtk5PKd1aKK1HNKhvuXD4XlXFvTgWrYThBwCSstXOgpKubn9234GRRZUp5Rsm5HW4auh06ZToHm3l156qVopWtsll1yi5lFjtFTOW+WqQzXWckhn+PDh6qmjMIYNG6YWWGNQDQpCFIRaNkYOIa/lkA51pl1Y9SwZNUERi1GHelVGDoGg5SsdL5qgHN3kGSxNM74dMWKEem3txFcQOaTTUiFj20hm0TRhkj/bwHSo9lq26VDEaEdWYWJbt5M4pNNSXQyQhVVQB07xqOWQDnHdCLndylF8xWFV6A6hquWQDnUGiMrt1RU3m02gRKM76lturHr/jOjBk1i9knYIKC1f6Sgo5aZnVV0zojqll9uAsFx8NXTadJh3W1yXX365mkeN0VI5b9X6O1RjLYd06DmKLLf5EFSDgrBqNwKnkNdySIc60y54GGHFtgl1CAQtX+l40QTl6CbPYGma8a3tj080jq8gckinpULGtpHMomnCJH+2/5Xfodpr2aZDEaMdWfVftnU7iUM6LdXFAFmUaGYGcd0Iub2noPiKw6rQHUJVyyEd6gwQddlll6lB0hjcbDaBEo3uqG+5sX3elQU9eJKyjMHSoJSbnu0MiiyoTunlNiAsF18NnTYd5t0Wl1W3mkVL5bxV6+9QjbUc0qHnKLLc5kNQDQrCqt0InEJeyyEd6ky7yHMqYRMUsW0T6hAIWr7S8aIJytFNnsHSNONbq3lLDeUriBzSaamQsW0ks2iaMMmf7XsIh2qvZZsORYx2ZNV/2dbtJA7ptFQXA2RRopkZxHUj5PaeguIrDqtCdwhVLYd0qDNAVG7TLLjZbAIlGt1R33Jj+7wrC3rwJGUZg6VBKTc92xkUWVCd0sttQFguvho6bTrMu22sYcOGDbcR3deqW82idDmfJVeH27T+DtVYyyEd5bThXZZalNt8COW4yCJLiQ+3aTcCp5DXckhHOXOkl6WG5DmVUDl0e8mSXbZNqEMgaPlKxwslT8olS+nnGSyFGt9myTSreUsN5SuIHNJR8qT4spS4bSOZRaHCJH9Zisn2PYRDtdeyTafFixjZZQkTq/7Ltm4ncUhHOW2guWUJ6hLNzFDOHKEsFSC39xTKcZFRboXuEKpaDukopw00gSyRm9s0C242CyJLbSnR6I76ZiVLrbB93pWFcugmk6UUyjIGS0O5NBRTluo63HIGRRbKoZtelnLJbUBYLr4aOm06zLttLKWKmykbW3WrWZQu57Pk6nCb1t+hGms5pGN1jXBglcPKxrnNh7A6SZhZZWaWdiNwCnkth3SsLhNRVlmnbJznVEKr82wcq9PI2IQ6BIKWr3S8sMrAorE6+XYMlkKNb7NkmtW8pYbyFUQO6VhlYBFYnXDGRjKLQoVJ/rIUk+17CIdqr2WbTosXMbLLEiZW/Zdt3U7ikI7VNQJlZ1XhlY1LNDPD6jJbilXOKBvn9p7C6iRRl1V+Zil0h1DVckjH6hqBUrCq1crGuU2z4GazILLUlhKN7qhvVrLUCtvnXVlYnWfpWF1dScdgaVjlA9qLVTEpGw+3nEGRhdV5NgGr622vAWG5+GrotOkw77ZRlBno6modZTOrbjWLEuV89lwdbtP6O1RjLYd0Ul4dHGSvRbnNh0h5ejDLXuLDbdqNwCnktRzSSXmBiMpeQ/KcSpjyDBsne3bZNqEOgaDlKx0vUmZd0WQv/TyDpSDj2+yZZjVvqaF8BZFDOimzrgiyl7htI5lFQcIkf9mLyfY9hEO117JNp2WLGNllDxOr/su2bidxSCfl1QFllz2oSzQzI+UFtpTsFSC39xQpTw915VzoDqGq5ZBOyqsDSiF75OY2zYKbzXaXvbaUaHRHfUspe62wfd6VRcozLJ3spVCWMVgaKXMA7SV7dR1uOYMii5Rn2ASyl0tuA8Jy8dXQadNh3m2jRCu3WzxYdatZlCjns+fqcJvW36Eaazmkk/Lq4CB7LcptPkTK04NZ9hK3ajcCp5DXckgn5QUiKnsNyXMqYcozbJzs2WXbhDoEgpavdLxImXVFk7308wyWgoxvs2ea1bylhvIVRA7ppMy6Ishe4raNZBYFCZP8ZS8m2/cQDtVeyzadli1iZJc9TKz6L9u6ncQhnZRXB5Rd9qAu0cyMlBfYUrJXgNzeU6Q8PdSVc6E7hKqWQzoprw4oheyRm9s0C24221322lKi0R31LaXstcL2eVcWKc+wdLKXQlnGYGmkzAG0l+zVdbjlDIosUp5hE8heLrkNCMvFV0OnTYd5t40yvGb//feXH9TVOspmVt1qFiXK+ey5Otym9XeoxloO6aS8OjjIXotymw+R8vRglr3Eh9u0G4FTyGs5pJPyAhGVvYbkOZUw5Rk2Tvbssm1CHQJBy1c6XqTMuqLJXvp5BktBxrfZM81q3lJD+Qoih3RSZl0RZC9x20Yyi4KESf6yF5PtewiHaq9lm07LFjGyyx4mVv2Xbd1O4pBOyqsDyi57UJdoZkbKC2wp2StAbu8pUp4e6sq50B1CVcshnZRXB5RC9sjNbZoFN5vtLnttKdHojvqWUvZaYfu8K4uUZ1g62UuhLGOwNFLmANpL9uo63HIGRRYpz7AJZC+X3AaE5eKrodOmw7zbxkoZCZKysVW3mkXpcj5Lrlq1/g7VWMshHatrhAOrHFY2zm0+hNVJwswqM7O0G4FTyGs5pGN1mYiyyjpl4zynElqdZ+NYnUbGJtQhELR8peOFVQYWjdXJt2OwFGp8myXTrOYtNZSvIHJIxyoDi8DqhDM2klkUKkzyl6WYbN9DOFR7Ldt0WryIkV2WMLHqv2zrdhKHdKyuESg7qwqvbFyimRlWl9lSrHJG2Ti39xRWJ4m6rPIzS6E7hKqWQzpW1wiUglWtVjbObZoFN5sFkaW2lGh0R32zkqVW2D7vysLqPEvH6upKOgZLwyof0F6siknZeLjlDIosrM6zCVhdb3sNCMvFV0OnTYd5t40ybNiw4RHqah1lM6tuNYsS5Xz2XB1u0/o7VGMth3RSXh0cZK9Fuc2HSHl6MMte4sNt2o3AKeS1HNJJeYGIyl5D8pxKmPIMGyd7dtk2oQ6BoOUrHS9SZl3RZC/9PIOlIOPb7JlmNW+poXwFkUM6KbOuCLKXuG0jmUVBwiR/2YvJ9j2EQ7XXsk2nZYsY2WUPE6v+y7ZuJ3FIJ+XVAWWXPahLNDMj5QW2lOwVILf3FClPD3XlXOgOoarlkE7KqwNKIXvk5jbNgpvNdpe9tpRodEd9Syl7rbB93pVFyjMsneylUJYxWBopcwDtJXt1HW45gyKLlGfYBLKXS24DwnLx1dBp02HebaNEK7dbPFh1q1mUKOez5+pwm9bfoRprOaST8urgIHstym0+RMrTg1n2ErdqNwKnkNdySCflBSIqew3JcyphyjNsnOzZZduEOgSClq90vEiZdUWTvfTzDJaCjG+zZ5rVvKWG8hVEDumkzLoiyF7ito1kFgUJk/xlLybb9xAO1V7LNp2WLWJklz1MrPov27qdxCGdlFcHlF32oC7RzIyUF9hSsleA3N5TpDw91JVzoTuEqpZDOimvDiiF7JGb2zQLbjbbXfbaUqLRHfUtpey1wvZ5VxYpz7B0spdCWcZgaaTMAbSX7NV1uOUMiixSnmETyF4uuQ0Iy8VXQ6dNh3m3jTK8Zv/995cf1NU6ymZW3WoWJcr57Lk63Kb1d6jGWg7ppLw6OMhei3KbD5Hy9GCWvcSH27QbgVPIazmkk/ICEZW9huQ5lTDlGTZO9uyybUIdAkHLVzpepMy6osle+nkGS0HGt9kzzWreUkP5CiKHdFJmXRFkL3HbRjKLgoRJ/rIXk+17CIdqr2WbTssWMbLLHiZW/Zdt3U7ikE7KqwPKLntQl2hmRsoLbCnZK0Bu7ylSnh7qyrnQHUJVyyGdlFcHlEL2yM1tmgU3m+0ue20p0eiO+pZS9lph+7wri5RnWDrZS6EsY7A0UuYA2kv26jrccgZFFinPsAlkL5fcBoTl4quh06bDvNvGShkJkrKxVbeaRelyPkuuWrX+DtVYyyEdq2uEA6scVjbObT6E1UnCzCozs7QbgVPIazmkY3WZiLLKOmXjPKcSWp1n41idRsYm1CEQtHyl44VVBhaN1cm3Y7AUanybJdOs5i01lK8gckjHKgOLwOqEMzaSWRQqTPKXpZhs30M4VHst23RavIiRXZYwseq/bOt2Eod0rK4RKDurCq9sXKKZGVaX2VKsckbZOLf3FFYnibqs8jNLoTuEqpZDOlbXCJSCVa1WNs5tmgU3mwWRpbaUaHRHfbOSpVbYPu/Kwuo8S8fq6ko6BkvDKh/QXqyKSdl4uOUMiiyszrMJWF1vew0Iy8VXQ6dNh3m3jTXcUnRfq241i9LlvJpr9Sj7qtefzKEaazmko5w2vFNrST3RfXObD6EcF1moJVqPsq9aNkYOIa/lkI5y5khPrQH1RPfNcyqhcuj2omZHPdF9bZtQh0DQ8pWOF0qelItauvVE980zWAo1vlUzpZ7ovlbzlhrKVxA5pKPkSfGpJVpPdF/bRjKLQoVJ/tRiqCe6r+17CIdqr2WbTosXMbJTw6Ce6L5W/Zdt3U7ikI5y2kBzU4O2nui+JZqZoZw5QmoB1xPdN7f3FMpxkZFaqPVE97UqdIdQ1XJIRzltoAmokVlPdN/cpllws1kQam2oJ7pviUZ31DcraqnXE93X9nlXFsqhm4yay/VE9y3LGCwN5dJQTGp1rEfZVy31hlEO3fTUfK8num9uA8Jy8dXQadNh3m1xWXWrWbRUzg+3af0dqrGWQzpK44hCyW0+BNWgIKzajcAp5LUc0qHOtIs8pxI2QRHbNqEOgaDlKx0vmqAc3eQZLE0zvrWat9RQvoLIIZ2WChnbRjKLpgmT/Nm+h3Co9lq26VDEaEdW/Zdt3U7ikE5LdTFAFiWamUFcN0Ju7ykovuKwKnSHUNVySIc6A0TlNs2Cm80mUKLRHfUtN7bPu7KgB09SljFYGpRy07OdQZEF1Sm93AaE5eKrodOmw7zb4rLqVrNoqZy3av0dqrGWQzr0HEWW23wIqkFBWLUbgVPIazmkQ51pF3lOJWyCIrZtQh0CQctXOl40QTm6yTNYmmZ8azVvqaF8BZFDOi0VMraNZBZNEyb5s30P4VDttWzToYjRjqz6L9u6ncQhnZbqYoAsSjQzg7huhNzeU1B8xWFV6A6hquWQDnUGiMptmgU3m02gRKM76ltubJ93ZUEPnqQsY7A0KOWmZzuDIguqU3q5DQjLxVdDp02HebfFZdWtZtFSOW/V+jtUYy2HdOg5iiy3+RBUg4KwajcCp5DXckiHOtMu8pxK2ARFbNuEOgSClq90vGiCcnSTZ7A0zfjWat5SQ/kKIod0WipkbBvJLJomTPJn+x7Codpr2aZDEaMdWfVftnU7iUM6LdXFAFmUaGYGcd0Iub2noPiKw6rQHUJVyyEd6gwQlds0C242m0CJRnfUt9zYPu/Kgh48SVnGYGlQyk3PdgZFFlSn9HIbEJaLr4ZOmw7zbovLqlvNoqVy3qr1d6jGWg7p0HMUWW7zIagGBWHVbgROIa/lkA51pl3kOZWwCYrYtgl1CAQtX+l40QTl6CbPYGma8a3VvKWG8hVEDum0VMjYNpJZNE2Y5M/2PYRDtdeyTYciRjuy6r9s63YSh3RaqosBsijRzAziuhFye09B8RWHVaE7hKqWQzrUGSAqt2kW3Gw2gRKN7qhvubF93pUFPXiSsozB0qCUm57tDIosqE7p5TYgLBdfDZ02HebdFpdVt5pFS+W8VevvUI21HNKh5yiy3OZDUA0KwqrdCJxCXsshHepMu8hzKmETFLFtE+oQCFq+0vGiCcrRTZ7B0jTjW6t5Sw3lK4gc0mmpkLFtJLNomjDJn+17CIdqr2WbDkWMdmTVf9nW7SQO6bRUFwNkUaKZGcR1I+T2noLiKw6rQncIVS2HdKgzQFRu0yy42WwCJRrdUd9yY/u8Kwt68CRlGYOlQSk3PdsZFFlQndLLbUBYLr4aOm06zLstLqtuNYuWynmr1t+hGms5pEPPUWS5zYegGhSEVbsROIW8lkM61Jl2kedUwiYoYtsm1CEQtHyl40UTlKObPIOlaca3VvOWGspXEDmk01IhY9tIZtE0YZI/2/cQDtVeyzYdihjtyKr/sq3bSRzSaakuBsiiRDMziOtGyO09BcVXHFaF7hCqWg7pUGeAqNymWXCz2QRKNLqjvuXG9nlXFvTgScoyBkuDUm56tjMosqA6pZfbgLBcfDV02nTKPe/2n//850svvRRd8tFHHz355JOffvppdGGcGE3+7ne/U5cWjFW3moVDzkufffbZww8/fPPNN993331Tp06Nrvrkk0/uv/9+kcl/+ctfPv744+gqUWpP1jz99NPTp0+PrpJE8Y0bN04ke/fdd//rX/9SV2dj1fo7VGMth3Tceg5DiaRx9dVXX3/99erSehzKKxqAVsFotXHj5DYfwrYaxJvExmncsaL1sCAlbtVuBE4hr+WQjkOdEa3xtGnTogtnzJghFk6ePDm6ML0LLrjg1ltvVZdmpm3f3I7lvV7lOZXQoYgbFKrObJtQh0DQ8pWOF7blKBkGV9K8efNE8E6ZMkVdkZpbTKWXZ7A4jG/DeHnzzTefeeaZ6CrxNdoqzp07d8KECQ8++KAc0ypSDodSspq31FC+gsghHduQCW83Jk6c+Nprr33++efqFjpu9d97n2LbSGZhGyZpQkNk+3vvvRfZROWWz7YafRTb9xAO1V7LNh3bIg7Nnj370UcfveWWW0aPHv3888+Hy60qvKgPgwcPfuONN+RXt8DMzlAZrC7HViOG2VrZr2LYsGFimK0uzcyq/7Kt20kc0nHuYpKeaKXh9uzFQAm3auZhYfZ6ZauYGeuRw6MzZw0K6hLNzLCK62effVZbIqK3euedd9Sl9rJHU/YUvMjtPYVV8Ul5xld62qdY6RWhQbMqdIdQ1XJIx6HOVDMXUFOKDifCfjn00UcfqTv41rjmzirlpLphlUgaDeqvc5tm4XazWcwWOw1Dsxwdx86cOVNdXWAlGt051Lc0t+RJcW0o7gK+vvTL9nlXFrY9uJd7RrOClGlZxmBp2JaylNQXm+vAiy++qDwDee+998TG8+bNq7bdV3RAcqFZ3fdxuSlIzdSynUGRhW11cns/bugC0ihIYeU2ICwXXw2dNp1yz7s9/PDDd9lll+iSRx55RBxXNKzRhXH77rvviSeeqC519dOf/vTCCy9Ul2Zm1a1m4ZDzwujRo9dcc80ePXpst912m2++eefOnQ844ADZS916660rr7zyGmus8d3vfldss9JKK0VfdIlS69Spk9hghRVWEIW14447RnvBxx9/XOyy2mqrieUbbLDBMsss4zdvrVp/h2qs5ZCObc9RNZZISj/5yU+OPvpodamRW3lFA/Dggw/+xS9+IT8roRSPrOjG7Si3+RC21SDeJDZO444VrYcFKXGrdiNwCnkth3Qc6ow4xN577x1dKPJfLBwwYEB0YXr9+/cfMmSIujSbpPbN7Vje61WeUwkditg5VOONsBe2TahDIGj5SscL23Ks1htcSWPHjhXXuPHGGyvLk8SL2C2m0sszWBzGt2G83HzzzWKwGr5VEh/E1169eoVbPvXUUyKru3bt2q2mS5cu4qv8LPz85z8Pt8zOat5SQ/kKIod0bEMmvN0QOnbs+K1vfeuOO+5QN4pxq/9+7yur9o1kFrZhkjI0JkyYEC6Jc8tnW40+iu17CIdqr2Wbjm0RS2PGjFlrrbVEa7bNNtv069dvueWWE6Mvcd9XNd67xV1//fXiJjH86haY2Rkqg/cxYVQjhtla2a/iz3/+86abbjpnzhx1RTZW/Zdt3U7ikI5zF6N9opWSw7MXMyXcqpmHhdnrla1iZqwvhkdnddtSBw0K6hLNzLCKa1H3+vbtqyyU7xcmTpyoLHeQPZqyp+BFbu8prIqv6im+0m+ZUtJTLHW7ZEVo0KwK3SFUtRzSsa0zVR8FVHBuVTo6nBBto4im8CmHIG8H/Mpt+JH+tt1QN9InklKD+uvcplk43Gwmtdjpa2z6Lb0zNMvhOHb55ZcXLdhuu+2mzPUsrBKN7hzqW5pb8qRmx1Dc0VXem4UisH3elYVtD+7lnjEq3qQkVYmclWUMloZtKVeNfbG5Dojtlci9+eabxWby5xrDfVdccUXRAYkUjjnmGMP/tEzzPq5xchsjZWc7gyIL2+rk9n7c0AWkUZDCym1AWC6+GjptOsy79eAHP/iB3/frklW3moVDzj/00EMdO3Y8+eSTw58Wnjp16iGHHPL5558/+OCDHTp0OPvss+Ud49y5c88991yx5IEHHpBbRkvtlVdeWXfddUUGyq/ChhtuKLrP2bNny69vvPHGpEmTwrXZWbX+DtVYyyEd257DUCJtNzRx6EjcyispAJVQalBkZZfbfAjbahBvEhunccdyqIeNZtVuBE4hr+WQjkOd2XTTTbt06RLeXXzyySfifubb3/6284QAw+QGN4b2zfux3OQ5ldChiJ1DtUGNsG0T6hAIWr7S8cK2HOsOriRxRyeKW8TLY489Fl2eJF7EjY6pPIPFYXwbxotoZERt+ctf/iKX33fffeuvv363bt3C5zgjRowQTWX4duSKK65Ydtll5WfvrOYtNZSvIHJIxzZkok2f6DuOOeaYrl27ig6u7VYqt/qfNKx1ZttIZmEbJrahoeWWz7YafRTb9xAO1V7LNh3bIq4uHXedcsopYciIILr88svj/9E/3olEzZs3T1SPP/7xj+ESt8DMrtGVIUkjhtkNIgprnXXW8T4N2qr/sq3bSRzSydLFxJ9opeT3njceblUfw8KcFTBjPTI8OmtEzjcoqEs0M8Mqrh9++GGR/tNPPx1deNRRR22++ebRJcjtPYVV8VU9xVf6LdMwPMVqu6FJERo0q0J3CFUth3Rs64yXAio4hyqtDCeyPE5Mz+E83aS8bTfXjZSJpNeg/jq3aRYON5tJLXb6mpB+S+8MzXI0Xp5//vk11lhDXGbbTQqqRKM7h/qW5ZbcUNzMu/XItgf3cs8Y1Y5NillZxmBp2JayuS8214G6827DfWfNmnX//fdvttlmIoUZM2ZEd5FSvo9rnMJWzjjbGRRZ2FYntwGtoQsokdwGhOXiq6HTptPk827vvvtu0TD17dtXDHP/8Y9/hJtFB0PnnXfeH/7wh6uuumr77bffaaed7rrrLnHDI4ab22677W677TZ+/PhwL21qV1999ZprriluGA6qefPNN8PtM7LqVrNwyHnRdW255Zba/wS8zTbbbLXVVspCsf3WW28tPyulNmTIkFVWWUV+Fj2fKL5bbrklXOudVevvUI21HNKx7TkMJSLdcMMNItu32GKLww47TIxF5EKx/bBhw0SRiZr/u9/9TulItBU+ylxeIrJ+//vfi9olzu073/mOOIFwVTQAxQnIVUoonX/++fHICjeuLo3ca6+9docddth5552j6YsB0IUXXtivXz95XVdeeaXYLFybXW7zIWyrQbxJlETDKFaJNk0UxCmnnPL++++LhS+99JLM25AYNYrl99xzz89+9rPo7tddd92vf/3r6JJq8rGqCZWtmnAaVWM9LEiJW7UbgVPIazmk41BnBgwY0L9//3BHkYGiMRGlEH36kFSmwr333vvDH/5w8803/973vieiuLp0coO2pJLqgJmhfXM7VrReeZHnVEKHIo6GalLD/uyzz4p7V5HPYix05JFHTps2rXHDG9sm1CEQtHyl44VtOdYdXAmiknft2vW+++4TwXvMMcdENvzfsZYY34ZfxR2XiBptERtiyos8g8VhfBuNl969e59++unys8gTkaUic2688Ua5RIxk9txzT/m5yrxbSw7p2IaM0vQ99NBD4ojhX5FL6iBk/deOXavJ7af3h+y2jWQWDmGSPjSScsyQz4bbh6RSq+qGItW2Uy3feecd0bXddttt4S7Z2b6HcKj2WrbpOBSxyOSkQX41+d4tPk544IEHunXrNmvWrHCJITBl0V911VWifI866qiqscQNNwWGyqDdvqH3GimH2dpIiWeI4Ry8XIXI5LqvHm1Z9V+2dTuJQzoZu5joEy1JW6aGe17tOE18mD59uthMRIpc/uGHH4pDi7v1cMtQPNwMw8KqLlLiEa3cMSXdDyZVufjNRbhLEnPGanO16pSxUjwTqslHiYek1QUaHp3Fc75qzG3lNKrJ59yIoC7RzAzbuN5ggw2iLzU//vjjHj16RPtQbT7HS0RbMTJGUzWSgmEbcyPvRW7vKayKzyq+kkYX8S0NDYi2lBWGp1iSthoYGrRqQiWspjsfZ1aF7hCqWg7pWNWZqmsBpX+HaLipqRoT10Z3Nbn0k/aKV+k09UQZTij9clRSgCSdjxTveePnmb3BTArzlLft5roRTSTpQElZnbS8Ef11btMsbG82k1rseE2oJuSwdstqcoxEaROUkmqUuVmOUuLl1FNPXX311au6oULVWLG1TUdS5fGiRKM72/pWTXdLHjY7huI2rFLaFm1VnDBhQrj9zJkzRdW96aab5Nc777zznHPOqdarn/FapD2QL7bPu7Kw7cHN94zVhPhK6ra0TUqaByxFG3g7BJSWr3QUtqVs7ovNdSD9vFtJtKhi8BM+6I6q+z4uqdGWkoJUieik2I9XzuxjpMb1JrYzKLKwrU7RQjdkjqGdryaUpuGRXZpmpNr4liS3AWG5+GrotOmUft6tqKOfR8iXN3Lerai73bt3F1X2wQcfHDp06HLLLffMM8/IHaODITHqWmuttURSY8aMOfnkkzt16iRaumOOOUZ8PeGEE0SD++677xpSe/LJJ0UjK+Lt9hoRV///5DKz6lazsM35GTNmdOjQQbuXaGVE/otIVpZfc801Yrn8X2VKx7b//vtvtNFG4df11ltPdDB/+9vfzL+T5Myq9XeoxloO6Vj1HIYSkUSJiBorbqLuu+++ffbZR4xC3nvvPbFc1OcePXqI/lv0GaJQxN1g2JEkVXiFobxEZIkERfmKg4p0OnfuLAYTclU0AMPPSig9/PDD8chSInfttdc++OCDR48eff755y+zzDLiVOUqccI9e/YU/dO99967xx57RK/Li9zmQ1hVg2osuEKXXHKJ6ObHjh375z//eccdd/zud79brUXrqKV++9vfihwT47Nq7f8Zd+zYMfwDwbNnz15ttdVGjhwZTbCafKykylZNOI2qsR4WpMSt2o3AKeS1HNJxqDMDBgwQ9x7hT7mIIhCFGH36YCjT6667ToT2GWec8cADD4ixo5zgYiippDpgYG7f3I6V8mFrenlOJXQo4jBUkxr2WbNmiTAXY57x48eLG4Ozzz578uTJjRve2DahDoGg5SsdL6zKMc3gShC362ussYbojkUwikY1+guC4g784osvDr+Ke3XRSGqL2BBTXuQZLEnthkE0XkQWbb/99vLzdtttd8stt5x77rlHHHFEtXYfvtJKK1100UXhjsy7teKQjlXIVNsW5dtvv33IIYeIIWv4kypJHYRh7JrUflYb0KfYNpJZOIRJytAw5Jghnw2rkkpNOxSRScnPL730kij9wYMHz507V67ywvY9hEO117JNx7aIZY9jeMyXdO8WHyeI/N95552jSwyBKZ/JiMRvu+02+YwyqcTlxtquylAZtNtXG3yvkWaYnRQp8QwxnIOXq7jzzjvF0aMTN7Oz6r9s63YSh3SydDHV2BOtpDI13PNqx2ny869//WuxpYiXau33a0XQffbZZ+GWoXi4GYaF2kiJR3S0XhnuB7VVTntzEZ5AEkPGJuVq1TVjtZlgOIoSkg4XmPToLJ7z5txWWgbDOTciqEs0M8M2rs8777xVV101HCveeOONXbp0EX2i/JqUzykrRpZokqvCFAzbmBt5L3J7T2FbfOnjK2l0Ed8yqQFJKuUo81OsanI1MDRoSZUwzflkYVXoDqGq5ZCOVZ1xLiAZ8nXfIcotk25qDIknRXdS6Rv2Uqq0uOQ09UQZTogrFTHy6VLREUhSgCSdTzWh542HXvYGMynM09y2160b0US0B0oKyaTl1cb017lNszDkVRJtix2vCdWEHNZuaYiRKG2CUlKNMjTLCmUce+SRR26wwQbV2FChWq9ix5sOQ+XxokSjO4f6luaWPIxrQ3EbVkWbhaSqKP9y1Msvvyw+/+lPfxIlu8MOO8hdRB0QHUq1Xv1Mfwvghe3zriysevBqLNaUm/Gk+ErqtrRNSpoHLEUbeDsElJavdBRWpVy3LzbXAdt5t9Vafejbt6+yMM37OG2jLTczBKkS0UmxH6+cGcdIDe1NbGdQZGFVnaptCz0pc6rGdt5QmkmP7NI0I9XGtyS5DQjLxVdDp02n9PNuKzovvvji559/vuqqq4qeKdz4iCOOGDhwoPys1Hgx1pef582bJ9q78A5TjP5XWmmlUaNGmVP7QWN+69uqW83CNucnTZokMnnMmDHqimr1qaee0q4SfYZYLvqJaq3U1l9/fTHKueCCCw444IAuXbpE/xzeE0880bt3b7Fxt27dxNg37KV8sWr9HaqxlkM6Vj2HoUQEUXtXXHHFcFgpvvbq1Uv0qbNnzxbLr7zySrn8gw8+WGGFFWSbbq7wUYbyEpElCjp8w33aaadtvPHG8nM0AKOflVCKR5YSuaIPC//Pkzi6XCVGD6J3vO666+TyTz75RIw5/PZVuc2HsKoG1YRRo0KOF8MfBa/W2j0xshQ3n6IOyCVioBbmmAhPMaSIv0rXHiupsrXd6n+Fp2Goh9XClLhVuxE4hbyWQzoOdUbkpMi05ZdfXjTgr7/++rLLLiv/n5Z8+mAoU1F2oos8t/YzyVFJJaWIV0Utc/vmdqw0D1ut5DmV0KGIZagaGvZXXnlF5M/UqVPDVVK8EfbCtgl1CAQtX+l4YVWOaQZXQr9+/U499dRq7QckREP6u9/9Ltwy6elSvIhTxpSzPIPFdnxbbdu13XzzzZ06dfq4RnwQATJ+/Pj11ltPrHr66adlXQp3ZN6tFYd0rEKmGrtJXGONNSZOnKhuVBPtIJLGrob2s9qAPsW2kczCIUzShIY5x5Ly2bwqKjqM1A5FqrWkhgwZ8sgjj4hh4bBhw9TVmdm+h3Co9lq26dgWsRx3if4lXCJ6H/mQ99FHH60a790Ue+21l/Irm4bAFOW16aabJv2ahTKQ03ZV5soQ315+bui9RpphdlKkKBliPgcvVyGyV2Tyc889Fy7Jzqr/sq3bSRzScehikp5oJZWp+Z43aZxWrf36xW41I0eOFBXp1VdfDTeLiodb0rDQEClKRIf1ynA/WE2ockk3F2ZJGZuUq9Xa5ThkrDYTDEepxkLS4QINj86iOV83t6OnYT7nRgR1iWZm2Ma1KM1lllnmzjvvlF/FHcF+++0nPxvyOWXFyBJN8nOYQtI2dRt5L3J7T2FbfCnjS6GMLpQtkxqQpFKOMj/FSqoGhgbNUAnTnE8WVoXuEKpaDulY1Rm3AqrWArDuO0T5Nemmxpy4NroNpW/Yq9q2SqesJ8pwQhm6bx35a0tJAZJ0PtqeV/I4/JCfo6Jhnua23Vw3qsmJhAdKyuqk5dXG9Ne5TbOwvdmsJrfYhub6/7F3/1FXVXXix/ktIAgKimkapjZZYaImOoxp+HOlFlmapYYlGf0wJ6eUtcoaG7QxE7VWX9F+6JSJIviDEbU0UwhQUckfSSIJjKKICpzVmtXomul+9zzny/me55y993P23p97ftz7fv3hep577vO59zl7fz57n3s+PEa9hzLzTHuOmBS8wDSV5TyVLxMmTLj33nsXLVr07W9/e9CgQfEfMc1v3uwTO186LJNHRIN2dx7zrc9L8mhbXluG23Io+fGor6m47777xn/ne/r06WeddZa60tmwYYNaO1SoefPmJT8Sy8/P4pcAIlw/7wrhtIJH5mvGyJpfpmUrypWUqMAHLDXceHsklJZUnAynUe5zLbbMgcir7/b888/faaedMg8WuR+nLdpRX0mayeg0++VJ4B6prauJawdFCKfpFPUedNPJsdR5+2iaPrLrs4xEpVzCl7YhbBapQqeN0/i+W3W5uzLl+uuvj6vS8uXL1Ref+9znZs6cqfa4quJMmTIl+VdNmRmfrlyHHHJI8pdRFPUjl156qT1afmEW4bSshnA988uWLVNn45e//GX2gPnQLbfcoh5X62XUM2pqDVNDoIqLqikf/vCHk78oEFPVR80cteNXQ6N+Kr5bIMWp+ntMYy2POE4rh+m0x+LVVM3h5JEzzzzz+OOPf+KJJ9Tjjz32WPK4mtVxTbdP+AzTeKlv0x/WqO1I//7947+zkk7A9Neufbfpo2efffZJJ50Ubfu0Iv0vdY455hjZtaq0fginaRAZdo3Kn//8Z7V3PPzww9Ug7rfffmog5s+fnxxVh3bddddnn302eWTBggXDhw+Pe23VjkFdCiaHEtrXMk22+Gvt27DMw6g2I+5UN1peKa/lEcdjzsSfMqgzNmPGDJXv8VlNPn2wjGlcefL/mtY0UpFhDiTP1LLXN7/XMn1O6q3MVkKPIY5T1VLY1cXDe97znj333FNdHN55553JopwvwiJcS6hHImhJxRHhNI6mLEhvruLxTfJRrb/pEm36dCk/xJacElFmsrjub6PeS1v81whuv/322267Le4pVHuYIUOG/PGPf1SR1YV0+o9z0HfrxCOOU8pEPUN58MEHP91D5YiayWPHjlVjFx81LRCmvaulfkZtWFNci2QIjzQpkhr2M2Y6z/ZD2lEzbUWinlATJ05UF5s33HBD9pgE1/sQHtNeyzWO6xDHpzS9PYs/Hxw9erRaMiLrtVvGIYcccu6556YfsSSmehX1bfrJ2hGPD2mXKvtkyD8//rqt1xp9brMtmZI5Ifb3IPJbPPfcc+oJ99xzT/JIOKf1y3Vum3jE8VhiTJ9omcbUfs1r2qfFnn/++XHjxqkUuP7665MHMzLpZtkWWjLFdFPHcj0YGaac6eLCznRiTWdVHfI7sdqTYHmVKJeSfr+g6aOzfGuU5Wyn34b9PbcjqRvUmeGa11HPDTA169QXTz31lMq4pAfCcp4LToyQbIq/TiKYntNnkRdR2n0Kj+Erkl+RdXeReaapgJhGOc10/R4zTQNLQbNMwiLvJ4TToHukqpZHHKc54zdAUS4BtfcQ46+PMFzUFA+eZLdl9C0/FfWe0gXnSWY7kd66K2pZSQ6ZEsT0frQrb0xw+xF/bUrzIpft9rkR9Q6ifSHTqTY9HrVnvS6tzcL1YjOmrdj5S0vtGc4/054jaaaAkWFGWcpynsqXIUOG7LbbbmqUDzvsMDUEatCj3Fahz4mdLx0vvfSSafKIaNDuzmO+9XlJHm3La8twWw5FqbJgn4rTp0+PX3rfffdduHDh+9///ptvvvn+++8fNGhQfBPWPj+LXwKIcP28K4TTCh6Zrxkja36Zlq0oV1KiAh+w1HDj7ZFQWlJxMpxGuc+12DIHIq++W1Vdd9lll8yDpreRvh+nLdp93kfIZLQl92X3SJatSDjXDooQTtMp6j3oppNjqfP20YwMH9n1WUaiUi7hS9sQNotUodPGaXzfbaZE3nvvvf16+m4feOAB9YUqH/+cEv+Loig349MXyYceeqhKnuTbeD22R8svzCKcltUQrmf+5ZdfHjhw4He+853sgW2Hvv3tb2cenzVr1oABA+K/ppketT/+8Y9jxoz5+te/3uvZKWo3PHjw4PgqRYRT9feYxloecZxWDsuIRNv+9NSTTz6ZPHLOOeeoVTx+PN1tqWp9XNPtE94iPV4qs9S3yaHf/OY3KubatWuj3gmY/jqTSvnMsmSuelwdjbbth55++unkUPqvt4oorR/CaRpEupIYO/DAA4899tjbb79dnZxHH31UjVHyZzx+/OMfDxs2LPlzibGtW7eOHz/+yiuvVNNGbRe0fyJO+1qmyRZ/rX0blnkY1WbEnepGyyvltTzieMyZ+FOG+A/C7bHHHnPnzo1Snz5YxjR+e2qXnxyKmUYqMsyB5Jla9vrm91rpeSWizFZCjyGOU9Ve2NV5vuqqq0488cSRI0eq9I9HPF+ERbiWUI9E0JKKI8JpHItsrr70pS+p5xy6zd57762qd/IvLDOfLn3sYx+Li2R+iC05JaLMZHHd30a5pW2vvfb6p3/6p/PPP//000+PH5k0adK1116r1qnjevrPEvTdOvGI45QyUW4o1cZmp512urDnz41E5gXCtHe110/xNcW1SIbwSJOoQGrYz5jpPNsPaUfNtBWJekIddthhw4cPz/9PwUS43ofwmPZarnFch3jDhg1qNcln3Ec+8pF4cC3Xbhkf+tCHPvvZz6YfsSRmZvWJDCMeH9IuVfbJkH9+/HVbrzX63GZbMiXzZuzvQeS3iD9ljm8eSHFav1zntolHnPyEt7N8omUaU/s1r2mfFos/xFdbvrvuuit5MCOTbpZtoSVTTDd1LNeDkXnKaS8u7Ewn1nRWo23vzfXEak+C5VWi3K8Zef2CaemPztJn3uls299zO5K6QZ0Zrnmt3HDDDYMGDVqzZo1amN72trcl/8TOcp4LTozAbIpSEUzP6bPIiyjtPoXH8KWZ8iuy7i4yzzQVkMgwymn2T7FM08BS0CyTMCrwfkI4DbpHqmp5xHGaM34DFOUSUHsPMf7adFFTPHiS3fbRN/1UlJvSReZJZjuh/eQ/ZkoQ0/vRrrwx2e1HZE7z9IbZxD43ot5BTC9kOtWmx9uxXpfWZuF6sZmXVOz8paXpDGeeac+RNFPAyDCjLGU5z5Qvmch9Tmxt6TBNHhEN2t15zLc+L8mjbXltGW7LoShVFuxT8cYbbxw9erQKMnTo0FdffVU9TY31RRddNGnSpPgJxeen/YVEuH7eFcJpBY/M14yRNb9My1aUKylRgQ9Yarjx9kgoLak4GU6j3OdabJkDUc/fETv55JOTb5UrrrhiyJAh8V+l1dZqVQ2STEwUuR9nKtr2JM1MKkvui++R2reauHZQhHCaTlHvQTedHEudt49mZPjIrs8yEpVyCV/ahrBZpAqdNk7H9t2uW7dOzfL8v0WIWWa89pq5z2hf+MIXso8Gc1pWQ3iceVXu3/72t2/atCn9YPztMccco/av6X8qoS6c9tprr6OPPjr+NjNqas1Te80//elPySNpP/zhD/v3768Wg+wBX07V32Maa3nEcV05LCOyYcMGdQ5vuumm5PHJkydPmzZN7QzU4wsWLEge32effeKabp/wFunxOqJHcujqq6/eYYcd4q/TCZj5Op1K+cyyZG6yVsX/09tf/OIX8eObN29WZ0Z2rSqtH8J1GuRLorJ69Wo1/R5//PH4W/WF+jbeuv37v//7dtttl54biYsvvnjChAnqDE+cODF7rIf2tUyTLTK/Dcs8jGoz4k51o+WV8loecTzmTPIpw957773zzjvHNyeSTx8sY7p+/XpVKPJ/Rs40UqY5kDzTxFLf/F4rPa9ElNlK6DHEcaoWLOyqgL/rXe9SFxKRrgiLcC2hHomgJRVHhOs42jdX6vGxY8eeeeaZ/ydlzz33/MY3vhE/Wc2B9AcQqrDHRTI/xKacklJmsnjsbzNLmzpLkyZNOuSQQ9T5jB/52te+dsYZZ+y0007pT+si+m4decRxTZnMUG7ZsmXHHXeM57ZlgTDtXe31U3xNcS2SITzSJCqQGvYzZjrPlkOmUTNtRaJt1eyee+4ZOXKk2tZmDwdzvQ/hMe21XON4DLFacfbbb7/MXz7Q9t3mF5G06dOnJ58AxCyJmVl9TCMef6tdqvqcDMm36aWtrdcafW6zLZmSeTP29yDyWyxcuHDgwIHxzQMpTuuX69w28YgTuMSkP9Eyjan9mte0T4u2/U/rpkyZop6w6667/vnPf06elpZON/u20JIpmYxO5pXlejAyT7lE+uLCznRiTWc18j2x2pNgeZUo92umFf8F09IfnaXPvNPZtr/ndiR1gzozXPM66vmEQa1Ks2bNUpddamOTPG45zwUnRng2JRFMz+mzyIso7T6Fx/ClmfLLvrvI1EBTAUmzpL/lUyzTNLAUNMskTLO8H29Og+6RqloecVznjMcARbkE1N5DjL/+30sa3UVN8eBJdttH3/RTUW5KJyzzJLN7137yHzMliOn9aFfemOz2w5LmSWQ7y9yIUkEsL5QwnerM4+1Yr0trs/C42MxIKnZmJljOcOaZ9hxJWAJGhhllKct5pnzJRO5zYmtLR8I0qUI0aHfnMd/6vCSPtuW1Zbgth6JUWbBPxbgMnnPOOfEQ33bbbfvtt9/hhx9+Qc//Gt5pftpfSITr510hXFdw0zVjZM0v07IV5UpK/EiyXmiLQw033h4JpSUVJ8N1lO1rsWUOKJ/97GdVciVHo55RU5Uz/jpfqx966CG1CqtKmH4wZr8fF5mLtj1J05PKnvuye6Q08dXEtYMihOt0Sg+66eRY6rx9NE0f2fVZRqJSLuFL2xA2i1Sh08bp2L5b9fVpp502fvz4Zdv+DyaPPvronXfeGX9tmfGma2ZLtBkzZkyaNOn5559XpWrr1q3bfjSU07IawuPMq+qv1o9jjz1WnYeoZ7G544479t9/f/XFI488sv3225900knxOqeWjalTp6pH1OPxz2ZG7bXXXtt9993jxUN9rba89913X/wn39WPqAXyAx/4QPLkcE7V32Maa3nEcV05LCOivv3EJz6hZrIaC/X1T37yE7V+PPDAA+prNTQHHXSQ2vRHPfVXLR5JTbdM+IR9vFRmqf1KvEV49tln1XbkK1/5SnwonYDprzOplM8sS+amdw9nnXWWejn1xtTrqiDDhw+XXatK64dwnQYquQ488MAVKatWrdq4cePgwYOvvPLKqGf3oHYAagKocVFzZtSoUcn/AyvjhRde2G677YYNG/bDH/4we6yH9rUi82QzvY3IOg9rMuJOdaPllfJaHnE85kzyKcPrPeKv058+mMZUOeWUU9SZf/jhh6OesqOW4Mg8UpY5EPV8zqh+UPs5o6W++b1Wel6JKLOV0GOIkzXXVNifeeaZ2267Lf5Hn+pCQo1p3KKUL8IiXEuoRyJoScUR4TqO9s3VjTfeqCpnXIQTF154odpfxcN67rnnqmvFtWvXqnFUVV2tznGRzA+xKaeklJksHvvbzB71uuuuG9zjqaeeih+ZP3++WmLURMr8nXj6bp14xHFNGTWUamuxssdDDz2k9gkqR+JFyrJAWPaupvoZtWFNcS2SITzSJCqWGpYzZjnPpkOWUdNuReJQcTVTm5bRo0enL/BFuN6H8Jj2Wq5xPIZYDdaIESOOOeaYePjU6qB2YgcccEC+7za/iKT927/924477hgvQzFLYmZWH8uI55+cLFV9TobM8yOJaw3LDrbINtuUKZk3E1nfQ/hvoXzrW99So5N8K8Jp/XKd2yYecTyWGNMnWpF5TC3XvKZ9WtQzLuPGjVuzZs3mzZsnT5589NFH53Mt6p1ufW4LTZmSyej0vLJcD2qnnOniIuorZUwn1nRWI98Tqz0JllfJ/JqmX9D029k/Osuc+eJnO7K+53YkdYM6M1zzOnbOOeeMHDmyX+reZ8x0ngtOjJBsir9OIlieYy/yIkq7T+E0fMXz65VXXrHsLjKZaCogplHOsHyKFZmngaWgmSZhwffjzWnQPVJVyyOO05yJfAcok4Cme4iR+aImKhw8nd2m0Y+sP5We0k8//XSReZLZvedvvCZMCWJ5P9qVN8qlXmDBtFxEpCOb1uuor7mRBDG9kCklTY9H7VmvS2uzcL3YtFTszEwwneH8MyNrjiQsASPzjLKU5QxTvuQ3b/aJnS8dlskjokG7O9f5FhW7JE/y2jLclkPp2mKfigcccMCQIUPiv+KpJqT6Ws3JRYsWxd8Wn59RXy8UzvXzrhCuK7jlmjEy55dp2Yp0JSU9pqbiULeNt0dCaUnFyXAdZftabJ8DDz74oBp3VSc3bdqkKqeqn9tvv33SBZF8LKle4te//vU3v/lNdfWnomV6fGP2+3GRoWjHhyxJmp5U9tyX3SO1dTVx7aAI4Tqd0hPGdHIia523jKbpI7siZSRqfyUpbUPYLFKFThunk/tuX3nllTPOOGPQoEHqilFNVvXfq666Kn6aZcabrpkt0Z588kn1U8OGDUteWoTTshrC48wr6jpZnTpVeoYOHaqWFlVZkhq9ePFidb2kCv2IESPUf1WpUo8kP5gfNbWobLfddqtWrVKrplpK1ZlUYePz+aEPfSj9R7bDOVV/j2ms5RHHdeWIrCOiir465+rQqFGj1IlN/u2O2i5MmDBBreujR49WP5v+H2RYJnzCPl4qoIr2/ve/f8yYMeoJhx9+ePJxRjoB019nUimfWZbMTa9VahfyqU99Sm2A4j+hdOKJJ6qNdfLMcKX1Q7hOA5Vc/XqLLyDVlZK6kFNTQp0TFVMNqNq6qQuMzJMziXnKKaeoTaeaCekHE6bXMk22yPA2Ius8rMmIO9WNllfKa3nE8ZgzyacMaelPHyxjumHDho997GOqzqs0V4N7/PHHR9aRMs2BqOefA6rg6koj+cE0U33ze630vBJRZiuh6xCrRD5i2z+7NBV2dc2wyy67qNOlrlHVcqwyKB6IfBEW4VpCPRJBSyqOCNdxjKybK5V6H/zgB3s//f/9A1l1OR31/O9O1IZWDb1Kh4985CNJmc0PsSWnRJSZLB7723S+KGprqs7MbrvtljyidjKqBO2www7J/3k2Rt+tE484rimT3qWozYzKlxtvvDE5alogLHtXU/2M2rCmuBbJEB5pEhVLDcsZs5xnyyHTqGm3InGopJotXbp07Nixgv+OP3K/D+Ex7bVc4/gNsdp3qcs6NQSqsqktujqxam8Qf8JouXbrFaLn42M17gsXLkwesSRmZvWJzCOef3KyVBWZDOnnRxLXGpYdbJFttilT8ifE8h7Cfwtl//33v+KKK5JvRTitX65z28QjjscSY/pEKzKPqeWa17RPu/fee9Xzkw/0VXw1t7/73e/G36al063PbaEpUzIZnZ5XlutB7ZQzXVxEfaWM6cSazmrkdWIjw0mwvErm1zT9gqbfzv7RWebMFz/bkfU9tyOpG9SZ4ZrXsSVLlqgXUsORedx0ngtOjJBsir9OIlieYy/yIkq7T+E0fE75ZdldZJ5pKiCmUc4zfYoVmaeBpaCZJmHx9+PHadA9UlXLI47TnIl5DFAmAU33ECPrRU3B4OnsNo2+/afSU3ru3LlF5klm955flxOmBLG8H+3KG+VSL7xgmtI8Hdm0XscscyMdRPtCppQ0PR61Z70urc3C9WLTUrHzl5baM6x9piVH0kwBI/OMspTlDFO+5Ddv9omdLx2WySOiQbs71/kWFbskT/LaMtyWQ+myYJ+KaibEv3L87eTJk9UEeO211+Jvi8/PqK8XCuf6eVcI1xU8n2vpi3FTfpmWrUhXUtJjaioOddt4eySUllScDNdRjqxrsX0OxN+qVB2w7SPNs88+O+m5Tz6WVDFVpVVlVj05bufVstyPiwxFOz5kSdLMpLLkvuweqa2rySWOHRQhXKdTesKYTk5krfOm0bR8ZFekjETtrySlbQibRarQaeM0u++2CHVRp6rJM888k7lB7kc2mp3Tshoi5MyvX79enZDnnnsue6BnK6MOxf/ewonaa6rl5JFHHtH+q9NATtXfYxprecRxXTkSlhFRRV8dyiylW7dufeyxx5K/VpVRZMKbxitZS5544gn1hPShMql3/o53vCP+B0NSSuuH8J4GeS+++OLy5cudckptE6dPn559tBjtZIvMb8M+D520Y8Sd6kbLK+W1POIIzpkM05gqa9euLV7tTXPgtNNOy3yCkGepb1qm1xJXZiuh6xAffPDBn/zkJ9OPmAp7PMTr1q1LP9gOriXUIxG0pOKIcB3HhPfmSpVZtRY/++yz2QPlKjNZPPa3+XypA6e+pbaSSiKPON4pY2JfIEx7V1P9lOVaJEN4pIkT+xnLn2f75YNl1Jy2IiJc70N4THst1zghQxyf8BUrVmj/8EMRF1544dSpU7OPFmYZcYt2T4bMtUaRHWyf7JmSF369k4nw0EMP7bzzzupt9H5WKKf1y3Vum3jEEV9iIsOYWq55w/dprunmkSmW60Et7cVFSMpoz2oUcGK1J8H0Knn5X9D+25k+OtNyOtv599ympG5QZ0ZpeZ2Xnxh5TuPrIXyZ0CrtPoXH8BXPr+K7C0sBKTLKMcunWNppYClokXkSFn8/rpwG3SNVtTzieMyZmOsAFWS/qIm8gptGv7gi86T4dsKSIBbaldfO41z1meb29TpmmRsJ0wuZTnX+8Tat16W1WfhdbLajYkfFcsQpYMxelr1pJ7aldOQnj5QG7e785psTy3BbDmUUmYparvPT+4X65Pp5VwjvFdxCm19+y1YRddh4eySUllScDO9RLrIWa73xxhsrVqxQP/uK4c+KOTHdj7MU7VjBJHXN/YR2qtu1aTVx7aAI4T2d+mSv8wVH01s7KklpG8JmkSp02jid33fbXE7LaoiuOvNO1d9jGmt5xGnfylGa/L/DK82SJUt+9KMfqZ3Kb3/721NPPXXMmDFq45J9UoDS+iGqmgZPP/301VdfPWjQILVfzB6rpXaPuFPdaHmlvJZHnKrmTLjzzz//hRdeyD7aEGW2EhYf4oULF37xi19UUyj5J5I14VpCPRJBSyqOiOLj2GHKTBan/W1t8yVy7FtqK6kk8ojTVSnjWiRDOKVJCSq8fHDleh/CY9prucapdohfeeWVD3zgA+24sVEyy7VGaTtYy3soyBLhS1/60o9//OPeTxfgtH65zm0TjzidscQ0Jd1KS5lK1Oe3a1NSN6gzozPy2omlyEsp7T5FFw5fbTkNukeqannEqducadBFTUZTthOBOn69Lq3NotqLzc5TSelo0O6O+VYa18+7QtRtBS+obhtvj4TSkoqT0dBR7lMlRbueXDsoQnTSdGp3JSltQ9gsUoVOG4e+2/pyWlZDdNWZd6r+HtNYyyNOB6wcU6dOveiii7KPluKRRx6ZMmXK+PHj991335NPPnnlypXZZ4QprR+iqmmw//7777PPPu343KdN2j3iTnWj5ZXyWh5xqpozXa7MVsLiQzxjxowTTjjhhhtuyB6ommsJ9UgELak4IoqPY4cpM1mc9re1zZfIsW+praSSyCNOV6WMa5EM4ZQmJajw8sGV630Ij2mv5RqnbkPcUO2+1igi/D2ER3DltH65zm0TjzhdtcQAIRrUmdGFeV1CkS/tPkUXDsYc+PYAAIAASURBVF9tOQ26R6pqecSp25xp0EUNOlJpbRZcbMqqpHQ0aHfHfCuN6+ddIeq2ghdUt423R0JpScXJaOgo96mSol1Prh0UITppOrW7kpS2IWwWqUKnjUPfbX05LashuurMO1V/j2ms5RGnk1aOzlNaPwTToCac6kbLK+W1POIwZypRZithBwyxawn1SAQtqTgiOmAc/ZSZLB2zv3XqW2orqSTyiNNVKeNaJEN0TJqUz/U+hMe013KNwxCjQk7rl+vcNvGI01VLDBCiQZ0Z5HU7lHafguGrD6dB90hVLY84zBkgrbQ2Cy42O0CDdnfMt9K4ft4VghXcpCl7sCIY5Y7n2kERgulUXGkbwmaRKnTaOPTd1pfTshqiq868U/X3mMZaHnFYOeqstH4IpkFNONWNllfKa3nEYc5UosxWwg4YYtcS6pEIWlJxRHTAOPopM1k6Zn/r1LfUVlJJ5BGnq1LGtUiG6Jg0KZ/rfQiPaa/lGochRoWc1i/XuW3iEaerlhggRIM6M8jrdijtPgXDVx9Og+6RqloecZgzQFppbRZcbHaABu3umG+lcf28KwQruElT9mBFMModz7WDIgTTqbjSNoTNIlXotHHou60vp2U1RFedeafq7zGNtTzisHLUWWn9EEyDmnCqGy2vlNfyiMOcqUSZrYQdMMSuJdQjEbSk4ojogHH0U2aydMz+1qlvqa2kksgjTleljGuRDNExaVI+1/sQHtNeyzUOQ4wKOa1frnPbxCNOVy0xQIgGdWaQ1+1Q2n0Khq8+nAbdI1W1POIwZ4C00tosuNjsAA3a3THfSuP6eVcIVnCTpuzBimCUO55rB0UIplNxpW0Im0Wq0Gnj0HdbX07LaoiuOvNO1d9jGmt5xGHlqLPS+iGYBjXhVDdaXimv5RGHOVOJMlsJO2CIXUuoRyJoScUR0QHj6KfMZOmY/a1T31JbSSWRR5yuShnXIhmiY9KkfK73ITymvZZrHIYYFXJav1zntolHnK5aYoAQDerMIK/bobT7FAxffTgNukeqannEYc4AaaW1WXCx2QEatLtjvpXG9fOuEKzgJk3ZgxXBKHc81w6KEEyn4krbEDaLVKHTxqHvtr6cltUQXXXmnaq/xzTW8ojDylFnpfVDMA1qwqlutLxSXssjDnOmEmW2EnbAELuWUI9E0JKKI6IDxtFPmcnSMftbp76ltpJKIo84XZUyrkUyRMekSflc70N4THst1zgMMSrktH65zm0TjzhdtcQAIRrUmUFet0Np9ykYvvpwGnSPVNXyiMOcAdJKa7PgYrMDNGh3x3wrjevnXSFYwU2asgcrglHueK4dFCGYTsWVtiFsFqlCp41D3219OS2rIbrqzDtVf49prOURh5Wjzkrrh2Aa1IRT3Wh5pbyWRxzmTCXKbCXsgCF2LaEeiaAlFUdEB4yjnzKTpWP2t059S20llUQecboqZVyLZIiOSZPyud6H8Jj2Wq5xGGJUyGn9cp3bJh5xumqJAUI0qDODvG6H0u5TMHz14TToHqmq5RGHOQOkldZmwcVmB2jQ7o75VhrXz7tCsIKbNGUPVgSj3PFcOyhCMJ2KK21D2CxShU4bh77b+nJaVkN01Zl3qv4e01jLIw4rR52V1g/BNKgJp7rR8kp5LY84zJlKlNlK2AFD7FpCPRJBSyqOiA4YRz9lJkvH7G+d+pbaSiqJPOJ0Vcq4FskQHZMm5XO9D+Ex7bVc4zDEqJDT+uU6t0084nTVEgOEaFBnBnndDqXdp2D46sNp0D1SVcsjDnMGSCutzYKLzQ7QoN0d8600rp93hWAFN2nKHqwIRrnjuXZQhGA6FVfahrBZpAqdNg59t/VVWj501Zl3qv4e01jLIw4rR52V1g/BNKgJp7rR8kp5LY84zJlKlNlK2AFD7FpCPRJBSyqOiA4YRz9lJkvH7G/L/LjTTiqJPOJ0Vcq4FskQHZMm5XP6BLzlNe21XOMwxKiQ0/rlOrdNPOJ01RIDhGhQZwZ53Q6umx9vDF99OA26R6pqecRhzgBppX2kwMVmB2jQ7o75Vhqn1T8QK7iJU4OQR0JpScXJYJQ7nmsHRQimU3GlbQibRarQaePUqO/2mmuuWb16dXZSdCt1Kq699trsOWqP7jnzW7dudar+HtNYyyPOrFmz1LvN/gKoAZUsc+bMyQ5YezAN6sC1brS8Ul7LIw5zpnzqhJfZStj0IVZv3nW775EIWlJxRDR9HP2UnCydsb99/vnnr7vuuuzvVhGpJPKI0z0po35N19seITojTcqnTpprYnpMey3XOAwxquK6frnObROPON2zxAAhPHbyHvmo5RGHvBZX5n0Khq8mXAfdI1W1POIwZ4BEmbeuuNhsumbt7phv5fD4vCsEK7hWg/ZgRTDKnW2rewdFCKZTQWVuCJtFqtBp49So7/bNN9+84IIL2DlFPclw4YUXqhOSPUft0T1nft68eQ899FD29zfzmMZaHnEefPBB9W6zvwCqptJEJUtpuck0qAPXutHySnktjzjMmfLdeuutixcvzo5E2zR9iOfPn79kyZLsb2XlkQhaUnFENH0c/ahfucxk6YD9rXrzM2fOLG3X0SepJPKI0z0p41EkQ3RAmpTPLzE9pr2WaxyGGJXwSBPXuW3iEad7lhgghMdlr0c+annEIa9llXyfguGrA49B90hVLY84zBkgVvKtKy42m65ZuzvmWwk8Vv9ArOB5HqPgkVBaUnEyGOXO5tFBEYLpVETJG8JmkSp02jg16rtV3nrrrWuuueb7XW/OnDnqVGTPTjt1w5m/5JJLbr755uxvbuU3jfP84syfPz/7O6BqKk1Kzk2mQbU86kbLN+Xz/OIwZ8rkN0MCNXeI1em65ZZbsr9PX/wSIU8qjpTmjqOfSpKl6fvb8q8I7KSSyC9ON6SMX5EM1PQ0KZ9fYvpN+zyPOAwxyueRJh5zW8svTjcsMUAIvy2KXz7m+cUhrwV5VPVADF/lPAbdL1Xz/OIwZ4DvV3HriovN5mri7o751m4eq384VvAMj1HwS6g8qTh5jHKnquSWH9OpT+VvCBtEqtBp49Sr7xaoFalpLBUHQCNIpbxUHKDRpBJBKg7QtaSSSCoO0CBS014qDlA3UnNbKg6AcFL5KBUHQFtJpapUHACAOKkSLRUHQEsuoaTiAEBtSRU6bRz6bgEjqWksFQdAI0ilvFQcoNGkEkEqDtC1pJJIKg7QIFLTXioOUDdSc1sqDoBwUvkoFQdAW0mlqlQcAIA4qRItFQdASy6hpOIAQG1JFTptHPpuASOpaSwVB0AjSKW8VByg0aQSQSoO0LWkkkgqDtAgUtNeKg5QN1JzWyoOgHBS+SgVB0BbSaWqVBwAgDipEi0VB0BLLqGk4gBAbUkVOm0c+m4BI6lpLBUHQCNIpbxUHKDRpBJBKg7QtaSSSCoO0CBS014qDlA3UnNbKg6AcFL5KBUHQFtJpapUHACAOKkSLRUHQEsuoaTiAEBtSRU6bRz6bgEjqWksFQdAI0ilvFQcoNGkEkEqDtC1pJJIKg7QIFLTXioOUDdSc1sqDoBwUvkoFQdAW0mlqlQcAIA4qRItFQdASy6hpOIAQG1JFTptHPpuASOpaSwVB0AjSKW8VByg0aQSQSoO0LWkkkgqDtAgUtNeKg5QN1JzWyoOgHBS+SgVB0BbSaWqVBwAgDipEi0VB0BLLqGk4gBAbUkVOm0c+m4BI6lpLBUHQCNIpbxUHKDRpBJBKg7QtaSSSCoO0CBS014qDlA3UnNbKg6AcFL5KBUHQFtJpapUHACAOKkSLRUHQEsuoaTiAEBtSRU6bRz6bgEjqWksFQdAI0ilvFQcoNGkEkEqDtC1pJJIKg7QIFLTXioOUDdSc1sqDoBwUvkoFQdAW0mlqlQcAIA4qRItFQdASy6hpOIAQG1JFTptHPpuASOpaSwVB0AjSKW8VByg0aQSQSoO0LWkkkgqDtAgUtNeKg5QN1JzWyoOgHBS+SgVB0BbSaWqVBwAgDipEi0VB0BLLqGk4gBAbUkVOm0c+m4BI6lpLBUHQCNIpbxUHKDRpBJBKg7QtaSSSCoO0CBS014qDlA3UnNbKg6AcFL5KBUHQFtJpapUHACAOKkSLRUHQEsuoaTiAEBtSRU6bRz6bgEjqWksFQdAI0ilvFQcoNGkEkEqDtC1pJJIKg7QIFLTXioOUDdSc1sqDoBwUvkoFQdAW0mlqlQcAIA4qRItFQdASy6hpOIAQG1JFTptHPpuASOpaSwVB0AjSKW8VByg0aQSQSoO0LWkkkgqDtAgUtNeKg5QN1JzWyoOgHBS+SgVB0BbSaWqVBwAgDipEi0VB0BLLqGk4gBAbUkVOm2cdvXdLlmyRMW5//77sweA5rj77rvVNF6+fHn2gCPSAegqlA5AEAkF1ATJCHgjfQA7cgToPOQ10FWkUl7q7iQAQJxUiZaKA6All1BScQCgtqQKnTZOu/pu161bp+LMmTMnewBojlNPPXXYsGF//etfswcckQ5AV6F0AIJIKKAmSEbAG+kD2JEjQOchr4GuIpXyUncnAQDipEq0VBwALbmEkooDALUlVei0cdrVd6tMnDjxne9856JFi34HNM0999zzyU9+UuXC7NmzszPbC+kAdANKByCIhAJqgmQEvJE+gB05AnQe8hroKrIp/zu5u5MAAFlSJVoqDoCWXEJJxQGA2pIqdNo4bey7Xbp06ahRo/oBzTR06NDZs2f/7W9/y85sL6QD0CUoHYAgEgqoCZIR8Eb6AHbkCNB5yGugqwimvODdSQCALKkSLRUHQEsuoaTiAEBtSRU6bZw29t0qf/nLXxYvXvw7oGmWL18e/v9FyiAdgI5H6QAEkVBATZCMgDfSB7AjR4DOQ14DXUU25X8nencSACBIqkRLxQHQkksoqTgAUFtShU4bp719twAAAAAAAAAAAABgwt1JAKgtqRItFQdASy6hpOIAQG1JFTptHPpuAQAAAAAAAAAAAFSDu5MAUFtSJVoqDoCWXEJJxQGA2pIqdNo49N0CAAAAAAAAAAAAqAZ3JwGgtqRKtFQcAC25hJKKAwC1JVXotHHouwUAAAAAAAAAAABQDe5OAkBtSZVoqTgAWnIJJRUHAGpLqtBp49B3CwAAAAAAAAAAAKAa3J0EgNqSKtFScQC05BJKKg4A1JZUodPGoe8WAAAAAAAAAAAAQDW4OwkAtSVVoqXiAGjJJZRUHACoLalCp41D3y0AAAAAAAAAAACAanB3EgBqS6pES8UB0JJLKKk4AFBbUoVOG4e+WwAAAAAAAAAAAADV4O4kANSWVImWigOgJZdQUnEAoLakCp02Dn23AAAAAAAAAAAAAKrB3UkAqC2pEi0VB0BLLqGk4gBAbUkVOm0c+m4BAAAAAAAAAAAAVIO7kwBQW1IlWioOgJZcQknFAYDakip02jj03QIAAAAAAAAAAACoBncnAaC2pEq0VBwALbmEkooDALUlVei0cei7BQAAAAAAAAAAAFAN7k4CQG1JlWipOABacgklFQcAakuq0Gnj0HcLAAAAAAAAAAAAoBrcnQSA2pIq0VJxALTkEkoqDgDUllSh08ah7xYAAAAAAAAAAABANbg7CQC1JVWipeIAaMkllFQcAKgtqUKnjUPfLQAAAAAAAAAAAIBqcHcSAGpLqkRLxQHQkksoqTgAUFtShU4bh75bAAAAAAAAAAAAANXg7iQA1JZUiZaKA6All1BScQCgtqQKnTYOfbcAAAAAAAAAAAAAqsHdSQCoLakSLRUHQEsuoaTiAEBtSRU6bRz6bgEAAAAAAAAAAABUg7uTAFBbUiVaKg6AllxCScUBgNqSKnTaOPTdAgAAAAAAAAAAAKgGdycBoLakSrRUHAAtuYSSigMAtSVV6LRx6LsFAAAAAAAAAAAAUA3uTgJAbUmVaKk4AFpyCSUVBwBqS6rQaePQdwsAAAAAAAAAAACgGtydBIDakirRUnEAtOQSSioOANSWVKHTxqHvFgAAAAAAAAAAAEA1uDsJALUlVaKl4gBoySWUVBwAqC2pQqeNQ98tAAAAAAAAAAAAgGpwdxIAakuqREvFAdCSSyipOABQW1KFThuHvlsAAAAAAAAAAAAA1eDuJADUllSJlooDoCWXUFJxAKC2pAqdNg59twAAAAAAAAAAAACqwd1JAKgtqRItFQdASy6hpOIAQG1JFTptHPpuAQAAAAAAAAAAAFSDu5MAUFtSJVoqDoCWXEJJxQGA2pIqdNo49N0CAAAAAAAAAAAAqAZ3JwGgtqRKtFQcAC25hJKKAwC1JVXotHHouwUAAAAAAAAAAABQDe5OAkBtSZVoqTgAWnIJJRUHAGpLqtBp49B3CwAAAAAAAAAAAKAa3J0EgNqSKtFScQC05BJKKg4A1JZUodPGoe8WAAAAAAAAAAAAQDW4OwkAtSVVoqXiAGjJJZRUHACoLalCp41D3y0AAAAAAAAAAACAanB3EgBqS6pES8UB0JJLKKk4AFBbUoVOG4e+WwAAAAAAAAAAAADV4O4kANSWVImWigOgJZdQUnEAoLakCp02Dn23AAAAAAAAAAAAAKrB3UkAqC2pEi0VB0BLLqGk4gBAbUkVOm0c+m4BAAAAAAAAAAAAVIO7kwBQW1IlWioOgJZcQknFAYDakip02jj03QIAAAAAAAAAAACoBncnAaC2pEq0VBwALbmEkooDALUlVei0cei7BQAAAAAAAAAAAFAN7k4CQG1JlWipOABacgklFQcAakuq0Gnj0HcLAAAAAAAAAAAAoBrcnQSA2pIq0VJxALTkEkoqDgDUllSh08ah7xYAAAAAAAAAAABANbg7CQC1JVWipeIAaMkllFQcAKgtqUKnjUPfLQAAAAAAAAAAAIBqcHcSAGpLqkRLxQHQkksoqTgAUFtShU4bh75bAAAAAAAAAAAAANXg7iQA1JZUiZaKA6All1BScQCgtqQKnTYOfbcAAAAAAAAAAAAAqsHdSQCoLakSLRUHQEsuoaTiAEBtSRU6bRz6bgEAAAAAAAAAAABUg7uTAFBbUiVaKg6AllxCScUBgNqSKnTaOPTdAgAAAAAAAAAAAKgGdycDqVM3a9asS7rGpZdeevnll0dRlD0RbbNly5bvf//76nWzbwVyyh9WFCRVoj3ikHo1p4bmBz/4AWlbCY+E0vKL020bD1RFTTPXyRmIdafm/LaLfoUuTxuHvlsAAAAAAAAAAAAA1eDuZIgFCxbMmzcv6jIvvvji7Nmzs+eibS6//HL1itk3AWnqJF9xxRXZs4+qSZVojzikXv2VXI2R8EgoLY843bnxQFXUZJs7d252FrYN6079eaw7HoVOSxuHvlsAAAAAAAAAAAAA1eDuZIh//dd/zd6O7g7qF8+ei7a55JJLsi+P9vje976XPfuomlSJ9ohD6jVCmdUYCY+E0vKI07UbD1Rl1qxZ2VnYNqw7jeC67ngUOi1tHPpuAQAAAAAAAAAAAFSDu5Mhurb9xfWOewiaMEpD320NSZVojzikXiOUWY2R8EgoLY84XbvxQFXKLDKsO43gOiU8Cp2WNg59twAAAAAAAAAAAACqwd3JEF3b/uJ6xz0ETRiloe+2hqRKtEccUq8RyqzGSHgklJZHnK7deKAqZRYZ1p1GcJ0SHoVOSxuHvlsAAAAAAAAAAAAA1eDuZIhGt7/MmjXrEhfpn3W94x4i89KwCxlW+m5rSKpEe8TJTA+0T0jallmNkfBIKC2POI3eeKAqTSkymZdG+5Q5JTwKnZY2Dn23AAAAAAAAAAAAAKrB3ckQjW5/ydxEtwu84x7C6X3C6XRlnkzfbQ1JlWiPOE5zCSGcTnWF1RgJj4TS8ojT6I0HqtKUIuP0PhHC6VQHTgmPQqeljUPfLQAAAAAAAAAAAIBqcHcyREPbXzJ/4yp7WCfwjnuIgu8Q4cNK320NSZVojzgFZxFChKdtmdUYCY+E0vKI09CNB6rSrCJT8B0iRPlTwqPQaWnj0HcLAAAAAAAAAAAAoBrcnQzR0PaX9O3zcu64hyj4DhE+rPTd1pBUifaIU3AWIUR42pZZjZHwSCgtjzgN3XigKs0qMgXfIUKUPyU8Cp2WNg59twAAAAAAAAAAAACqwd3JEA1tf7mkx0c/+tH4i+xhncA77iEKvkOEDyt9tzUkVaI94hScRQgRnrZlVmMkPBJKyyNOQzceqEqzikzBd4gQ5U8Jj0KnpY1D3y0AAAAAAAAAAACAanB3MkSj218K3muPBd5xD+H0PuF0ujJPpu+2hqRKtEccp7mEEE6nusJqjIRHQml5xGn0xgNVaUqRcXqfCOF0qgOnhEeh09LGoe8WAAAAAAAAAAAAQDW4Oxmioe0vs2bN+t+/cLVN9rBO4B33EAXfIcKHlb7bGpIq0R5xCs4ihAhP2zKrMRIeCaXlEaehGw9UpVlFpuA7RIjyp4RHodPSxqHvFgAAAAAAAAAAAEA1uDsZoqHtL+nb5+XccQ9R8B0ifFjpu60hqRLtEafgLEKI8LQtsxoj4ZFQWh5xGrrxQFWaVWQKvkOEKH9KeBQ6LW0c+m4BAAAAAAAAAAAAVIO7kyEa2v5ySY+PfvSj8RfZwzqBd9xDFHyHCB9W+m5rSKpEe8QpOIsQIjxty6zGSHgklJZHnIZuPFCVZhWZgu8QIcqfEh6FTksbh75bAAAAAAAAAAAAANXg7mSIRre/FLzXHgu84x7C6X3C6XRlnkzfbQ1JlWiPOE5zCSGcTnWF1RgJj4TS8ojT6I0HqtKUIuP0PhHC6VQHTgmPQqeljUPfLQAAAAAAAAAAAIBqcHcyRKPbX/73j1y5SP+s6x33EJmXhl122PqS/ln6bmtIqkR7xMlMD7RPNi37kv7ZMqsxEh4JpeURp9EbD1QlW0T6kv7ZMotM5qXRPtkh70v6Z12nhEeh09LGoe8WAAAAAAAAAAAAQDW4Oxmia9tfXO+4h8jc7Ef70HdbQ1Il2iMOqdcIZVZjJDwSSssjTtduPFCVMosM604juE4Jj0KnpY1D3y0AAAAAAAAAAACAanB3MkTXtr+43nEPQRNGaei7rSGpEu0Rh9RrhDKrMRIeCaXlEadrNx6oSplFhnWnEVynhEeh09LGoe8WAAAAAAAAAAAAQDW4Oxmia9tfXO+4h6AJozT03daQVIn2iEPqNUKZ1RgJj4TS8ojTtRsPVKXMIsO60wiuU8Kj0Glp49B3CwAAAAAAAAAAAKAa3J0M0bXtL6533EPQhFEa+m5rSKpEe8Qh9RqhzGqMhEdCaXnE6dqNB6pSZpFh3WkE1ynhUei0tHHouwUAAAAAAAAAAABQDe5Ohuja9hfXO+4haMIoDX23NSRVoj3ikHqNUGY1RsIjobQ84nTtxgNVKbPIsO40guuU8Ch0Wto49N0CAAAAAAAAAAAAqAZ3J0N0bfuL6x33EDRhlIa+2xqSKtEecUi9RiizGiPhkVBaHnG6duOBqpRZZFh3GsF1SngUOi1tHPpuAQAAAAAAAAAAAFSDu5MhPNpfnn766cceeyz9yMsvv/zggw+++uqr6QeL++d//ufrr78++2ibud5xD+HXhPHaa6/dfffd11133YIFC1atWpU9XEtbt25VM+GZZ55JP6gmzIM9li5dun79+syhzFwKRN9tDUmVaI84rqmXzNXEww8/nH2StHwWBFbUvNmzZ//oRz+Kv1Y5MmfOnPzXFSqzGiPhkVBaHnE8Nh4x7RLTCLK5lq9Uqmhkn9Qo7d4HlllkvNcdtUf64x//qCZ59hnS4ldcvXp1+sG1a9eqB5944on0g0Wk1xeTDlh3PAqdljYOfbcAAAAAAAAAAAAAqsHdyRAe7S+f/vSn/+Ef/iH9yL333quGYMWKFekHizviiCP+8R//Mftom7necQ/h2oShzJ07921ve9uIESMOPvjg9773vYMHD546dap3N8b06dMvvvji7KOOigS544471Ex417velX5QTZhBgwbttNNOI0eOVEePPPLIpNsjP5cC0XdbQ1Il2iOOa+qpCTlgwIDhKQceeGD2SdLyWRBYUfNOPfXUz3zmM/HXJ5xwwuc///n4649//ONf+cpX/v/zKlJmNUbCI6G0POJ4bDxi2iWmnjIrpmyu5SvVfffdl31So7R7H1hmkfFYd+I90ujRo9Ww7rDDDtOmTVuzZk32eTlFdmVa6hVVHh1//PHpB9UaoR486qij0g8WkV5fTDpg3fEodFraOPTdAgAAAAAAAAAAAKgGdydDeLS/iHeJtbvfQsv1jnsI1yaMRYsWDRw48Mtf/nLyBy9XrVp1yimnvPHGG72fWNRxxx33xS9+MfuooyJBPv7xj6u5od78b37zm+TB9IR55JFHdt1116lTp+YPiaDvtoakSrRHHNfUE5+QReRfNLCi5pn6bmuizGqMhEdCaXnE8dh4xLRLTD0VWTG95YtG07V7H1hmkQlZdzZt2nT77bfvt99+e+6559q1a3s/Mct7jqlXfPe73z1kyJCku3fjxo0jRox4z3veU0LfbU24TgmPQqeljUPfLQAAAAAAAAAAAIBqcHcyhEf7S77hI9Ml9uMf/1g94X3ve99pp522cuXK9DO1h9L9FmvWrDnjjDNuuOEG9fXy5ctPOeWU/fff/wMf+IB6MPO/xA3kesc9hGsTxsEHH6x+a8tft9WexosuuuhnP/vZ1Vdffcghh0yePFk9J3589uzZb3vb2/bZZ5+Te/zpT3+KH583b95xxx03YcKEqVOnLl68WD3ywgsvnHrqqYsWLYqfsGHDBjXWt956qyVI2n/8x38MHTp0wYIFRx111LRp05LHMxPmq1/96rhx47SHwtF3W0NSJdojjmvqWSakyq+f/vSnV1xxxaRJk84880ztI9rE1D4zLf+imYqqvlXPOeigg9SPn3vuuSrR4sdNKa+o6jFr1qwDDzzwsMMOmzNnjqnvVj0n+SlLtC1btlx88cUTJ06Mo/3gBz9QT0uOhiuzGiPhkVBaHnE8Nh6ReYmxzE/LIW1W5pdFexBTbuZXzHSuRdZaYUrDtHzRiOV/KdM7jF9IPVPtr9Tvdcstt6iioRZQ9cwjjzzyrrvuSofVnpYHHnggqSrr169Xv+a1114bf/urX/3qwgsvjL+2/Kbpt2raB0ops8iErztquzt8+PCvfe1r8bfaQczPMdMz89RzVBKpc568VTWx1bZTrRTpvlvT2FnWF+1UiTpi3fEodFraOPTdAgAAAAAAAAAAAKgGdydDeLS/fPrTn548efIbKYsWLUq6xC677LJhw4Z973vfW7BgwYc//OExY8asW7cu/kHToaTf4rHHHnvHO94xY8aMLVu2bNq0aeeddz777LPvuuuuW2+99YILLnjiiSdS7yKU6x33EE5NGGvXru3fv79lXCyncffdd//4xz8+d+7c73znOwMGDFi4cKF6/MEHHzzggAOOO+64X/TYsGFD1NNOsf3221988cXqOTNnzlQBly1bph7/1re+NW7cuOeffz7q+cuC6gdfe+01U5CMK664Ytddd928efPPfvazESNGbNy4MX4801NyxhlnvPOd79QeCkffbQ1JlWiPOE6pF+mKm6pF8SGVX7vtttsJJ5xwww03xM3omUdMiZl/ZvJysfyLpiuqcumll86aNeuOO+646aabDj300L//+7+PHzelvKJSW+Xg7Nmz582bp1JMJbW27zb9tSWaKhGjRo26+uqr58+ff/TRR6ejiSizGiPhkVBaHnEsC5yFaYmxzE/LoXxWmpZFSxBTbuZXzHSu2WuFKQ3TVNFQr/XqNvEyHel+KdM7jJ+p4tx8881f/vKXBw0adOaZZ06bNk19q/Zdw4cP//Of/xw/03RaVq1apcb98ccfV1/feOONgwcPPuSQQ+IfUb+Uihn19Zum36p2Hxg/U0SZRcZj3clvhE4++eQJEybEX2sHMT/HTM/Mi/tur7vuuve+973xI+oNqMFK991axs60vpimStQR645HodPSxqHvFgAAAAAAAAAAAEA1uDsZwqP95dOf/nQ/nRUrVrzxxhujR4/+l3/5l/iZ6ts99tjjggsuiL82HYr7Le69994xY8bMmjUrfsLKlStVzFWrVsXfinO94x7CqQnj97//vfrFb7755uyBHvbTeMABByR/Jfeoo45KOhsy/zNi9VNjx479/ve/nzxy+umnf+ITn4h6/sDYkT2uvPLKkSNH/uEPf0ie0+f/0XjixIlf/epX1RevvvrqDjvsMGfOnPhxNWEmTJigxnfRokXf/va3Bw0alPwlPG27SQj6bmtIqkR7xHFKvUhX3NJdeu9+97vTf4U6/YglMbU/m5Z/0VjSd5v2wgsvJIdMKf/666+rN/ODH/wgfvyll15S+Vik71YbbdOmTSNGjPjhD38YP75x40ZVqKvtf4IIj4TS8ojjsfGIDEuMZX5aDkW5rDQti/YgaencjHIrZpJrfdYKbRpmZIqG+pH4cXupyVSPgw46KH5cPX+33XabPHly/O3mzZt33HHHn//855H5tMRf77vvvrNnz1ZfTJ8+/ayzzhoyZMiGDRvUj6vRmTdvXp+/afqtaveBgsosMh7rTn4jdP755++0006ZB6Peg2jflWUmZFrcd6sms9rmLVmy5Kmnntpuu+3i/+NB3HdrGTvT+mKfKh2w7ngUOi1tHPpuAQAAAAAAAAAAAFSDu5MhPNpfPt3zP7FdmXL99dfHd/fjZtnly5cnTz7zzDOPP/74aFsfrfbQEUccMXHixBEjRqT/t8JvvPHGe97znj333PO888678847X3/99eSQCNc77iGcmjCWLVumTtQvf/nL7IEe9tOY7sA4++yzTzrppPjrTHOG+nEV5HOf+9zMmTMvvPDCCy64YMqUKcmfPXv++efHjRvXv39/NazJj0S5IBlxzORvm02bNi3pI1ETZsiQIbvttpsazcMOO+yyyy5Tg5scyrebhKDvtoakSrRHHKfUi3TFLfmjjyq/VE6ln5x+xJKYmWfm5V80qajxE9R7OP/88w8//HCVpPvtt5/Kzfnz50fmlH/iiSfUjz/22GPJIZXgRfputdHU21DR0n9u/Jhjjqm2/wkiPBJKyyOOx8bDtMRY5qflUJTLStOyaA9iys0ot2ImudZnrdCmYYYqGgcffPDT2zz33HPx4/lSY3qHmRc65JBD4j83G1NPvvTSSyPzaYmfNn369Pjt7bvvvgsXLnz/+99/880333///YMGDdqwYUOfv2n6rWr3gYLKLDIe605+I6S2vrvsskv8tWkQ87sy0zMz4r5b9YWayTNmzFAjG49j0ndrGTvT+mKfKh2w7ngUOi1tHPpuAQAAAAAAAAAAAFSDu5MhPNpf8i0C9957b7+eLrGlS5eqL5588snk0DnnnHP44YerLyyHjjjiiMMOO2z48OGXXXZZclR5+eWXr7rqqhNPPHHkyJHjx49P/2w41zvuIZyaMNRvPXDgwO985zvZAz3spzHdN/P5z3/+hBNOiL/ONGc88MADKsh55533zynxX62LtvXdDhgw4K677kp+JMoFyfjSl76k3vah2+y99979+/eP/1xufsIkLIf80HdbQ1Il2iOOU+pF1gmZya/MI5bEzDwzL/+iSUWNvz3wwAOPPfbY22+/fdmyZY8++ujgwYN/9atfRbmwScrHb+bZZ59NDp100klF+m610eJ/CfD0008nhz784Q9X2/8EER4JpeURx2PjYVpiLPPTcijKTXjTsmgPYsrNKLdiJrnmVCvS63havmjE8qXG9A4zz1SndObMmcm373vf++K/dWo6LfHTbrzxxtGjR6tSM3To0FdffVU9bcaMGRdddNGkSZMix9/UtA+UUmaREVl3jjrqqPg0RuZBzO/KTM/MSPpu4z8wvMcee8ydOzdK9d1axs60vtinSgesOx6FTksbh75bAAAAAAAAAAAAANXg7mQIj/aXfItA0iW2YcOG/v3733TTTcmhyZMnT5s2TX1hORTfd7/nnntGjhx58cUXJ09IvPzyy+9617vOO++87IEArnfcQ7g2YRx33HFvf/vbN23alH4w/rbP05g8nu7XUV984QtfSA6tW7duwIAB2j+pu2XLliOPPHLKlClf//rXd9111+SPfUa5IGmvv/762LFjzzzzzP+Tsueee37jG9+IdBMmYTnkh77bGpIq0R5xXFPPMiHzDW3pRyyJmXlmXv5F0323q1evVl8//vjj8SH1hfpW2zmXpPxLL72k3syCBQuSQ/vss4933+0rr7wyaNCgX/ziF/HjmzdvVtWp2v4niPBIKC2POK4bD8sSY5mflkNRbsKblkVLEEtuRrkVM8k1p1oR2HdreYcF+25NpyW2fv16dfScc85R0dS3t91223777Xf44YdfcMEFkeNv2uc+MFCZRSZ83XnooYcGDhyo9jORdRAzc8zyzIyk71bZe++9d9555/j/QpD03VrGzrS+2KdKB6w7HoVOSxuHvlsAAAAAAAAAAAAA1eDuZAjX9pdI1yKQ7hL7xCc+8b73vW/16tXq65/85Cf9+/d/4IEH4qeZDiX33dW3o0ePjps/nnnmmdtuu23Lli1RT+fHXnvtJduK4XrHPYRrE8bjjz++ww47HHvssY8++qj69o033rjjjjv233//uDGiz9MYS/frzJgxY9KkSc8///zLL7+8detW9chpp502fvz45P/ZrV7ozjvvVF9861vfGjdu3Jo1azZv3jx58uSjjz46fr42SOLGG28cMGDAqlWr0g9eeOGFu+++uxrB/IRJWA75oe+2hqRKtEcc19RTE/LAAw9ckZL0MOV7ZzOPmBIz/8yMfBakK+rGjRsHDx585ZVXRj0NT1OmTFGRtZ1z6ZSfOnXqQQcdtH79evX1ZZddptLTu+9WOeuss1QFvu+++5599llVB4YPH15t/xNEeCSUlkcc142HfYmxzE/LoXxWmpZFUxBLbka5FTOda8VrRWDfreUdFuy7jcynJXbAAQcMGTIk/gv96uXU1+oVFy1aFB8t/ptq94GCyiwyHuuOKtcrV65Uy82vf/3rb37zmyNHjlTjG/9rK8sgZuaY5ZkZ6b7b13vEXyd9t5F17Ezri2WqdMC641HotLRx6LsFAAAAAAAAAAAAUA3uToZwbX+JdA0f6S6xNWvWqKMDBgwYNWrUsGHD4r/XFTMdSt93X7p06dixY88777xly5btsssuQ4YM2X333bfbbrsTTzxx48aNSahwrnfcQ7g2YSgPP/ywOi3qXA0dOnTgwIHjxo1L2o6LnMaod/vCk08+eeihh6onJ8P0yiuvnHHGGYMGDdpxxx2HDx+u/nvVVVepcRw8eHDSJ7Fq1aoxY8Z897vfNQVJHH/88R/84AfTj0Tb/tbabbfdlp8wCcshP/Td1pBUifaI45p6akL2601lR3wo36WXecSUmPlnZuSzIF1Rlcsvv1xVQlUEtt9+e/Ubqbek7ZxLp/yf/vSnCRMmqHQePXq0elr8/wGPD3n0P7388suf+tSn1KurQqGeo6rxueeemzwzXJnVGAmPhNLyiOO68bAvMZb5aTmUz0rtsmgPYsrNKLdipnOteK0I7LuNzO+weN+t6bTEVJB49ONvJ0+erH6j1157Lf62+G+q3QcmR8OVWWS81x212VObrsMPP/zKK6+M/51VzDSI+V2Z6ZkZ6b7btHTfrWXsTOuLZap0wLrjUei0tHHouwUAAAAAAAAAAABQDe5OhnBtfylo1apVy5Yt03bKWg7lxU9et25d9kAw1zvuIVybMBLr169Xv/5zzz2XPeB4Gk02bNiggjzzzDObN2/OHmsm+m5rSKpEe8TxTj1vIomZ9+KLLy5fvvyll17KHjDbunXrY4899tRTT2UPhFG14h3veEf8JxWllFmNkfBIKC2POG3aeETW+Wk5lGZfFvNBPHIz1qZakef9DtPsp8WutN/Uoswi0451p/ggFn9mEaaxs6wvIVPFJJ934VynhEeh09LGoe8WAAAAAAAAAAAAQDW4Oxmife0vNed6xz1EO5owoEXfbQ1JlWiPOKSeiCVLlvzoRz9avnz5b3/721NPPXXMmDEvvvhi9kkByqzGSHgklJZHHNmNh2V+Wg4VJxIE1SqzyLDuiGh33rlOCY9Cp6WNQ98tAAAAAAAAAAAAgGpwdzKEbPtLg7jecQ9BE0Zp6LutIakS7RGH1BPxyCOPTJkyZfz48fvuu+/JJ5+8cuXK7DPClFmNkfBIKC2POLIbD8v8tBwqTiQIqlVmkWHdEdHuvHOdEh6FTksbh75bAAAAAAAAAAAAANXg7mQI2faXBnG94x6CJozS0HdbQ1Il2iMOqdcIZVZjJDwSSssjTtduPFCVMosM604juE4Jj0KnpY1D3y0AAAAAAAAAAACAanB3MkTXtr+43nEPQRNGaei7rSGpEu0Rh9RrhDKrMRIeCaXlEadrNx6oSplFhnWnEVynhEeh09LGoe8WAAAAAAAAAAAAQDW4Oxmia9tfXO+4h6AJozT03daQVIn2iEPqNUKZ1RgJj4TS8ojTtRsPVKXMIsO60wiuU8Kj0Glp49B3CwAAAAAAAAAAAKAa3J0M0bXtL6533EPQhFEa+m5rSKpEe8Qh9RqhzGqMhEdCaXnE6dqNB6pSZpFh3WkE1ynhUei0tHHouwUAAAAAAAAAAABQDe5Ohuja9hfXO+4haMIoDX23NSRVoj3ikHqNUGY1RsIjobQ84nTtxgNVKbPIsO40guuU8Ch0Wto49N0CAAAAAAAAAAAAqAZ3J0N0bfuL6x33EDRhlIa+2xqSKtEecUi9RiizGiPhkVBaHnG6duOBqpRZZFh3GsF1SngUOi1tHPpuAQAAAAAAAAAAAFSDu5Mhurb9xfWOewiaMEpD320NSZVojzikXiOUWY2R8EgoLY84XbvxQFXKLDKsO43gOiU8Cp2WNg59twAAAAAAAAAAAACqwd3JEF3b/uJ6xz0ETRiloe+2hqRKtEccUq8RyqzGSHgklJZHnK7deKAqZRYZ1p1GcJ0SHoVOSxuHvlsAAAAAAAAAAAAA1eDuZIhrrrlm9erV2dvRnW7r1q1lNmjOmjVLvWL2TUBaycOKgqRKtEccUq/+1AC59j9BhEdCaXnE6c6NB6qiJtucOXOys7BtWHfqz2O76FHotLRx6LsFAAAAAAAAAAAAUA3uToZ48803L7jggm7rgJk/f/6SJUuy56JtHnzwwXnz5mXfBKTdeuutixcvzp59VE2qRHvEIfXqr+RqjIRHQml5xOnOjQcqoaaZmmxqymVnYduw7tSfx7rjUei0tHHouwUAAAAAAAAAAABQDe5OBnrrrbeuueaa73eNSy655JZbbsmehTabP39+9n1AVCXDiiKkSrRfHFKvzkjbCvklVJ5fnG7beKAqapqpyZadf23GulNnfuuOX6HL08ah7xYAAAAAAAAAAABANbg7CQC1JVWipeIAaMkllFQcAKgtqUKnjUPfLQAAAAAAAAAAAIBqcHcSAGpLqkRLxQHQkksoqTgAUFtShU4bh75bAAAAAAAAAAAAANXg7iQA1JZUiZaKA6All1BScQCgtqQKnTYOfbcAAAAAAAAAAAAAqsHdSQCoLakSLRUHQEsuoaTiAEBtSRU6bRz6bgEAAAAAAAAAAABUg7uTAFBbUiVaKg6AllxCScUBgNqSKnTaOPTdAgAAAAAAAAAAAKgGdycBoLakSrRUHAAtuYSSigMAtSVV6LRx6LsFAAAAAAAAAAAAUA3uTgJAbUmVaKk4AFpyCSUVBwBqS6rQaePQdwsAAAAAAAAAAACgGtydBIDakirRUnEAtOQSSioOANSWVKHTxqHvFgAAAAAAAAAAAEA1uDsJALUlVaKl4gBoySWUVBwAqC2pQqeNQ98tAAAAAAAAAAAAgGpwdxIAakuqREvFAdCSSyipOABQW1KFThuHvlsAAAAAAAAAAAAA1eDuJADUllSJlooDoCWXUFJxAKC2pAqdNg59twAAAAAAAAAAAACqwd1JAKgtqRItFQdASy6hpOIAQG1JFTptHPpuAQAAAAAAAAAAAFRjyZIl/fr1u//++7MHAABVu/vuu1WJXr58efaAI0o9IIjEBICCpAqmtqWWvlsAAAAAAAAAAAAA1Vi3bl2/fv3mzJmTPQAAqNqpp546bNiwv/71r9kDjij1gCASEwAKkiqY2pZa+m4BAAAAAAAAAAAAVGbixInvfOc7Fy1a9DsAQD3cc889n/zkJ/v16zd79uxs1fZCqQfCkZgAUJBswfydrqWWvlsAAAAAAAAAAAAAlVm6dOmoUaP6AQDqZOjQobNnz/7b3/6WrdpeKPWACBITAAoSLJjallr6bgEAAAAAAAAAAABU6S9/+cvixYvjP00EAKjc8uXLw/+nzBmUeiAQiQkABckWzN/pWmrpuwUAAAAAAAAAAAAAAAAAAAB60bbU0ncLAAAAAAAAAAAAAAAAAAAA9KJtqaXvFgAAAAAAAAAAAAAAAAAAAOhF21JL3y0AAAAAAAAAAAAAAAAAAADQi7allr5bAAAAAAAAAAAAAAAAAAAAoBdtSy19twAAAAAAAAAAAAAAAAAAAEAv2pZa+m4BAAAAAAAAAAAAAAAAAACAXrQttfTdAgAAAAAAAAAAAAAAAAAAAL1oW2rpuwUAAAAAAAAAAAAAAAAAAAB60bbU0ncLAAAAAAAAAAAAAAAAAAAA9KJtqaXvFgAAAAAAAAAAAAAAAAAAAOhF21JL3y0AAAAAAAAAAAAAAAAAAADQi7allr5bAAAAAAAAAAAAAAAAAAAAoBdtSy19twAAAAAAAAAAAAAAAAAAAEAv2pZa+m4BAAAAAAAAAAAAAAAAAACAXrQttfTdAgAAAAAAAAAAAAAAAAAAAL1oW2rpuwUAAAAAAAAAAAAAAAAAAAB60bbU0ncLAAAAAAAAAAAAAAAAAAAA9KJtqaXvFgAAAAAAAAAAAAAAAAAAAOhF21JL3y0AAAAAAAAAAAAAAAAAAADQi7allr5bAAAAAAAAAAAAAAAAAAAAoBdtSy19twAAAAAAAAAAAAC61/r163/XfZYtW/bf//3f2XMBQFR3lpfGoR4CddDQgrl06dI333wz+8sA6Cy/07XU0ncLAAAAAAAAAAAAoEvNmjVr4MCB/brS+PHjV6xYkT0jAIR0c3lpHOohUK1GF8zRo0fPnDnzr3/9a/a3AtAptC219N0CAAAAAAAAAAAA6EYbN24cOHDgGWecEf/Fsq6yYMGCvffee6+99uKvPALt0M3lpXGoh0C1Gl0w77jjjk996lPq/R911FHZXwxAp/idrqWWvlsAAAAAAAAAAAAA3ej3v/99v3797r///uyB7rBw4UL16y9atCh7AECwLi8vjUM9BCrUAQXz5z//ufoV7r777uwBAB1B21JL3y0AAAAAAAAAAACAbtTl90bfeuutsWPHnn766dkDAIJ1eXlpHOohUKEOKJjUEKCzacsUfbcAAAAAAAAAAAAAulH+3ujq1atXrFjxhz/8IXnkP//zP1f0ePXVV9W3K1eujL/Ne+WVV+IfV9asWZNEUJ577rn48RdeeCF+JP9CGerl1BPS/9PzZ555Zt68eb/61a8WL178X//1X6nntv72t789/PDDc+fOvfnmmx944IE33nij4NEZM2aMGDFC/Y6ppwMQUKS8tIMl313NnDnz9NNPv/baa7MHfP3P//zPV7/61bPOOmvTpk2tbSck47XXXkue3+fv8tZbby1ZsuSmm25auHBhpuraXX755dOmTVMvl36QeghUxVQwlSiK4kfUjih+JN6POfnpT3+qqtk3vvGN7IECildCagjQwfJlqkXfLQAAAAAAAAAAAIDulL83etxxx6lHxowZkzyyYsWKfj2uvPJK9e2oUaPib/O+973vxT+u7LLLLm+++WYcIYqiESNGxI8nfwgt/0IZn/nMZ/bYY4/466VLl06YMCF5IWWnnXb67W9/Gx9du3Zt5qjyy1/+ssjRhx56SH07d+7c+FsAUoqUF3H2fHf13ve+V/34tGnTsgdyvvvd76onn3TSSdkDvV1//fUq4Ic+9KH426Rgpv3kJz+Jj/b5u9x3332qSKaPLly4MDlqd8stt6jnT548Of0g9RCoiqlgKjNmzIgf2bJlS/xIvB9zcvbZZ6sf/Lu/+7vsgQKKV0JqCNDB8mWqRd8tAAAAgP/L3n2Hy1He9wJXBwlEMUWUSxcKTZhmARZYgGimiW6CaTY1MS02AUKMsYxApgkkQkIAY1wBIZl+jYFwRTEYDMgUS5iOkTACIbS5dmxKOPfNGWvuMju7Z2fOnD17dj+fP/Tszsy+O/uW3+zzzFd7AAAAANpT5b3RymBcIne76667bttp9dVXj7ZvtdVW0ZYf/vCH5TGyOB8WXhhvrDN3+/HHH4ddJ598ckdn6HappZYKBw8cOHC//fY7/fTT999//+WWW+773/9+dPCee+4Z9q6wwgonnHDCP/zDP4Rjwt44u1Z77yeffLLWWmuFjdFToCj1lJfC1V7vWd15552hjj366KPJHRVOPPHEfl1l2kK1GTVqVDhs+vTp0ZaoQwYNGhSV0Mjtt98e7a39WZ555pmoMH7+85//l06HHXbYPffcE+0tt/POO//TP/1TYuNHH3206qqrhpfPmjUr3qgeQm+pVjCjEvHSSy919F7utv5KqIZAC6ssUx1ytwAAAAAAAEB7qrw3WhmMS+RuY9/4xjei7X/4wx/ijdHLl1lmmfDvmDFjOjpDGCNHjow31pm7feCBB8Le+++/PzzeYostwuMBAwbEP3AbLF68OIqhdCz5Cd5LLrkk3vvnP/85+jPuXe4NzjjjjCFDhixatCjeAnRfl+Xl+uuvP/jgg7fbbrvNNttsxx13POecc+JlOG3atC996Uvf+ta34tdGW/75n/+59gu7XO+hqvzt3/7tlltuufXWWx9++OHPP/98tD3UgdD+v/7rv86YMWPcuHF77713+cbyxzfffHM4YKuttvr2t7/94Ycfhl1nnXXWBhtsEN53+PDhX+pUHmaNhY3hmKFDh/7Xf/1XtKV2Gaz9WQ444ICw97Of/ezHH38cH5Aq1N6DDjooubXzL8KHFo444ojyjeoh9IpqBTNy2GGHdVTJ3d55552hGmy++ebhS9cpp5zy2muvRds/+uij73znO6HQhXp10003VeZu//f//t+hMoQaEmrp2Wef/d5778W7EsorYUdn6P+YY47Zdtttw9ez3XffPewtrxhqCLSqyjLVIXcLAAAAAAAAtKfKe6NRzmP48OG3LnHppZdW5jw6auZut9122y233DI8eOKJJ+68887wYJdddvmbv/mbfnXnbk899dQVV1zxo48+euWVV6J3Ofjgg5MHLbH22muHA8K/3/3udx988MG//OUv9e8Nnn766X5lf9sdKES18hKv+vHjxy+zzDIbb7zxZpttNmDAgLBr6623/uSTT8KuW265pV/nrzwuWLAgPP3www/Dq8KWiy66qPYLa6/38PKonvTv33/ZZZftV/az3NEfUl9vvfXCrvBggw02iDdGf109ehz9znc4saidr33ta2HXZz/72ehpLP417nLnnHNO2LXDDjvEWyrrbfCnP/0p2lvjs3z88cfR/2Q49thjTz/99P322y/UzLlz58YHlKuWuw2fPbSw6qqrlm9UD6FXVCuYocqNGDEi1KXZs2dX5m7PP//8aMvSSy8d1a4VVlgh+u8EoSZEu6J6FdWuOHc7efLkaG/YEr5uhQejRo0K7cfvXq68Ei5atCg6fs0119x8882XW2658Li8+Kgh0Koqy1SH3C0AAAAAAADQnirvjZb/vlpCptzt9ddfHx4ceeSRu+22W3hw2223ZcrdrrPOOtGvMN53333Ru1xwwQXJg5a45pprorhJZJlllvnKV77y7rvv1rM3stFGG+28887lW4BuqlZe4lX/xBNPfPDBB9Hjn//859EKffzxxzs6g7arrLJKeDp16tTwNBSQfp3psbfffrv2C2us97feemvw4MFh49ixY6M47/PPP//ss89G7UTBsuC88877zW9+E512Ze526aWXfuqpp8Lp/e3f/m2/zlOaN2/ewoULjzrqqPB05MiRf+gU/6JtuX322adfZ1I23pJab+Ofq6zxWUI/lL3if2LE4d8hQ4Y89NBD0Wvnz5//6yWGDh26yy67xE//8z//Mzom/i3zcHC0JaIeQuNVK5jhC9W0adPCgz333DORuw0rN8rUfulLX/roo49effXVlVdeOTzde++943J3yCGHhGoZalqoA/2W5G7jvZMmTerojNKOGDEiPC3/ifFy5ZXw4Ycf7tdZCaP/IfDJJ5888sgjicCuGgItqbJMdcjdAgAAAAAAAO2p8t5olPMYMmTIQUvssssu5TmPWO3c7Z///OeVVlpp8ODB/fv3X3fddf/7v/+7/txt9GNpM2bMCI8feOCB6F2qxUEijz766PHHH7/OOutEB/frTKjUuTeYOHHiwIEDE+EzoDuqlZd41T/++OMHH3zwqFGjVl999SguFtxyyy3R3qjCfO5znwuPw2Hh8YEHHljPC6ut9+g3dIP77rsvOrJcFCyL3i6xsTx3u/fee0e7Hnvssai1u+66Kzw98cQT+336b7hX2n777cMx4XPFWyrrbfDOO+/EB1T7LG+99Vb0dPnll3/55ZcXLFiw4YYbhqfhLaIX/vM//3P8koR4RF588cVoSxw+jqiH0HjVCmb4QvXBBx+st956/Tr/C1O0ZqPvY9OnT4+ePvzww9FLjj322H6dGf34PyTMmjUr2jVhwoR+S2pUXAxDPflSpyh3O27cuL++96eVV8LwlW+ppZYKT0Pt/cIXvnDyySdX5uvUEGhJlWWqQ+4WAAAAAAAAaE+V90Yr47DxbyJmyt2Gx2effXZ0wCWXXBKe1p+7/da3vrX00kv/8Y9/7Oj8Wcfopxzr/O20l156abvttuvX+TuUH330UZ17o/zZlClTyo4FuqV2eXnzzTeHDx8eno4ePfq000477rjjonJx4403RgfPnTs32vLEE0+EghAe/PznP6/nhbHEev/hD38YN5g4smNJsCz6me3ExvLc7aGHHhrteuaZZ6LWbr755o76cre77757OOakk06Kt9QogwmJz/Lhhx8OGTIkPA0tRAf8/d//fXgaeiZ6+qtf/erKJcKRW2yxRfx03rx50THR/3DoV/YLuxH1EBqvWsGMvlBF5Sv+We7o+1hc08Jajl5y6qmn9uusEjNmzIh2xeUu+onuqEbFL9xggw3+psz+++//1/f+tPJK2NH5hwh23XXX5ZZbLmokmDlzZvnxagi0pMoy1SF3CwAAAAAAALSnynujlTmw3Lnb3//+9wMHDhw2bNiiRYs6suRuN99883322Sd+uueee0ZvdMUVV8QbZ8+eHadJzj333Oeffz7eFeXwhg8f/sknn3S5N/a5TuVbgO6oXV7iX2p8/fXXw9O77roreloen91hhx3CllGjRoV/11577f/+7//u8oU11vuTTz4ZHXnOOefEB/zf//t/oweJYFnlxuhxOI0PPvggPP2Xf/mXqLUo8RbF3dZZZ53ylyd87WtfC8d88YtfjLfUKIMdNT9LeDpu3LjwdMstt4z2Rj8JvMEGG8THx5ZZZpmDDjooubWj49Zbbw0vCSX6ww8/TOxSD6HBqhXM6AtVqH6jR4+Oak6/Jd/H4q9nV155ZXgaKsM222zTrzOeG//HgCj8GtZ49Iu5Ue42Loa33XZb/HZ//vOf33jjjejxD37wg/Bt7ZRTTomellfCjz76KCrF4e1CEY7O6itf+cpfW1lCDYHWU1mmOuRuAQAAAAAAgPZUeW+0MgeWO3cb/OUvf4kyah1VcrfBwDLnnHPOa6+9FjZed9110WHBq6++Gv0F5H6dsbadd945io98//vfjw6I9m644Ya77777lltuGR0Z/yxl7b2xKVOmhO0vvvhiYjuQT+3y8uijj0aL8cADDzz//PPXWGON6Gl57vaGG26INgYTJ06MNtZ+Ye31Pn78+GhLOJOTTjpp6623/tGPfhTtqjN3279//y222OLwww+P/tL6mDFjoiPjGG7YO27cuDi+Vm7mzJn9Ov84exz6r1YGo721P8svfvGL6LfAjznmmNNOO23QoEH9lvy4eEK13O1ZZ50VXhIaT+5QD6HhqhXM+AvVHXfcERWBfmXfx3bcccfwdOmll/7KV74SZfGD66+/Puzafvvtw+MhQ4aEerXVVltF5SL+Te7wVSo8XXHFFc8888zJkyd/9atfDZU5LiDRfxJYc801o6fllXDu3Llhe6if3/3ud7/97W+vsMIKYdd5550XHRlTQ6D1VJapDrlbAAAAAAAAoD1V3hstNndbrlruttxZZ501ZcqUAQMGLFiwoPy18+bNCy8cOnRofOT2228/e/bsaO8//uM/brDBBvGu8PJ99tln4cKF9eyNzZ8/f+DAgXG2D+imyvIS/RbjWmutFT09/fTToyjY8ssvP3Xq1GiFludu//SnP4Vd0bL9/e9/H2+v8cLa633x4sXHHHPMkCFDor1LLbXUnXfeGe2qM3d7yCGH7L333tHLR40aNXfu3OjIP/7xjwcffHAUQQvi7eX+8pe/rLzyymHvgw8+GG2pVgajvbU/S/CjH/1olVVWifYut9xyF198ceJnvCPVcrcbbrhheOFPf/rT5A71EBqusmBWfqEaO3ZstN7j72OhIISiFFZrtD18eYv/MsDvfve7jTbaKNq+1157HXbYYf3KcreLFi064ogjBg8eHB0Q/Y+Ce++9N9qbmrsNxbOj808ZrL/++tGr+nXWpQMOOCAUwOjImBoCraeyTHXI3QIAAAAAAADtqQnvjX7hC1/YYYcdkls7ffDBB7/73e+ef/75UqmU3NeZqJs7d+6zzz6bY29k55133mijjZJbgVzKy0tYfdHPHwb77bdffMzChQufe+65P//5z/GWOtV+Ye31/l//9V+hjIQDwoPkvurKM7i///3v58yZE/2x9Uy+853vhEaOPPLI5I7qan+Wjz/+OOx95ZVXsp7Mww8/HM5k3XXXjX+SPEE9hEbqzvexUByeeeaZ8AUpFITy7Z988kmoD6k/vx3505/+FIrhCy+88J//+Z/JfWVWW221cG5nnnlmvOX999+f0ym1LkXUEGgxqWVK7hYAAAAAAABoR014b/TnP//5b3/72+TWhrj22mtDbzz99NPJHUB25eVl2223jUK3w4YNe/LJJ5OH9gWpP4ib1R//+McxY8Zsttlm7777bnJfY5166ql/8zd/M2PGjOSOJdRDaKQm/D4W3HvvvXvttVdUveNfw62TGgItJrVMyd0CAAAAAAAA7ci90XKLFi0aMmTIGWeckdwBZFdeXo455piddtrp9NNPf/HFF5PH9RHjxo0bMWLEqaeemtzRotRDaKTm/D42efLkcFZrrrnmRRddlNzXFTUEWkxqmZK7BQAAAAAAANqRe6MJ++2331prrfXJJ58kdwAZKS99nXoIDdOcBTMs/48//ji5tW5qCLSS1DIldwsAAAAAAAC0I/dGE2688cbQIQ8++GByB5CR8tLXqYfQMC1ZMNUQaCWpZUruFgAAAAAAAGhH7o0m/OlPf1p22WVPOumk5A4gI+Wlr1MPoWFasmCqIdBKUsuU3C0AAAAAAADQju68885+/fpdfvnl/4cldt111+WXX/6uu+5K7oA2MG/evGSZyEt5aQHqIdSgYHZJDaHxClyYlPs/aZFauVsAAAAAAACgHV1++eX9AMpsscUWjzzySLJYZKe8AC1PwYQmVNTCpFxqpFbuFgAAAAAAAGhHd911V79+/a644opZLHH//feHDvHbbLSnq666ar311lt++eUXL16crBcZKS8tQD2EGhTMLqkhNF6BC5Ny/yctUit3CwAAAAAAALQj90aBhLvvvjuUhe7/UJzyArQ8BROaUFELk3KpZUruFgAAAAAAAGhH7o0CCUWVhaLaAWhaRRW6otoBOiyonpHaq3K3AAAAAAAAQDtybxRIKKosFNUOQNMqqtAV1Q7QYUH1jNRelbsFAAAAAAAA2pF7o0BCUWWhqHYAmlZRha6odoAOC6pnpPaq3C0AAAAAAADQjtwbBRKKKgtFtQPQtIoqdEW1A3RYUD0jtVflbgEAAAAAAIB25N4okFBUWSiqHYCmVVShK6odoMOC6hmpvSp3CwAAAAAAALQj90aBhKLKQlHtADStogpdUe0AHRZUz0jtVblbAAAAAAAAoB25NwokFFUWimoHoGkVVeiKagfosKB6Rmqvyt0CAAAAAAAA7ci9USChqLJQVDsATauoQldUO0CHBdUzUntV7hYAAAAAAABoR+6NAglFlYWi2gFoWkUVuqLaATosqJ6R2qtytwAAAAAAAEA7cm8USCiqLBTVDkDTKqrQFdUO0GFB9YzUXpW7BQAAAAAAANpRjnuj4eBJkyZdQJ9y4YUXXnLJJaVSKTmcPcY8aQZhCDKt7kiOspAqXztmTl/X+Grz/vvvX3zxxeF9k6cCWYQpFCbS4sWLkzOspnyFrlKOdsz8npPv6pmboawtDMesWbOSvVZTjgVFl1J7Ve4WAAAAAAAAaEdZ743OnDlz+vTpJfqgN998c8qUKckR7RnmSfMIA3HTTTclR6imrGWhmhztmDmtIVSbyy67LDm6PeaSSy4J75g8CcguTKRLL700OcNqylHoUuVox8zvUTmunrkZyi5lHY4cC4oupfaq3C0AAAAAAADQjrLeG/3ud7+bvBNO3xGGLzmiPcM8aSoXXHBBcoRqyloWqsnRjpnTMiZPnpwc3R4TZnjy7SGvCy+8MDnDaspR6FLlaMfM72lZr565Gcp6ZFqbORYUXUrtVblbAAAAAAAAoB1lvTcqFdenyd22p4suuig5QjVlLQvV5GjHzGkZcrf0UZmyfR25Cl2qHO2Y+T0t69UzN0NZj4svvjjZcdXlWFB0KbVX5W4BAAAAAACAdpT13qhUXJ8md9uesiaHspaFanK0Y+a0DLlb+ii5W2JZr565Gcp6yN32utRelbsFAAAAAAAA2lHWe6NScb1u0qRJF2RR/lq5276rO+OeNTmUtSxUk6MdM6epdGfWyd3Si7ozdeVuW0x3JkPWq2duifdtYd0ZDrnbXpfaq3K3AAAAAAAAQDvKem9UKq7XJVIItSUOlrvtu7oz7lmTQ1nLQjU52jFzmkp3Zp3cLb0o05RIHCx322Iy9VI3r565ZTrJPi3TJ5W7bTapvSp3CwAAAAAAALSjrPdGpeJ6UeJHwpK70yQOk7vti7o/7lmTQ1nLQjU52jFzmkT3Z53cLb2i+1NX7rZldH8yZL165lbn6fVp3R8Oudtel9qrcrcAAAAAAABAO8p6b1QqrheV5w/yRRbkbvui7o971uRQ1rJQTY52zJwm0f1ZJ3dLr+j+1JW7bRndnwxZr5651Xl6fVr3h0Puttel9qrcLQAAAAAAANCOst4blYrrRRd0mjBhQvQguTtN4jC5276o++OeNTmUtSxUk6MdM6dJdH/Wyd3SK7o/deVuW0b3J0PWq2dudZ5en9b94ZC77XWpvSp3CwAAAAAAALSjrPdGpeJ6XZ1hhUjiYLnbvqs74541OZS1LFSTox0zp6l0Z9bJ3dKLMk2JxMFyty0mUy918+qZW6aT7NMyfVK522aT2qtytwAAAAAAAEA7ynpvVCquF02aNOmCMsndaRKHyd32Rd0f96zJoaxloZoc7Zg5TaL7s07ull7R/akrd9syuj8Zsl49c6vz9Pq07g+H3G2vS+1VuVsAAAAAAACgHWW9NyoV14vK8wf5Igtyt31R98c9a3Ioa1moJkc7Zk6T6P6sk7ulV3R/6srdtozuT4asV8/c6jy9Pq37wyF32+tSe1XuFgAAAAAAAGhHWe+NSsX1ogs6TZgwIXqQ3J0mcZjcbV/U/XHPmhzKWhaqydGOmdMkuj/r5G7pFd2funK3LaP7kyHr1TO3Ok+vT+v+cMjd9rrUXpW7BQAAAAAAANpR1nujUnG9rs6wQiRxsNxt39Wdcc+aHMpaFqrJ0Y6Z01S6M+vkbulFmaZE4mC52xaTqZe6efXMLdNJ9mmZPqncbbNJ7VW5WwAAAAAAAKAdZb03KhXX6y7IqPy1crd9V3Jcu1L+2qzJoaxloZoc7Zg5TSU5q7pS/lq5W3pRcmp2pfy1crctJjnYXSl/bdarZ26J921hye7uSvlr5W57XWqvyt0CAAAAAAAA7SjrvVGpuD5N7rY9ZU0OZS0L1eRox8xpGXK39FFyt8SyXj1zM5T1kLvtdam9KncLAAAAAAAAtKOs90al4vo0udv2lDU5lLUsVJOjHTOnZcjd0kfJ3RLLevXMzVDWQ+6216X2qtwtAAAAAAAA0I6y3huViuvT5G7bU9bkUNayUE2OdsycliF3Sx8ld0ss69UzN0NZD7nbXpfaq3K3AAAAAAAAQDvKem9UKq5Pk7ttT1mTQ1nLQjU52jFzWobcLX2U3C2xrFfP3AxlPeRue11qr8rdAgAAAAAAAO0o671Rqbg+Te62PWVNDmUtC9XkaMfMaRlyt/RRcrfEsl49czOU9ZC77XWpvSp3CwAAAAAAALSjrPdGpeL6NLnb9pQ1OZS1LFSTox0zp2XI3dJHyd0Sy3r1zM1Q1kPuttel9qrcLQAAAAAAANCOst4bzZeKW7BgwZ133nnNNddMnz79t7/9bXJ3b5s8efLVV1+d3Frdc8899+STT5Zveeutt2bNmvWHP/xhVhXRpw4vDI9ffPHF8te+9tprYePTTz8dPa1svEDNnLuNOqdc6NVS9tEp9+1vf/v73/9+cmuPWbhw4S9+8Ytrr732xhtvfPzxx5O7P63a55oyZcqVV16Z3No9WZNDWctCNTnayTFzIosXLw5z5vnnn0/uaJRqE7hHVZtFzaCZc7fxYP3yl7984403krsL1fgx6t21EC5wv/nNb+KnhZ9MA/qzhXO3lWXqV7/6VfKgntej33OKlfXqmVvWoSw1/VfrniB32+tSe1XuFgAAAAAAAGhHWe+N5kjF3Xfffauvvvoqq6yy3Xbbrb/++gMGDJg4cWLyoAY67rjjEidw0EEHnXzyyeVbajv88MN32GGH8i333HNP6MaHHnpo2BJDhgwJW+Knf/d3fxe9MGzcc889y1971FFHhY3jx4+PnlY2XqBmzt2GDx7mRtxjQZg5Yfvee+99/PHHJ4+uz7hx404//fTk1p5x0003rbHGGuG0t9pqqy233HLo0KGbbrpp9BFSVZt1hx56aJgSya3dkzU5lLUsVJOjnRwzJ3LbbbeF9xo1alRyR6NUm8DFSpSvarOoGTRz7jYM1qBBgz7zmc8MHz48TJuddtop8d8hCtT4MerdtXDggQf+0z/9U/y08JMp78/Kq3khWjh3W1mmwgUreVARag9Nj37PKVbWq2duWYeyxlfr2p3fp8nd9rrUXpW7BQAAAAAAANpR1nujOVJxI0eO3H///RcuXBg9nTNnziOPPPLpQxpqjz32iFKwuVVGRqLc7a9//et4yyWXXLLUUkuVHfI/wgs32mijIUOGvPzyy9GWt99+e9lll91kk03kbqt98D6Ru7377rsHDhx4yimnhAGNtixYsODiiy/O8cu1crfJs6/PQQcdFOZPGIV77703ua8hqk3gYnW/fDVMk+du48F6/PHHV1tttXCR+vQhfVgvroVwoR8+fHj5Jb5HT6aHlkNr524bUKZKXQ1Nw06j+7JePXPLOpQ1vlrX7vw+Te6216X2qtwtAAAAAAAA0I6y3hvNmopbsGBBaP/aa69N7ug0ffr0PfbYY/To0fvvv/9DDz0Ubz/33HO/973vXXbZZZ/73Oe23377m2++efHixZMnT95666132mmnu+66Kz7ynnvuOfzww8P2bbfd9pRTTvn9739f3sLUqVPHjBkzduzYq666Kto+ZcqU1VdffeTIkQd2euGFF8LGSZMmxQfMmDHji1/84qabbvqFL3whHBxtTKiMjNSfux0/fvy4cePigMXVV1+9+eabH3rooXK31T54ee42dcK8+uqroQPvvvvu6On8+fNDU7fccktpSe42nMw222wTZkg8ypHwNLzjZpttdthhh82ePTvaWKO1GsIMTD35WJiQ1113XZjS4TSOPPLIUtmsC3M7PN5qq63CVA/zQe42efZ1CAt/6aWXnjlzZlhHRx99dLy9stsrt5TSZsIDDzwQj8Ibb7wRasW///u/R09/8pOfnHXWWdHjctUmcJiBoYLFT8NYhLoUPa5WpiKVtaiyfJXXrlLaBynVfJfHHnvskEMOCSUoVNojjjii2N987Su52+DUU08dMWJEqe7pEanzOlU+RjU6PLW41Ti+mmproZTWWqhsJ5xwQvkx06ZN++Y3vxk9rjFzKidn5Gc/+9laa60VP009mToXV7WLe9yflcshOqD72jB3G2bviSeeWL7lyiuvPOecc6LHqZOzVH2GdDk01U6j2lqrtitasNUu8YXIevXMLdNQ1vhqXdn5qWWt2phWW3d1lrtSWp2Jd3Wf3G2vS+1VuVsAAAAAAACgHWW9N5ojFbfOOutsvfXW//Ef/7Fo0aLy7VddddUyyywzceLEO+644+yzzx46dOijjz4a7Ro3btwaa6xx+OGH33TTTV/72tcGDRp05JFHHn300eHpscceO2zYsFdeeSU68sILL5w0adJtt93205/+dLvttvv85z8ft7DmmmsedNBBN95443nnnTdgwIDwLmH7rFmztthiiz322OOHnebPn18qS3ZOmzZt8ODB3/jGN26//fbvfe971X4qNZzY2LFj3ytz991315+7veaaazbddNNoyw477HDRRRfJ3ZY6P3gYvgVLvPvuu9H2eHRqTJhvfvObI0aMeOmll0qdP68Yhjh6eZgGYfuECRNmzpwZXhgG97rrroteEro9tDB58uSwa6+99lpppZVef/312q1V8+qrr4bRj8OUqaIpHT7LDTfcEKV4488VTmzZZZedMmXK9OnTw9CHt5a7zeqyyy5bbbXVQoUJyzZ0Zvyrw5XdXrkldSbMnTs3nPlTTz0VDvjxj38cZs6YMWOiNsMxoSj99Y3LVJvAm2222fnnnx8fduCBB8bjW61MlarUosryVZ5KT/0gNd7lnXfeWWWVVUJFveuuu0JXnHnmmU8//XTUVCH6UO72iCOOWH/99Ut1T4/oVXVep+IxqtHhqcWtxvE1VFsLqa3NmTNn4MCBDzzwQHTMwoULwzGXX3559LTazEmdnJHQ/kknnRQ/TT2ZOhdXtYt73J+VyyE6oPtaO3eb+Pby/vvvh+1hOMJbx5fUsDHM7TDtS1UmZ3RYtRnS5dCkfs+psdaq7apxiS9K1qtnblmHstpX68rOryxrNca02rqrs9yl1pklp1YAudtel9qrcrcAAAAAAABAO8p6bzRHKu7+++9fb731wrsMGzZs/PjxUSrivffeW3nllS+++OL4sC9/+csHH3xw9HjcuHFbb7119Hjx4sVrrLHG2LFjo6eLFi1accUVr7/++uhpuSj+GIVfQwtbbLFFeG20K7xvnE6r/Au8UY5n4cKFoeX4B95qOPzww/ulqTN3+/bbbw8fPvzhhx9+9tlnwzHRD6zK3SZ6NQxftD0andoT5v3339+p0+WXXx769je/+U20PUyDddddN8oVBaeddtqoUaNKndNvhRVWiNOQ4elaa6115plnRk+rtVbNI488Ek74tttui7fcdNNNUeTlF7/4RbQlnMlGG20UT8hS2awLZ3LppZdGG+fNm7fccsvJ3Wa15ZZbnnrqqaXOXwEMHXj11VdH2yu7PbGlxkzYcMMNox/yPO6444455pghQ4bMnz8/1J/Q/vTp05e09/9Vm8C1c7epZapGLUqUrziDWOODVHuX2bNnh/OcO3fuX9sqWpPnbkePHn3PPffcfffd3/rWtwYNGhT9zGr90yM6uJ7rVDxG1Tq8WnGrdnxt1dZCtdb22muveEL+4Ac/WGaZZeKUZOrMqTE5o06488474y3VTibr4iq/uJdnzSuv5oVo7dxtWZX6H/Hojxkz5uSTT44e33rrrYMHD37llVeqTc7oceoMiR7XHprK7zk11lqNXdUu8QXKevXMLetQpn61jiQ6v7Ks1RjTcokv1fWUu2p1pihyt70utVflbgEAAAAAAIB2lPXeaL5U3OLFi8NbTJ48edy4ceHtTj311Mceeyw8+OpXv3r22WefddZZZ5555i677BL/Cmw4rDw0MGbMmPJf1AuHXXjhhdHjV1555etf//qOO+4YNm688cb9+/efMWNGqaKFY489dt99940eV8ZBohzPo48+2q/s995qOLzzj/DOLvP9738/TidEauRuw4OjjjrqpJNOCh88Oiu521LnB99mm22eW+J3v/tdtD0andoTJnjppZdGjBgRJkAYi3hjmAblf2n9tttuCwe8/fbbUTQktBnvOvLII/fcc8/4aWpr1UQzJ5p4kSiNtMIKK4TJFm8JkzA+oLTkcz399NPhtU8++WS8PXwuudtMorkRr9ww4vEKquz2xJYaM+G4446LlueGG254xx13fPazn73pppvuv//+QYMGVf58Y6n6BK6du00tUzVqUbXcbY0PUu1d3nvvvU022WTttdc+7bTTbr/99oULF8bHFKLJc7dDhgxZY401wsfffvvtwwIJvVHKMj1KFR1b7TpVno1O7fBqxa3a8TXUWAvVWps5c+awYcOiKb3TTjsdc8wx0fZSxQeMZk6NyTlr1qzll18+6slSzZOpZ3FVu7jL3ZbLMfMT317ivx5wxRVXrLrqqtHwHXLIIaGfS9UnZ/SS1BkSPa49NJXfc2qstRq7ql3i4y3dl/XqmVvWoSylfbWOtlfmbsvLWu0xrbbu6ix31epMUeRue11qr8rdAgAAAAAAAO0o673RHKm4hJNOOmnw4MH33XdfeN/TTjvt22WiH8Ardd7gL7+jv91225199tnx0/Ic21ZbbbX77rvfeuutjz766BNPPBFa/slPflKqaOH444+PQiSlikRCaUmOJ+qK2bNnl+9KVRkZueeee/plyd2G41daaaW11lrrxhtvLMnddqr2waPReeCBB2pMmNKSpOyAAQPuuuuueGOYBuV/9Pzee+8Njbz22mu//OUvw4Nnnnkm3nXCCSfsuOOO8dPU1qqZP3/+wIEDK0Mz++23X3nutnxClpZ8ruhM5syZE2/fd9995W4z+fu///vQ/9stscEGG/Tv3z/6leLKbk9sqTETfvzjH6+wwgphaJZeeukFCxaEuRfm0rnnnrvtttvGB5erNoETudsDDjigPHebWqZq1KJqudsaH6TauwRvvfXWFVdcsc8++wwfPnzdddctf3n3NXnuNnWw6p8epYqDq12nynOiqR1eo7ilHl9DjbVQqtLa4sWLw+PLL788PA0HP/jgg3FrqTOnxuQ844wzwrUsflrjZOpZXNUu7nK35Yqa+cGbb74ZhmP69Onz5s0bOnRo1Ns1JmepygyJHtcemsrTqLHWauyqdomPt3Rf1qtnblmHMiH6ah3Fpitzt+XDVHtMq627OstdqUqdKYrcba9L7VW5WwAAAAAAAKAdZb03miMVlzBt2rT+/fvPmTNnwIABP/rRj5K7O9V5g//FF18MJ//UU09F28OD8DQ1IlAeBwkPTjzxxHhXtCUc8MYbb4RTuuGGG8p3paqMjGTN3QYbbLDBKqusEoUk5G5L1T94NDqvv/56jQnz/vvv77TTTrvssssZZ5yx2mqrxT/gN65TfNjUqVOXW265UmdSNkzCn/70p/GusWPHxj+bV621GnbbbbeNN9448dNu9eRu582bF85k5syZ8faRI0fK3dYv9PnKK6985JFH/muZtdde+x//8R9Lad2e2FJjJkQF4YQTToim0M9+9rMwxDvuuGP0980rVZvAYWOYSPHTLbfcssvcbY1alChfcQaxxgep9i7l3nrrrVGjRp122mmJ7d3RArnbGr1aqji42nWqPCcaK+/w2sUtUs8A1V4L5RKtTZw4cfTo0eGzhMlZfljqzKkxOTfZZJMf/vCH0ePaJ9Pl4qpxcS/vz8qreSHaM3cbHHTQQRMmTAhf0sLYRZez2pMzdYZEj2sPTeVp1FhrNXZVu8QXKOvVM7esQ5kQfbUOS7tU0fmJYaoxpjXWXZ3lrlw9VSsrudtel9qrcrcAAAAAAABAO8p6bzRrKu7dd9899NBD77vvvgULFoSnjz/++MYbb/y5z30uPD7ssMPWXXfd+I9QP/HEE7fffnv0uM4b/G+//fbgwYMvv/zy8HjevHm77LJL//79UyMC5XGQk046adttt33ppZfeeuutxYsXl8pyPIcccsh66633q1/9qtT513LvueeeuIVylZGRHLnbhZ2ix4nc7VZbbfXrMnPnzo12dV/fzd2Wak6Yb37zmyNGjHj55ZcXLVo0duzYXXfdNRrZMA0GDhwYTYk5c+aEwT355JOjlxx88MFhIr344ovh8bXXXhtmzgMPPFC7tTvuuCM0GGZadFi5cDLLLrvsbrvtFp1eOP6pp57aYostuszdhgf777//1ltv/cYbb5Q6Iz4DBgyQu63fj3/849BjiTVy1llnrbnmmu+//35lt1duqTETwggOGTLkvPPOK3VWm/A4FJy77767/OWxahP4lFNOGTly5GuvvRZmxbRp08KE7DJ3W6peixLlqzyDWO2DVHuX559//mc/+1nopVJnEiu83cSJE+PDuq8Fcrel6r1aeXC161Q8RjU6PLW4VTu+WiGqvRaqtRa8+uqr4Wo1dOjQMD/LX1tt5qROzmeeeSY0EsX+Sl2dTKmrxVXj4l4+5yuv5oVo7dxt4gtGHLIMZs6cGQZx9OjR5b+Wmjo5o8fVZkipq6GpPI0wVWqstWq7alzii5L16plbpqGs8dW6VNH5lWWt2pjWWHd1lrsadaYQcre9LrVX5W4BAAAAAACAdpT13mjWVNx77723++67Dx06dMCAAeHf8F4777zzc889F3b94Q9/OOKIIwYNGrTiiisOGzYs/HvFFVdEr6rzBn+pM946ZMiQESNGLLPMMhdccEFoJzUiUB4HeeaZZ0KD0cn8ujMpG+d45s+ff8ABB/Tv33+llVYKze65555xC+UqM1s5crflErnbfp+W+pJ8+nTuttqECZ0/ePDgOAk0d+7cMHzf+c53Sp3T4KijjvrsZz8btoQZuOOOO8ZhtZdffjm8Xdi4/PLLh8kwefLkaHuN1qZOnRqOfPvtt6NdCb/61a/C3A4NhnEPLYT5s88++8S5lsrgS/y5XnjhhdGjR4eXrLDCCuGwfffdV+62fmGRfuELX0hsjH6l72c/+1llt1duqTYTgnBkdP7R07Fjx4YD3n333fiActUm8EsvvRRKVpi3oUbtt99+5eNbo0xVq0WJ8lWeQaz2Qaq9S5icq666amh8zTXXDJM2TNdqczuf1sjdVuvVUsXB1a5T8RjV6PDU4lbt+GqFqPZaqNZa5JBDDhk+fHg4jbKXJj9gPHNSJ2cYgt122y0+uPbJlOpYXNUu7uVzvvJqXojWzt3+9YvFEqFj472LFi1affXVw8ZHHnkk3pg6OaNd1WZIqauhqTyN8D2nxlqrtqvGJb4oWa+euWUayhpfrUsVnV9Z1mqMabV1V2e5q11nuk/uttel9qrcLQAAAAAAANCOst4bzZqKi7z77rvPPPPM448/XhmJmD9//qOPPvr8888vWrQosatOb7755mOPPVbZcm6vvfZaOKXol9VaTDPnbuuUb8I8/fTTYQYmt3bGakNrdeZCDjvssER4pVI0G3/961+/8847yX3VLV68+Mknn3z22WeTOwqSNTmUtSxUk6Odnps5tWWaCVmF8Q3Tb86cOckdXclRi7J+kOj4119/Pbmj25o5d5tV1l6toUaHpxa3yuPrKUTVVLYW2XHHHY877rjExtoSk3Ps2LFTp0791BHdVvjFvU4tnLvNLXVy9oQaa61yVxwGrXaJ776sV8/ccgxlja/W9ag2pt1fd9XqTPfJ3fa61F6VuwUAAAAAAADaUdZ7o72ViqMQLZC77UVf//rXX3311eTWviBrcihrWagmRzstOXPaUyvlbptKsYXoueeemzp16qBBg55++unkvixmzpz55ptvJrf2TXK3fUXlL7kWLuvVM7c2H8o6yd32utRelbsFAAAAAAAA2lHWe6NScX2a3G17ypocyloWqsnRjpnTMuRu+4TNN9985MiRV111VXJHG5O77Sv233//c889N7m1UFmvnrm1+VDWSe6216X2qtwtAAAAAAAA0I6y3huViuvT5G7bU9bkUNayUE2OdsycliF3Sx8ld0ss69UzN0NZD7nbXpfaq3K3AAAAAAAAQDvKem9UKq5Pk7ttT1mTQ1nLQjU52jFzWobcLX2U3C2xrFfP3AxlPeRue11qr8rdAgAAAAAAAO0o671Rqbg+Te62PWVNDmUtC9XkaMfMaRlyt/RRcrfEsl49czOU9ZC77XWpvSp3CwAAAAAAALSjrPdGpeL6NLnb9pQ1OZS1LFSTox0zp2XI3dJHyd0Sy3r1zM1Q1kPuttel9qrcLQAAAAAAANCOst4blYrr0+Ru21PW5FDWslBNjnbMnJYhd0sfJXdLLOvVMzdDWQ+5216X2qtytwAAAAAAAEA7ynpvVCquT5O7bU9Zk0NZy0I1Odoxc1qG3C19lNwtsaxXz9wMZT3kbntdaq/K3QIAAAAAAADtKOu9Uam4Pk3utj1lTQ5lLQvV5GjHzGkZcrf0UXK3xLJePXMzlPWQu+11qb0qdwsAAAAAAAC0o6z3RqXi+jS52/aUNTmUtSxUk6MdM6dlyN3SR8ndEst69czNUNYj03DkWFB0KbVX5W4BAAAAAACAdpT13ui//du/vfjii8k74fQFixcvblgSzjxpHmEgrr766uQI1ZS1LFSTox0zpzU0stoEkyZNCu+YPAnILkykPpS7NfN7VI6rZ26GskthOP793/892XHV5VhQdCm1V+VuAQAAAAAAgHaU9d7oBx98cOaZZwrG9UUzZsx4+OGHkyPaM8yTJhGG4KyzzgrDkRyhmrKWhWpytGPmtIZbbrnloYceSo5uj5k1a9b06dOTJwHZhYmUdermKHSpcrRj5veccBkKF6OsV8/cDGVtOb7M5FhQdCm1V+VuAQAAAAAAgHaU497ohx9++G//9m8X06dccMEFN998c3Ise5J50gyuvvrqMBDJselKjrKQKl87Zk5f1/hqE8yYMSN5HpBRmLo33XRTcm51JV+hq5SvHTO/h+S7enaHoawhx3DkW1DUltqrcrcAAAAAAABAO3JvFEgoqiwU1Q5A0yqq0BXVDtBhQfWM1F6VuwUAAAAAAADakXujQEJRZaGodgCaVlGFrqh2gA4Lqmek9qrcLQAAAAAAANCO3BsFEooqC0W1A9C0iip0RbUDdFhQPSO1V+VuAQAAAAAAgHbk3iiQUFRZKKodgKZVVKErqh2gw4LqGam9KncLAAAAAAAAtCP3RoGEospCUe0ANK2iCl1R7QAdFlTPSO1VuVsAAAAAAACgHbk3CiQUVRaKagegaRVV6IpqB+iwoHpGaq/K3QIAAAAAAADtyL1RIKGoslBUOwBNq6hCV1Q7QIcF1TNSe1XuFgAAAAAAAGhH7o0CCUWVhaLaAWhaRRW6otoBOiyonpHaq3K3AAAAAAAAQDtybxRIKKosFNUOQNMqqtAV1Q7QYUH1jNRelbsFAAAAAAAA2pF7o0BCUWWhqHYAmlZRha6odoAOC6pnpPaq3C0AAAAAAADQjtwbBRKKKgtFtQPQtIoqdEW1A3RYUD0jtVflbgEAAAAAAIB25N4okFBUWSiqHYCmVVShK6odoMOC6hmpvSp3CwAAAAAAALQj90aBhKLKQlHtADStogpdUe0AHRZUz0jtVblbAAAAAAAAoB25NwokFFUWimoHoGkVVeiKagfosKB6Rmqvyt0CAAAAAAAA7ci9USChqLJQVDsATauoQldUO0CHBdUzUntV7hYAAAAAAABoR+6NAglFlYWi2gFoWkUVuqLaATosqJ6R2qtytwAAAAAAAEA7cm8USCiqLBTVDkDTKqrQFdUO0GFB9YzUXpW7BQAAAAAAANqRe6NAQlFloah2AJpWUYWuqHaADguqZ6T2qtwtAAAAAAAA0I7cGwUSiioLRbUD0LSKKnRFtQN0WFA9I7VX5W4BAAAAAACAduTeKJBQVFkoqh2AplVUoSuqHaDDguoZqb0qdwsAAAAAAAC0I/dGgYSiykJR7QA0raIKXVHtAB0WVM9I7VW5WwAAAAAAAKAduTcKJBRVFopqB6BpFVXoimoH6LCgekZqr8rdAgAAAAAAAO3IvVEgoaiyUFQ7AE2rqEJXVDtAhwXVM1J7Ve4WAAAAAAAAaEfujQIJRZWFotoBaFpFFbqi2gE6LKiekdqrcrcAAAAAAABAO3JvFEgoqiwU1Q5A0yqq0BXVDtBhQfWM1F6VuwUAAAAAAADakXujQEJRZaGodgCaVlGFrqh2gA4Lqmek9qrcLQAAAAAAANCO3BsFEooqC0W1A9C0iip0RbUDdFhQPSO1V+VuAQAAAAAAgHbk3iiQUFRZKKodgKZVVKErqh2gw4LqGam9KncLAAAAAAAAtCP3RoGEospCUe0ANK2iCl1R7QAdFlTPSO1VuVsAAAAAAACgHbk3CiQUVRaKagegaRVV6IpqB+iwoHpGaq/K3QIAAAAAAADtyL1RIKGoslBUOwBNq6hCV1Q7QIcF1TNSe1XuFgAAAAAAAGhH7o0CCUWVhaLaAWhaRRW6otoBOiyonpHaq3K3AAAAAAAAQDtybxRIKKosFNUOQNMqqtAV1Q7QYUH1jNRelbsFAAAAAAAA2pF7o0BCUWWhqHYAmlZRha6odoAOC6pnpPaq3C0AAAAAAADQjtwbBRKKKgtFtQPQtIoqdEW1A3RYUD0jtVflbgEAAAAAAIB25N4okFBUWSiqHYCmVVShK6odoMOC6hmpvSp3CwAAAAAAALQj90aBhKLKQlHtADStogpdUe0AHRZUz0jtVblbAAAAAAAAoB25NwokFFUWimoHoGkVVeiKagfosKB6Rmqvyt0CAAAAAAAA7ci9USChqLJQVDsATauoQldUO0CHBdUzUntV7hYAAAAAAABoR+6NAglFlYWi2gFoWkUVuqLaATosqJ6R2qtytwAAAAAAAEA7cm8USCiqLBTVDkDTKqrQFdUO0GFB9YzUXpW7BQAAAAAAANqRe6NAQlFloah2AJpWUYWuqHaADguqZ6T2qtwtAAAAAAAA0I7cGwUSiioLRbUD0LSKKnRFtQN0WFA9I7VX5W4BAAAAAACAduTeKJBQVFkoqh2AplVUoSuqHaDDguoZqb0qdwsAAAAAAAC0I/dGgYSiykJR7QA0raIKXVHtAB0WVM9I7VW5WwAAAAAAAKAduTcKJBRVFopqB6BpFVXoimoH6LCgekZqr8rdAgAAAAAAAO3IvVEgoaiyUFQ7AE2rqEJXVDtAhwXVM1J7Ve4WAAAAAAAAaEfujQIJRZWFotoBaFpFFbqi2gE6LKiekdqrcrcAAAAAAABAO3JvFEgoqiwU1Q5A0yqq0BXVDtBhQfWM1F6VuwUAAAAAAADakXujQEJRZaGodgCaVlGFrqh2gA4Lqmek9qrcLQAAAAAAANCO3BsFEooqC0W1A9C0iip0RbUDdFhQPSO1V+VuAQAAAAAAgHbk3iiQUFRZKKodgKZVVKErqh2gw4LqGam9KncLAAAAAAAAtCP3RoGEospCUe0ANK2iCl1R7QAdFlTPSO1VuVsAAAAAAACgHbk3CiQUVRaKagegaRVV6IpqB+iwoHpGaq/K3QIAAAAAAADtyL1RIKGoslBUOwBNq6hCV1Q7QIcF1TNSe1XuFgAAAAAAAGhH7o0CCUWVhaLaAWhaRRW6otoBOiyonpHaq3K3AAAAAAAAQDtybxRIKKosFNUOQNMqqtAV1Q7QYUH1jNRelbsFAAAAAAAA2pF7o0BCUWWhqHYAmlZRha6odoAOC6pnpPaq3C0AAAAAAADQjtwbBRKKKgtFtQPQtIoqdEW1A3RYUD0jtVflbgEAAAAAAIB2lO/eaDh+0qRJF9CWwtDPmjUrOSdoIfnKQqWi2om8//77F1988YUXXpickfSSBpcCE6BLDz74YLLX6HlFFbp87fg+1tNCzbnkkktKpVKy63tMK41p+CBZp3RR8i0oakvtVblbAAAAAAAAoB3luDc6c+bM6dOnl2hjYQLcdNNNyZlBq8hRFlIV1U7kkksuefPNN5NzkV7VyFJgAnQpDMfNN9+c7Dh6WFGFLkc7vo81Rqg8l112WbL3e0brjWn4ODfeeGPyc/a8HAuKLqX2qtwtAAAAAAAA0I5y3Bv97ne/m7ypTvu54IILkjODVpGjLKQqqp1ImHLJWUgTuPDCC5ND1TNMgHo0bDiIFVXocrTj+1jDhK5O9n7PaMkxnTRpUvJz9rwcC4oupfaq3C0AAAAAAADQjnLcG23JTABZXXTRRcmZQavIURZSFdVOROyyOV188cXJoeoZJkA9GjYcxIoqdDna8X2sYeRuu6NhvVcux4KiS6m9KncLAAAAAAAAtKMc90ZbMhNAVnK3LSxHWUhVVDsRscvm1LCgpwlQj4YNB7GiCl2Odnwfa5iGJUdbckwb1nvlciwoupTaq3K3AAAAAAAAQDvKcW+0JTMB7WnSpEkXZFH+WrnbFpajLKQqqp1IYgZSoO6UgoYFPRPv28L6xHAQK6rQ5WjH97FMurOyGpYcbdox7RO9Vy7HgqJLqb0qdwsAAAAAAAC0oxz3Rps2E0BWiWBEbYmD5W5bWI6ykKqodiKZpiuZZOrbxMENC3pmOsk+LdMn7a3hIFZUocvRju9jmXRnZTUsOdq0Y9oneq9cjgVFl1J7Ve4WAAAAAAAAaEc57o02bSaA+iV+tyy5O03iMLnbFpajLKQqqp1InROVTLpfChoW9Kzz9Pq0PjQcxIoqdDna8X2sTt1fWQ1LjjbhmPah3iuXY0HRpdRelbsFAAAAAAAA2lGOe6NNmAkgq/JIRL4UhdxtC8tRFlIV1U6kzolKJt0vBQ0LetZ5en1aHxoOYkUVuhzt+D5Wp+6vrIYlR5twTPtQ75XLsaDoUmqvyt0CAAAAAAAA7SjHvdEmzASQ1QWdJkyYED1I7k6TOEzutoXlKAupimonUudEJZPul4KGBT3rPL0+rQ8NB7GiCl2Odnwfq1P3V1bDkqNNOKZ9qPfK5VhQdCm1V+VuAQAAAAAAgHaU495oE2YCyKfO/EQkcbDcbQvLURZSFdVOJNN0JZNMfZs4uGFBz0wn2adl+qS9NRzEiip0OdrxfSyT7qyshiVHm3ZM+0TvlcuxoOhSaq/K3QIAAAAAAADtKMe90abNBFC/SZMmdf5s2V8ld6dJHCZ328JylIVURbUTqXOikkn3S0HDgp51nl6f1oeGg1hRhS5HO76P1an7K6thydEmHNM+1HvlciwoupTaq3K3AAAAAAAAQDvKcW+0CTMBZFUeiciXopC7bWE5ykKqotqJ1DlRyaT7paBhQc86T69P60PDQayoQpejHd/H6tT9ldWw5GgTjmkf6r1yORYUXUrtVblbAAAAAAAAoB3luDfahJkAsrqg04QJE6IHyd1pEofJ3bawHGUhVVHtROqcqGTS/VLQsKBnnafXp/Wh4SBWVKHL0Y7vY3Xq/spqWHK0Cce0D/VeuRwLii6l9qrcLQAAAAAAANCOctwbbcJMAPnUmZ+IJA6Wu21hOcpCqqLaiWSarmSSqW8TBzcs6JnpJPu0TJ+0t4aDWFGFLkc7vo9l0p2V1bDkaNOOaZ/ovXI5FhRdSu1VuVsAAAAAAACgHeW4N9q0mQCy6vzlsgzKXyt328JylIVURbUTScxACpRc6l0pf23Dgp6J921hye7uSvlrGzYcxIoqdDna8X0sk+TK6Ur5axuWHG3aMU32TlfKX9uw3iuXY0HRpdRelbsFAAAAAAAA2lGOe6NNmwmgkeRuW1iOspCqqHYiiRwPTaJhQU8ToB4NGw5iRRW6HO34PtYwDUuOtuSYNqz3yuVYUHQptVflbgEAAAAAAIB2lOPeaEtmAshK7raF5SgLqYpqJyJ22ZwaFvQ0AerRsOEgVlShy9GO72MN07DkaEuOacN6r1yOBUWXUntV7hYAAAAAAABoRznujbZkJoCs5G5bWI6ykKqodiJil82pYUFPE6AeDRsOYkUVuhzt+D7WMA1LjrbkmDas98rlWFB0KbVX5W4BAAAAAACAdpTj3mhLZgLISu62heUoC6mKaicidtmcGhb0NAHq0bDhIFZUocvRju9jDdOw5GhLjmnDeq9cjgVFl1J7Ve4WAAAAAAAAaEc57o22ZCaArORuW1iOspCqqHYiYpfNqWFBTxOgHg0bDmJFFboc7fg+1jANS4625Jg2rPfK5VhQdCm1V+VuAQAAAAAAgHaU495oS2YCyErutoXlKAupimonInbZnBoW9DQB6tGw4SBWVKHL0Y7vYw3TsORoS45pw3qvXI4FRZdSe1XuFgAAAAAAAGhHOe6N5sgEPPfcc7M6/fKXv3z11VeTu5vP5MmTr7766uTWXMo/+29/+9vFixcnj8iowHPrDrnbFpajLKQqqp1I1thl4Uuv2TRJKWhY0DPfBHjxxRfLN7722mth49NPP12+sR5Tpky58sork1s/rRlGpGHDQayoQpejne58H4u99dZbpbLZm28aL1iw4M4777zmmmumT58e6m1yd9/XsORo7jGdN29evCWMadjy3nvvxXtndV4K33jjjcSriqqQtTWs98rlWFB0KbVX5W4BAAAAAACAdpTj3miOTMDhhx8+aNCgz3zmM8stt1x4u+222+75559PHtRMDjrooJNPPjm5NZf4s6+wwgoDBgwIPXD00Ue//PLLyePqVuC5dYfcbQvLURZSFdVOJGvssvCld9xxx02cODG5tXu602aTlIKGBT1zTIAw/fbcc8/yjUcddVTYOH78+PKN9Tj00EPDa5NbP23vvfc+/vjjk1sbq2HDQayoQpejnXzfx0I9HFbmvvvuK5XVkxzTOLSw+uqrr7LKKuHb3frrrx/az13WulMSe1TDkqP5xjTMnHCBi7fcc889YUuUqY0vhcOHDw8bd9ppp3h7gRWytob1XrkcC4oupfaq3C0AAAAAAADQjnLcG82XCdhhhx2ix7Nnz1577bX32GOPTx/Ssso/+zvvvHPrrbduvPHGoQdee+21Tx/Yx8jdtrAcZSFVUe1EcsQui116oWr93d/9XXJr9/REmw3WsKBnjgmw0UYbDRkyJA5bv/3228suu+wmm2ySI1Umd0s1RRW6HO108/tYqhzTeOTIkfvvv//ChQujp3PmzHnkkUc+fUi9mrYkNiw5mm9MV1xxxYEDBz755JPRlkTuNh7xxx9/fLXVVguDFW0vsELW1rDeK5djQdGl1F6VuwUAAAAAAADaUY57o/kyAeU5j9NPP32llVaKn06fPn2PPfYYPXr0/vvv/9BDD8XbH3vssUMOOWTzzTf/3Oc+d8QRR0QBgnPPPfe6664L57DNNttsu+22V111VXx8EJ6GN9pss80OO+yw2bNnx9vDq773ve9NnTp1zJgxY8eOjV+V+hbBpEmTomNuvvnmE088MW4nuPLKK88555zocbUzL1eZcQnvMmzYsH/4h3+It6S20+W5Be+///7EiRO33HLL7bff/uqrr7700kvDZyxV/7wFkrttYTnKQqqi2onkiF0WuPSmsQoUIwAAQBpJREFUTJmy+uqrjxw58sBOL7zwQlSLLrvsslCIjjzyyFJnZQsVI248rJFoPUZmzJjxxS9+cdNNN/3CF74QWiultVmjhcq3Ky8F1ZZ8tRJRoIYFPXNMgPHjx48bNy5+YeiBMKyHHnpoeaqs2lVj8eLFoYe32mqrqOvKc7fVhikRWEydXaUqE6woDRsOYkUVuhztdP/7WCyuJ3VO49iCBQvCaV977bXJHaXSLbfccsIJJ5RvmTZt2je/+c3oceVCqCyJpeonEBW9UBLDy8MiDUsyrNnJkydvvfXWO+2001133RUfWYiGJUfzjWlU6yZMmBBtqZa7DU499dQRI0aUv6p2hSxEw3qvXI4FRZdSe1XuFgAAAAAAAGhHOe6N5ssElN/1nzBhwoYbbhg9vuqqq5ZZZpmJEyfecccdZ5999tChQx999NFS5+9TrrLKKscee+xdd911yy23nHnmmU8//XTYPm7cuBEjRoQWZs6cGV41ePDg6667LmrqoosuCi+fPHly2LXXXnuttNJKr7/+erQrvGrNNdc86KCDbrzxxvPOO2/AgAHh7aq9Raksd/LUU0+F/olOqdQZYltjjTXCW5Sqn3lCasblwAMPHD16dPQ4tZ16zi0Ixy+//PJTp06dMWPGrrvuGnomSoalft7oJUWRu21hOcpCqqLaieSIXRa49GbNmrXFFlvsscceP+w0f/78sMpCNQjr8YYbbghHhmM222yz888/v/y94qTmtGnTQrH6xje+cfvtt3/ve987/fTTU9us0ULl25WXgmpLvlqJKFDDgp45JsD48eOvueaaTTfdNNoS5kMoXOWpshpXjTAxll122SlTpkyfPj28sLzrqg1T+Yikzq5S9UtbURo2HMSKKnQ52sn3fezzn//8giXefffdaHs8e+uZxgnrrLPO1ltv/R//8R+LFi0q3z5nzpyBAwc+8MAD0dOFCxeGyX/55ZeXqiyEypJY4wSikhg+zk033fS1r31t0KBBRx555NFHHx2ehmaHDRv2yiuvxGfSfQ1LjuYb01DTwszp379/6MNSzdztEUccsf7668evql0hi9Kw3iuXY0HRpdRelbsFAAAAAAAA2lGOe6P5MgHrrrvu+eef/+1vf3v//fcfMmTID37wg7D9vffeW3nllS+++OL4yC9/+csHH3xweDB79uxwYnPnzo13RcaNGxeaev/996Onp5122qhRo0qdTa2wwgpxFio8XWuttc4888z4VVtsscXixYujp+PHjz/++OOrvUXp07mTMWPGnHzyydHjW2+9dfDgwa+88kqNM09IDf99/etf/8xnPlOq3gP1nNs777yz7LLLTps2Ldr+9ttvr7TSSnHutvLzLmmgGHK3LSxHWUhVVDuRHLHLYpde4g+gh1W20UYbxausVD2OuXDhwhVXXDH+nexyiTartVBKe7tE7rZyydcoEQVqWNAzxwQI/RA+9fDhwx9++OFnn312qaWWevXVV+NUWY2rRhiysOvSSy+Nds2bN2+55ZarP3dbbXaVql/aitKw4SBWVKHL0U6+72P9yoS6EW2vzN3WmMYJ999//3rrrRdaGzZsWFhc8f+GCvbaa6944YQvfssss8z8+fNL1RdCeUmsfQKh6G299dbR41D61lhjjbFjx0ZPFy1aFEru9ddfHz0tRMOSo/nGNKpp++6770477VSqyN2OHj06bLn77ru/9a1vDRo06KyzzopfVaNCFqhhvVcux4KiS6m9KncLAAAAAAAAtKMc90bzZQI+85nP7L333uPHj1922WX32muvhQsXljr/ynB4969+9atnn332WWeddeaZZ+6yyy7RL2+99957m2yyydprr33aaafdfvvt0fGlzqTF0UcfHbd822239e/f/+23344yHKHBeNeRRx655557Ro/Dq8rDbccee+y+++5b7S1Knw60XXHFFauuumo4ODw+5JBDwq5SzTNPSA3/hXcMbZaqt1PPuf36178Ory3/rcTddtstzt1Wft74aSHkbltYjrKQqqh2Ijlil8UuvcrcbVhZ8dNS9Tjmo48+2q/sZ7PLZcrdJt4ukbutXPI1SkSBGhb0zDEBovRY+MgnnXRSGOWoDMapshpXjdBpYdeTTz4Z7wrTo/7cbbXZVap+aStKw4aDWFGFLkc7+b6PbbPNNs8t8bvf/S7aXpm7rTGNKy1evDic+eTJk0MtCq869dRTo+0zZ84cNmxYlLXdaaedjjnmmGh7tYVQXhJrn0Ci6I0ZMyb6HfFIOOzCCy+Mn3Zfw5Kj+cY0qmlPPPHEwIED77jjjkTudsiQIWussUbo7e233z58eYu+0HZZIQvUsN4rl2NB0aXUXpW7BQAAAAAAANpRjnuj+TIBcQDut7/97UorrXTGGWeExw888EB499NOO+3bZaZMmRId+dZbb11xxRX77LPP8OHD11133WeeeabUmbQ46aST/tpuqXTvvfeGFl577bVf/vKX4UF0TOSEE07Ycccdo8fhVeWBjOOPPz6Kz6a+RenTgbY333xz6aWXnj59+rx584YOHfqTn/yk1NWZl0sN/40fP37bbbct1Wyny3OLwnzPPfdc3Gz8w3LVPm+B5G5bWI6ykKqodiI5YpfFLr3K3G35KitVxDEPOOCAaD1G/TB79uz/f+gStXO3cQultLdL5G4rl3yNElGghgU9c0yAKD12zz33hIvOWmutdeONN5bKUmU1rhrRrjlz5sS79t1332q523iY4hGpMbtK1SdYIRo2HMSKKnQ52unm97Fylbnb2tO4hvAlbfDgwVG4c/HixWGSX3755WGe9+/f/8EHH4wPS10I5SWx9gkkit5222139tlnx08Ti7T7GpYczTemcVL2y1/+8lZbbZXI3aaOeJcVskAN671yORYUXUrtVblbAAAAAAAAoB3luDeaLxNQftf/sssuW3rppV944YXXX399wIABP/rRj8qOTfHWW2+NGjXqtNNOK3UmLYJ419SpU5dbbrnwYP78+f379//pT38a7xo7dmz8y7ipobT4aenTb1H6dKAtOOiggyZMmDBt2rSVV145+lW2Os+8VPHZgwcffHDgwIGTJ08u1ddOtXP7wx/+MGjQoB/+8IfR9kWLFv2v//W/5G7pvhxlIVVR7URyxC4LX3onnnhivLcyCBveLvofBZEtt9wyWo9vvPFGeK8bbrjh/x+6RKLNai2U0t6uy9xtjRJRoIYFPXNMgDg9tsEGG6yyyipREDBOldW4asybNy/smjlzZrxr5MiRcddVG6Z4ROqZXaWKCVaIhg0HsaIKXY52uv99LFaZu61zGlcKX5bC8gnTO3o6ceLE0aNHhwIVVsqnjluifCH8P/buPliq+jD8/4WLIk8FhCSjxohKEh3Ah9gGHSVE7QSq9TGIqPhQtYppjDZxkGlqR+JFAkZQU6oZ00ibaSyIrc9iaxFEID7BoCgWUbCKz8C9ba3VJN7f+XG+bpdzP8C9h73HD2dfrz+c3XPOnrv7+Xz2sDP7zqb6krj9J6C7rai+1r3wwgvdu3f/zne+0/7utmUbV8gaKmz0quV4Q7FDwVHV3QIAAAAAAAD1KMd3o/magOpv/d9777199tknTSvGjRs3aNCgyv8D+1NPPXXvvfcmN1atWvVP//RPmzdvbtnSXuy///6TJ09u2VJaNDY2pj86++KLLybbv/vd76aPHTNmzNChQ9PO4Pbbb+/SpcuCBQvSXcEobVt/oqVNd3v33Xd379592LBh1b9Mua1nnpG89iOOOGLFihXPPvvsI4888sMf/rBPnz7JaLz77rvpAcHztPO5XXDBBcmuf/3Xf02GYsKECT179tTdsvNyXBaCanWeVI7ssrZvveQtNnz48JdffvnNN99sbm5uG8JefvnlgwcPXrduXbL3lltuSa5UlVLzjDPOSE7161//umXL/8H6/Pnz0+2Zc27nDG3/3A6725ZtXyJqqLDQM8cCqNRj72+R3q6uyrbzr8app56arJ/XXnutZcvlrmvXrpWh29Y0Vc9IcHW1bPuftlopbDqoqNWFLsd5dv7zWEXb7rZl28u4WvKJLnlPJReZd955J7n75JNPHnzwwX/wB39QOeDVV19NPkH16NEjebNUNm7rjZC5JG7nCehuK6qvdYnkk2oy4B3qbrd1hayVwkavWo43FDsUHFXdLQAAAAAAAFCPcnw3mq8JyHzrP3PmzO7du69evfqtt94aP358t27d+vfv37Nnz+S/N910U3LA0qVLP//5z+++++777LNPcuQf//Efv/322y1bSovzzjvv0EMPHTBgQNeuXUeMGPHGG2+k51y7dm3yV5KNffv27dGjR/qrlqlglLatP9HSprvdtGnTXnvtlQzUE088Udm4rWeekbz2hi0aGxuT55w84eS1pz8qlgqep53P7c033zzrrLN69eqVPCp5gclhl19+ecs2Xm/lbk3obkssx2UhqFbnSeXILmv71lu5cuWRRx6ZXFuScz799NNtQ9iXX3556NChyQmTt+TJJ5980kknVUrNDRs2nHbaaV26dEmeSXLy0aNHp9sz59zOGdr+ufZ0t9u6RNRQYaFnjgUQrMeqq7Lt/Kvx0ksvDRs2bLfdduvXr18yvNVzsa1pqp6R4Opq2fY/bbVS2HRQUasLXY7z1OTzWCrY3W5rGVdLLqrf+ta3krdP8j5KL2XHHnvs888/X33MGWec0adPn+RslS3beiNkLonbeQK624rMte6VV17p3bt3Q0e622q6W7YjOKq6WwAAAAAAAKAe5fhuNEcTsEMbNmxYunTpqlWrNm3aVL199erVyfb169dXtlRKi+XLl69cubKyvSJ9SPtLprZ/okO29cw7KnieDj235IH77bffzJkzszs6h+62xHJcFoJqdZ5UR7PLdtr5t1615ubm5Lr04osvZndssW7duuS0aQu1Lds/w87opEtEYaFnJy2Alm3/q5HMxTPPPPPcc89ltqe72jNNwdXVshMLbIcKmw4qanWhy3Gezvg81ta2lnG19957L3lHPPnkk5X/KVS1ESNGXHzxxdmt7X4jtOcJdLbCytFi5rRghY1etRxvKHYoOKq6WwAAAAAAAKAe5fhu9LNtAtr+6GM9W7x48U9/+tNly5b927/929ixYwcMGPD6669nD+ocutsSy3FZCKrVeVKdl12WWAGXiMJCTwugPQqbDipqdaHLcZ7P9vNYezz//PM333xzt27dli9fnt23SymsHI1/TnMobPSq5XhDsUPBUdXdAgAAAAAAAPUox3ejn20TcOqpp15zzTXZrfXqySefPO644wYNGvTlL3/59NNPX7FiRfaITqO7LbEcl4WgWp0nJbvMoYBLRGGhpwXQHoVNBxW1utDlOM9n+3msPQ455JDBgwfPmjUru2NXU1g5Gv+c5lDY6FXL8YZih4KjqrsFAAAAAAAA6lGO70ZL2QTQUbrbEstxWQiq1XlSsss4FRZ6WgDtUdh0UFGrC12O8/g8VpjCytFSzmlho1ctxxuKHQqOqu4WAAAAAAAAqEc5vhstZRNAR+luSyzHZSGoVudJyS7jVFjoaQG0R2HTQUWtLnQ5zuPzWGEKK0dLOaeFjV61HG8odig4qrpbAAAAAAAAoB7l+G60lE0AHaW7LbEcl4WgWp0nJbuMU2GhpwXQHoVNBxW1utDlOI/PY4UprBwt5ZwWNnrVcryh2KHgqOpuAQAAAAAAgHqU47vRUjYBdJTutsRyXBaCanWelOwyToWFnhZAexQ2HVTU6kKX4zw+jxWmsHK0lHNa2OhVy/GGYoeCo6q7BQAAAAAAAOpRju9GS9kE0FG62xLLcVkIqtV5UrLLOBUWeloA7VHYdFBRqwtdjvP4PFaYwsrRUs5pYaNXLccbih0KjqruFgAAAAAAAKhHOb4bLWUTQEfpbkssx2UhqFbnScku41RY6GkBtEdh00FFrS50Oc7j81hhCitHSzmnhY1etRxvKHYoOKq6WwAAAAAAAKAe5fhutJRNAB2luy2xHJeFoFqdJyW7jFNhoacF0B6FTQcVtbrQ5TiPz2OFKawcLeWcFjZ61XK8odih4KjqbgEAAAAAAIB6lOO70VI2AXSU7rbEclwWgmp1npTsMk6FXQosgPbQ3RavVhe6HOfxeawwhZWjpZzTwkavWo43FDsUHFXdLQAAAAAAAFCPcnw3euutt65Zsyb7pTr1JFkAP/vZz7Irg7LIcVkIqtV5Uk1NTc3Nzdm1yGeqyEuBBbBDRU4HFbW60OU4j89jxUiuPFOnTs2Ofuco35wmLyd5UdnX2flyvKHYoeCo6m4BAAAAAACAepTju9GPPvpo4sSJJcsCaL9k6q+++upkGWRXBmWR47IQVKvzpBYuXDh37tzscuSzU/ClwALYvoKng4paXehynMfnsWLMmzfv8ccfz45+5yjZnCYvJHk5n8l1Kccbih0KjqruFgAAAAAAAKhH+b4b/fjjj2+99dbp1KXbbrstWQDZNUGJ5LsstFWr81TMmzcvuxz57BR/KbAAtqP46SBVqwtdvvP4PNbZpkyZMmfOnOy4d6YyzWnyQj6r61K+NxTbFxxV3S0AAAAAAABQj3w3CmTU6rJQq/MARKtWF7panQdo9YbqHMFR1d0CAAAAAAAA9ch3o0BGrS4LtToPQLRqdaGr1XmAVm+ozhEcVd0tAAAAAAAAUI98Nwpk1OqyUKvzAESrVhe6Wp0HaPWG6hzBUdXdAgAAAAAAAPXId6NARq0uC7U6D0C0anWhq9V5gFZvqM4RHFXdLQAAAAAAAFCPfDcKZNTqslCr8wBEq1YXulqdB2j1huocwVHV3QIAAAAAAAD1yHejQEatLgu1Og9AtGp1oavVeYBWb6jOERxV3S0AAAAAAABQj3w3CmTU6rJQq/MARKtWF7panQdo9YbqHMFR1d0CAAAAAAAA9ch3o0BGrS4LtToPQLRqdaGr1XmAVm+ozhEcVd0tAAAAAAAAUI98Nwpk1OqyUKvzAESrVhe6Wp0HaPWG6hzBUdXdAgAAAAAAAPXId6NARq0uC7U6D0C0anWhq9V5gFZvqM4RHFXdLQAAAAAAAFCPfDcKZNTqslCr8wBEq1YXulqdB2j1huocwVHV3QIAAAAAAAD1yHejQEatLgu1Og9AtGp1oavVeYBWb6jOERxV3S0AAAAAAABQjxYvXtzQ0PDoo49mdwD16qGHHkouC8uWLcvu6CCXF6D0XDAhQrV6Y1ItmNTqbgEAAAAAAIB6tH79+oaGhttuuy27A6hXY8eO7dGjx4cffpjd0UEuL0DpuWBChGr1xqRaMKnV3QIAAAAAAAB16vDDDz/ggAMefPDBx4D69vDDD5955pkNDQ0zZszIXilycXkBysoFEyJU8zcmFY+FklrdLQAAAAAAAFCnlixZ0rdv3waAhoY99thjxowZn3zySfZKkYvLC1BiLpgQodq+MakIJrW6WwAAAAAAAKB+/dd//dfjjz+e/kwUULeWLVtW8/9TZpcXoJRcMCFCnfHGJPVYKKnV3QIAAAAAAAAAAADAVoJJre4WAAAAAAAAAAAAALYSTGp1twAAAAAAAAAAAACwlWBSq7sFAAAAAAAAAAAAgK0Ek1rdLQAAAAAAAAAAAABsJZjU6m4BAAAAAAAAAAAAYCvBpFZ3CwAAAAAAAAAAAABbCSa1ulsAAAAAAAAAAAAA2EowqdXdAgAAAAAAAAAAAMBWgkmt7hYAAAAAAAAAAAAAthJManW3AAAAAAAAAAAAALCVYFKruwUAAAAAAAAAAACArQSTWt0tAAAAAAAAAAAAAGwlmNTqbgEAAAAAAAAAAABgK8GkVncLAAAAAAAAAAAAAFsJJrW6WwAAAAAAAAAAAADYSjCp1d0CAAAAAAAAAAAAwFaCSa3uFgAAAAAAAAAAAAC2EkxqdbcAAAAAAAAAAAAAsJVgUqu7BQAAAAAAAAAAAICtBJNa3S0AAAAAAAAAAAAAbCWY1OpuAQAAAAAAAAAA2DW89tprj7FdS5Ys+eijj7IDB3TcY6GkVncLAAAAAAAAAADALqCpqamxsbGBHenXr9+kSZM+/PDD7AgCHRFManW3AAAAAAAAAAAAxO7tt99ubGwcP358+quubMs999xz1llnJWN1/PHHZwcR6IjHQkmt7hYAAAAAAAAAAIDYPfHEEw0NDY8++mh2ByG/+MUvkuF66KGHsjuAdgsmtbpbAAAAAAAAAAAAYqdt65CPP/544MCB55xzTnYH0G7By47uFgAAAAAAAAAAgNi1bdvWrFnz9BbLly9fvXr15s2b/+/onTZp0qRzzjnnZz/7WXbHrmPChAm9e/f+4IMPsjuA9ml72WnV3QIAAAAAAAAAABC/tm3bqFGjGrb25S9/+ZZbbvnkk0/+72F5DRkyJDnh+eefn90RpR/96EfJEz7ppJOqNy5atCh5CXfeeWf1RqD92l52WnW3AAAAAAAAAAAAxK9t25Z2t926dRs+fPigQYO6du2a1rdnnnnmzqe3u1Z3e+mllybP9qtf/Wr1xmQQ9t1335NPPrl6I9B+bS87rbpbAAAAAAAAAAAA4te2bUu72wEDBqR3X3311aOOOipNb//hH/6hcthDDz307W9/+9BDDz3yyCMnTZq0cePGdPtVV1115pln/s3f/M2cOXNGjhz5ta997dprr/3444/TvW272/vvv/+000475JBDvv71r19++eXr1q1Lt//kJz9JzjN58uTKkemWH/3oR8nt73//++lfmT17dvIEvvGNb9x3333JX0mOP+KII0aPHr1o0aLKA7f1VFurnu0999xz3HHHDR8+PDnDb37zm2TX1VdffeCBBybPtk+fPmdusXDhwsqjdt99902bNlXOA7Rf28tOq+4WAAAAAAAAAACA+LVt2zLdbWLdunVpd3vCCSekW6ZOnZpu+epXv9q/f//kxle+8pXNmze3flrW7rXXXg1bfjQ3PezP/uzP0gdmutvrrrsuPWCPPfbo0qVLcqNfv36rVq1Kds2ZMyc9w1tvvZXc/d///d++ffsmW26++ebkbvJ3k9tf+MIX0ocnGhsbjzvuuMrdnj17vvnmm9t/qpXns/fee1cemJg2bVqy69BDD63emLjjjjvSRy1fvjy5e/vtt6d3gQ5pe9lp1d0CAAAAAAAAAAAQv7ZtW9vuNrHPPvskGwcPHpzcfvPNN3fbbbfkblNTU3J306ZNaf/6V3/1V62flqx77LHHs88++/HHH5911lkNW/LZN954o7I37W43bNiQhrlnnnnmb37zm1dffXXgwIHJ3RNPPDHZm2z54he/mNy9/vrrk7v33HNPcrt79+7pr9Wm3W2PHj2efPLJVatWVZrd5557bsmSJQ1b3HHHHdt/qpXnkzyN+fPnv/POOwcddFBy9+ijj052vf/+++edd17Dllf91hb/8z//kz4qkRx57LHHVu4C7df2stOquwUAAAAAAAAAACB+bdu2YHe75557JhsPPvjg5PZdd92Vhq2jR48+c4s0Zh05cmTrpyVr2s4mli1blh78wAMPVPam3e3cuXPTXYsXL04Pvuiii5K7vXr1Su9OmTIluXvAAQd88sknZ599dnJ77Nix6a60u638/m6/fv2Su+PHj0/vpjnv9ddfv/2n2vrp8/nWt76V3r3wwgvTv5jevfTSSxu2/FBuerfa5MmTGxsbN2zYkN0B7Ejby06r7hYAAAAAAAAAAID4tW3b2na3TzzxRFqvjhs3Lrn793//9+ndAw888KtVTj311NZPS9ZKILty5cr04Dlz5lT2pt1t5TzLly9PD/7e977XsOXXZ9O777333h577JFsuf/++/v06ZPceOSRR9JdaXebnieR1rQ/+MEP0ruNjY3J3euuu277T7V16+fT+mlou99++1Xf/Wqou12zZk2ya8aMGdkdwI60vey06m4BAAAAAAAAAACIX9u2rbq7ff/99+fNm/fFL34xrVcXLVqUbHzmmWfSu/fcc0/lUR9++OFrr73W+mnJ+qUvfemjjz5K7v71X/91enAa11Z3rk8//XS666c//Wly95NPPvn93//95G5yTOW0F1xwQbJl7733Tv677777/u53v0u3t7O73f5Tbd1Rd5t2wJW7GX+wRXYrsCNtLzutulsAAAAAAAAAAADi17ZtS7vbRFqvprp06TJt2rTKMccee2yysX///hMnTpw6deqFF144YMCAG264ofXTkjU5/rDDDjv77LO7d++e3P3617+ePjDTuY4YMSK5u8cee/zJn/zJyJEj07/1i1/84tO/07p8+fLKc7jmmmsq29vZ3bZu96m2tnk+me62Eg0nryV5epVaNzVjxoxk15o1a6o3AjvU9rLTqrsFAAAAAAAAAAAgfm3btkp326VLl549ex544IFnnXXWE0888X+PaW3dtGnT+PHjd9ttt8qRhx122L/8y7+0flqynnHGGSeeeGK69ytf+crq1avTB2Y61/fffz85shL4Dhgw4Kabbvr0j/w/Rx99dPonXn311crG9ne323mqrW2eT6a7/e///u8xY8b069cvfWzlVaQ2bNiQ/KHJkydXbwR2qO1lp1V3CwAAAAAAAAAAQPx2pm374IMPVq1a9dJLL/3nf/5nZWN1yfof//EfL7744u9+97vK3qCWlpaVK1f++7//+29/+9vsvtbWq6++Ojnh8ccfn93REcGnuvOOPfbYgw46KLsV2K7gZUd3CwAAAAAAAAAAQOxq3rZlfkF2Z/zjP/7jBRdc0LNnz+SElV+ojcrtt9+ePLfly5dndwDbFrzs6G4BAAAAAAAAAACIXc3btpEjR37hC1/43ve+l93RcZdeemny3D73uc/deOON2X1x2LRp0+67737VVVdldwDbFrzs6G4BAAAAAAAAAACIXcxt2+9+97vf/va32a2ROfnkk/fdd99PPvkkuwPYhuBlR3cLAAAAAAAAAABA7LRtO+nOO+9MBnDRokXZHcA2BC87ulsAAAAAAAAAAABip23bSR988EHv3r0nTJiQ3QFsQ/Cyo7sFAAAAAAAAAAAgdvfff39DQ8PMmTMfI68//MM/7Nu37wMPPJDdwWfkjTfeyC50YvJYKKnV3QIAAAAAAAAAABC7mTNnNkDpHHbYYU888UR2uROHYFKruwUAAAAAAAAAACB2DzzwQENDw0033bSQvB599NFkAP3ebTxmzZq1//779+3bt7m5ObviicBjoaRWdwsAAAAAAAAAAEDstG2U0oMPPpgsbD95G6fgZUd3CwAAAAAAAAAAQOy0bZSShR2z4OzobgEAAAAAAAAAAIidto1SsrBjFpwd3S0AAAAAAAAAAACx07ZRShZ2zIKzo7sFAAAAAAAAAAAgdto2SsnCjllwdnS3AAAAAAAAAAAAxE7bRilZ2DELzo7uFgAAAAAAAAAAgNhp2yglCztmwdnR3QIAAAAAAAAAABA7bRulZGHHLDg7ulsAAAAAAAAAAABip22jlCzsmAVnR3cLAAAAAAAAAABA7LRtlJKFHbPg7OhuAQAAAAAAAAAAiJ22jVKysGMWnB3dLQAAAAAAAAAAALHL0bZt3rx5+vTp119//ZT61tTU1KFx20l1O+zJS77hhhtaWlqyI7JdORY2hQnOju4WAAAAAAAAAACA2OVo22644YbXX3+9hZaWuXPn3nnnndkB6hz1POzJC58xY0Z2RLYrx8KmMMHZ0d0CAAAAAAAAAAAQuxxt25QpU7JdZB1ramrKDlDnqPNh//GPf5wdke3KsbApTHB2dLcAAAAAAAAAAADELkfbVucBaMa0adOyA9Q56nzYdbdlEpwd3S0AAAAAAAAAAACxy9G21XkAmqG7LYbutkyCs6O7BQAAAAAAAAAAIHY52rbyBaBNTU1TOqL6sbrb9tuZcdbdlklwdnS3AAAAAAAAAAAAxC5H25YJIkugQ68oc7Dutv069BJ0tyUWnB3dLQAAAAAAAAAAALHL0bZ1qJ6MXOYXWLO7Q3S3Oez8OOtuyyQ4O7pbAAAAAAAAAAAAYpejbWtnN7lLqH4t7Xxdutscdn6cdbdlEpwd3S0AAAAAAAAAAACxy9G2tbOb3CWkP796yimnpDeyu0N0tzns/DjrbsskODu6WwAAAAAAAAAAAGKXo21rZze5C+nQK9Ld5tahl6C7LbHg7OhuAQAAAAAAAAAAiF2Otq1D9WTkmpqa0l9gTWV3h+huc9j5cdbdlklwdnS3AAAAAAAAAAAAxC5H29bObnKXUP1a2vm6dLc57Pw4627LJDg7ulsAAAAAAAAAAABil6Nta2c3uUtIf371lFNOSW9kd4fobnPY+XHW3ZZJcHZ0twAAAAAAAAAAAMQuR9vWzm5yF9KhV6S7za1DL0F3W2LB2dHdAgAAAAAAAAAAELscbVuH6sldQvojrO1X/Vjdbftlx3FHqh+ruy2T4OzobgEAAAAAAAAAAIhdjrYtE0TWOd1tMXS3ZRKcHd0tAAAAAAAAAAAAscvRttV5AJqhuy2G7rZMgrOjuwUAAAAAAAAAACB2Odq2Og9AM3S3xdDdlklwdnS3AAAAAAAAAAAAxC5H21bnAWiG7rYYutsyCc6O7hYAAAAAAAAAAIDY5Wjb6jwAzdDdFkN3WybB2dHdAgAAAAAAAAAAELscbVudB6AZutti6G7LJDg7ulsAAAAAAAAAAABil6Nt62gA+vzzzz/zzDPVW958882FCxe+88471Rt3xrXXXnvHHXdktxYi2u42GfZkkN94443KlnTYN27cWHVUu0ydOvW2226rvpG6//77L7300rFjxz733HP/d3Tn0N2WSXB2dLcAAAAAAAAAAADELkfb1tEA9Oyzzz7mmGOqt8yfPz/5o08//XT1xp0xcuTIK6+8Mru1ENF2t8mwJ4N8/vnnV7akw75mzZqqowIuvvjiyZMnV2858cQT//RP/zS58e1vf/u73/1uunHJkiW77bbbxIkTZ86c+corr1Qf3xl0t2USnB3dLQAAAAAAAAAAALHL0bblCEB1tzsvx7D379+/sbGx8mPD7exuR40addlll1VvqXS31aZPnz5kyJDMxs6juy2T4OzobgEAAAAAAAAAAIhdjrYtRwC6w+527ty5o0aNGjZs2Kmnnvr444+nG6+55pqf//znN9544/Dhw88999x046xZs5KzDR06dNy4cStWrEg3Vne3a9euHT9+/OzZs9O7yfY5c+akt1u2ZLI333xz5e7Oi7m7Pf7445OROeWUU9Itme42OOYzZszYa6+9Bg8efPoWL730UktVd9vU1JSMf3Jj6tSpQ4YM6devX3LMZZdddtddd11yySXpGVK33HLLX/7lX1Zv2Um62zIJzo7uFgAAAAAAAAAAgNjlaNtyBKBHH330xioPPvhgdXc7a9asXr16TZ48+b777ps0aVKPHj2WLl3asqWm3XvvvU888cTZs2ffddddLVsi12Tv1KlT77777hNOOGHAgAHr169Pj0y722eeeWa//fabMGHC5s2b05MPHTr0uuuuS28nTj/99PPOO69yd+dF3t0mM9ulS5eFCxe2bN3dbmvMkyMPO+ywUaNG/f0WGzZsaKnqbis3Hn300bFjxw4aNCg5JpmLF198sbGxccGCBemffv/99z/3uc/NnDnz0+dSA7rbMgnOju4WAAAAAAAAAACA2OVo23IEoA0haXe7cePGgQMHTp8+vXL8OeecM2bMmJYtNe1BBx3U3Nycbk+O7NevXyWiTe7uu+++EydOTI+88sor58+fP2DAgKampk/P9P+r8+42uXHSSSd985vfbKnqbrcz5olRo0ZddtlllV0toe42ce211x522GGVY0444YTKwP7d3/1dr1690ma3VnS3ZRKcHd0tAAAAAAAAAAAAscvRtuUIQI844ogVVe64445Kd7ts2bLk9oUXXjhp0qSrr7564sSJxx133JAhQ1q21LQXXXRR5TzJA5Mjk+MrW84999zRo0enRx5++OG9e/eePXt2ZW9Kd/vUU081Njbed999le52O2Pekre7vfvuu3v27Jm2tt/85jcvuOCCyq6a0N2WSXB2dLcAAAAAAAAAAADELkfbliMAPeaYY6q3pAFo2t0uWLAguX3FFVdcW2XGjBktn/6KbeVRS5YsSY5cuXJlZcsll1wyYsSI9MijjjqqZ8+e06ZNq+xNZbrb0047rd6625YtP2f7ta99rdLdbmfMW/J2t83NzYMGDZo5c2YyQV26dFm0aFFlV03obsskODu6WwAAAAAAAAAAAGKXo23LEYBup7tdv359165df/nLX1YfkMp0txs2bOjSpcuvfvWrypajjz76/PPPrxz58MMP9+nTZ/LkyZUDEsmfvuqqqyp3Dz/88Drsbl944YXu3bt/5zvfSbvb7Yx5y5a49tJLL81s2WF3m0hGftiwYclEJINcvb0mdLdlEpwd3S0AAAAAAAAAAACxy9G25QhAt9PdJsaNGzdo0KClS5emd5966ql77723pU13mxgzZszQoUPXrFmT3L799tu7dOmyYMGC6iOTu/369Zs0aVLlIZdffvngwYPXrVvX3Nx8yy23NDY21mF3m7jsssu6d++edrct2x7zxIQJE4YPH/7yyy+/+eabyaC1tLu7ffXVV5M/0aNHj2Scq7fXhO62TIKzo7sFAAAAAAAAAAAgdjnathwB6Pa727feemv8+PHdunXr379/z549k//edNNNLaHudu3atcmpunbt2rdv3x49ekydOjXdXn3kkiVLBg4ceMUVV6R3X3755aFDhyYn79Wr18knn3zSSSfVZ3f7yiuv9O7du9LdbmvMEytXrjzyyCOT4a3MUTu728QZZ5zRp0+f5OSZ7TtPd1smwdnR3QIAAAAAAAAAABC7HG1bRwPQdtqwYcPSpUtXrVq1adOm7L6trV69Ojny7bffzu7Yhubm5pUrV7744ovZHbUQbXfbHu0f83YaMWLExRdfnN1aC7rbMgnOju4WAAAAAAAAAACA2OVo2zojAN117dLdbQ09//zzN998c7du3ZYvX57dVwu62zIJzo7uFgAAAAAAAAAAgNjlaNsiD0ALprtNHXLIIYMHD541a1Z2R43obsskODu6WwAAAAAAAAAAAGKXo22LPAAtmO62GLrbMgnOju4WAAAAAAAAAACA2OVo2+o8AM3Q3RZDd1smwdnR3QIAAAAAAAAAABC7HG1bnQegGbrbYuhuyyQ4O7pbAAAAAAAAAAAAYpejbavzADRDd1sM3W2ZBGdHdwsAAAAAAAAAAEDscrRtdR6AZuhui6G7LZPg7OhuAQAAAAAAAAAAiF2Otq3OA9AM3W0xdLdlEpwd3S0AAAAAAAAAAACxy9G21XkAmqG7LYbutkyCs6O7BQAAAAAAAAAAIHY52rY6D0AzOtqD5lbnw97Rcc6xsClMcHZ0twAAAAAAAAAAAMQuR9vW1NTU3Nyc7SLr0po1a2677bbsAHWOeh725IVPnTo1OyLblWNhU5jg7OhuAQAAAAAAAAAAiF2Otm3hwoVz587NppH1Z82aNRMnTvzoo4+yA9Q56nnY582bt3jx4uyIbFeOhU1hgrOjuwUAAAAAAAAAACB2+dq2efPmTa97t95668cff5wdms5Un8M+ZcqUOXPmZMdiR/ItbIoRnB3dLQAAAAAAAAAAALHTtlFKFnbMgrOjuwUAAAAAAAAAACB22jZKycKOWXB2dLcAAAAAAAAAAADETttGKVnYMQvOju4WAAAAAAAAAACA2GnbKCULO2bB2dHdAgAAAAAAAAAAEDttG6VkYccsODu6WwAAAAAAAAAAAGKnbaOULOyYBWdHdwsAAAAAAAAAAEDstG2UkoUds+Ds6G4BAAAAAAAAAACInbaNUrKwYxacHd0tAAAAAAAAAAAAsdO2UUoWdsyCs6O7BQAAAAAAAAAAIHbaNkrJwo5ZcHZ0twAAAAAAAAAAAMRO20YpWdgxC86O7hYAAAAAAAAAAIDYadsoJQs7ZsHZ0d0CAAAAAAAAAAAQO20bpWRhxyw4O7pbAAAAAAAAAAAAYqdto5Qs7JgFZ0d3CwAAAAAAAAAAQOy0bZSShR2z4OzobgEAAAAAAAAAAIidto1SsrBjFpwd3S0AAAAAAAAAAACx07ZRShZ2zIKzo7sFAAAAAAAAAAAgdto2SsnCjllwdnS3AAAAAAAAAAAAxE7bRilZ2DELzo7uFgAAAAAAAAAAgNhp2yglCztmwdnR3QIAAAAAAAAAABA7bRulZGHHLDg7ulsAAAAAAAAAAABip22jlCzsmAVnR3cLAAAAAAAAAABA7LRtlJKFHbPg7OhuAQAAAAAAAAAAiJ22jVKysGMWnB3dLQAAAAAAAAAAALHTtlFKFnbMgrOjuwUAAAAAAAAAACB22jZKycKOWXB2dLcAAAAAAAAAAADETttGKVnYMQvOju4WAAAAAAAAAACA2GnbKCULO2bB2dHdAgAAAAAAAAAAEDttG6VkYccsODu6WwAAAAAAAAAAAGKnbaOULOyYBWdHdwsAAAAAAAAAAEDstG2UkoUds+Ds6G4BAAAAAAAAAACInbaNUrKwYxacHd0tAAAAAAAAAAAAsdO2UUoWdsyCs6O7BQAAAAAAAAAAIHbaNkrJwo5ZcHZ0twAAAAAAAAAAAMRO20YpWdgxC86O7hYAAAAAAAAAAIDYadsoJQs7ZsHZ0d0CAAAAAAAAAAAQO20bpWRhxyw4O7pbAAAAAAAAAAAAYqdto5Qs7JgFZ0d3CwAAAAAAAAAAQOy0bZSShR2z4OzobgEAAAAAAAAAAIidto1SsrBjFpwd3S0AAAAAAAAAAACx07ZRShZ2zIKzo7sFAAAAAAAAAAAgdto2SsnCjllwdnS3AAAAAAAAAAAAxE7bRilZ2DELzo7uFgAAAAAAAAAAgNhp2yglCztmwdnR3QIAAAAAAAAAABA7bRulZGHHLDg7ulsAAAAAAAAAAABip22jlCzsmAVnR3cLAAAAAAAAAABA7LRtlJKFHbPg7OhuAQAAAAAAAAAAiJ22jVKysGMWnB3dLQAAAAAAAAAAALHTtlFKFnbMgrOjuwUAAAAAAAAAACB22jZKycKOWXB2dLcAAAAAAAAAAADETttGKVnYMQvOju4WAAAAAAAAAACA2GnbKCULO2bB2dHdAgAAAAAAAAAAEDttG6VkYccsODu6WwAAAAAAAAAAAGKnbaOULOyYBWdHdwsAAAAAAAAAAEDstG2UkoUds+Ds6G4BAAAAAAAAAACInbaNUrKwYxacHd0tAAAAAAAAAAAAsdO2UUoWdsyCs6O7BQAAAAAAAAAAIHbaNkrJwo5ZcHZ0twAAAAAAAAAAAMRO20YpWdgxC86O7hYAAAAAAAAAAIDY5WjbNm/ePH369Ouvv35KHUte/k9+8pOWlpbs6BCHHAubwgRnR3cLAAAAAAAAAABA7HK0bTfccMPrr7/eUveSQZgxY0Z2dIhDjoVNYYKzo7sFAAAAAAAAAAAgdjnatilTpmQT1Hr14x//ODs6xCHHwqYwwdnR3QIAAAAAAAAAABC7HG2b7rZCdxutHAubwgRnR3cLAAAAAAAAAABA7HK0bbrbCt1ttHIsbAoTnB3dLQAAAAAAAAAAALHL0baVrLttamqa0hHVj9XdRivHwqYwwdnR3QIAAAAAAAAAABC7HG1bpj3d1XXo5ehudxU5FjaFCc6O7hYAAAAAAAAAAIDY5WjbOhSqxizzS7fZ3SG6211FjoVNYYKzo7sFAAAAAAAAAAAgdjnatnYmqvGrfiHtfFG6211FjoVNYYKzo7sFAAAAAAAAAAAgdjnatnYmqvFLf+b2lFNO8Xu35ZNjYVOY4OzobgEAAAAAAAAAAIhdjratnYnqrqJDL0d3u6vIsbApTHB2dLcAAAAAAAAAAADELkfb1qFQNWZNTU3pL936vdvyybGwKUxwdnS3AAAAAAAAAAAAxC5H29bORDV+1S+knS9Kd7uryLGwKUxwdnS3AAAAAAAAAAAAxC5H29bORDV+6c/cnnLKKX7vtnxyLGwKE5wd3S0AAAAAAAAAAACxy9G2tTNR3VV06OXobncVORY2hQnOju4WAAAAAAAAAACA2OVo2zoUqsYv/bHb9qt+rO42WjkWNoUJzo7uFgAAAAAAAAAAgNjlaNsy7Wk9091GK8fCpjDB2dHdAgAAAAAAAAAAELscbZvutkJ3G60cC5vCBGdHdwsAAAAAAAAAAEDscrRtutsK3W20cixsChOcHd0tAAAAAAAAAAAAscvRtuluK3S30cqxsClMcHZ0twAAAAAAAAAAAMQuR9umu63Q3UYrx8KmMMHZ0d0CAAAAAAAAAAAQuxxtm+62QncbrRwLm8IEZ0d3CwAAAAAAAAAAQOxytG0d7W6ff/75hVssWbLkhRdeaG5uzh7RQddee+0dd9yR3fpZ0N1GK8fCpjDB2dHdAgAAAAAAAAAAELscbVtHu9uzzz67W7due+65Z79+/bp27fp7v/d7559//tq1a7PHtdvIkSOvvPLK7NbPgu42WjkWNoUJzo7uFgAAAAAAAAAAgNjlaNtydLfHHHNMevvdd9/953/+54MPPvhLX/rSunXrtj6wvXS37FCOhU1hgrOjuwUAAAAAAAAAACB2Odq2neluU2vWrOnZs+ef//mfV7bMmjUrOWbo0KHjxo1bsWJFZfu8efP+6I/+aMiQId/4xjdmzJiRbqzubteuXTt+/PjZs2end+fOnTtq1Khhw4adeuqpjz/+eLoxcc011/z85z+/8cYbhw8ffu6551a27yTdbbRyLGwKE5wd3S0AAAAAAAAAAACxy9G27Xx3mzj99NOHDRuW3p42bVqPHj2mTp169913n3DCCQMGDFi/fn2y/ZZbbtltt91+8IMf3HvvvX/7t39baW0r3e0zzzyz3377TZgwYfPmzS1b4t1evXpNnjz5vvvumzRpUnLOpUuXVh6y9957n3jiibNnz77rrrvSjTtPdxutHAubwgRnR3cLAAAAAAAAAABA7HK0bTXpbr///e/vueeeyY2NGzf269fvuuuuS7cnd/fdd9+JEye+//77/fv3/4u/+IutHrZF2t3Onz9/wIABTU1N6cbkgQMHDpw+fXrlsHPOOWfMmDGVhxx00EHNzc2VvTWhu41WjoVNYYKzo7sFAAAAAAAAAAAgdjnatpp0t1dcccXnP//55MaKFSuSJ7Bs2bLKrnPPPXf06NFLly5Ntld+sLbayJEjDz/88N69e8+ePbuyMTlDcvyFF144adKkq6++euLEiccdd9yQIUMqD7nooosqB9eK7jZaORY2hQnOju4WAAAAAAAAAACA2OVo22rS3R5//PHDhw9PbixZsiR5AitXrqzsuuSSS0aMGJE+sRUrVlS2V4wcOfKoo47q2bPntGnTKhsXLFiQHH/FFVdcW2XGjBmVh1x55ZWVg2tFdxutHAubwgRnR3cLAAAAAAAAAABA7HK0bTvf3S5atKixsXHq1KnJ7Q0bNnTp0uVXv/pVZe/RRx99/vnnv/baa127dq3+RduKNKJ9+OGH+/TpM3ny5HTj+vXrk+N/+ctfbn3s/6O7rTc5FjaFCc6O7hYAAAAAAAAAAIDY5WjbcnS3RxxxxIoVK5599tlHHnnkhz/8YZ8+fY455ph33303PWDMmDFDhw5ds2ZNcvv222/v0qXLggULkttnnHHG/vvv/+tf/zq5vXHjxvnz56fHVyLa5LB+/fpNmjQp3T5u3LhBgwYtXbo0vfvUU0/de++9mYfUlu42WjkWNoUJzo7uFgAAAAAAAAAAgNjlaNtydLcNWzQ2Ng4YMGDEiBEzZ87cuHFj5YC1a9cec8wxXbt27du3b48ePdLfwW3Z8lO4p512WpcuXZJH7b777qNHj063V0e0S5YsGThw4BVXXJHcfuutt8aPH9+tW7f+/fv37Nkz+e9NN93U9iE1pLuNVo6FTWGCs6O7BQAAAAAAAAAAIHY52raOdrfttHr16qVLl7799tuZ7evWrUu2p7+G2x4bNmxIjl+1atWmTZuy+2pNdxutHAubwgRnR3cLAAAAAAAAAABA7HK0bZ3U3e6KdLfRyrGwKUxwdnS3AAAAAAAAAAAAxC5H26a7rdDdRivHwqYwwdnR3QIAAAAAAAAAABC7HG2b7rZCdxutHAubwgRnR3cLAAAAAAAAAABA7HK0bbrbCt1ttHIsbAoTnB3dLQAAAAAAAAAAALHL0bbpbit0t9HKsbApTHB2dLcAAAAAAAAAAADELkfbprut0N1GK8fCpjDB2dHdAgAAAAAAAAAAELscbZvutkJ3G60cC5vCBGdHdwsAAAAAAAAAAEDscrRtutsK3W20cixsChOcHd0tAAAAAAAAAAAAscvRtuluK3S30cqxsClMcHZ0twAAAAAAAAAAAMQuR9umu63Q3UYrx8KmMMHZ0d0CAAAAAAAAAAAQuxxtW1NTU3NzczZBrT/JIOhuo5VjYVOY4OzobgEAAAAAAAAAAIhdjrZt4cKFc+fOzVao9WfevHmLFy/Ojg5xyLGwKUxwdnS3AAAAAAAAAAAAxC5f2zZv3rzp9W3KlClz5szJjgvRyLewKUZwdnS3AAAAAAAAAAAAxE7bRilZ2DELzo7uFgAAAAAAAAAAgNhp2yglCztmwdnR3QIAAAAAAAAAABA7bRulZGHHLDg7ulsAAAAAAAAAAABip22jlCzsmAVnR3cLAAAAAAAAAABA7LRtlJKFHbPg7OhuAQAAAAAAAAAAiJ22jVKysGMWnB3dLQAAAAAAAAAAALHTtlFKFnbMgrOjuwUAAAAAAAAAACB22jZKycKOWXB2dLcAAAAAAAAAAADETttGKVnYMQvOju4WAAAAAAAAAACA2GnbKCULO2bB2dHdAgAAAAAAAAAAEDttG6VkYccsODu6WwAAAAAAAAAAAGKnbaOULOyYBWdHdwsAAAAAAAAAAEDsFi9e3NDQ8Oijj2Z3wK7soYceShb2smXLsjuIQDCp1d0CAAAAAAAAAAAQu/Xr1zc0NNx2223ZHbArGzt2bI8ePT788MPsDiIQTGp1twAAAAAAAAAAAOwCDj/88AMOOODBBx98DHZ9Dz/88JlnntnQ0DBjxozsWicOj/1/7dyxjcJAEIZRhyZyD3RAM9CVYxoBEqSTjKxtgx4cbGYdukuY1Uikx/Fe+GvDCT9tltTqbgEAAAAAAAAAAHgD8zwPw9DBf9H3/TiO67q2t87fkCa1ulsAAAAAAAAAAADew7Is0zT9fhcKb62UUmttT5y/5CtLanW3AAAAAAAAAAAAABCkSa3uFgAAAAAAAAAAAACCNKnV3QIAAAAAAAAAAABAkCa1ulsAAAAAAAAAAAAACNKkVncLAAAAAAAAAAAAAEGa1OpuAQAAAAAAAAAAACBIk1rdLQAAAAAAAAAAAAAEaVKruwUAAAAAAAAAAACAIE1qdbcAAAAAAAAAAAAAEKRJre4WAAAAAAAAAAAAAII0qdXdAgAAAAAAAAAAAECQJrW6WwAAAAAAAAAAAAAI0qRWdwsAAAAAAAAAAAAAQZrU6m4BAAAAAAAAAAAAIEiTWt0tAAAAAAAAAAAAAARpUqu7BQAAAAAAAAAAAIAgTWp1twAAAAAAAAAAAAAQpEmt7hYAAAAAAAAAAAAAgjSp1d0CAAAAAAAAAAAAQJAmtW13e7vdHo+u12uzAwAAAAAAAAAAAMCHOJ/PXdeVUp7Htru93++PR8fjsdkBAAAAAAAAAAAA4EPs9/vNZlNrfR7b7vZht9ttt9vT6fQFAAAAAAAAAAAAAJ/kcrkcDoeu68ZxbCLbpLud53kYhg4AAAAAAAAAAAAAPk/f9+M4ruvaRLZJd/uwLMs0TW2+CwAAAAAAAAAAAAD/Wiml1trGtT/y7hYAAAAAAAAAAAAAeKa7BQAAAAAAAAAAAIDXdLcAAAAAAAAAAAAA8JruFgAAAAAAAAAAAABe+wa+LwIZjRAVogAAAABJRU5ErkJggg==;" vertex="1" parent="1">
          <mxGeometry x="1121" y="-780" width="3709" height="736" as="geometry" />
        </mxCell>
      </root>
    </mxGraphModel>
  </diagram>
</mxfile>
